<svg id="svg39" xmlns="http://www.w3.org/2000/svg" width="150" height="150" viewBox="0 0 150 150"><path id="path27" d="M14.21,150A14.21,14.21,0,0,1,0,135.79V14.21A14.21,14.21,0,0,1,14.21,0H135.79A14.21,14.21,0,0,1,150,14.21V135.79A14.21,14.21,0,0,1,135.79,150Z" style="fill:#004386"/><circle id="circle29" cx="74.95" cy="75.05" r="61.64" style="fill:#fff"/><g id="レイヤー_2" data-name="レイヤー 2"><g id="レイヤー_1-2" data-name="レイヤー 1-2"><polygon points="61.99 71.52 65.51 71.52 67.25 66.67 63.74 66.67 61.99 71.52" style="fill:#f7723e"/><polygon points="78.89 74.43 82.44 74.43 84.18 69.57 80.64 69.57 78.89 74.43" style="fill:#f7723e"/><path d="M83.67,51.05A11.6,11.6,0,1,0,72.28,64.79,11.41,11.41,0,0,0,76.37,64a7.91,7.91,0,1,0,7.3-13ZM77.56,60a5.17,5.17,0,0,1-.11-1,4.93,4.93,0,0,1,3.34-4.69,8.56,8.56,0,0,1-3.23,5.72Zm-5.28,1.84a8.62,8.62,0,1,1,8.34-10.63A8,8,0,0,0,74.5,58.9a7.86,7.86,0,0,0,.39,2.46,8.24,8.24,0,0,1-2.61.42Zm10.14,2.1a5,5,0,0,1-3.35-1.31,11.62,11.62,0,0,0,4.76-8.44,4.94,4.94,0,0,1-1.41,9.75Z" style="fill:#f7723e"/><rect x="41.62" y="89.68" width="3.58" height="1.32" style="fill:#111"/><path d="M41.4,96.26h1.48V96h1v.24h1.48v-4.4h-4Zm1.48-3.07h1v1.5h-1Z" style="fill:#111"/><polygon points="53.31 85.06 53.31 83.71 51.86 83.71 51.86 83.2 50.2 83.2 50.2 83.71 48.94 83.71 48.94 83.2 47.3 83.2 47.3 83.71 45.89 83.71 45.89 85.07 53.27 85.06 53.31 85.06" style="fill:#111"/><rect x="41.62" y="87.59" width="3.58" height="1.32" style="fill:#111"/><rect x="41.62" y="83.2" width="3.58" height="1.32" style="fill:#111"/><polygon points="75.51 85.96 75.07 83.68 73.83 83.68 74.28 85.96 75.51 85.96" style="fill:#111"/><path d="M36.67,88H34.84v1.55H32.5V88H30.75v1.55H27.56v1.64h3.13v.23a3.84,3.84,0,0,1-2.14,3h-.06l.36,1.85h0a5.8,5.8,0,0,0,3.59-4.94v-.2h2.4v5h1.83v-5H39.9V89.59H36.67Z" style="fill:#111"/><polygon points="36.73 87.04 37.07 87.61 39.23 87.61 37.24 84.28 35.17 84.43 35.83 85.54 31.93 85.96 34.06 83.22 31.81 83.22 29.38 86.23 28.26 86.35 28.57 87.92 36.73 87.04" style="fill:#111"/><rect x="41.02" y="85.3" width="4.66" height="1.53" style="fill:#111"/><polygon points="91.89 83.68 89.87 83.68 89.87 96.01 91.89 96.01 91.89 90.03 96.66 92.43 96.7 92.45 97.1 90.47 91.89 87.94 91.89 83.68" style="fill:#111"/><polygon points="83.97 91.08 83.25 87.41 81.48 87.41 82.2 91.08 83.97 91.08" style="fill:#111"/><path d="M86.12,87.45c-.52,2.59-1,5-4.26,6.79h-.07l.38,1.9.81-.38c2.66-1.56,4-3.76,5-8.14v-.23H86.13Z" style="fill:#111"/><polygon points="98.06 86.2 105.94 86.19 105.94 93.23 98.06 93.23 98.06 95.21 105.94 95.21 105.94 95.81 107.94 95.81 107.94 84.23 98.06 84.23 98.06 86.2" style="fill:#111"/><polygon points="119.44 89.06 119.44 89.04 117.36 89.04 118.92 92.67 112.99 93.34 116.56 84.03 116.57 83.98 114.28 83.98 110.63 93.59 109.56 93.7 109.94 95.64 119.77 94.54 120.25 95.73 122.44 95.73 119.44 89.06" style="fill:#111"/><polygon points="78.46 87.41 79.18 91.08 80.95 91.08 80.23 87.41 78.46 87.41" style="fill:#111"/><path d="M51.48,94.68a9.7,9.7,0,0,0,1.78-1.84h0V91.78H50.92V91h1.77V90H50.92V89.2h1.77V88.11H50.92v-.8H53.1V86.08H51.28l.29-.55L50,85.27l-.37.81H48.52l.32-.51h0l-1.3-.35h0c-.44.7-2,2.55-2,2.55L46.23,89l.37-.38V93h4.86a7.46,7.46,0,0,1-1.58,1.1,4.75,4.75,0,0,1-1-.6H47l0,.06a8.75,8.75,0,0,0,1.32,1,16.76,16.76,0,0,1-2.35.29H46l.3,1.47h0a15.9,15.9,0,0,0,3.6-.81,11.45,11.45,0,0,0,3.37.81h0L53.51,95h-.09A12.89,12.89,0,0,1,51.48,94.68Zm-2.08-2.9H48.05V91H49.4Zm0-1.86H48.05v-.76H49.4Zm0-1.81H48.05v-.8H49.4Z" style="fill:#111"/><polygon points="72.05 83.68 70.03 83.68 70.03 96.01 72.05 96.01 72.05 90.03 76.62 92.34 76.66 92.36 77.06 90.38 72.05 87.94 72.05 83.68" style="fill:#111"/><polygon points="61.95 83.37 59.96 83.37 59.96 87.81 54.78 87.81 54.78 89.56 59.96 89.56 59.96 94.27 55.59 94.27 55.59 96.02 66.39 96.02 66.39 94.27 61.95 94.27 61.95 89.56 67.2 89.56 67.2 87.81 61.95 87.81 61.95 83.37" style="fill:#111"/><polygon points="75.92 83.68 76.36 85.96 77.6 85.96 77.16 83.68 75.92 83.68" style="fill:#111"/></g></g></svg>