<?xml version="1.0" encoding="UTF-8" standalone="no"?>
<!DOCTYPE svg PUBLIC "-//W3C//DTD SVG 1.1//EN" "http://www.w3.org/Graphics/SVG/1.1/DTD/svg11.dtd">
<svg width="100%" height="100%" viewBox="0 0 176 176" version="1.1" xmlns="http://www.w3.org/2000/svg" xmlns:xlink="http://www.w3.org/1999/xlink" xml:space="preserve" xmlns:serif="http://www.serif.com/" style="fill-rule:evenodd;clip-rule:evenodd;stroke-linejoin:round;stroke-miterlimit:2;">
    <path d="M16.672,176C7.464,176 0,168.536 0,159.328L0,16.672C0,7.464 7.464,0 16.672,0L159.328,0C168.536,0 176,7.464 176,16.672L176,159.328C176,168.536 168.536,176 159.328,176L16.672,176Z" style="fill:rgb(0,67,134);fill-rule:nonzero;"/>
    <g transform="matrix(2.02507,0,0,2.02507,-42.7098,-40.5069)">
        <circle cx="64.518" cy="63.486" r="35.716" style="fill:white;"/>
    </g>
    <g transform="matrix(1,0,0,1,-0.813039,9.24927)">
        <g transform="matrix(144,0,0,144,51.589,131.151)">
            <path d="M0.255,0.009C0.212,0.009 0.172,0.003 0.138,-0.01C0.102,-0.023 0.075,-0.039 0.055,-0.058C0.034,-0.077 0.024,-0.096 0.024,-0.115C0.024,-0.124 0.027,-0.135 0.032,-0.146C0.037,-0.157 0.043,-0.166 0.052,-0.173C0.061,-0.181 0.07,-0.185 0.081,-0.185C0.092,-0.185 0.102,-0.181 0.111,-0.173C0.12,-0.166 0.131,-0.157 0.143,-0.147C0.155,-0.136 0.17,-0.127 0.187,-0.119C0.204,-0.112 0.226,-0.108 0.251,-0.108C0.271,-0.108 0.29,-0.111 0.307,-0.117C0.324,-0.124 0.337,-0.133 0.347,-0.146C0.358,-0.159 0.363,-0.175 0.363,-0.195C0.363,-0.216 0.357,-0.234 0.346,-0.249C0.335,-0.264 0.319,-0.276 0.3,-0.287C0.281,-0.298 0.26,-0.308 0.237,-0.318C0.214,-0.328 0.192,-0.339 0.169,-0.35C0.146,-0.361 0.125,-0.375 0.106,-0.391C0.086,-0.407 0.071,-0.427 0.059,-0.45C0.048,-0.473 0.042,-0.502 0.042,-0.536C0.042,-0.573 0.049,-0.605 0.064,-0.63C0.078,-0.655 0.097,-0.676 0.121,-0.692C0.144,-0.707 0.17,-0.719 0.199,-0.726C0.228,-0.733 0.256,-0.736 0.285,-0.736C0.3,-0.736 0.319,-0.735 0.34,-0.733C0.361,-0.73 0.382,-0.726 0.403,-0.72C0.424,-0.714 0.441,-0.706 0.455,-0.696C0.468,-0.685 0.475,-0.672 0.475,-0.656C0.475,-0.648 0.473,-0.639 0.469,-0.628C0.466,-0.617 0.46,-0.608 0.453,-0.6C0.445,-0.591 0.435,-0.587 0.423,-0.587C0.412,-0.587 0.402,-0.59 0.392,-0.597C0.381,-0.603 0.368,-0.609 0.352,-0.616C0.335,-0.622 0.313,-0.625 0.285,-0.625C0.262,-0.625 0.241,-0.622 0.224,-0.616C0.207,-0.609 0.194,-0.601 0.185,-0.59C0.176,-0.579 0.172,-0.565 0.172,-0.548C0.172,-0.531 0.178,-0.516 0.19,-0.504C0.201,-0.492 0.217,-0.481 0.235,-0.472C0.255,-0.463 0.275,-0.453 0.298,-0.444C0.321,-0.435 0.344,-0.424 0.367,-0.411C0.39,-0.399 0.411,-0.384 0.43,-0.367C0.449,-0.35 0.465,-0.328 0.476,-0.303C0.487,-0.277 0.493,-0.245 0.493,-0.208C0.493,-0.161 0.483,-0.121 0.462,-0.089C0.441,-0.056 0.413,-0.032 0.378,-0.016C0.342,0.001 0.301,0.009 0.255,0.009Z" style="fill:rgb(14,67,135);fill-rule:nonzero;"/>
        </g>
    </g>
</svg>
