<?xml version="1.0" encoding="UTF-8" standalone="no"?>
<svg
   width="100%"
   height="100%"
   viewBox="0 0 176 176"
   version="1.1"
   xml:space="preserve"
   style="fill-rule:evenodd;clip-rule:evenodd;stroke-linecap:round;stroke-linejoin:round;stroke-miterlimit:1.5;"
   id="svg107"
   sodipodi:docname="ts-app-digitaltrade-func-icon-csv_download.svg"
   inkscape:version="1.1 (c68e22c387, 2021-05-23)"
   xmlns:inkscape="http://www.inkscape.org/namespaces/inkscape"
   xmlns:sodipodi="http://sodipodi.sourceforge.net/DTD/sodipodi-0.dtd"
   xmlns="http://www.w3.org/2000/svg"
   xmlns:svg="http://www.w3.org/2000/svg"
   xmlns:serif="http://www.serif.com/"><defs
   id="defs111" /><sodipodi:namedview
   id="namedview109"
   pagecolor="#ffffff"
   bordercolor="#666666"
   borderopacity="1.0"
   inkscape:pageshadow="2"
   inkscape:pageopacity="0.0"
   inkscape:pagecheckerboard="0"
   showgrid="false"
   inkscape:zoom="1.9967731"
   inkscape:cx="34.30535"
   inkscape:cy="91.397465"
   inkscape:window-width="1366"
   inkscape:window-height="705"
   inkscape:window-x="-8"
   inkscape:window-y="-8"
   inkscape:window-maximized="1"
   inkscape:current-layer="svg107" />
    <g
   transform="matrix(2.83437,0,0,2.96494,-22,-37.9199)"
   id="g63">
        <path
   d="M69.857,20.775C69.857,16.368 66.114,12.789 61.503,12.789L16.115,12.789C11.505,12.789 7.762,16.368 7.762,20.775L7.762,64.165C7.762,68.572 11.505,72.15 16.115,72.15L61.503,72.15C66.114,72.15 69.857,68.572 69.857,64.165L69.857,20.775Z"
   style="fill:rgb(37,58,123);"
   id="path61" />
    </g>
    <g
   transform="matrix(2.57989,0,0,2.57989,42.1858,140.402)"
   id="g77">
        <g
   transform="matrix(12,0,0,12,0,0)"
   id="g67">
            <path
   d="M0.354,-0.233L0.354,0.042L0.129,0.042L0.129,0.095L0.059,0.095L0.059,-0.233L0.354,-0.233ZM0.129,-0.169L0.129,-0.022L0.284,-0.022L0.284,-0.169L0.129,-0.169ZM0.633,-0.783L0.633,-0.855L0.707,-0.855L0.707,-0.783L0.943,-0.783L0.943,-0.725L0.707,-0.725L0.707,-0.664L0.909,-0.664L0.909,-0.607L0.707,-0.607L0.707,-0.543L0.975,-0.543L0.975,-0.482L0.38,-0.482L0.38,-0.543L0.633,-0.543L0.633,-0.607L0.438,-0.607L0.438,-0.664L0.633,-0.664L0.633,-0.725L0.406,-0.725L0.406,-0.783L0.633,-0.783ZM0.895,-0.42L0.895,0.016C0.895,0.04 0.89,0.057 0.879,0.07C0.867,0.083 0.846,0.09 0.815,0.09C0.787,0.09 0.751,0.089 0.707,0.085L0.693,0.016C0.733,0.021 0.767,0.023 0.795,0.023C0.807,0.023 0.815,0.02 0.817,0.014C0.818,0.01 0.819,0.004 0.819,-0.005L0.819,-0.108L0.525,-0.108L0.525,0.095L0.452,0.095L0.452,-0.42L0.895,-0.42ZM0.525,-0.364L0.525,-0.294L0.819,-0.294L0.819,-0.364L0.525,-0.364ZM0.525,-0.238L0.525,-0.164L0.819,-0.164L0.819,-0.238L0.525,-0.238ZM0.072,-0.814L0.342,-0.814L0.342,-0.751L0.072,-0.751L0.072,-0.814ZM0.025,-0.67L0.381,-0.67L0.381,-0.604L0.025,-0.604L0.025,-0.67ZM0.072,-0.523L0.342,-0.523L0.342,-0.46L0.072,-0.46L0.072,-0.523ZM0.072,-0.38L0.342,-0.38L0.342,-0.318L0.072,-0.318L0.072,-0.38Z"
   style="fill:white;fill-rule:nonzero;"
   id="path65" />
        </g>
        <g
   transform="matrix(12,0,0,12,12,0)"
   id="g71">
            <path
   d="M0.543,-0.581C0.544,-0.577 0.545,-0.572 0.547,-0.567C0.568,-0.495 0.6,-0.425 0.645,-0.356C0.706,-0.409 0.767,-0.47 0.826,-0.54L0.89,-0.487C0.833,-0.426 0.764,-0.364 0.682,-0.303C0.752,-0.212 0.848,-0.133 0.97,-0.066L0.917,0.001C0.741,-0.106 0.617,-0.243 0.543,-0.41L0.543,0.014C0.543,0.047 0.535,0.069 0.519,0.08C0.509,0.086 0.495,0.09 0.479,0.092C0.469,0.093 0.445,0.093 0.407,0.093C0.37,0.093 0.337,0.092 0.308,0.089L0.289,0.01C0.366,0.017 0.415,0.021 0.438,0.021C0.451,0.021 0.459,0.017 0.462,0.01C0.464,0.005 0.465,-0.001 0.465,-0.01L0.465,-0.6L0.057,-0.6L0.057,-0.669L0.465,-0.669L0.465,-0.855L0.543,-0.855L0.543,-0.669L0.95,-0.669L0.95,-0.6L0.543,-0.6L0.543,-0.581ZM0.296,-0.325C0.249,-0.379 0.192,-0.431 0.124,-0.482L0.18,-0.535C0.242,-0.49 0.3,-0.439 0.356,-0.383L0.296,-0.325ZM0.043,-0.078C0.167,-0.141 0.286,-0.221 0.4,-0.317L0.429,-0.25C0.313,-0.152 0.198,-0.071 0.085,-0.008L0.043,-0.078ZM0.8,-0.681C0.76,-0.734 0.719,-0.778 0.677,-0.814L0.737,-0.852C0.78,-0.816 0.821,-0.773 0.861,-0.724L0.8,-0.681Z"
   style="fill:white;fill-rule:nonzero;"
   id="path69" />
        </g>
        <g
   transform="matrix(12,0,0,12,24,0)"
   id="g75">
            <path
   d="M0.458,-0.795L0.458,-0.855L0.535,-0.855L0.535,-0.795L0.856,-0.795L0.856,-0.68L0.975,-0.68L0.975,-0.625L0.856,-0.625L0.856,-0.507L0.535,-0.507L0.535,-0.452L0.91,-0.452L0.91,-0.397L0.535,-0.397L0.535,-0.341L0.975,-0.341L0.975,-0.284L0.025,-0.284L0.025,-0.341L0.458,-0.341L0.458,-0.397L0.097,-0.397L0.097,-0.452L0.458,-0.452L0.458,-0.507L0.139,-0.507L0.139,-0.561L0.458,-0.561L0.458,-0.625L0.025,-0.625L0.025,-0.68L0.458,-0.68L0.458,-0.741L0.139,-0.741L0.139,-0.795L0.458,-0.795ZM0.779,-0.741L0.535,-0.741L0.535,-0.68L0.779,-0.68L0.779,-0.741ZM0.779,-0.625L0.535,-0.625L0.535,-0.561L0.779,-0.561L0.779,-0.625ZM0.853,-0.233L0.853,0.095L0.774,0.095L0.774,0.051L0.226,0.051L0.226,0.095L0.147,0.095L0.147,-0.233L0.853,-0.233ZM0.226,-0.178L0.226,-0.121L0.774,-0.121L0.774,-0.178L0.226,-0.178ZM0.226,-0.068L0.226,-0.006L0.774,-0.006L0.774,-0.068L0.226,-0.068Z"
   style="fill:white;fill-rule:nonzero;"
   id="path73" />
        </g>
    </g>
    <g
   transform="matrix(2.31513,0,0,1.94611,26.0775,10.1651)"
   id="g95">
        <g
   id="New-Document"
   serif:id="New Document"
   transform="matrix(0.749603,2.67221e-32,9.23961e-33,0.722653,-199.948,-121.171)">
            <path
   d="M319.5,196.242L314.282,189.3L285.5,189.3L285.5,235.3L319.5,235.3L319.5,196.242ZM317.5,233.3L287.5,233.3L287.5,191.3L314.219,191.3L314.205,196.156L317.535,196.121L317.5,233.3Z"
   style="fill:white;fill-rule:nonzero;"
   id="path79" />
        </g>
        <g
   id="Menu--wide-"
   serif:id="Menu (wide)"
   transform="matrix(0.387507,8.6897e-33,4.77639e-33,0.704994,-648.931,-687.564)">
            <g
   transform="matrix(1,7.26367e-34,-7.26367e-34,1.05893,151.3,-401.243)"
   id="g84">
                <rect
   x="1569.7"
   y="1351"
   width="44"
   height="3"
   style="fill:white;"
   id="rect82" />
            </g>
            <g
   transform="matrix(1,7.26367e-34,-7.26367e-34,1.05893,151.3,-400.184)"
   id="g88">
                <rect
   x="1569.7"
   y="1340"
   width="44"
   height="3"
   style="fill:white;"
   id="rect86" />
            </g>
            <g
   transform="matrix(1,7.26367e-34,-7.26367e-34,1.05893,151.3,-399.125)"
   id="g92">
                <rect
   x="1569.7"
   y="1329"
   width="44"
   height="3"
   style="fill:white;"
   id="rect90" />
            </g>
        </g>
    </g>
    <g
   transform="matrix(-2.29552,0,0,-2.29552,249.42427,88.649707)"
   id="g105">
        <g
   transform="matrix(0.60023,0,0,0.587392,24.52,-22.3971)"
   id="g99">
            <circle
   cx="54.792999"
   cy="37.276001"
   r="14.793"
   style="fill:#ffffff;stroke:#253a7b;stroke-width:3.63px"
   id="circle97" />
        </g>
        <g
   transform="matrix(-0.358958,0,0,-0.348763,68.2113,10.0515)"
   id="g103">
            <path
   d="M 30.096,19.736 V 40 L 40,29.927 30.096,40 20.191,29.927 30.096,40 Z"
   style="fill:#ffffff;stroke:#253a7b;stroke-width:4.06px"
   id="path101" />
        </g>
    </g>
<rect
   style="fill:#008000;fill-opacity:0"
   id="rect22928"
   width="32.933601"
   height="29.746479"
   x="-85.698189"
   y="110.48692"
   rx="2.7544401"
   ry="2.4788699" /><g
   id="g22684"
   transform="matrix(1.1928473,0,0,1.1928473,-7.6727114,-12.988751)"
   style="clip-rule:evenodd;fill-rule:evenodd;stroke-width:0.83833;stroke-linecap:round;stroke-linejoin:round;stroke-miterlimit:1.5"><rect
     style="fill:#ffffff;fill-opacity:1;stroke-width:0.83833"
     id="rect111"
     width="33.053329"
     height="16.526665"
     x="43.570297"
     y="50.080803"
     rx="2.3091338"
     ry="2.3091338" /><rect
     style="fill:#253a7b;fill-opacity:1;stroke-width:0.83833"
     id="rect4414"
     width="29.723156"
     height="13.610964"
     x="45.20813"
     y="51.538643"
     rx="2.3091338"
     ry="2.3091335" /><text
     xml:space="preserve"
     style="font-style:normal;font-weight:normal;font-size:17.4307px;line-height:1.25;font-family:sans-serif;fill:#ffffff;fill-opacity:1;stroke:none;stroke-width:0.838328"
     x="46.440693"
     y="62.279446"
     id="text8267"
     transform="scale(0.98533078,1.0148876)"><tspan
       sodipodi:role="line"
       id="tspan8265"
       x="46.440693"
       y="62.279446"
       style="fill:#ffffff;fill-opacity:1;stroke-width:0.838328">csv</tspan></text></g></svg>
