<svg id="svg39" xmlns="http://www.w3.org/2000/svg" xmlns:xlink="http://www.w3.org/1999/xlink" width="150" height="150" viewBox="0 0 150 150"><defs><linearGradient id="名称未設定グラデーション_2" x1="62.46" y1="-529.15" x2="88.29" y2="-554.97" gradientTransform="matrix(1, 0, 0, -1, 0, -480)" gradientUnits="userSpaceOnUse"><stop offset="0" stop-color="#00e9f9"/><stop offset="1" stop-color="#09e"/></linearGradient></defs><path id="path27" d="M14.21,150A14.21,14.21,0,0,1,0,135.79V14.21A14.21,14.21,0,0,1,14.21,0H135.79A14.21,14.21,0,0,1,150,14.21V135.79A14.21,14.21,0,0,1,135.79,150Z" style="fill:#004386"/><circle id="circle29" cx="74.95" cy="75.05" r="61.64" style="fill:#fff"/><path d="M88,49.65a14.81,14.81,0,0,0-27.42,5.83H60.5a8.29,8.29,0,0,0-2.68,16.14L60.51,75l2.33-3H73l2.33,3,2.33-3h6.6l2.33,3,2.57-3.26A11.25,11.25,0,0,0,88,49.66ZM75.33,60.81a11.21,11.21,0,0,0,3.2,7.85A11.41,11.41,0,0,1,77,69l-1.68,2.16L73.65,69A11.85,11.85,0,1,1,84.49,49.75,11.26,11.26,0,0,0,75.33,60.81Z" style="fill:url(#名称未設定グラデーション_2)"/><path d="M28.39,84.64a4.7,4.7,0,0,1-.54,1.45,9,9,0,0,1-3,3.36,4.53,4.53,0,0,1,1.36,1.18,11.5,11.5,0,0,0,2.62-2.9h3.22a8.84,8.84,0,0,1-5.77,5.82A4.41,4.41,0,0,1,27.43,95a11.68,11.68,0,0,0,4.13-2.93,12.19,12.19,0,0,0,2.32-4.42,2.46,2.46,0,0,1,.3-.75l-.83-.8a2.57,2.57,0,0,1-.82.11h-3c.13-.25.17-.35.27-.57s.28-.59.34-.68Z" style="fill:#333"/><path d="M38.56,86.79a12.85,12.85,0,0,1,1.52,0h3.84a9.64,9.64,0,0,1,1.52,0V85.1a6.7,6.7,0,0,1-1.55.09H40.12a8.17,8.17,0,0,1-1.56-.09Zm-.91,2.75a15.88,15.88,0,0,1,1.69,0h5.11a5.59,5.59,0,0,1-1.79,2.37,7.92,7.92,0,0,1-3.08,1.4,5.12,5.12,0,0,1,1.08,1.57,10.65,10.65,0,0,0,3.09-1.63,8.5,8.5,0,0,0,2.56-3.84,3,3,0,0,1,.29-.7l-.77-.84a3.07,3.07,0,0,1-1.09.11H39.32a10.33,10.33,0,0,1-1.67-.08Z" style="fill:#333"/><path d="M55.55,86.56v-.71a6.22,6.22,0,0,1,.06-1.06H53.73a6.37,6.37,0,0,1,0,1.07v.7h-2a6.84,6.84,0,0,1-1.28,0v2.53c0,.43,0,.86,0,1.28h1.81a7.79,7.79,0,0,1-.06-1.28v-1h5.24a5.27,5.27,0,0,1-2.79,4.36,6.79,6.79,0,0,1-2.35.86,5.3,5.3,0,0,1,1.09,1.63,10.2,10.2,0,0,0,2.17-1,7.16,7.16,0,0,0,2.88-3.09,10.14,10.14,0,0,0,.78-2.95,1.55,1.55,0,0,1,.18-.66l-.76-.76a2.72,2.72,0,0,1-1,.11Z" style="fill:#333"/><path d="M68,86a7.29,7.29,0,0,1,1,1.67l1-.48a6.25,6.25,0,0,0-1-1.63Zm1.28-.6a9.26,9.26,0,0,1,1,1.61l1-.49a8.18,8.18,0,0,0-1-1.57Zm-3.52,9.3V89.9l.44.2a24.35,24.35,0,0,1,3.83,2.06L71,90.54a26.21,26.21,0,0,0-5.12-2.39V86.42a12.85,12.85,0,0,1,0-1.52H64a12.88,12.88,0,0,1,.06,1.52v6.76a14.17,14.17,0,0,1-.06,1.6Z" style="fill:#333"/><path d="M76.73,87.69h-.65a4.22,4.22,0,0,1-.87,0v1.39a6.32,6.32,0,0,1,.87,0h.47A7.57,7.57,0,0,1,75,91.89a4.83,4.83,0,0,1,.63,1.41,6.27,6.27,0,0,0,1.17-2.19v2.73a10.74,10.74,0,0,1,0,1.39h1.5a10.75,10.75,0,0,1,0-1.39v-3.1A6.4,6.4,0,0,0,79.05,92a8.51,8.51,0,0,1,.55-1.28A5.24,5.24,0,0,1,78.32,89h.23c.25,0,.51,0,.76,0V87.64a4.82,4.82,0,0,1-.76,0h-.27V86.36a8.84,8.84,0,0,0,1-.37l.3-.13-1-1.16a3,3,0,0,1-.47.25,10.59,10.59,0,0,1-2.94.69,4.55,4.55,0,0,1,.5,1.28l1-.18ZM80.27,87a6.46,6.46,0,0,1-.88,0v3.76a6.32,6.32,0,0,1,.87,0h.06v.1a4,4,0,0,1-.48,1.91,3.34,3.34,0,0,1-1.43,1.28,4.27,4.27,0,0,1,1,1.15A3.85,3.85,0,0,0,81,93.63a5.91,5.91,0,0,0,.74-2.88h.55v3.3c0,.78.28,1,1.28,1S85,95,85.21,94.67s.27-.66.34-1.88a3.6,3.6,0,0,1-1.12-.53c0,1.41,0,1.49-.37,1.49h-.18c-.17,0-.21,0-.21-.21V90.69h.41a6.91,6.91,0,0,1,.91,0c0-.28,0-.55,0-.83v-2.1c0-.26,0-.52,0-.79a6.91,6.91,0,0,1-.91,0h-.21a14,14,0,0,0,.89-1.83l-1.46-.43A10.16,10.16,0,0,1,82.4,87H80.66l1.16-.52a8.81,8.81,0,0,0-.91-1.75l-1.28.55a7.83,7.83,0,0,1,.9,1.72Zm.54,1.28h2.67v1H80.81Z" style="fill:#333"/><path d="M93.8,90.74a6.46,6.46,0,0,1-.88,0V92a5.21,5.21,0,0,1,.79,0h.56a3.8,3.8,0,0,1-2.48,2,5.09,5.09,0,0,1,.82,1.18A5,5,0,0,0,95.7,92h1.18a5.83,5.83,0,0,1-.12,1.18c-.1.43-.21.53-.55.53a6,6,0,0,1-1.27-.14,4.38,4.38,0,0,1,.32,1.28,11.11,11.11,0,0,0,1.16.08c.89,0,1.21-.17,1.44-.77a10,10,0,0,0,.4-2.82V91a1.5,1.5,0,0,1,0-.3,5.89,5.89,0,0,1-.84,0H96v-.84H94.87a6.29,6.29,0,0,0,.93-.48,7.42,7.42,0,0,0,2.4.94,4.35,4.35,0,0,1,.6-1.36,8,8,0,0,1-1.93-.46,4.61,4.61,0,0,0,1-1.6h.73V85.59a8.15,8.15,0,0,1-1.21,0h-2a4.31,4.31,0,0,0,.24-.56l.08-.17-1.38-.25a3.81,3.81,0,0,1-.32,1,6.27,6.27,0,0,1-1.57,2,4.32,4.32,0,0,1,1,.89,9.94,9.94,0,0,0,.81-.91,4.57,4.57,0,0,0,.7.89,7.12,7.12,0,0,1-1.48.55h0l-.57-.68H91.6l.15-.16-.28-.3A11.58,11.58,0,0,0,93,86.13a3.65,3.65,0,0,1,.24-.31l-.7-.77a5,5,0,0,1-1,0H89.71a6,6,0,0,1-1,0v1.28h2.67a3.51,3.51,0,0,1-.7.79c-.31-.26-.43-.35-.88-.69l-.79.8a12.16,12.16,0,0,1,1.27,1.11h-1.9v1.28a4.31,4.31,0,0,1,.88,0h.69a6,6,0,0,1-1.74,2.49,4.74,4.74,0,0,1,.62,1.53,7,7,0,0,0,1.53-2.25v2.1c0,.21,0,.24-.27.24a4.69,4.69,0,0,1-1-.11A4.27,4.27,0,0,1,89.32,95h.89c1.06,0,1.38-.26,1.38-1.08V91.16a2.81,2.81,0,0,1,.85.68,11.21,11.21,0,0,0,.77-2,3.37,3.37,0,0,1,.1-.34,7.12,7.12,0,0,1,.48.85c.43-.12.57-.18.89-.29v.7Zm2.72-3.83a3.3,3.3,0,0,1-.69,1,3.65,3.65,0,0,1-.82-1Zm-5,2.75h.54A5,5,0,0,1,91.55,91Z" style="fill:#333"/><path d="M105.05,88.07h.66V86.7a4,4,0,0,1-.69,0h-.55v-.83a11,11,0,0,1,0-1.15H103a7.49,7.49,0,0,1,0,1.16v.91h-.57a3.84,3.84,0,0,1-.83,0v1.28a5.34,5.34,0,0,1,.8,0h.46a8.46,8.46,0,0,1-1.58,3.21,6,6,0,0,1,.63,1.53,9.84,9.84,0,0,0,.58-1,8.25,8.25,0,0,0,.58-1.38v3.31a10.8,10.8,0,0,1-.08,1.39h1.52c0-.46,0-.93,0-1.39V89.91a7.33,7.33,0,0,0,.89,1.5A5.24,5.24,0,0,1,106,90a5.24,5.24,0,0,1-1.45-1.94Zm2.38,7v-.64h2.45V95h1.48a11.37,11.37,0,0,1,0-1.43V85.12a8.51,8.51,0,0,1-1,0H106v10Zm0-8.56h2.45v1.27h-2.45Zm0,2.55h2.45v1.4h-2.45Zm0,2.69h2.45v1.4h-2.45Z" style="fill:#333"/><path d="M121,84.87a4,4,0,0,1,0,.49,4.3,4.3,0,0,1-.33,1.94,3.32,3.32,0,0,1-2.22,1.75,4.79,4.79,0,0,1,.74,1.18,4.25,4.25,0,0,1-.71,1.78l1.18.53a7.47,7.47,0,0,0,.75-2l-1.07-.33a4.23,4.23,0,0,0,2.38-2.37,3.73,3.73,0,0,0,.87,1.28,5.24,5.24,0,0,0,1.74,1.19A7,7,0,0,1,125,89a4.29,4.29,0,0,1-1.79-1,3.05,3.05,0,0,1-.65-.93,4,4,0,0,1,1.13.61,8.82,8.82,0,0,0,1.15-1.91l-1.28-.49a5.45,5.45,0,0,1-1,1.75,4.79,4.79,0,0,1-.15-1.51,3.21,3.21,0,0,1,0-.62Zm-2.27,2.32,1.08.42a7.23,7.23,0,0,0,.75-2l-1.28-.27a4.82,4.82,0,0,1-.59,1.68v-.37q-.45,0-.9,0h-2.12a6.61,6.61,0,0,1-.89,0V87.9a6.61,6.61,0,0,1,.89,0h2.25a6.17,6.17,0,0,1,.86,0ZM118.44,94a4.67,4.67,0,0,1,.55,1.28,4.7,4.7,0,0,0,1.6-1,3.94,3.94,0,0,0,1.13-1.63,5.69,5.69,0,0,0,2.68,2.56,6,6,0,0,1,.73-1.42,4.18,4.18,0,0,1-2.44-2,5.34,5.34,0,0,1,1.11.64,9.1,9.1,0,0,0,1-1.83l-1.28-.45a5.44,5.44,0,0,1-.88,1.6,4.78,4.78,0,0,1-.32-1.8c0-.2,0-.41,0-.61h-1.4c0,.21,0,.42,0,.64a4,4,0,0,1-.86,2.86,3.81,3.81,0,0,1-1.67,1V91.42a2.43,2.43,0,0,1-.66,0h-2a4.7,4.7,0,0,1-.75,0v3.67h1.28v-.51h.88V95h1.28v-.72Zm-2.13-1.48h.92v1h-.92ZM115,86.23a7.21,7.21,0,0,1,.93,0h1.46a7.53,7.53,0,0,1,1,0V85.07c-.32,0-.63,0-1,0H116c-.32,0-.63,0-.94,0Zm0,3.25a3.86,3.86,0,0,1,.68,0h2a3.53,3.53,0,0,1,.65,0V88.34H115.1ZM115,91a3.75,3.75,0,0,1,.67,0h2a3.86,3.86,0,0,1,.68,0V89.89c-.21,0-.43,0-.65,0h-1.92c-.22,0-.45,0-.67,0Z" style="fill:#333"/></svg>