<?xml version="1.0" encoding="utf-8"?>
<!-- Generator: Adobe Illustrator 26.3.1, SVG Export Plug-In . SVG Version: 6.00 Build 0)  -->
<svg version="1.1" id="レイヤー_1" xmlns="http://www.w3.org/2000/svg" xmlns:xlink="http://www.w3.org/1999/xlink" x="0px"
	 y="0px" viewBox="0 0 890 208" style="enable-background:new 0 0 890 208;" xml:space="preserve">
<style type="text/css">
	.st0{fill:#BEE8F5;}
	.st1{fill:#4A4A4A;}
	.st2{fill:#668FA9;}
	.st3{fill:#FFFFFF;}
	.st4{fill:none;stroke:#CCCCCC;}
	.st5{fill:#F0F0F0;stroke:#CCCCCC;}
</style>
<rect class="st0" width="204" height="30"/>
<path class="st1" d="M58.3,9.4v1.5h12.5V9.4H58.3z M58.8,20.5v1.5h11.5v-1.5H58.8z M61.4,11.5v1.3h6.1v-1.3H61.4z M61.4,13.4v1.3
	h6.1v-1.3H61.4z M57.5,15.3v1.5h14v-1.5H57.5z M60.9,18.1v1.4h7.2v-1.4H60.9z M60.3,8.3v7.9h1.8V8.3H60.3z M66.9,8.3v7.9h1.8V8.3
	H66.9z M63.5,17.1v4.2h1.8v-4.2H63.5z M61.3,15.8c-0.8,1.2-2.4,2.4-3.9,2.9c0.4,0.3,0.9,1,1.1,1.4c1.7-0.8,3.3-2.2,4.3-3.8
	L61.3,15.8z M67.8,15.8l-1.4,0.5c0.9,1.5,2.5,2.9,4.1,3.6c0.3-0.4,0.8-1.1,1.2-1.4C70.1,18,68.6,16.9,67.8,15.8z M72.9,11.2V13h13.3
	v-1.8H72.9z M76,18v1.8h7V18H76z M78.5,8.3v14.1h1.9V8.3H78.5z M78,11.8c-1.1,2.8-3.2,5.5-5.7,6.8c0.4,0.4,1,1,1.3,1.5
	c2.6-1.6,4.8-4.5,6-7.8L78,11.8z M81,11.9l-1.6,0.5c1.3,3.2,3.4,6.1,6,7.7c0.3-0.5,0.9-1.3,1.4-1.6C84.3,17.2,82.1,14.6,81,11.9z
	 M99.6,10l-2.2-0.8c-0.1,0.4-0.2,1-0.4,1.4c-0.5,1.5-1.2,3-2.4,4.6c-1.6,2.1-3.5,3.7-6.2,5l1.7,1.5c2.9-1.6,4.8-3.5,6.2-5.3
	c1.2-1.6,2.2-3.6,2.7-5.1C99.2,11,99.4,10.3,99.6,10z M91.4,11.4L90.1,13c1.9,1.2,3.6,2.5,4.7,3.4c1.6,1.3,2.9,2.6,4.2,4.1l1.5-1.7
	c-1.2-1.3-2.8-2.7-4.4-3.9C94.9,13.8,92.9,12.4,91.4,11.4z M104.5,10.8V13c0.5,0,1.2,0,1.8,0c0.8,0,5.4,0,6.2,0c0.5,0,1.2,0,1.7,0
	v-2.2c-0.4,0.1-1.1,0.1-1.7,0.1c-0.8,0-4.9,0-6.2,0C105.8,10.9,105.1,10.9,104.5,10.8z M103.3,18.2v2.3c0.6-0.1,1.3-0.1,1.9-0.1
	c0.9,0,7.7,0,8.6,0c0.4,0,1.1,0,1.7,0.1v-2.3c-0.5,0-1.2,0.1-1.7,0.1c-0.9,0-7.7,0-8.6,0C104.6,18.3,103.9,18.2,103.3,18.2z
	 M128.4,13.9l-1.4-0.7c-0.2,0.1-0.8,0.2-1.1,0.2c-0.7,0-3.1,0-3.9,0c-0.4,0-1.1,0-1.5-0.1v2c0.4,0,1-0.1,1.5-0.1c0.4,0,3.3,0,4.1,0
	c-0.1,1-0.5,3.9-0.7,4.9h2.1c0.2-1.1,0.7-4.5,0.8-5.5C128.2,14.3,128.3,14.1,128.4,13.9z M119.1,19.3v2c0.6,0,0.9,0,1.5,0
	c0.8,0,7.1,0,7.9,0c0.4,0,1.1,0,1.4,0v-1.9c-0.4,0-1.1,0.1-1.5,0.1c-0.7,0-7,0-7.9,0C120.1,19.4,119.5,19.3,119.1,19.3z M133.4,14.1
	v2.4c0.6,0,1.6-0.1,2.4-0.1c1.8,0,6.7,0,8.1,0c0.6,0,1.4,0.1,1.8,0.1v-2.4c-0.4,0-1.1,0.1-1.8,0.1c-1.3,0-6.3,0-8.1,0
	C135,14.2,133.9,14.1,133.4,14.1z"/>
<rect y="35" class="st2" width="374" height="30"/>
<rect x="379" y="35" class="st2" width="342" height="30"/>
<path class="st3" d="M116.6,44.1l-1.1,1.7c1,0.6,2.5,1.6,3.4,2.1l1.1-1.7C119.3,45.7,117.6,44.7,116.6,44.1z M113.8,54.8l1.1,2
	c1.3-0.2,3.5-1,5-1.8c2.4-1.4,4.6-3.3,6-5.4l-1.2-2c-1.2,2.1-3.3,4.2-5.8,5.6C117.3,54,115.5,54.5,113.8,54.8z M114.3,47.6l-1.1,1.7
	c1,0.5,2.6,1.5,3.4,2.1l1.1-1.7C117,49.1,115.3,48.1,114.3,47.6z M139.5,45.8l-1.2-0.9c-0.3,0.1-0.9,0.2-1.6,0.2s-4.5,0-5.3,0
	c-0.4,0-1.4,0-1.8-0.1v2.1c0.3,0,1.2-0.1,1.8-0.1c0.6,0,4.5,0,5.1,0c-0.3,1.1-1.3,2.6-2.2,3.7c-1.4,1.6-3.7,3.4-6.1,4.3l1.6,1.6
	c2.3-1.1,4.6-3,6.3-4.9c1.3-1.5,2.4-3.5,3-5C139.1,46.5,139.4,46,139.5,45.8z M136.1,50.5l-1.4,1.4c1.6,1.5,3.2,3.2,4.3,4.8l1.7-1.5
	C139.8,54,137.7,51.8,136.1,50.5z M145,44.5v1.9c0.4,0,1.1-0.1,1.6-0.1c0.9,0,5.1,0,6,0c0.5,0,1.1,0,1.6,0.1v-1.9
	c-0.5,0.1-1.1,0.1-1.6,0.1c-0.9,0-5.1,0-6,0C146.1,44.6,145.5,44.6,145,44.5z M143.3,48.3v2c0.4,0,1,0,1.4,0c0.9,0,8.9,0,9.8,0
	c0.4,0,1,0,1.4,0v-2c-0.4,0.1-1.1,0.1-1.4,0.1c-0.9,0-8.9,0-9.8,0C144.2,48.4,143.7,48.4,143.3,48.3z M150.9,49.4l-2.1,0
	c0,1.6-0.2,3-1,4.2c-0.6,0.9-1.7,1.7-2.7,2.2l1.8,1.3c1.3-0.7,2.5-1.8,3-2.9C150.6,52.8,150.9,51.3,150.9,49.4z M164.9,44.7
	l-2.4-0.5c-0.1,0.5-0.1,1-0.3,1.7c-0.5,1.7-2.1,6.7-2.9,8.6l2.2-0.1c0.6-1.6,2.2-6.4,2.8-8.1C164.5,45.7,164.7,45.1,164.9,44.7z
	 M167.5,49.5l-1.9,0.8c1.1,1.4,2.5,4.5,3.1,6.4l2-0.9C170.2,54.1,168.6,51.2,167.5,49.5z M159.1,53.8c-0.5,0-1.1,0-1.6,0l0.4,2.2
	c0.5-0.1,1-0.1,1.4-0.2c2-0.2,7.2-0.8,9.4-1l-0.4-1.9C166.1,53.2,161.2,53.8,159.1,53.8z M175.8,54c0,1.8,0.5,2.6,3.9,2.6
	c1.6,0,3.4-0.1,4.7-0.3l0.1-2c-1.5,0.3-3.2,0.5-4.7,0.5c-1.6,0-1.9-0.3-1.9-1.3c0-1.7,0-5.8,0-7.6c0-0.5,0.1-1.3,0.1-1.7h-2.2
	c0.1,0.5,0.1,1.2,0.1,1.7C175.8,47.7,175.8,52.8,175.8,54z M185.2,47.4l-1.4-1.1c-0.3,0.2-0.6,0.3-1.1,0.4c-1.4,0.3-8.4,1.7-10.5,2
	l0.4,2c1.9-0.4,8.8-1.8,9.8-2c-0.4,0.8-1.4,2.2-2.4,3l1.7,1c1.1-1.1,2.4-3.1,3.1-4.4C184.9,48,185.1,47.6,185.2,47.4z M194.1,47.1
	l-1.8,0.6c0.4,0.8,1,2.6,1.2,3.3l1.8-0.6C195.1,49.7,194.4,47.7,194.1,47.1z M199.6,48.2l-2.1-0.7c-0.2,1.9-0.9,3.9-1.9,5.1
	c-1.2,1.6-3.3,2.7-5,3.2l1.6,1.6c1.8-0.7,3.6-1.9,5-3.7c1-1.3,1.7-2.9,2.1-4.4C199.4,49,199.5,48.7,199.6,48.2z M190.6,47.9
	l-1.8,0.7c0.4,0.6,1.1,2.7,1.4,3.5l1.8-0.7C191.7,50.5,191,48.7,190.6,47.9z M206.2,54.6c0,0.6,0,1.5-0.1,2.1h2.4
	c-0.1-0.6-0.1-1.7-0.1-2.1c0-1.1,0-7,0-8.6c0-0.6,0.1-1.3,0.1-1.8h-2.3c0.1,0.5,0.1,1.3,0.1,1.8C206.2,47.2,206.2,53.4,206.2,54.6z
	 M207.9,48v2.2c1.6,0.5,4.2,1.5,5.9,2.4l0.8-2.1C213.1,49.8,209.9,48.6,207.9,48z M230.9,45.9l-1.2-1.1c-0.3,0.1-1.1,0.1-1.5,0.1
	c-0.8,0-7.1,0-8.1,0c-0.6,0-1.2-0.1-1.8-0.2v2.1c0.7-0.1,1.2-0.1,1.8-0.1c0.9,0,6.9,0,7.8,0c-0.4,0.7-1.6,2.1-2.8,2.8l1.6,1.2
	c1.5-1,2.9-3,3.6-4.1C230.4,46.4,230.7,46.1,230.9,45.9z M224.8,47.9h-2.2c0.1,0.5,0.1,0.9,0.1,1.4c0,2.5-0.4,4-2.2,5.4
	c-0.6,0.4-1.1,0.7-1.6,0.8l1.8,1.4C224.7,54.7,224.8,51.6,224.8,47.9z M239.1,47.1l-1.8,0.6c0.4,0.8,1,2.6,1.2,3.3l1.8-0.6
	C240.1,49.7,239.4,47.7,239.1,47.1z M244.6,48.2l-2.1-0.7c-0.2,1.9-0.9,3.9-1.9,5.1c-1.2,1.6-3.3,2.7-5,3.2l1.6,1.6
	c1.8-0.7,3.6-1.9,5-3.7c1-1.3,1.7-2.9,2.1-4.4C244.4,49,244.5,48.7,244.6,48.2z M235.6,47.9l-1.8,0.7c0.4,0.6,1.1,2.7,1.4,3.5
	l1.8-0.7C236.7,50.5,236,48.7,235.6,47.9z M258.6,45c0-0.5,0.4-0.9,0.9-0.9s0.9,0.4,0.9,0.9s-0.4,0.9-0.9,0.9S258.6,45.5,258.6,45z
	 M257.7,45c0,1,0.8,1.8,1.8,1.8s1.8-0.8,1.8-1.8c0-1-0.8-1.8-1.8-1.8S257.7,44,257.7,45z M259.5,46.2l-1.5-0.9
	c-0.4,0.1-0.9,0.1-1.2,0.1c-0.8,0-5.8,0-6.9,0c-0.5,0-1.3-0.1-1.8-0.1v2.1c0.4,0,1.1-0.1,1.8-0.1c1.1,0,6.1,0,7,0
	c-0.2,1.3-0.8,3-1.8,4.2c-1.2,1.5-2.9,2.8-5.9,3.5l1.6,1.8c2.7-0.9,4.7-2.3,6-4.1c1.3-1.7,1.9-4,2.3-5.5
	C259.2,46.9,259.3,46.5,259.5,46.2z"/>
<path class="st3" d="M498,44h-2.2c0.1,0.4,0.1,1,0.1,1.4c0,4-0.7,6.5-2.7,8.5c-0.6,0.6-1.4,1.1-2,1.5l1.8,1.4
	c3.3-2.4,4.7-5.4,4.9-11.4C497.9,45,497.9,44.3,498,44z M503.1,47.2l-1.3-0.6c-0.4,0.1-0.8,0.1-1.1,0.1h-6.9c-0.6,0-1.3,0-2-0.1v2
	c0.6-0.1,1.5-0.1,2-0.1h7.3c0,1.6-0.2,4.6-0.6,5.6c-0.1,0.4-0.4,0.5-0.8,0.5c-0.6,0-1.4-0.1-2.1-0.2l0.2,2c0.7,0.1,1.6,0.1,2.5,0.1
	c1,0,1.6-0.4,1.9-1.2c0.6-1.5,0.8-5.7,0.9-7.4C503,47.8,503,47.4,503.1,47.2z M517.5,45.8l-1.2-0.9c-0.3,0.1-0.9,0.2-1.6,0.2
	c-0.7,0-4.5,0-5.3,0c-0.4,0-1.4,0-1.8-0.1v2.1c0.3,0,1.2-0.1,1.8-0.1c0.6,0,4.5,0,5.1,0c-0.3,1.1-1.3,2.6-2.2,3.7
	c-1.4,1.6-3.7,3.4-6.2,4.3l1.6,1.6c2.3-1.1,4.6-3,6.3-4.9c1.3-1.5,2.4-3.5,3-5C517.1,46.5,517.4,46,517.5,45.8z M514.2,50.5
	l-1.4,1.4c1.6,1.5,3.2,3.2,4.4,4.8l1.7-1.5C517.8,54,515.7,51.8,514.2,50.5z M526.4,49l-1.3,1.4c1.8,1.1,4.6,3.2,5.9,4.4l1.4-1.7
	C531,52,528.3,50,526.4,49z M533.5,46.4l-1.5-0.9c-0.3,0.1-0.8,0.2-1.3,0.2h-4.3l-0.7,1.7h5.1c-0.3,1.2-1.2,2.9-2.2,4.1
	c-1.3,1.5-3.1,3.1-6.2,4.1l1.7,1.5c2.9-1.1,4.8-2.8,6.2-4.5c1.3-1.7,2.3-3.6,2.7-5C533.1,47.1,533.3,46.7,533.5,46.4z M528.5,44.1
	l-2.2-0.7c-0.1,0.5-0.4,1.2-0.7,1.6c-0.8,1.3-2.1,3.4-4.8,5l1.6,1.2c2.2-1.5,4.1-3.8,5.1-5.6C527.8,45.3,528.2,44.6,528.5,44.1z
	 M543.3,44.7l-2.4-0.5c-0.1,0.5-0.1,1-0.3,1.7c-0.5,1.7-2.1,6.7-2.9,8.6l2.2-0.1c0.6-1.6,2.2-6.4,2.8-8.1
	C542.9,45.7,543.1,45.1,543.3,44.7z M546,49.5l-1.9,0.8c1.1,1.4,2.5,4.5,3.1,6.4l2-0.9C548.6,54.1,547.1,51.2,546,49.5z M537.6,53.8
	c-0.5,0-1.1,0-1.7,0l0.4,2.2c0.5-0.1,1-0.1,1.4-0.2c2-0.2,7.2-0.8,9.4-1l-0.4-1.9C544.6,53.2,539.7,53.8,537.6,53.8z M561.2,49.4
	v-3.9c0-0.6,0.1-1.1,0.1-1.4h-2.1c0.1,0.3,0.1,0.8,0.1,1.4v4c0,3.7-1.3,5-4.2,6l1.6,1.5C560.3,55.4,561.2,53.1,561.2,49.4z
	 M555.8,44.2h-2.1c0.1,0.5,0.1,0.9,0.1,1.3v5.4c0,0.7,0,1.3-0.1,1.6h2.1c0-0.3-0.1-0.9-0.1-1.6v-5.4C555.7,45,555.8,44.5,555.8,44.2
	z M550.9,46.9v2c0.3,0,0.9,0,1.6,0h9.9c0.8,0,1.3,0,1.6,0v-2c-0.4,0.1-0.9,0.1-1.7,0.1h-9.8C551.7,47,551.1,46.9,550.9,46.9z
	 M576.6,44.8c0-0.5,0.4-0.8,0.8-0.8s0.8,0.4,0.8,0.8s-0.4,0.8-0.8,0.8S576.6,45.2,576.6,44.8z M575.7,44.8c0,1,0.8,1.7,1.7,1.7
	s1.7-0.8,1.7-1.7s-0.8-1.7-1.7-1.7S575.7,43.8,575.7,44.8z M573.6,44.2h-2.2c0,0.3,0.1,0.9,0.1,1.3c0,0.9,0,2.5,0,3c0,0.7,0,5.4,0,6
	c0,0.4-0.2,0.5-0.5,0.5c-0.4,0-1,0-1.7-0.2l0.2,1.9c0.8,0.1,1.6,0.1,2.4,0.1c1.1,0,1.6-0.5,1.6-1.4c0-1.3,0-5.7,0-6.9
	c0-0.9,0-2.1,0-3C573.5,45.1,573.6,44.4,573.6,44.2z M566.3,46.6v2c0.4,0,1-0.1,1.4-0.1c1,0,8.2,0,9.3,0c0.4,0,1,0,1.5,0.1v-2
	c-0.4,0-1,0.1-1.5,0.1c-1.1,0-8.4,0-9.3,0C567.3,46.7,566.7,46.6,566.3,46.6z M570.1,50.6l-1.7-0.8c-0.6,1.3-1.8,2.9-2.8,3.9
	l1.6,1.1C568,53.9,569.4,52,570.1,50.6z M576.5,49.8l-1.6,0.9c0.7,0.9,1.8,2.7,2.4,4l1.8-1C578.5,52.6,577.3,50.7,576.5,49.8z
	 M581.4,49.1v2.4c0.6,0,1.6-0.1,2.4-0.1c1.8,0,6.7,0,8.1,0c0.6,0,1.4,0.1,1.8,0.1v-2.4c-0.4,0-1.1,0.1-1.8,0.1c-1.3,0-6.3,0-8.1,0
	C583,49.2,581.9,49.1,581.4,49.1z M599.7,54.6c0,0.6,0,1.5-0.2,2.1h2.4c-0.1-0.6-0.1-1.7-0.1-2.1c0-1.1,0-7,0-8.6
	c0-0.6,0.1-1.3,0.1-1.8h-2.3c0.1,0.5,0.2,1.3,0.2,1.8C599.7,47.2,599.7,53.4,599.7,54.6z M601.3,48v2.2c1.6,0.5,4.2,1.5,5.9,2.4
	l0.8-2.1C606.5,49.8,603.3,48.6,601.3,48z"/>
<rect x="209" class="st0" width="512" height="30"/>
<path class="st1" d="M406.3,9h-2.1c0.1,0.4,0.1,0.9,0.2,1.5c0.1,2.5,0.1,6.6,0.1,8.7c0,0.4-0.1,0.6-0.5,0.6c-0.5,0-1.3-0.1-2-0.2
	l0.2,1.9c0.9,0.1,1.7,0.1,2.6,0.1c1.1,0,1.7-0.6,1.7-1.5c0-3-0.1-7.2-0.2-9.6C406.2,10,406.2,9.5,406.3,9z M397.7,11.5v2
	c0.5,0,1.2-0.1,1.7-0.1c0.8,0,8.2,0,8.7,0c0.4,0,1,0,1.5,0v-2c-0.4,0-1.1,0.1-1.5,0.1c-0.7,0-7.7,0-8.7,0
	C398.8,11.6,398.1,11.5,397.7,11.5z M396.9,18.6l1.4,1.6c2.6-1.4,5.2-3.7,6.4-5.5l0-1.6h-1C402.6,14.8,400,17.1,396.9,18.6z M423,10
	c0-0.5,0.4-0.9,0.9-0.9c0.5,0,0.9,0.4,0.9,0.9c0,0.5-0.4,0.9-0.9,0.9C423.4,10.9,423,10.5,423,10z M422.1,10c0,1,0.8,1.8,1.8,1.8
	c1,0,1.8-0.8,1.8-1.8s-0.8-1.8-1.8-1.8C422.9,8.2,422.1,9,422.1,10z M423.9,11.2l-1.5-0.9c-0.4,0.1-0.9,0.1-1.2,0.1
	c-0.8,0-5.8,0-6.9,0c-0.5,0-1.3-0.1-1.8-0.1v2.1c0.4,0,1.1-0.1,1.8-0.1c1.1,0,6.1,0,7,0c-0.2,1.3-0.8,3-1.8,4.2
	c-1.2,1.5-2.9,2.8-5.9,3.5l1.6,1.8c2.7-0.9,4.7-2.3,6-4.1c1.3-1.7,1.9-4,2.3-5.5C423.7,11.9,423.8,11.5,423.9,11.2z M430.6,9.1
	l-1.1,1.6c1,0.6,2.5,1.6,3.4,2.1l1.1-1.7C433.3,10.7,431.6,9.7,430.6,9.1z M427.8,19.8l1.1,2c1.3-0.2,3.5-1,5-1.8
	c2.4-1.4,4.6-3.3,6-5.4l-1.2-2c-1.2,2.1-3.3,4.2-5.8,5.6C431.3,19,429.5,19.5,427.8,19.8z M428.3,12.6l-1.1,1.6
	c1,0.5,2.6,1.5,3.4,2.1l1.1-1.7C431,14.1,429.3,13.1,428.3,12.6z M444.2,12.5v1.8c0.4,0,1.3,0,1.9,0c1.2,0,4.4,0,5,0
	c0,0.5,0,5.2,0,6.7c0,0.3,0,0.9,0,1.1h1.9c0-0.3,0-0.8,0-1c0-1.2,0-6.9,0-7.5c0-0.3,0-0.8,0-1c-0.2,0-0.8,0-1.1,0
	c-1.2,0-4.5,0-5.7,0C445.5,12.6,444.6,12.6,444.2,12.5z M444.6,16v1.8c0.4,0,1.1,0,1.6,0c0.7,0,5.2,0,5.7,0v-1.7c-0.4,0-4.9,0-5.7,0
	C445.6,16.1,445,16.1,444.6,16z M444,19.7v1.8c0.2,0,0.9,0,1.3,0c0.9,0,5.7,0,6.6,0v-1.8c-0.6,0-5.6,0-6.6,0
	C444.8,19.8,444.3,19.8,444,19.7z M459.6,9.6l-1.4,1.5c1.1,0.8,3,2.4,3.8,3.2l1.5-1.6C462.6,11.9,460.6,10.3,459.6,9.6z M457.7,19.6
	l1.3,2c2.1-0.4,4-1.2,5.6-2.1c2.4-1.5,4.4-3.5,5.5-5.6l-1.2-2.1c-1,2-2.9,4.3-5.5,5.8C462,18.5,460.1,19.3,457.7,19.6z M483.2,10
	L481,9.2c-0.1,0.4-0.2,1-0.4,1.4c-0.5,1.5-1.2,3-2.4,4.6c-1.6,2.1-3.5,3.7-6.2,5l1.7,1.5c2.9-1.6,4.8-3.5,6.1-5.3
	c1.2-1.6,2.2-3.6,2.7-5.1C482.7,11,483,10.3,483.2,10z M474.9,11.4l-1.3,1.5c1.9,1.2,3.6,2.5,4.7,3.4c1.6,1.3,2.9,2.6,4.2,4.1
	l1.5-1.7c-1.2-1.3-2.8-2.7-4.4-3.9C478.5,13.8,476.4,12.4,474.9,11.4z M488.1,10.8V13c0.5,0,1.2,0,1.8,0c0.8,0,5.4,0,6.2,0
	c0.5,0,1.2,0,1.7,0v-2.2c-0.4,0.1-1.1,0.1-1.7,0.1c-0.8,0-5,0-6.2,0C489.3,10.9,488.6,10.9,488.1,10.8z M486.8,18.2v2.3
	c0.6-0.1,1.3-0.1,1.9-0.1c0.9,0,7.7,0,8.6,0c0.4,0,1.1,0,1.6,0.1v-2.3c-0.5,0-1.2,0.1-1.6,0.1c-0.9,0-7.7,0-8.6,0
	C488.1,18.3,487.4,18.2,486.8,18.2z M511.9,13.9l-1.4-0.7c-0.2,0.1-0.8,0.2-1.1,0.2c-0.7,0-3.1,0-3.9,0c-0.4,0-1.1,0-1.5-0.1v2
	c0.4,0,1-0.1,1.5-0.1c0.4,0,3.3,0,4.1,0c-0.1,1-0.5,3.9-0.7,4.9h2.1c0.2-1.1,0.7-4.5,0.8-5.5C511.8,14.3,511.9,14.1,511.9,13.9z
	 M502.7,19.3v2c0.6,0,0.9,0,1.5,0c0.8,0,7.1,0,7.9,0c0.4,0,1.1,0,1.4,0v-1.9c-0.4,0-1.1,0.1-1.5,0.1c-0.7,0-7,0-7.9,0
	C503.6,19.4,503.1,19.3,502.7,19.3z M516.9,14.1v2.4c0.6,0,1.6-0.1,2.4-0.1c1.8,0,6.7,0,8.1,0c0.6,0,1.4,0.1,1.8,0.1v-2.4
	c-0.4,0-1.1,0.1-1.8,0.1c-1.3,0-6.3,0-8.1,0C518.5,14.2,517.5,14.1,516.9,14.1z"/>
<rect x="0.5" y="70.5" class="st4" width="203" height="137"/>
<rect x="209.5" y="70.5" class="st4" width="164" height="137"/>
<rect x="379.5" y="70.5" class="st4" width="341" height="137"/>
<rect x="726.5" y="0.5" class="st5" width="163" height="207"/>
<path class="st1" d="M16.5,116.7c-0.9,0-1.6,0.7-1.6,1.6c0,0.9,0.7,1.6,1.6,1.6c0.9,0,1.6-0.7,1.6-1.6
	C18.1,117.4,17.4,116.7,16.5,116.7z M24.7,115.9v1.1h7.1v-1.1H24.7z M32.9,113.2v8.3H34v-8.3H32.9z M27.9,112.7v12.5H29v-12.5H27.9z
	 M36.6,111.7v12c0,0.3-0.1,0.4-0.4,0.4c-0.3,0-1.2,0-2.3,0c0.2,0.3,0.4,0.8,0.4,1.1c1.4,0,2.2,0,2.7-0.2c0.5-0.2,0.7-0.5,0.7-1.3
	v-12H36.6z M30.9,111.5c-1.4,0.6-4,1.1-6.2,1.5c0.1,0.2,0.3,0.6,0.3,0.9c2.3-0.3,5-0.8,6.7-1.5L30.9,111.5z M27.8,116.4
	c-0.7,2-2.1,4.4-3.4,5.7c0.2,0.3,0.5,0.7,0.6,1.1c1.4-1.4,2.9-4.1,3.6-6.4L27.8,116.4z M28.8,118l-0.6,0.6c0.7,0.6,2.3,2.2,2.9,2.8
	l0.7-0.9C31.4,120,29.4,118.4,28.8,118z M41.9,112.5v1.1h9.7v-1.1H41.9z M41.9,116v1.1h9.7V116H41.9z M41.8,119.5v1.1h9.8v-1.1H41.8
	z M41.3,112.5v5.4c0,2.1-0.2,4.8-1.8,6.6c0.2,0.2,0.7,0.5,0.9,0.8c1.8-2,2.1-5.1,2.1-7.4v-5.4H41.3z M51.2,112.5v11.2
	c0,0.3-0.1,0.4-0.4,0.4c-0.3,0-1.3,0-2.4,0c0.2,0.3,0.3,0.8,0.4,1.1c1.4,0,2.3,0,2.8-0.2c0.5-0.2,0.7-0.5,0.7-1.3v-11.2H51.2z
	 M46,112.9v12.2h1.1v-12.2H46z M54.8,116.2v1h13.4v-1H54.8z M56.1,113.3v1h8.7v-1H56.1z M58.6,121.3v0.9h7.1v-0.9H58.6z M58.6,123.7
	v1h7.1v-1H58.6z M60,111.4v5.4h1.1v-5.4H60z M66.6,111.9c-2.8,3.7-7.2,6.6-12.1,8.3c0.2,0.2,0.6,0.7,0.7,0.9
	c4.8-1.8,9.3-4.8,12.3-8.7L66.6,111.9z M57.9,118.8v6.4h1.1v-5.4h6.1v5.4h1.2v-6.3H57.9z M73.7,115.6v1h5.6v-1H73.7z M70,123.9v0.9
	H83v-0.9H70z M70.9,112v0.9h4.4V112H70.9z M75,112v0.2c-0.9,2.4-3.4,4.5-5.6,5.4c0.2,0.2,0.5,0.6,0.7,0.8c2.4-1.1,4.9-3.3,6-6.1
	l-0.7-0.4l-0.2,0.1H75z M77.5,111.4l-0.9,0.3c1.3,2.8,3.6,5.3,6.2,6.5c0.2-0.3,0.5-0.7,0.8-0.9C80.9,116.3,78.6,114,77.5,111.4z
	 M70.5,114.1c0.8,0.5,1.7,1.2,2.1,1.8l0.6-0.7c-0.4-0.5-1.4-1.2-2.2-1.7L70.5,114.1z M80.5,111.5c-0.6,0.7-1.7,1.6-2.4,2.1l0.7,0.5
	c0.8-0.5,1.8-1.3,2.6-2.1L80.5,111.5z M82.2,113.3c-0.6,0.7-1.7,1.6-2.5,2.1l0.7,0.5c0.8-0.5,1.9-1.3,2.7-2.1L82.2,113.3z
	 M73.4,118.7h6.1v2h-6.1V118.7z M72.3,117.8v3.8h8.3v-3.8H72.3z M73.2,121.9c0.4,0.7,0.8,1.6,0.9,2.2l1.1-0.3
	c-0.2-0.6-0.5-1.5-1-2.1L73.2,121.9z M78.8,121.5c-0.2,0.7-0.7,1.6-1.1,2.2l1,0.3c0.4-0.6,0.8-1.4,1.2-2.2L78.8,121.5z M97.4,118
	c-0.4,0.7-1.2,1.6-1.8,2.1l0.7,0.5c0.6-0.5,1.3-1.3,1.9-2.1L97.4,118z M90.7,118.7c0.6,0.6,1.3,1.5,1.6,2.1l0.8-0.5
	c-0.3-0.6-1-1.4-1.7-2L90.7,118.7z M91.2,112v0.9h5v4.1h1v-5H91.2z M91.5,114.2v0.9h5.3v-0.9H91.5z M90.4,116.5v1h8v-1H90.4z
	 M93.8,116.9v7.1c0,0.2,0,0.2-0.2,0.2c-0.2,0-0.7,0-1.3,0c0.1,0.3,0.3,0.7,0.3,1c0.8,0,1.4,0,1.7-0.2c0.4-0.2,0.5-0.5,0.5-1v-7.1
	H93.8z M90.1,123.2l0.5,0.9c0.9-0.6,1.9-1.3,2.9-2.1l-0.3-0.9C92,122,90.8,122.8,90.1,123.2z M94.8,117.6l-0.6,0.8
	c0.5,1.8,1.6,4.6,3.8,5.9c0.2-0.3,0.5-0.7,0.7-0.9C96.4,122.2,95.2,119.6,94.8,117.6z M85.6,115.1v1h4.3v-1H85.6z M84.8,117.7v1h5.5
	v-1H84.8z M85.2,119.7c0.3,0.9,0.5,2.1,0.5,2.9l0.8-0.2c-0.1-0.8-0.3-1.9-0.6-2.8L85.2,119.7z M84.7,123.7l0.2,1.1
	c1.5-0.3,3.5-0.8,5.4-1.2l-0.1-1C88.2,123,86.1,123.5,84.7,123.7z M89.3,119.3c-0.1,0.8-0.4,2-0.6,2.7l0.7,0.2
	c0.3-0.7,0.5-1.8,0.8-2.7L89.3,119.3z M87.2,115.5v8.3l1-0.2v-8.2H87.2z M87.1,111.4c-0.5,1.2-1.5,2.7-2.8,3.9
	c0.2,0.1,0.5,0.5,0.7,0.7c1.5-1.3,2.5-2.9,3-4v-0.3h-0.3v-0.2H87.1z M87.3,111.4v0.8h0.2c0.9,0.8,1.9,2,2.4,2.8l0.8-0.9
	c-0.5-0.8-1.6-1.9-2.5-2.7H87.3z M100.3,124h6v-1.1h-2.2V113h-1c-0.6,0.4-1.3,0.6-2.3,0.8v0.9h2v8.2h-2.4V124z M111.5,124.2
	c2.1,0,3.4-1.9,3.4-5.7c0-3.8-1.3-5.7-3.4-5.7c-2.1,0-3.4,1.8-3.4,5.7C108.1,122.3,109.4,124.2,111.5,124.2z M111.5,123.1
	c-1.3,0-2.1-1.4-2.1-4.6c0-3.2,0.9-4.6,2.1-4.6c1.2,0,2.1,1.4,2.1,4.6C113.6,121.7,112.7,123.1,111.5,123.1z M124.7,111.6v13.6h1.1
	v-13.6H124.7z M122.1,112.2c-0.3,1.9-1,3.9-1.8,5.1c0.3,0.1,0.8,0.4,1,0.6c0.9-1.3,1.5-3.4,1.9-5.5L122.1,112.2z M122.3,114.5
	l-0.3,1.1h7.3v-1.1H122.3z M120.4,118.9v1.1h9.5v-1.1H120.4z M119.6,111.5c-0.8,2.3-2.1,4.5-3.5,6c0.2,0.3,0.5,0.9,0.6,1.1
	c1.6-1.7,3-4.2,4-6.8L119.6,111.5z M118.1,115.3v9.9h1.1v-10.9l0,0L118.1,115.3z M16.5,138.7c-0.9,0-1.6,0.7-1.6,1.6
	c0,0.9,0.7,1.6,1.6,1.6c0.9,0,1.6-0.7,1.6-1.6C18.1,139.4,17.4,138.7,16.5,138.7z M31.7,135.5v1.1h5.5v-1.1H31.7z M24.7,134.3v1.1
	H32v-1.1H24.7z M26.5,137.4v1h3.9v-1H26.5z M26.5,140.5v1h3.9v-1H26.5z M36.9,135.5v0.3c-0.6,5.3-2.9,8.8-5.8,10.3
	c0.3,0.2,0.6,0.6,0.8,0.9c3.2-1.9,5.5-5.4,6.2-11.4l-0.7-0.2l-0.2,0H36.9z M33,136.6l-1.1,0.2c0.9,4.7,2.7,8.4,5.9,10.2
	c0.2-0.3,0.5-0.7,0.8-0.9C35.6,144.5,33.8,141,33,136.6z M25.9,134.8v9.7H27v-9.7H25.9z M29.9,134.8v12.4H31v-12.4H29.9z
	 M24.4,144.2l0.2,1.1c1.6-0.2,3.7-0.6,5.8-0.9l-0.1-1C28.1,143.7,25.9,144,24.4,144.2z M45.4,140.7l0,0.2c-0.2,3.4-0.5,4.7-0.9,5.1
	c-0.2,0.1-0.3,0.2-0.7,0.2c-0.4,0-1.4,0-2.4-0.1c0.2,0.3,0.4,0.8,0.4,1.2c1,0,1.9,0.1,2.4,0c0.6,0,0.9-0.1,1.2-0.5
	c0.5-0.5,0.8-1.9,1-5.5c0-0.1,0-0.5,0-0.5H45.4z M41,137.5c-0.2,1.5-0.6,3.5-0.9,4.8l1.1,0.2c0.3-1.3,0.7-3.3,0.9-4.9H41z
	 M50.6,133.6v13.6h1.1v-13.6H50.6z M41,140.7l-0.1,1.1h4.9v-1.1H41z M41.4,137.5v1.1h5.1V134h-6v1.1h4.9v2.4H41.4z M62.9,140.6v4.7
	c0,1.2,0.3,1.6,1.7,1.6c0.3,0,1.8,0,2.1,0c1.2,0,1.5-0.6,1.7-2.9c-0.3-0.1-0.8-0.3-1-0.4c-0.1,1.9-0.1,2.2-0.7,2.2
	c-0.4,0-1.7,0-1.9,0c-0.6,0-0.7-0.1-0.7-0.5v-4.7H62.9z M54.9,139.9v1.1h13.2v-1.1H54.9z M57.4,135.7v1.1H67v-1.1H57.4z M58.9,140.7
	c-0.3,2.6-0.9,4.6-4.2,5.6c0.3,0.2,0.6,0.7,0.7,1c3.5-1.2,4.3-3.5,4.6-6.6H58.9z M57.7,133.8c-0.4,1.6-1.1,3.6-2.1,4.8
	c0.3,0.1,0.7,0.4,1,0.5c1-1.3,1.8-3.4,2.3-5.1L57.7,133.8z M60.9,133.4v6.8h1.1v-6.8H60.9z M73.7,137.6v1h5.6v-1H73.7z M70,145.9
	v0.9H83v-0.9H70z M70.9,134v0.9h4.4V134H70.9z M75,134v0.2c-0.9,2.4-3.4,4.5-5.6,5.4c0.2,0.2,0.5,0.6,0.7,0.8c2.4-1.1,4.9-3.3,6-6.1
	l-0.7-0.4l-0.2,0.1H75z M77.5,133.4l-0.9,0.3c1.3,2.9,3.6,5.3,6.2,6.5c0.2-0.3,0.5-0.7,0.8-0.9C80.9,138.3,78.6,136,77.5,133.4z
	 M70.5,136.1c0.8,0.5,1.7,1.2,2.1,1.8l0.6-0.7c-0.4-0.5-1.4-1.2-2.2-1.7L70.5,136.1z M80.5,133.5c-0.6,0.7-1.7,1.6-2.4,2.1l0.7,0.5
	c0.8-0.5,1.8-1.3,2.6-2.1L80.5,133.5z M82.2,135.3c-0.6,0.7-1.7,1.6-2.5,2.1l0.7,0.5c0.8-0.5,1.9-1.3,2.7-2.1L82.2,135.3z
	 M73.4,140.7h6.1v2h-6.1V140.7z M72.3,139.8v3.8h8.3v-3.8H72.3z M73.2,143.9c0.4,0.7,0.8,1.6,0.9,2.2l1.1-0.3
	c-0.2-0.6-0.5-1.5-1-2.1L73.2,143.9z M78.8,143.5c-0.2,0.7-0.7,1.6-1.1,2.2l1,0.3c0.4-0.6,0.8-1.4,1.2-2.2L78.8,143.5z M97.4,140
	c-0.4,0.7-1.2,1.6-1.8,2.1l0.7,0.5c0.6-0.5,1.3-1.3,1.9-2.1L97.4,140z M90.7,140.7c0.6,0.6,1.3,1.5,1.6,2.1l0.8-0.5
	c-0.3-0.6-1-1.4-1.7-2L90.7,140.7z M91.2,134v0.9h5v4.1h1v-5H91.2z M91.5,136.2v0.9h5.3v-0.9H91.5z M90.4,138.5v1h8v-1H90.4z
	 M93.8,138.9v7.1c0,0.2,0,0.2-0.2,0.2c-0.2,0-0.7,0-1.3,0c0.1,0.3,0.3,0.7,0.3,1c0.8,0,1.4,0,1.7-0.2c0.4-0.2,0.5-0.5,0.5-1v-7.1
	H93.8z M90.1,145.2l0.5,0.9c0.9-0.6,1.9-1.3,2.9-2.1l-0.3-0.9C92,144,90.8,144.8,90.1,145.2z M94.8,139.6l-0.6,0.8
	c0.5,1.8,1.6,4.6,3.8,5.9c0.2-0.3,0.5-0.7,0.7-0.9C96.4,144.2,95.2,141.6,94.8,139.6z M85.6,137.1v1h4.3v-1H85.6z M84.8,139.7v1h5.5
	v-1H84.8z M85.2,141.7c0.3,0.9,0.5,2.1,0.5,2.9l0.8-0.2c-0.1-0.8-0.3-1.9-0.6-2.9L85.2,141.7z M84.7,145.7l0.2,1.1
	c1.5-0.3,3.5-0.8,5.4-1.2l-0.1-1C88.2,145,86.1,145.5,84.7,145.7z M89.3,141.3c-0.1,0.8-0.4,2-0.6,2.7l0.7,0.2
	c0.3-0.7,0.5-1.8,0.8-2.7L89.3,141.3z M87.2,137.5v8.3l1-0.2v-8.2H87.2z M87.1,133.4c-0.5,1.2-1.5,2.7-2.8,3.9
	c0.2,0.1,0.5,0.5,0.7,0.7c1.5-1.3,2.5-2.9,3-4.1v-0.3h-0.3v-0.2H87.1z M87.3,133.4v0.8h0.2c0.9,0.8,1.9,2,2.4,2.8l0.8-0.9
	c-0.5-0.8-1.6-1.9-2.5-2.7H87.3z M100.3,146h6v-1.1h-2.2V135h-1c-0.6,0.4-1.3,0.6-2.3,0.8v0.9h2v8.2h-2.4V146z M111.5,146.2
	c2.1,0,3.4-1.9,3.4-5.7c0-3.8-1.3-5.7-3.4-5.7c-2.1,0-3.4,1.8-3.4,5.7C108.1,144.3,109.4,146.2,111.5,146.2z M111.5,145.1
	c-1.3,0-2.1-1.4-2.1-4.6c0-3.2,0.9-4.6,2.1-4.6c1.2,0,2.1,1.4,2.1,4.6C113.6,143.7,112.7,145.1,111.5,145.1z M119.8,146.2
	c2.1,0,3.4-1.9,3.4-5.7c0-3.8-1.3-5.7-3.4-5.7c-2.1,0-3.4,1.8-3.4,5.7C116.4,144.3,117.7,146.2,119.8,146.2z M119.8,145.1
	c-1.3,0-2.1-1.4-2.1-4.6c0-3.2,0.9-4.6,2.1-4.6c1.2,0,2.1,1.4,2.1,4.6C121.9,143.7,121.1,145.1,119.8,145.1z M133,133.6v13.6h1.1
	v-13.6H133z M130.4,134.2c-0.3,2-1,3.9-1.8,5.1c0.3,0.1,0.8,0.4,1,0.6c0.9-1.3,1.5-3.4,1.9-5.5L130.4,134.2z M130.6,136.5l-0.3,1.1
	h7.3v-1.1H130.6z M128.7,140.9v1.1h9.5v-1.1H128.7z M128,133.5c-0.8,2.3-2.1,4.5-3.5,6c0.2,0.3,0.5,0.9,0.6,1.1c1.6-1.7,3-4.2,4-6.8
	L128,133.5z M126.5,137.3v9.9h1.1v-10.9l0,0L126.5,137.3z M16.5,160.7c-0.9,0-1.6,0.7-1.6,1.6c0,0.9,0.7,1.6,1.6,1.6
	c0.9,0,1.6-0.7,1.6-1.6C18.1,161.4,17.4,160.7,16.5,160.7z M27.4,160.7v1.1h8.2v-1.1H27.4z M25.9,156v1h4.5v-1H25.9z M25.5,164.1v1
	h12v-1H25.5z M30,156v0.2c-0.9,2.4-3.3,4.5-5.5,5.4c0.2,0.2,0.6,0.6,0.7,0.9c2.4-1.1,4.9-3.2,6-6.2l-0.8-0.4l-0.2,0H30z M29,161.2
	v2.6c0,1.7-0.4,3.4-3.8,4.6c0.2,0.2,0.6,0.6,0.7,0.9c3.7-1.3,4.2-3.4,4.2-5.5v-2.6H29z M32.7,155.5l-1,0.3c1.2,3,3.4,5.6,6.1,6.8
	c0.2-0.3,0.5-0.7,0.8-1C35.9,160.5,33.7,158.2,32.7,155.5z M25.7,158.2c0.7,0.5,1.6,1.3,2,1.7l0.8-0.7c-0.4-0.5-1.3-1.2-2-1.7
	L25.7,158.2z M35.5,155.6c-0.6,0.7-1.6,1.6-2.4,2.2l0.7,0.5c0.8-0.5,1.8-1.4,2.5-2.1L35.5,155.6z M37.3,157.3
	c-0.6,0.7-1.8,1.7-2.6,2.3l0.7,0.5c0.8-0.6,1.9-1.4,2.7-2.2L37.3,157.3z M32.7,161.3v6.2c0,1.2,0.3,1.6,1.6,1.6c0.3,0,1.7,0,2,0
	c1.1,0,1.4-0.5,1.5-2.5c-0.3-0.1-0.8-0.3-1-0.4c-0.1,1.6-0.1,1.9-0.6,1.9c-0.3,0-1.5,0-1.7,0c-0.5,0-0.6-0.1-0.6-0.6v-6.2H32.7z
	 M45.5,156.3v1.1h7.4v-1.1H45.5z M49.9,160.8v7c0,0.3-0.1,0.3-0.4,0.3c-0.3,0-1.3,0-2.3,0c0.2,0.3,0.3,0.8,0.4,1.1
	c1.5,0,2.3,0,2.8-0.2c0.5-0.2,0.7-0.5,0.7-1.2v-7H49.9z M44.9,160.5v1.1h8.5v-1.1H44.9z M41.9,161.6v7.6H43v-8.5l-0.1-0.1
	L41.9,161.6z M43.6,158.6c-1,1.7-2.7,3.5-4.2,4.6c0.2,0.2,0.6,0.7,0.8,0.9c1.6-1.3,3.3-3.2,4.5-5.1L43.6,158.6z M43,155.4
	c-0.8,1.1-2.2,2.4-3.5,3.3c0.2,0.2,0.5,0.7,0.7,0.9c1.3-1,2.9-2.4,3.9-3.7L43,155.4z M55.3,159.9v0.9h4.4v-0.9H55.3z M55.3,155.9
	v0.9h4.3v-0.9H55.3z M55.3,162v0.9h4.4V162H55.3z M54.6,157.9v0.9h5.6v-0.9H54.6z M55.8,164v0.9h2.9v2.5h-2.9v0.9h3.9V164H55.8z
	 M55.3,164v5.1h1V164H55.3z M60.5,156.4v0.9H68v-0.9H60.5z M60.9,158.2v0.8h6.9v-0.8H60.9z M60.1,160v0.9h8.3V160H60.1z M63.7,155.4
	v5.3h1.1v-5.3H63.7z M61.2,161.7v7.4h1.1v-6.6H67v-0.9H61.2z M66.4,161.7v6.3c0,0.2,0,0.2-0.2,0.2c-0.2,0-0.8,0-1.5,0
	c0.1,0.3,0.3,0.7,0.3,0.9c0.9,0,1.6,0,2-0.1c0.4-0.2,0.5-0.4,0.5-1v-6.3H66.4z M61.7,163.7v0.8h5.2v-0.8H61.7z M61.7,165.6v0.8h5.2
	v-0.8H61.7z M70,157.9v1.1h13.1v-1.1H70z M76.9,158.9l-0.9,0.3c1.2,3.9,3.4,7.4,6.6,8.9c0.2-0.3,0.6-0.8,0.8-1
	C80.4,165.8,78.1,162.5,76.9,158.9z M81.4,159.6c-0.8,1.1-2.2,2.6-3.2,3.4l0.8,0.6c1.1-0.9,2.4-2.2,3.4-3.3L81.4,159.6z M78.4,156.2
	c1,0.5,2.2,1.3,2.7,1.8l0.7-0.8c-0.6-0.5-1.9-1.2-2.8-1.7L78.4,156.2z M70.8,160.5c0.9,0.8,2,2,2.4,2.8l0.9-0.6
	c-0.5-0.8-1.5-1.9-2.5-2.7L70.8,160.5z M75.9,155.4v12.2c0,0.3-0.1,0.4-0.4,0.4c-0.3,0-1.3,0-2.3,0c0.2,0.3,0.4,0.9,0.4,1.2
	c1.3,0,2.2,0,2.7-0.2c0.5-0.2,0.7-0.5,0.7-1.3v-12.2H75.9z M69.6,166.7l0.7,1c1.3-0.8,3.1-1.8,4.7-2.8l-0.4-1
	C72.8,165,70.8,166.1,69.6,166.7z M86.7,164.6v4.7h1.1v-3.9h7.4v3.9h1.1v-4.6H86.7z M87.3,166.3v0.8h8.4v-0.8H87.3z M87.3,168v0.8
	h8.4V168H87.3z M90.9,155.4v8.1H92v-8.1H90.9z M86.4,156.4v0.8h8.8v2.6h-9v0.7h10.1v-4.1H86.4z M84.8,158.1v0.8h13.3v-0.8H84.8z
	 M85.8,161.4v0.8h11.3v-0.8H85.8z M84.8,163v0.8h13.4V163H84.8z M107.4,157.8l-1.2,0c-0.1,1.6-0.5,3.3-0.9,4.7
	c-0.8,2.5-1.6,3.6-2.3,3.6c-0.7,0-1.5-0.8-1.5-2.7c0-2.2,2.1-4.9,5.4-4.9c2.9,0,4.5,2,4.5,4.4c0,2.6-1.9,4-3.8,4.5
	c-0.4,0.1-0.8,0.1-1.3,0.2l0.7,1.1c3.6-0.5,5.6-2.6,5.6-5.7c0-3-2.2-5.5-5.7-5.5c-3.7,0-6.6,2.8-6.6,6.1c0,2.5,1.3,4,2.7,4
	c1.4,0,2.6-1.6,3.5-4.7C106.9,161.1,107.2,159.3,107.4,157.8z M121.4,155.9v1.8c0,1-0.2,2.3-1.7,3.2c0.2,0.2,0.7,0.5,0.8,0.8
	c1.6-1.1,1.9-2.7,1.9-4v-1.8H121.4z M125.1,155.9v3.7c0,1.1,0.3,1.4,1.2,1.4c0.2,0,0.9,0,1,0c0.8,0,1.1-0.5,1.2-2.2
	c-0.3-0.1-0.7-0.2-0.9-0.4c0,1.4-0.1,1.6-0.3,1.6c-0.1,0-0.6,0-0.8,0c-0.2,0-0.3-0.1-0.3-0.4v-3.7H125.1z M122.2,163l-1,0.3
	c1.2,2.9,3.4,5,6.6,5.9c0.1-0.3,0.5-0.7,0.7-1C125.5,167.5,123.3,165.5,122.2,163z M126.4,161.9v0.2c-0.9,3.3-3.6,5.4-6.6,6.1
	c0.2,0.2,0.5,0.7,0.6,1c3.3-1,6.1-3.1,7.2-7.1l-0.7-0.3l-0.2,0H126.4z M120.5,161.9v1h6.4v-1H120.5z M121.9,155.9v1h3.8v-1H121.9z
	 M115.3,159.9v0.9h4.5v-0.9H115.3z M115.3,155.9v0.9h4.4v-0.9H115.3z M115.3,162v0.9h4.5V162H115.3z M114.6,157.9v0.9h5.7v-0.9
	H114.6z M115.8,164v0.9h2.9v2.5h-2.9v0.9h3.9V164H115.8z M115.3,164v5.1h1V164H115.3z M132.2,160v1.1h8.7V160H132.2z M136.5,163.6
	v1.1h5.1v-1.1H136.5z M135.9,160.5v7.4l1.2,0.1v-7.6H135.9z M132.3,162.4c-0.3,2.7-1.1,4.9-2.8,6.2c0.3,0.2,0.8,0.6,0.9,0.8
	c1.7-1.5,2.6-3.8,3.1-6.8L132.3,162.4z M133,164.3l-0.9,0.3c1.3,3.7,3.7,4.4,7.3,4.4h3.5c0-0.3,0.2-0.9,0.4-1.1c-0.7,0-3.3,0-3.9,0
	C136.4,167.9,134.1,167.4,133,164.3z M135.9,155.4v2.4h1.2v-2.4H135.9z M130.2,157.1v3.3h1.1v-2.2h10.3v2.2h1.2v-3.3H130.2z
	 M145.3,168h6v-1.1h-2.2V157h-1.1c-0.6,0.4-1.3,0.6-2.3,0.8v0.9h2v8.2h-2.4V168z M156.5,168.2c2.1,0,3.4-1.9,3.4-5.7
	c0-3.8-1.3-5.7-3.4-5.7c-2.1,0-3.4,1.8-3.4,5.7C153.1,166.3,154.4,168.2,156.5,168.2z M156.5,167.1c-1.3,0-2.1-1.4-2.1-4.6
	c0-3.2,0.9-4.6,2.1-4.6c1.2,0,2.1,1.4,2.1,4.6C158.6,165.7,157.7,167.1,156.5,167.1z M170.2,156.5v12h1.1v-12H170.2z M166.5,158.1
	v0.9h8.3v-0.9H166.5z M166.1,168v0.9h9V168H166.1z M167,165.9v0.9h7.6v-0.9H167z M174.1,155.6c-1.7,0.4-4.8,0.6-7.3,0.7
	c0.1,0.2,0.2,0.6,0.3,0.9c2.6-0.1,5.8-0.3,7.8-0.8L174.1,155.6z M168.1,162.8h5.3v1.2h-5.3V162.8z M168.1,160.8h5.3v1.2h-5.3V160.8z
	 M167.1,160v4.8h7.4V160H167.1z M163.8,156.6v12.5h1.1v-12.5H163.8z M161.4,159.6v1.1h5.4v-1.1H161.4z M163.9,160
	c-0.5,1.9-1.7,4.2-2.8,5.4c0.2,0.3,0.5,0.7,0.6,1c1.2-1.4,2.4-4,3-6.1L163.9,160z M166,155.6c-1.1,0.5-3.1,0.9-4.8,1.2
	c0.1,0.3,0.3,0.6,0.3,0.9c1.7-0.2,3.8-0.7,5.2-1.2L166,155.6z M164.9,161.6l-0.5,0.4c0.5,0.5,1.6,1.9,2,2.6l0.7-0.9
	C166.7,163.3,165.2,161.9,164.9,161.6z M176.4,163.8v1h6.4v-1H176.4z M176.4,158.1v0.9h6.3v-0.9H176.4z M181.6,155.7
	c-0.2,0.5-0.6,1.3-0.9,1.8l0.8,0.3c0.3-0.5,0.7-1.2,1.1-1.8L181.6,155.7z M179.1,155.6v6.6h1v-6.6H179.1z M176.7,156.1
	c0.4,0.6,0.7,1.3,0.8,1.8l0.8-0.4c-0.1-0.5-0.5-1.2-0.9-1.7L176.7,156.1z M179.1,165.9c1,0.7,2.2,1.7,2.8,2.2l0.7-0.8
	c-0.6-0.6-1.9-1.5-2.8-2.1L179.1,165.9z M180,159.2l-0.6,0.5c0.6,0.4,2.2,1.6,2.8,2.1l0.6-0.8C182.4,160.6,180.6,159.4,180,159.2z
	 M179,158.6c-0.6,1.1-1.8,2.3-2.8,2.9c0.2,0.2,0.5,0.5,0.7,0.7c1.1-0.7,2.3-2,2.9-3.3L179,158.6z M182.8,156.1v1h7.1v-1H182.8z
	 M184.4,161.7h4.1v1.4h-4.1V161.7z M184.4,163.9h4.1v1.5h-4.1V163.9z M184.4,159.4h4.1v1.4h-4.1V159.4z M183.3,158.5v7.8h6.1v-7.8
	H183.3z M185.8,156.6c-0.1,0.7-0.4,1.7-0.6,2.4l1,0.2c0.3-0.6,0.6-1.6,0.9-2.4L185.8,156.6z M184.7,166.6c-0.6,0.7-1.8,1.4-2.9,1.9
	c0.3,0.2,0.6,0.5,0.8,0.8c1.1-0.4,2.4-1.3,3.1-2L184.7,166.6z M186.9,167.2c0.9,0.6,2,1.4,2.5,2l0.9-0.6c-0.6-0.6-1.7-1.4-2.6-1.9
	L186.9,167.2z M179,162.5v1.5c0,1.3-0.3,2.9-2.9,4c0.2,0.2,0.5,0.6,0.6,0.9c2.9-1.3,3.3-3.2,3.3-4.9v-1.5H179z"/>
<path class="st1" d="M232.5,138.7c-0.9,0-1.6,0.7-1.6,1.6c0,0.9,0.7,1.6,1.6,1.6c0.9,0,1.6-0.7,1.6-1.6
	C234.1,139.4,233.4,138.7,232.5,138.7z M247.7,135.5v1.1h5.5v-1.1H247.7z M240.7,134.3v1.1h7.3v-1.1H240.7z M242.5,137.4v1h3.9v-1
	H242.5z M242.5,140.5v1h3.9v-1H242.5z M252.9,135.5v0.3c-0.6,5.3-2.9,8.8-5.8,10.3c0.3,0.2,0.6,0.6,0.8,0.9
	c3.2-1.9,5.5-5.4,6.2-11.4l-0.7-0.2l-0.2,0H252.9z M249,136.6l-1.1,0.2c0.9,4.7,2.7,8.4,5.9,10.2c0.2-0.3,0.5-0.7,0.8-0.9
	C251.6,144.5,249.8,141,249,136.6z M241.9,134.8v9.7h1.1v-9.7H241.9z M245.9,134.8v12.4h1.1v-12.4H245.9z M240.4,144.2l0.2,1.1
	c1.6-0.2,3.7-0.6,5.8-0.9l-0.1-1C244.1,143.7,241.9,144,240.4,144.2z M261.4,140.7l0,0.2c-0.2,3.4-0.5,4.7-0.9,5.1
	c-0.2,0.1-0.3,0.2-0.7,0.2c-0.4,0-1.4,0-2.4-0.1c0.2,0.3,0.4,0.8,0.4,1.2c1,0,1.9,0.1,2.4,0c0.6,0,0.9-0.1,1.2-0.5
	c0.5-0.5,0.8-1.9,1.1-5.5c0-0.1,0-0.5,0-0.5H261.4z M257,137.5c-0.2,1.5-0.6,3.5-0.9,4.8l1.1,0.2c0.3-1.3,0.7-3.3,0.9-4.9H257z
	 M266.6,133.6v13.6h1.1v-13.6H266.6z M257,140.7l-0.2,1.1h4.9v-1.1H257z M257.4,137.5v1.1h5.1V134h-6v1.1h4.9v2.4H257.4z
	 M278.9,140.6v4.7c0,1.2,0.3,1.6,1.7,1.6c0.3,0,1.8,0,2.1,0c1.2,0,1.5-0.6,1.7-2.9c-0.3-0.1-0.8-0.3-1-0.4c-0.1,1.9-0.1,2.2-0.7,2.2
	c-0.4,0-1.6,0-1.9,0c-0.6,0-0.7-0.1-0.7-0.5v-4.7H278.9z M270.9,139.9v1.1h13.2v-1.1H270.9z M273.4,135.7v1.1h9.6v-1.1H273.4z
	 M274.9,140.7c-0.3,2.6-0.9,4.6-4.2,5.6c0.3,0.2,0.6,0.7,0.7,1c3.5-1.2,4.3-3.5,4.6-6.6H274.9z M273.7,133.8
	c-0.4,1.6-1.1,3.6-2.1,4.8c0.3,0.1,0.7,0.4,1,0.5c1-1.3,1.8-3.4,2.3-5.1L273.7,133.8z M276.9,133.4v6.8h1.1v-6.8H276.9z
	 M289.7,137.6v1h5.6v-1H289.7z M286,145.9v0.9H299v-0.9H286z M286.9,134v0.9h4.4V134H286.9z M291,134v0.2c-0.9,2.4-3.4,4.5-5.6,5.4
	c0.2,0.2,0.5,0.6,0.7,0.8c2.4-1.1,4.9-3.3,6-6.1l-0.7-0.4l-0.2,0.1H291z M293.5,133.4l-0.9,0.3c1.3,2.9,3.6,5.3,6.2,6.5
	c0.2-0.3,0.5-0.7,0.8-0.9C296.9,138.3,294.6,136,293.5,133.4z M286.5,136.1c0.8,0.5,1.7,1.2,2.1,1.8l0.6-0.7
	c-0.4-0.5-1.4-1.2-2.2-1.7L286.5,136.1z M296.5,133.5c-0.6,0.7-1.7,1.6-2.4,2.1l0.7,0.5c0.8-0.5,1.8-1.3,2.6-2.1L296.5,133.5z
	 M298.2,135.3c-0.6,0.7-1.7,1.6-2.5,2.1l0.7,0.5c0.8-0.5,1.9-1.3,2.7-2.1L298.2,135.3z M289.4,140.7h6.1v2h-6.1V140.7z M288.3,139.8
	v3.8h8.3v-3.8H288.3z M289.2,143.9c0.4,0.7,0.8,1.6,0.9,2.2l1.1-0.3c-0.1-0.6-0.5-1.5-1-2.1L289.2,143.9z M294.8,143.5
	c-0.2,0.7-0.7,1.6-1.1,2.2l1,0.3c0.4-0.6,0.8-1.4,1.2-2.2L294.8,143.5z M313.4,140c-0.4,0.7-1.2,1.6-1.8,2.1l0.7,0.5
	c0.6-0.5,1.3-1.3,1.9-2.1L313.4,140z M306.7,140.7c0.6,0.6,1.3,1.5,1.6,2.1l0.8-0.5c-0.3-0.6-1-1.4-1.7-2L306.7,140.7z M307.2,134
	v0.9h5v4.1h1.1v-5H307.2z M307.5,136.2v0.9h5.3v-0.9H307.5z M306.4,138.5v1h8v-1H306.4z M309.8,138.9v7.1c0,0.2,0,0.2-0.2,0.2
	c-0.2,0-0.7,0-1.3,0c0.1,0.3,0.3,0.7,0.3,1c0.8,0,1.4,0,1.7-0.2c0.4-0.2,0.5-0.5,0.5-1v-7.1H309.8z M306.1,145.2l0.5,0.9
	c0.9-0.6,1.9-1.3,2.9-2.1l-0.3-0.9C308,144,306.8,144.8,306.1,145.2z M310.8,139.6l-0.6,0.8c0.5,1.8,1.6,4.6,3.8,5.9
	c0.2-0.3,0.5-0.7,0.7-0.9C312.4,144.2,311.2,141.6,310.8,139.6z M301.6,137.1v1h4.3v-1H301.6z M300.8,139.7v1h5.5v-1H300.8z
	 M301.2,141.7c0.3,0.9,0.5,2.1,0.5,2.9l0.8-0.2c-0.1-0.8-0.3-1.9-0.6-2.9L301.2,141.7z M300.7,145.7l0.2,1.1
	c1.5-0.3,3.5-0.8,5.4-1.2l-0.1-1C304.2,145,302.1,145.5,300.7,145.7z M305.3,141.3c-0.1,0.8-0.4,2-0.6,2.7l0.7,0.2
	c0.3-0.7,0.5-1.8,0.8-2.7L305.3,141.3z M303.2,137.5v8.3l1-0.2v-8.2H303.2z M303.1,133.4c-0.5,1.2-1.5,2.7-2.8,3.9
	c0.2,0.1,0.5,0.5,0.7,0.7c1.5-1.3,2.5-2.9,3-4.1v-0.3h-0.3v-0.2H303.1z M303.3,133.4v0.8h0.2c0.9,0.8,1.9,2,2.4,2.8l0.8-0.9
	c-0.5-0.8-1.6-1.9-2.5-2.7H303.3z M320.1,146h1.3v-11h-1.5l-4.6,7.1v0.9h7.6v-1.1h-6.1l2.5-3.8c0.3-0.5,0.6-1.1,0.9-1.6h0.1
	c0,0.6-0.1,1.5-0.1,2V146z M327.5,146.2c2.1,0,3.4-1.9,3.4-5.7c0-3.8-1.3-5.7-3.4-5.7c-2.1,0-3.4,1.8-3.4,5.7
	C324.1,144.3,325.4,146.2,327.5,146.2z M327.5,145.1c-1.3,0-2.1-1.4-2.1-4.6c0-3.2,0.9-4.6,2.1-4.6c1.2,0,2.1,1.4,2.1,4.6
	C329.6,143.7,328.7,145.1,327.5,145.1z M335.8,146.2c2.1,0,3.4-1.9,3.4-5.7c0-3.8-1.3-5.7-3.4-5.7c-2.1,0-3.4,1.8-3.4,5.7
	C332.4,144.3,333.7,146.2,335.8,146.2z M335.8,145.1c-1.3,0-2.1-1.4-2.1-4.6c0-3.2,0.9-4.6,2.1-4.6c1.2,0,2.1,1.4,2.1,4.6
	C337.9,143.7,337.1,145.1,335.8,145.1z M349,133.6v13.6h1.1v-13.6H349z M346.4,134.2c-0.3,2-1,3.9-1.8,5.1c0.3,0.1,0.8,0.4,1,0.6
	c0.9-1.3,1.5-3.4,2-5.5L346.4,134.2z M346.6,136.5l-0.3,1.1h7.3v-1.1H346.6z M344.7,140.9v1.1h9.5v-1.1H344.7z M344,133.5
	c-0.8,2.3-2.1,4.5-3.5,6c0.2,0.3,0.5,0.9,0.6,1.1c1.6-1.7,3-4.2,4-6.8L344,133.5z M342.5,137.3v9.9h1.1v-10.9l0,0L342.5,137.3z"/>
<path class="st1" d="M403.5,94.7c-0.9,0-1.6,0.7-1.6,1.6c0,0.9,0.7,1.6,1.6,1.6c0.9,0,1.6-0.7,1.6-1.6
	C405.1,95.4,404.4,94.7,403.5,94.7z M416.9,91.4c0.2,0.8,1.8,8.9,1.9,9.9c0.1,0.4,0.2,0.9,0.2,1.4l1.4-0.3c-0.1-0.4-0.3-0.9-0.4-1.4
	c-0.2-1-1.9-9.2-2-9.9c-0.1-0.3-0.1-0.8-0.1-1l-1.3,0.2C416.7,90.7,416.8,91,416.9,91.4z M412.6,93.6l0.3,1.3
	c0.4-0.1,0.8-0.2,1.2-0.3c1.3-0.2,6.4-1,8-1.3c0.4-0.1,0.9-0.1,1.1-0.2l-0.2-1.3c-0.3,0.1-0.6,0.2-1.1,0.2c-1.4,0.3-6.6,1.1-8,1.3
	C413.4,93.5,413,93.5,412.6,93.6z M412.6,97.9l0.3,1.3c0.3-0.1,0.8-0.2,1.3-0.3c1.5-0.3,6.9-1.2,8.9-1.5c0.6-0.1,1-0.2,1.4-0.2
	l-0.3-1.3c-0.3,0.1-0.8,0.2-1.3,0.3c-1.8,0.3-7.4,1.2-9,1.5C413.5,97.8,413,97.9,412.6,97.9z M433.2,93.4l-1.1,0.4
	c0.3,0.7,1,2.6,1.2,3.3l1.1-0.4C434.2,96,433.5,94,433.2,93.4z M438.7,94.2l-1.3-0.4c-0.2,1.9-1,3.8-2.1,5.1
	c-1.2,1.5-3.1,2.7-4.9,3.2l1,1c1.7-0.6,3.5-1.8,4.9-3.6c1.1-1.3,1.7-3,2.1-4.6C438.5,94.8,438.6,94.5,438.7,94.2z M429.8,94.1
	l-1.1,0.4c0.3,0.5,1.1,2.6,1.3,3.4l1.1-0.4C430.8,96.7,430,94.8,429.8,94.1z M454.1,92.6l-1-0.6c-0.2,0.1-0.6,0.1-1,0.1
	c-0.5,0-4.2,0-4.8,0l-0.5,1.1h5.6c-0.3,1.4-1.2,3.3-2.4,4.7c-1.4,1.6-3.2,3-6,3.8l1.1,1c2.8-1.1,4.6-2.4,6-4.1
	c1.3-1.6,2.2-3.7,2.7-5.2C453.8,93.2,453.9,92.8,454.1,92.6z M449,90.4l-1.4-0.5c-0.1,0.4-0.3,0.9-0.5,1.2c-0.7,1.3-2.1,3.5-4.7,5.1
	l1,0.8c2.4-1.6,4-3.7,4.9-5.4C448.5,91.3,448.8,90.8,449,90.4z M465.9,90.3h-1.4c0.1,0.3,0.1,0.7,0.1,1.2c0.1,1.7,0.1,7,0.1,9.2
	c0,0.4-0.1,0.6-0.6,0.6c-0.6,0-1.4-0.1-2.1-0.2l0.1,1.2c0.8,0,1.6,0.1,2.4,0.1c0.9,0,1.4-0.4,1.4-1.2c0-2.8-0.1-8-0.1-9.7
	C465.8,91.1,465.8,90.7,465.9,90.3z M457.8,92.9v1.3c0.5,0,0.9-0.1,1.4-0.1c0.7,0,8.3,0,9,0c0.4,0,0.9,0,1.2,0v-1.3
	c-0.3,0-0.9,0.1-1.3,0.1c-0.8,0-8.2,0-9,0C458.8,93,458.3,92.9,457.8,92.9z M457.3,99.9l0.9,1c2.9-1.5,5.7-4.2,6.8-6l0-1h-0.6
	C463.2,95.7,460.5,98.3,457.3,99.9z M483.9,92l-0.9-0.6c-0.3,0.1-0.6,0.1-0.8,0.1c-0.7,0-6.7,0-7.5,0c-0.5,0-1.1,0-1.5-0.1v1.3
	c0.4,0,0.9,0,1.5,0c0.9,0,6.8,0,7.7,0c-0.2,1.4-0.9,3.5-2,4.9c-1.3,1.6-2.9,2.9-5.9,3.6l1,1.1c2.7-0.9,4.5-2.2,5.9-4
	c1.2-1.5,1.9-4,2.2-5.5C483.8,92.5,483.8,92.2,483.9,92z M490.3,90.6l-0.4,1.1c2.1,0.3,6,1.1,7.8,1.8l0.5-1.2
	C496.3,91.7,492.3,90.9,490.3,90.6z M489.6,94.6l-0.4,1.1c2.1,0.3,5.8,1.2,7.5,1.8l0.5-1.2C495.3,95.7,491.7,95,489.6,94.6z
	 M488.8,99l-0.5,1.2c2.4,0.4,6.9,1.4,8.9,2.2l0.5-1.2C495.7,100.4,491.3,99.4,488.8,99z M502.5,95.5V97c0.5,0,1.3-0.1,2.1-0.1
	c1.1,0,7.1,0,8.2,0c0.7,0,1.3,0,1.6,0.1v-1.5c-0.3,0-0.9,0.1-1.6,0.1c-1.1,0-7.1,0-8.2,0C503.8,95.6,503,95.6,502.5,95.5z
	 M519.2,90.9v1.2c0.4,0,0.9-0.1,1.4-0.1c0.9,0,5.2,0,6.1,0c0.4,0,0.9,0,1.4,0.1v-1.2c-0.4,0-1,0.1-1.4,0.1c-0.8,0-5.2,0-6.1,0
	C520.1,91,519.6,91,519.2,90.9z M517.4,94.7v1.2c0.4,0,0.9,0,1.3,0c0.9,0,9,0,9.8,0c0.4,0,0.8,0,1.2,0v-1.2c-0.4,0-0.9,0.1-1.2,0.1
	c-0.8,0-8.9,0-9.8,0C518.3,94.7,517.8,94.7,517.4,94.7z M524.5,95.3l-1.3,0c0,1.7-0.1,3.1-0.9,4.3c-0.6,1-1.7,1.8-2.8,2.3l1.1,0.8
	c1.3-0.7,2.4-1.7,2.9-2.7C524.2,98.7,524.5,97.2,524.5,95.3z M531.9,98.1l0.6,1.1c2-0.6,4.1-1.6,5.3-2.4c1.6-0.9,3.1-2.2,4-3.2
	l-0.9-0.9c-0.8,0.9-2.2,2.2-3.6,3C536.1,96.6,533.9,97.7,531.9,98.1z M537.2,96.6v5.3c0,0.5,0,1.1-0.1,1.3h1.4
	c-0.1-0.2-0.1-0.9-0.1-1.3v-5.6L537.2,96.6z M548.5,91l-0.9,0.9c1.1,0.7,3,2.4,3.8,3.1l0.9-1C551.5,93.3,549.6,91.7,548.5,91z
	 M547.2,101.1l0.8,1.2c2.5-0.5,4.4-1.4,5.9-2.3c2.3-1.4,4-3.5,5-5.3l-0.7-1.3c-0.9,1.9-2.7,4.1-5,5.5
	C551.8,99.8,549.8,100.7,547.2,101.1z M571.6,90l-0.8,0.3c0.4,0.6,0.9,1.5,1.2,2.1l0.8-0.4C572.5,91.5,572,90.5,571.6,90z
	 M573.2,89.4l-0.8,0.3c0.4,0.6,0.9,1.4,1.2,2.1l0.8-0.4C574.2,90.9,573.6,90,573.2,89.4z M572.6,93l-1-0.6c-0.3,0.1-0.6,0.2-1,0.2
	c-0.5,0-4.2,0-4.8,0l-0.5,1.1h5.6c-0.3,1.4-1.2,3.3-2.4,4.7c-1.4,1.6-3.2,3-6,3.8l1.1,1c2.8-1,4.6-2.4,6-4.1
	c1.3-1.6,2.2-3.7,2.7-5.2C572.3,93.6,572.5,93.2,572.6,93z M567.5,90.7l-1.4-0.5c-0.1,0.4-0.3,0.9-0.5,1.2c-0.7,1.3-2.1,3.5-4.7,5.1
	l1,0.8c2.4-1.6,4-3.8,4.9-5.4C567,91.6,567.3,91.1,567.5,90.7z M583.6,91.8l-1.2,0c-0.2,1.6-0.5,3.3-0.9,4.7
	c-0.8,2.5-1.6,3.6-2.3,3.6c-0.7,0-1.5-0.8-1.5-2.7c0-2.2,2.1-4.9,5.4-4.9c2.9,0,4.5,2,4.5,4.4c0,2.6-1.9,4-3.8,4.5
	c-0.4,0.1-0.8,0.1-1.3,0.2l0.7,1.1c3.6-0.5,5.6-2.6,5.6-5.7c0-3-2.2-5.5-5.7-5.5c-3.7,0-6.6,2.8-6.6,6.1c0,2.5,1.3,4,2.7,4
	c1.4,0,2.6-1.6,3.5-4.7C583.1,95.1,583.4,93.3,583.6,91.8z M597,89.4v2.2h1.2v-2.2H597z M591.3,90.9v2.9h1.1v-1.9h10.4v1.9h1.2v-2.9
	H591.3z M592.5,93.6v0.9h10.3v-0.9H592.5z M591,98.3v1h13.2v-1H591z M592.8,95.9v0.9h9.8v-0.9H592.8z M598.4,98.5l-1,0.2
	c1.1,2.5,3.2,3.9,6.4,4.5c0.1-0.3,0.5-0.8,0.7-1C601.4,101.8,599.3,100.6,598.4,98.5z M597,92.4v3.7c0,2.2-0.5,4.6-6.1,6.2
	c0.2,0.2,0.6,0.7,0.7,0.9c5.8-1.7,6.5-4.5,6.5-7.1v-3.7H597z M613.1,91.5v1h6.3v-1H613.1z M615.3,93.1v7.6h1v-7.6H615.3z
	 M613.5,89.4c-0.4,1.9-1.2,3.6-2.2,4.8c0.3,0.2,0.7,0.6,0.9,0.8c1.1-1.3,2-3.3,2.5-5.4L613.5,89.4z M611.5,97.3l0.4,0.9l6.6-3.1
	l-0.4-0.9L611.5,97.3z M612.8,94.3v7.2c0,1.3,0.4,1.7,1.9,1.7c0.3,0,2.7,0,3.1,0c1.3,0,1.6-0.5,1.7-2.3c-0.3-0.1-0.7-0.2-1-0.4
	c-0.1,1.5-0.2,1.7-0.8,1.7c-0.5,0-2.5,0-2.9,0c-0.8,0-1-0.1-1-0.7v-7.2H612.8z M617.8,94.4c0,2.3,0,4-0.1,4.3c0,0.2-0.1,0.3-0.3,0.3
	c-0.1,0-0.5,0-0.8,0c0.1,0.2,0.2,0.6,0.2,0.9c0.3,0,0.8,0,1.1-0.1c0.4-0.1,0.6-0.3,0.7-0.8c0.1-0.4,0.1-2.3,0.1-4.5l0-0.2l-0.7-0.3
	l-0.2,0.1l-0.3,0.2H617.8z M605.8,91.9v1.1h6.3v-1.1H605.8z M607.9,95v1h2.6v-1H607.9z M608.4,89.4v2.8h1.1v-2.8H608.4z M607.4,92.5
	c0,3.9-0.2,7.8-1.8,10c0.3,0.2,0.7,0.5,0.9,0.7c1.8-2.4,2-6.6,2-10.7H607.4z M610.2,95v0.2c-0.1,4.8-0.2,6.5-0.5,6.8
	c-0.1,0.2-0.3,0.2-0.5,0.2c-0.2,0-0.8,0-1.4-0.1c0.2,0.3,0.3,0.7,0.3,1c0.6,0,1.2,0,1.6,0c0.4,0,0.6-0.2,0.9-0.5
	c0.4-0.5,0.5-2.2,0.6-7.2c0-0.2,0-0.5,0-0.5H610.2z M403.5,116.7c-0.9,0-1.6,0.7-1.6,1.6c0,0.9,0.7,1.6,1.6,1.6
	c0.9,0,1.6-0.7,1.6-1.6C405.1,117.4,404.4,116.7,403.5,116.7z M423.1,113.2c0-0.5,0.4-1,1-1c0.5,0,1,0.5,1,1c0,0.6-0.4,1-1,1
	C423.5,114.2,423.1,113.8,423.1,113.2z M422.4,113.2c0,0.9,0.8,1.7,1.7,1.7s1.7-0.8,1.7-1.7s-0.8-1.7-1.7-1.7
	S422.4,112.3,422.4,113.2z M423.7,114.2l-0.9-0.6c-0.3,0.1-0.6,0.1-0.8,0.1c-0.7,0-6.7,0-7.5,0c-0.5,0-1.1-0.1-1.5-0.1v1.3
	c0.4,0,0.9-0.1,1.5-0.1c0.9,0,6.8,0,7.7,0c-0.2,1.4-0.9,3.5-2,4.9c-1.3,1.6-2.9,2.9-5.9,3.6l1,1.1c2.7-0.9,4.5-2.2,5.9-4
	c1.2-1.5,1.9-4,2.2-5.5C423.5,114.7,423.6,114.4,423.7,114.2z M428.2,113.7c0,0.4,0,0.8,0,1.2c0,0.6,0,6.8,0,7.4c0,0.5,0,1.6,0,1.8
	h1.3c0-0.2,0-1.2,0-1.7c0-0.6,0-7.5,0-7.5h8.2c0,0,0,7,0,7.5c0,0.6,0,1.5,0,1.7h1.3c0-0.2,0-1.3,0-1.8c0-0.6,0-6.7,0-7.4
	c0-0.4,0-0.8,0-1.2c-0.5,0-1,0-1.3,0c-0.7,0-7.3,0-8.1,0C429.2,113.8,428.8,113.8,428.2,113.7z M438.1,122.1h-9.3v1.2h9.3V122.1z
	 M451.7,112.8l-0.8,0.4c0.5,0.7,1,1.6,1.4,2.4l0.9-0.4C452.8,114.4,452.1,113.4,451.7,112.8z M453.7,112.1l-0.8,0.4
	c0.5,0.7,1,1.5,1.4,2.3l0.9-0.4C454.8,113.7,454.1,112.6,453.7,112.1z M445.3,112.6l-0.7,1c0.9,0.5,2.5,1.6,3.2,2.1l0.7-1
	C447.9,114.2,446.2,113.1,445.3,112.6z M443.1,123.3l0.7,1.2c1.4-0.3,3.5-1,5-1.9c2.4-1.4,4.5-3.3,5.8-5.4l-0.7-1.2
	c-1.2,2.1-3.2,4.1-5.7,5.5C446.6,122.4,444.7,123,443.1,123.3z M443.1,116l-0.7,1c0.9,0.5,2.5,1.5,3.3,2l0.7-1.1
	C445.7,117.5,444,116.4,443.1,116z M459,116.3v1.2c0.3,0,0.8,0,1,0h6.9c0.3,0,0.7,0,1.1,0v-1.2c-0.3,0-0.7,0.1-1.1,0.1h-6.9
	C459.8,116.3,459.4,116.3,459,116.3z M462.9,123.6h1.2v-6.6h-1.2V123.6z M458.3,122.9v1.2c0.4,0,0.7,0,1.1,0h8.3c0.2,0,0.7,0,1,0
	v-1.2c-0.3,0-0.6,0.1-1,0.1h-8.3C459.1,122.9,458.7,122.9,458.3,122.9z M484.1,114.6l-1-0.6c-0.2,0.1-0.6,0.1-1,0.1
	c-0.5,0-4.2,0-4.8,0l-0.5,1.1h5.6c-0.3,1.4-1.2,3.3-2.4,4.7c-1.4,1.6-3.2,3-6,3.8l1.1,1c2.8-1.1,4.6-2.4,6-4.1
	c1.3-1.6,2.2-3.7,2.7-5.2C483.8,115.2,483.9,114.8,484.1,114.6z M479,112.4l-1.4-0.5c-0.1,0.4-0.3,0.9-0.5,1.2
	c-0.7,1.3-2.1,3.5-4.7,5.1l1,0.8c2.4-1.6,4-3.7,4.9-5.4C478.5,113.3,478.8,112.8,479,112.4z M491,122.7c0,0.6,0,1.3-0.1,1.8h1.5
	c-0.1-0.5-0.1-1.3-0.1-1.8c0-0.7,0-6.4,0-8.7c0-0.5,0-1.1,0.1-1.6h-1.5c0.1,0.5,0.1,1.1,0.1,1.6C491,115.2,491,121.8,491,122.7z
	 M492,116.3v1.3c1.6,0.5,4.4,1.6,6.1,2.5l0.5-1.3C497,118.1,494,116.9,492,116.3z M506,122.7c0,0.6,0,1.3-0.1,1.8h1.5
	c-0.1-0.5-0.1-1.3-0.1-1.8c0-0.7,0-6.4,0-8.7c0-0.5,0-1.1,0.1-1.6h-1.5c0.1,0.5,0.1,1.1,0.1,1.6C506,115.2,506,121.8,506,122.7z
	 M507,116.3v1.3c1.6,0.5,4.4,1.6,6.1,2.5l0.5-1.3C512,118.1,509,116.9,507,116.3z M519.3,123.5l0.9,0.7c0.2-0.1,0.5-0.2,0.6-0.3
	c3.8-1.1,6.8-2.9,8.8-5.4l-0.7-1.1c-1.9,2.4-5.3,4.4-8.2,5.1c0-0.8,0-7.1,0-8.5c0-0.4,0.1-1,0.1-1.3h-1.5c0.1,0.3,0.1,1,0.1,1.4
	c0,1.4,0,7.6,0,8.6C519.5,123.1,519.4,123.3,519.3,123.5z M532.5,117.5v1.5c0.5,0,1.3-0.1,2.1-0.1c1.1,0,7.1,0,8.2,0
	c0.7,0,1.3,0,1.6,0.1v-1.5c-0.3,0-0.9,0.1-1.6,0.1c-1.1,0-7.1,0-8.2,0C533.8,117.6,533,117.6,532.5,117.5z M548.7,114.2v1.3
	c0.5,0,1,0,1.5,0c0.7,0,5.7,0,6.4,0c0.5,0,1.1,0,1.5,0v-1.3c-0.4,0-0.9,0.1-1.5,0.1c-0.8,0-5.5,0-6.4,0
	C549.6,114.3,549.2,114.3,548.7,114.2z M547.4,121.7v1.4c0.5,0,1-0.1,1.6-0.1c0.9,0,8.1,0,9,0c0.4,0,0.9,0,1.4,0.1v-1.4
	c-0.4,0-0.9,0.1-1.4,0.1c-0.9,0-8.1,0-9,0C548.4,121.8,547.9,121.7,547.4,121.7z M564.4,113l-0.9,0.9c1.1,0.7,3,2.4,3.8,3.1l0.9-1
	C567.4,115.3,565.5,113.7,564.4,113z M563.1,123.1l0.8,1.2c2.5-0.5,4.4-1.4,5.9-2.3c2.3-1.4,4-3.5,5-5.3l-0.7-1.3
	c-0.9,1.9-2.7,4.1-5,5.5C567.7,121.8,565.7,122.7,563.1,123.1z M587.5,112l-0.8,0.3c0.4,0.6,0.9,1.5,1.2,2.1l0.8-0.4
	C588.4,113.5,587.8,112.5,587.5,112z M589.1,111.4l-0.8,0.3c0.4,0.6,0.9,1.4,1.2,2.1l0.8-0.4C590.1,112.9,589.5,112,589.1,111.4z
	 M588.5,115l-1-0.6c-0.3,0.1-0.6,0.2-1,0.2c-0.5,0-4.2,0-4.8,0l-0.5,1.1h5.6c-0.3,1.4-1.2,3.3-2.4,4.7c-1.4,1.6-3.2,3-6,3.8l1.1,1
	c2.8-1,4.6-2.4,6-4.1c1.3-1.6,2.2-3.7,2.7-5.2C588.2,115.6,588.3,115.2,588.5,115z M583.4,112.7l-1.4-0.5c-0.1,0.4-0.3,0.9-0.5,1.2
	c-0.7,1.3-2.1,3.5-4.7,5.1l1,0.8c2.4-1.6,4-3.8,4.9-5.4C582.9,113.6,583.2,113.1,583.4,112.7z M599.4,113.8l-1.2,0
	c-0.2,1.6-0.5,3.3-0.9,4.7c-0.8,2.5-1.6,3.6-2.3,3.6c-0.7,0-1.5-0.8-1.5-2.7c0-2.2,2.1-4.9,5.4-4.9c2.9,0,4.5,2,4.5,4.4
	c0,2.6-1.9,4-3.8,4.5c-0.4,0.1-0.8,0.1-1.3,0.2l0.7,1.1c3.6-0.5,5.6-2.6,5.6-5.7c0-3-2.2-5.5-5.7-5.5c-3.7,0-6.6,2.8-6.6,6.1
	c0,2.5,1.3,4,2.7,4c1.4,0,2.6-1.6,3.5-4.7C599,117.1,599.2,115.3,599.4,113.8z M612.9,111.4v2.2h1.2v-2.2H612.9z M607.2,112.9v2.9
	h1.1v-1.9h10.4v1.9h1.2v-2.9H607.2z M608.4,115.6v0.9h10.3v-0.9H608.4z M606.9,120.3v1h13.2v-1H606.9z M608.7,117.9v0.9h9.8v-0.9
	H608.7z M614.3,120.5l-1,0.2c1.1,2.5,3.2,3.9,6.4,4.5c0.2-0.3,0.5-0.8,0.7-1C617.3,123.8,615.2,122.6,614.3,120.5z M612.9,114.4v3.7
	c0,2.2-0.5,4.6-6.1,6.2c0.2,0.2,0.6,0.7,0.7,0.9c5.8-1.7,6.5-4.5,6.5-7.1v-3.7H612.9z M629,113.5v1h6.3v-1H629z M631.2,115.1v7.6h1
	v-7.6H631.2z M629.4,111.4c-0.4,1.9-1.2,3.6-2.2,4.8c0.3,0.2,0.7,0.6,0.9,0.8c1.1-1.3,2-3.3,2.5-5.4L629.4,111.4z M627.4,119.3
	l0.4,0.9l6.6-3.1l-0.4-0.9L627.4,119.3z M628.7,116.3v7.2c0,1.3,0.4,1.7,1.9,1.7c0.3,0,2.7,0,3.1,0c1.3,0,1.6-0.5,1.7-2.3
	c-0.3-0.1-0.7-0.2-1-0.4c-0.1,1.5-0.2,1.7-0.8,1.7c-0.5,0-2.6,0-2.9,0c-0.8,0-1-0.1-1-0.7v-7.2H628.7z M633.7,116.4
	c0,2.3,0,4-0.1,4.3c0,0.2-0.1,0.3-0.3,0.3c-0.1,0-0.5,0-0.8,0c0.1,0.2,0.2,0.6,0.2,0.9c0.3,0,0.8,0,1.1-0.1c0.4-0.1,0.6-0.3,0.7-0.8
	c0.1-0.4,0.1-2.3,0.1-4.5l0-0.2l-0.7-0.3l-0.2,0.1l-0.3,0.2H633.7z M621.6,113.9v1.1h6.3v-1.1H621.6z M623.8,117v1h2.6v-1H623.8z
	 M624.3,111.4v2.8h1.1v-2.8H624.3z M623.3,114.5c0,3.9-0.2,7.8-1.8,10c0.3,0.2,0.7,0.5,0.9,0.7c1.8-2.4,2-6.6,2-10.7H623.3z
	 M626.1,117v0.2c-0.1,4.8-0.2,6.5-0.5,6.8c-0.1,0.2-0.3,0.2-0.5,0.2c-0.2,0-0.8,0-1.4-0.1c0.2,0.3,0.3,0.7,0.3,1c0.6,0,1.2,0,1.6,0
	c0.4,0,0.6-0.2,0.9-0.5c0.4-0.5,0.5-2.2,0.6-7.2c0-0.2,0-0.5,0-0.5H626.1z M403.5,138.7c-0.9,0-1.6,0.7-1.6,1.6
	c0,0.9,0.7,1.6,1.6,1.6c0.9,0,1.6-0.7,1.6-1.6C405.1,139.4,404.4,138.7,403.5,138.7z M417.1,134h-1.3c0,0.2,0.1,0.8,0.1,1.1
	c0,0.6-0.1,3.1-0.1,4.8c0,1.7,0.1,3.8,0.1,4.6c0,0.5-0.2,0.7-0.5,0.7c-0.6,0-1.6-0.6-1.6-1.3c0-0.8,1.2-1.8,2.6-2.3
	c1.3-0.5,2.5-0.8,3.9-0.8c1.4,0,2.6,0.7,2.6,1.9c0,1.4-1.2,2.1-2.5,2.4c-0.6,0.1-1.2,0.1-1.8,0.1l0.4,1.2c0.5,0,1.2-0.1,1.9-0.2
	c2.1-0.5,3.2-1.6,3.2-3.5c0-1.8-1.6-3-3.8-3c-1.2,0-2.7,0.3-4,0.8c-1.9,0.7-3.6,2.1-3.6,3.4c0,1.3,2,2.5,3.1,2.5
	c0.8,0,1.3-0.4,1.3-1.8c0-0.9-0.1-3.3-0.1-4.8c0-1.6,0.1-3.9,0.1-4.7C417.1,134.7,417.1,134.3,417.1,134z M421.8,135.7l-0.6,0.9
	c1,0.5,2.6,1.5,3.4,2.2l0.6-1C424.5,137.3,422.9,136.2,421.8,135.7z M412.8,136.7l0,1.2c0.5,0,1.1,0.1,1.9,0.1
	c1.4,0,3.8-0.3,5.4-0.7l0-1.2c-1.5,0.4-3.9,0.8-5.4,0.8C414.2,136.8,413.6,136.8,412.8,136.7z M431.6,136.1
	c-0.8,1.2-2.2,2.5-4.3,3.4c0.3,0.2,0.6,0.5,0.8,0.8c2.2-1.1,3.7-2.5,4.8-4L431.6,136.1z M431.5,137.2l-0.8,0.9h6v-0.9H431.5z
	 M436.4,137.2v0.2c-1.7,2.6-6,4.5-9.9,5.2c0.2,0.3,0.5,0.7,0.6,1c4-0.9,8.5-2.8,10.5-5.9l-0.8-0.5l-0.2,0H436.4z M431,137.9l-1,0.5
	c2,2.6,5.6,4.2,9.7,4.8c0.2-0.3,0.5-0.8,0.7-1.1C436.4,141.6,432.8,140.1,431,137.9z M429.4,142.6v4.6h1.1v-3.6h6.1v3.6h1.2v-4.6
	H429.4z M429.9,145.7v1h7.2v-1H429.9z M432.9,133.4v2h1.2v-2H432.9z M427.1,134.8v2.8h1.1v-1.8h10.4v1.8h1.1v-2.8H427.1z
	 M446.9,135.3v0.9h8.2v-0.9H446.9z M447.4,137.3v0.9h7.4v-0.9H447.4z M446.6,139.3v1h8.7v-1H446.6z M453,133.4
	c-0.2,0.5-0.6,1.4-0.9,1.9l0.9,0.3c0.3-0.5,0.7-1.2,1.1-1.8L453,133.4z M448,133.8c0.4,0.6,0.7,1.3,0.9,1.8l1-0.4
	c-0.1-0.5-0.6-1.2-0.9-1.7L448,133.8z M454.3,140.8c-0.5,0.6-1.3,1.5-1.9,2.1l0.7,0.6c0.6-0.5,1.4-1.3,2.1-2.1L454.3,140.8z
	 M447.1,141.4c0.6,0.6,1.2,1.5,1.5,2l0.8-0.6c-0.3-0.5-1-1.4-1.6-2L447.1,141.4z M446,145.4l0.5,1c1-0.6,2.3-1.3,3.5-2l-0.3-0.9
	C448.4,144.2,447,144.9,446,145.4z M450.4,135.9v10c0,0.2-0.1,0.3-0.3,0.3c-0.2,0-0.8,0-1.5,0c0.1,0.3,0.3,0.8,0.3,1
	c0.9,0,1.6,0,2-0.2c0.4-0.2,0.5-0.5,0.5-1.1v-10H450.4z M451.5,140.7l-0.8,0.2c0.8,2.5,2.2,4.6,4.2,5.7c0.2-0.3,0.5-0.7,0.7-0.9
	C453.6,144.8,452.2,143,451.5,140.7z M441.8,136.7v1.1h4.9v-1.1H441.8z M443.9,133.4v13.8h1v-13.8H443.9z M443.9,137.3
	c-0.4,2.1-1.4,4.8-2.4,6.1c0.2,0.2,0.5,0.7,0.6,1c1-1.5,2-4.5,2.5-6.8L443.9,137.3z M444.8,138.6l-0.5,0.5c0.4,0.6,1.4,2.4,1.8,3.2
	l0.6-0.8C446.4,140.9,445.2,139,444.8,138.6z M461.1,140.7v0.9h4.1v2.5h-4.1v0.9h5.1v-4.4H461.1z M460.6,140.7v5.3h1.1v-5.3H460.6z
	 M457.9,136.2v0.8h4.2v-0.8H457.9z M464.8,136.2v0.8h4.2v-0.8H464.8z M468.6,134v11.6c0,0.3-0.1,0.4-0.4,0.4c-0.3,0-1.3,0-2.3,0
	c0.2,0.3,0.4,0.8,0.4,1.2c1.3,0,2.2,0,2.7-0.2c0.5-0.2,0.7-0.6,0.7-1.3V134H468.6z M458,134v0.9h3.7v3.5H458v0.9h4.8V134H458z
	 M469.2,134h-5v5.3h5v-0.9h-3.9v-3.5h3.9V134z M457.4,134v13.2h1.1V134H457.4z M474.3,135.5l-1.5,0c0.1,0.3,0.1,1,0.1,1.3
	c0,0.9,0,2.7,0.2,4c0.4,3.9,1.8,5.3,3.2,5.3c1,0,1.9-0.9,2.8-3.4l-0.9-1.1c-0.4,1.5-1.1,3-1.9,3c-1.1,0-1.8-1.7-2.1-4.2
	c-0.1-1.2-0.1-2.6-0.1-3.5C474.2,136.6,474.3,135.9,474.3,135.5z M482.1,135.9l-1.2,0.4c1.4,1.8,2.3,4.8,2.6,7.5l1.2-0.5
	C484.6,140.9,483.5,137.7,482.1,135.9z M489.7,138.3v1h7.6v-1H489.7z M489.5,145.6v1h8v-1H489.5z M488.9,141.2v6h1.1v-5h6.9v5h1.1
	v-6H488.9z M493.5,134.6c1.4,1.9,4.1,4,6.4,5.3c0.2-0.3,0.5-0.7,0.8-1c-2.4-1.1-5-3.2-6.6-5.4h-1.1c-1.2,1.9-3.7,4.2-6.3,5.6
	c0.3,0.2,0.6,0.6,0.7,0.9C489.8,138.5,492.2,136.4,493.5,134.6z M508.9,144.9l0.5,1.1c3.3-0.6,5.5-2.2,5.5-5.2
	c0-2.3-1.8-3.8-3.9-3.8c-1.6,0-3.5,0.6-5.3,2.3v1.3c1.5-1.5,3.2-2.6,5.1-2.6c2,0,2.9,1.5,2.9,2.7
	C513.7,143.4,511.5,144.6,508.9,144.9z M505.5,137.7l-0.1,0.4l-0.1,0.8c-0.6,1-2.6,3.8-3.5,4.9l0.8,1c0.9-1.3,2.3-3.3,3-4.4l0.5-2.1
	c0.3-0.4,0.7-1.1,0.9-1.5l-0.4-0.5c-0.7,0.2-2.6,0.5-3.4,0.5c-0.4,0-0.7,0-1,0l0.1,1.2C503.4,138,505,137.8,505.5,137.7z
	 M505.4,135.2c0,0.6-0.4,5.3-0.4,6.6c0,1.6,0,2.4,0,3.9c0,0.2,0,0.7,0,0.9h1.3c0-0.3-0.1-0.7-0.1-0.9c-0.1-1.3-0.1-2.2-0.1-3.6
	c0-2.6,0.5-6.9,0.7-7.9l-1.4,0C505.4,134.5,505.4,134.9,505.4,135.2z M527.1,134.4h-1.3c0,0.3,0.1,0.8,0.1,1.1c0,0.8,0,1.9,0,2.7
	c0,1.1-0.1,2.4-0.2,2.9c-0.1,0.3-0.2,0.4-0.6,0.4c-0.3,0-1-0.1-1.5-0.2l0,1.1c0.4,0.1,1.4,0.2,2,0.2c0.7,0,1-0.2,1.2-0.9
	c0.2-0.8,0.2-2.4,0.2-3.6c0-0.8,0-1.8,0-2.7C527,135.2,527.1,134.7,527.1,134.4z M521.2,134.9h-1.3c0.1,0.5,0.1,0.8,0.1,1.3
	c0,0.7,0,5.6,0,6.9c0.1,2.4,0.4,3.2,3.9,3.2c1.5,0,3.4-0.2,4.4-0.3l0-1.3c-1,0.2-2.8,0.3-4.5,0.3c-2.6,0-2.6-0.6-2.7-2.2
	c0-1,0-5.2,0-6.8C521.1,135.7,521.1,135.3,521.2,134.9z M516.7,138.5l0.1,1.2c0.4-0.1,1.1-0.1,1.5-0.2c1.9-0.2,7.9-0.9,10.3-0.9
	c0.4,0,0.9,0,1.2,0v-1.2c-0.3,0-0.8,0.1-1.2,0.1c-3.1,0.2-8.8,0.8-10.4,0.9C517.7,138.5,517.1,138.5,516.7,138.5z M538.3,137v1.1h7
	V137H538.3z M531.8,135.9v1.1h7v-1.1H531.8z M542.5,133.4v12.3c0,0.3-0.1,0.3-0.4,0.4s-1.1,0-2,0c0.2,0.3,0.3,0.9,0.4,1.2
	c1.3,0,2.1,0,2.5-0.2c0.5-0.2,0.6-0.5,0.6-1.3v-12.3H542.5z M538.5,140.1c0.7,1.1,1.4,2.5,1.6,3.4l1-0.5c-0.2-0.9-1-2.3-1.7-3.3
	L538.5,140.1z M532.3,139.1c1.8,1.9,3.9,4.6,4.7,6.4l0.9-0.8c-0.9-1.7-3-4.4-4.8-6.3L532.3,139.1z M534.7,133.4v3.1h1.1v-3.1H534.7z
	 M536.4,137.3c-0.6,4.2-2,7.2-4.9,8.9c0.2,0.2,0.6,0.7,0.8,0.9c3-2,4.5-5.1,5.2-9.6L536.4,137.3z M552.3,139.4v5.8
	c0,1.3,0.3,1.6,1.7,1.6c0.3,0,1.9,0,2.2,0c1.3,0,1.6-0.7,1.7-3.1c-0.3-0.1-0.8-0.3-1-0.5c-0.1,2.2-0.2,2.6-0.8,2.6c-0.4,0-1.7,0-2,0
	c-0.6,0-0.7-0.1-0.7-0.6v-5.8H552.3z M550.3,140.7c-0.2,1.6-0.6,3.4-1.3,4.6l1,0.4c0.8-1.2,1.2-3.2,1.4-4.8L550.3,140.7z
	 M552.6,137.7c1.2,0.6,2.7,1.6,3.5,2.3l0.8-0.8c-0.8-0.7-2.3-1.6-3.5-2.2L552.6,137.7z M557.3,140.8c1,1.6,1.9,3.6,2.1,5l1.1-0.4
	c-0.3-1.3-1.2-3.4-2.2-4.9L557.3,140.8z M553.3,133.4v2.6h1.2v-2.6H553.3z M548.3,135.4v1.1h11.9v-1.1H548.3z M547.8,135.4v3.9
	c0,2.2-0.1,5.2-1.3,7.4c0.3,0.1,0.8,0.4,1,0.6c1.3-2.3,1.5-5.7,1.5-8v-3.9H547.8z M420.7,162.7c0,2.7,1.1,5,2.8,6.7l0.8-0.4
	c-1.6-1.7-2.6-3.7-2.6-6.2c0-2.5,1-4.5,2.6-6.2l-0.8-0.4C421.8,157.7,420.7,159.9,420.7,162.7z M430.5,158.1
	c0.2,0.7,1.7,8.3,1.8,9.2c0.1,0.4,0.1,0.8,0.2,1.3l1.3-0.2c-0.1-0.4-0.3-0.9-0.4-1.3c-0.2-0.9-1.7-8.6-1.8-9.2
	c-0.1-0.3-0.1-0.7-0.1-1l-1.2,0.2C430.3,157.4,430.4,157.8,430.5,158.1z M426.5,160.1l0.3,1.2c0.4-0.1,0.7-0.2,1.1-0.2
	c1.2-0.2,6-1,7.4-1.2c0.4-0.1,0.8-0.1,1-0.1l-0.2-1.2c-0.2,0.1-0.6,0.2-1,0.2c-1.3,0.3-6.2,1-7.4,1.2
	C427.3,160.1,426.9,160.1,426.5,160.1z M426.5,164.2l0.3,1.2c0.3-0.1,0.7-0.2,1.2-0.3c1.4-0.3,6.5-1.1,8.3-1.4
	c0.5-0.1,1-0.2,1.3-0.2l-0.2-1.2c-0.3,0.1-0.7,0.2-1.2,0.3c-1.7,0.3-6.9,1.2-8.4,1.4C427.4,164.1,426.8,164.1,426.5,164.2z
	 M445.8,159.9l-1,0.4c0.3,0.6,0.9,2.4,1.1,3l1-0.4C446.7,162.4,446,160.5,445.8,159.9z M450.8,160.7l-1.2-0.4
	c-0.2,1.8-0.9,3.6-1.9,4.8c-1.1,1.4-2.9,2.5-4.5,3l0.9,0.9c1.6-0.6,3.3-1.7,4.6-3.3c1-1.3,1.6-2.8,2-4.3
	C450.7,161.2,450.7,161,450.8,160.7z M442.5,160.6l-1,0.4c0.3,0.5,1,2.4,1.3,3.2l1-0.4C443.5,163.1,442.8,161.2,442.5,160.6z
	 M465.2,159.2l-0.9-0.6c-0.2,0.1-0.5,0.1-0.9,0.1c-0.4,0-3.9,0-4.5,0l-0.4,1h5.2c-0.3,1.3-1.1,3.1-2.2,4.4c-1.3,1.5-3,2.8-5.6,3.5
	l1,0.9c2.6-1,4.3-2.3,5.6-3.8c1.2-1.5,2.1-3.4,2.5-4.8C464.9,159.8,465.1,159.4,465.2,159.2z M460.5,157.1l-1.3-0.4
	c-0.1,0.4-0.3,0.9-0.4,1.1c-0.6,1.2-2,3.3-4.4,4.7l1,0.7c2.3-1.5,3.7-3.5,4.5-5C460,158,460.3,157.5,460.5,157.1z M476.2,157.1h-1.3
	c0.1,0.3,0.1,0.6,0.1,1.2c0.1,1.6,0.1,6.6,0.1,8.6c0,0.4-0.1,0.6-0.5,0.6c-0.5,0-1.3-0.1-2-0.2l0.1,1.2c0.7,0,1.5,0.1,2.2,0.1
	c0.8,0,1.3-0.4,1.3-1.1c0-2.6-0.1-7.5-0.1-9.1C476.1,157.8,476.2,157.4,476.2,157.1z M468.7,159.5v1.2c0.4,0,0.8-0.1,1.3-0.1
	c0.6,0,7.8,0,8.4,0c0.4,0,0.8,0,1.2,0v-1.2c-0.3,0-0.8,0.1-1.2,0.1c-0.7,0-7.6,0-8.4,0C469.6,159.6,469.1,159.5,468.7,159.5z
	 M468.2,166l0.8,0.9c2.7-1.4,5.3-3.9,6.4-5.6l0-0.9h-0.6C473.7,162.1,471.2,164.6,468.2,166z M493.1,158.7l-0.9-0.5
	c-0.3,0.1-0.5,0.1-0.8,0.1c-0.6,0-6.2,0-7,0c-0.5,0-1,0-1.4-0.1v1.2c0.4,0,0.8,0,1.4,0c0.8,0,6.4,0,7.2,0c-0.2,1.3-0.8,3.3-1.8,4.6
	c-1.2,1.5-2.7,2.7-5.5,3.4l1,1.1c2.6-0.8,4.2-2.1,5.5-3.7c1.1-1.4,1.8-3.7,2.1-5.2C492.9,159.1,493,158.9,493.1,158.7z M499,157.4
	l-0.4,1c1.9,0.3,5.6,1.1,7.3,1.7l0.4-1.1C504.6,158.4,500.8,157.6,499,157.4z M498.4,161.1l-0.4,1c2,0.3,5.4,1.1,7,1.7l0.4-1.1
	C503.7,162.1,500.3,161.4,498.4,161.1z M497.6,165.2l-0.4,1.1c2.3,0.4,6.4,1.3,8.3,2.1l0.5-1.1C504,166.5,500,165.6,497.6,165.2z
	 M510.4,161.9v1.4c0.4,0,1.2-0.1,2-0.1c1,0,6.6,0,7.7,0c0.6,0,1.2,0,1.5,0.1v-1.4c-0.3,0-0.8,0.1-1.5,0.1c-1,0-6.7,0-7.7,0
	C511.6,162,510.8,162,510.4,161.9z M526,157.7v1.2c0.4,0,0.8-0.1,1.3-0.1c0.8,0,4.9,0,5.7,0c0.4,0,0.9,0,1.3,0.1v-1.2
	c-0.4,0-0.9,0.1-1.3,0.1c-0.8,0-4.9,0-5.7,0C526.8,157.7,526.4,157.7,526,157.7z M524.3,161.2v1.2c0.4,0,0.8,0,1.2,0
	c0.8,0,8.4,0,9.2,0c0.4,0,0.8,0,1.1,0v-1.1c-0.3,0-0.8,0.1-1.1,0.1c-0.7,0-8.3,0-9.2,0C525.1,161.2,524.7,161.2,524.3,161.2z
	 M530.9,161.7l-1.2,0c0,1.5-0.1,2.9-0.8,4c-0.5,0.9-1.6,1.7-2.6,2.2l1,0.8c1.2-0.6,2.2-1.6,2.7-2.5
	C530.7,164.9,530.9,163.5,530.9,161.7z M537.9,164.4l0.5,1c1.9-0.6,3.8-1.5,5-2.2c1.5-0.9,2.9-2.1,3.7-3l-0.9-0.8
	c-0.7,0.9-2,2-3.3,2.8C541.8,163,539.7,164,537.9,164.4z M542.8,162.9v5c0,0.4,0,1-0.1,1.2h1.3c-0.1-0.2-0.1-0.8-0.1-1.2v-5.2
	L542.8,162.9z M553.3,157.8l-0.8,0.9c1,0.7,2.8,2.2,3.5,2.9l0.9-0.9C556.1,159.9,554.3,158.4,553.3,157.8z M552.1,167.1l0.7,1.1
	c2.3-0.4,4.1-1.3,5.5-2.2c2.1-1.3,3.7-3.2,4.7-5l-0.7-1.2c-0.8,1.7-2.5,3.8-4.7,5.2C556.4,165.9,554.6,166.8,552.1,167.1z
	 M574.9,156.8l-0.8,0.3c0.4,0.5,0.9,1.4,1.1,1.9l0.8-0.3C575.7,158.2,575.2,157.3,574.9,156.8z M576.4,156.2l-0.7,0.3
	c0.4,0.5,0.8,1.3,1.1,1.9l0.8-0.3C577.3,157.6,576.8,156.8,576.4,156.2z M575.8,159.6l-0.9-0.6c-0.2,0.1-0.5,0.1-0.9,0.1
	c-0.4,0-3.9,0-4.5,0l-0.4,1h5.2c-0.3,1.3-1.1,3.1-2.2,4.4c-1.3,1.5-3,2.8-5.6,3.5l1,0.9c2.6-1,4.3-2.3,5.6-3.8
	c1.2-1.5,2.1-3.4,2.5-4.8C575.5,160.1,575.7,159.8,575.8,159.6z M571.1,157.5l-1.3-0.4c-0.1,0.3-0.3,0.9-0.4,1.1
	c-0.6,1.3-2,3.3-4.4,4.7l1,0.7c2.2-1.5,3.7-3.5,4.5-5C570.6,158.3,570.9,157.8,571.1,157.5z M584.3,157.1L583,157
	c0,1.1-0.2,2.3-0.4,3.4c-0.4,1.7-1.5,5.5-3.1,7.6l1.1,0.5c1.6-2.6,2.6-6,3.1-8c0.2-0.9,0.4-2,0.5-2.5
	C584.2,157.6,584.2,157.3,584.3,157.1z M589.1,158.6l-1,0.5c1,1.1,2.1,3.6,2.5,5.1l1.1-0.5C591.2,162.3,590,159.7,589.1,158.6z
	 M579.2,160.2l0.1,1.2c0.3-0.1,0.9-0.1,1.3-0.2c0.9-0.1,3.5-0.4,4.4-0.4c0.9,0,1.5,0.2,1.5,1.5c0,1.5-0.2,3.3-0.7,4.3
	c-0.3,0.6-0.7,0.7-1.2,0.7c-0.4,0-1.1-0.1-1.7-0.3l0.2,1.2c0.4,0.1,1.1,0.2,1.7,0.2c0.9,0,1.6-0.2,2-1.2c0.6-1.2,0.8-3.4,0.8-5.1
	c0-1.9-1-2.4-2.3-2.4c-1,0-3.8,0.3-4.8,0.4C580.1,160.2,579.7,160.2,579.2,160.2z M596.8,157l-0.3,1.1c1.1,0.3,4.1,0.9,5.4,1.1
	l0.3-1.1C601,158,598,157.4,596.8,157z M596.5,159.6l-1.2-0.2c-0.1,1.5-0.4,4.4-0.7,5.7l1,0.3c0.1-0.2,0.2-0.4,0.4-0.7
	c1-1.2,2.5-1.9,4.3-1.9c1.4,0,2.5,0.8,2.5,1.9c0,1.9-2.2,3.2-6.6,2.7l0.3,1.1c5.2,0.4,7.4-1.3,7.4-3.8c0-1.7-1.4-2.9-3.6-2.9
	c-1.7,0-3.2,0.5-4.6,1.7C596.1,162.6,596.4,160.5,596.5,159.6z M615.1,161.6c0.9,1.3,1.9,3.1,2.4,4.2l0.8-0.7
	c-0.5-1.1-1.6-2.8-2.4-4.1L615.1,161.6z M612.1,158.9v10.2h0.9v-9.3h5.7v-1H612.1z M618.3,158.9v9c0,0.2-0.1,0.3-0.3,0.3
	c-0.2,0-0.8,0-1.4,0c0.1,0.3,0.3,0.7,0.3,1c0.9,0,1.5,0,1.8-0.2c0.4-0.2,0.5-0.5,0.5-1v-9.1H618.3z M615.3,156.2
	c-0.1,3.8-0.2,7.2-2.3,9c0.2,0.1,0.5,0.5,0.7,0.7c2.3-1.9,2.6-5.5,2.6-9.6H615.3z M608.9,156.3c-0.4,0.9-1,2.3-1.5,3.1l0.7,0.3
	c0.5-0.8,1.2-2,1.7-3L608.9,156.3z M610.5,157.9c-0.7,1.5-2.1,3.6-3.1,4.9l0.6,0.4c1-1.2,2.4-3.3,3.3-4.9L610.5,157.9z M606.7,159.2
	c0.8,0.7,1.6,1.7,2,2.3l0.6-0.8c-0.4-0.6-1.3-1.5-2-2.2L606.7,159.2z M610,161.1c0.6,0.9,1.1,2.2,1.3,2.9l0.8-0.4
	c-0.2-0.8-0.8-2-1.3-2.9L610,161.1z M606.6,162.5l0.1,1c1.3-0.1,3-0.2,4.6-0.3l0-0.9C609.6,162.4,607.9,162.5,606.6,162.5z
	 M610.3,164.4c0.3,0.8,0.7,1.9,0.9,2.6l0.8-0.3c-0.1-0.7-0.5-1.8-0.9-2.5L610.3,164.4z M607.4,164.2c-0.2,1.2-0.4,2.5-0.9,3.3
	c0.2,0.1,0.6,0.3,0.8,0.4c0.4-0.9,0.8-2.3,1-3.6L607.4,164.2z M608.9,162.9v6.2h0.9v-6.2H608.9z M624.4,157.9h5.6v2.7h-5.6V157.9z
	 M623.4,156.8v4.7h7.7v-4.7H623.4z M621.3,163v6.1h1V164h2.9v5h1v-6H621.3z M627.8,163v6.1h1V164h3.2v5h1v-6H627.8z M621.8,167.4v1
	h3.9v-1H621.8z M628.4,167.4v1h4.2v-1H628.4z M642.2,156.9H641c0,0.2,0.1,0.6,0.1,0.8c0,1,0,2.4,0,3.7c0,1.2,0.1,3.9,0.1,5
	c0,1-0.7,1.2-1.5,1.2c-1.4,0-1.9-0.5-1.9-1.1c0-0.6,0.7-1.2,2.1-1.2c2.5,0,4.6,1.4,5.8,2.6l0.6-1c-1.1-0.9-3.4-2.5-6.3-2.5
	c-2,0-3.2,0.9-3.2,2.1c0,1.4,1.1,2.1,3.1,2.1c1.8,0,2.5-1,2.5-2c0-0.9-0.2-3.4-0.2-5.2c0-1.2,0-3.1,0-3.6
	C642.1,157.4,642.1,157.1,642.2,156.9z M636.8,158.4l0,1c0.9,0.1,2.6,0.2,3.6,0.2c1.9,0,3.9-0.2,5.5-0.4v-1
	c-1.8,0.3-3.7,0.4-5.5,0.4C639.5,158.7,637.7,158.6,636.8,158.4z M636.8,161.4l0,1.1c1,0.1,2.5,0.2,3.5,0.2c2.1,0,3.8-0.1,5.7-0.3
	v-1c-1.8,0.3-3.7,0.4-5.7,0.4C639.3,161.6,637.8,161.5,636.8,161.4z M649.3,158.8l0.1,1.2c1.5-0.3,5.1-0.7,6.6-0.8
	c-1.3,0.8-2.6,2.5-2.6,4.7c0,3.1,2.9,4.5,5.5,4.6l0.4-1.1c-2.3-0.1-4.8-1-4.8-3.7c0-1.7,1.2-3.8,3.2-4.4c0.7-0.2,1.9-0.2,2.7-0.2
	l0-1.1c-0.9,0-2.2,0.1-3.8,0.2c-2.6,0.2-5.2,0.5-6.1,0.6C650.2,158.7,649.8,158.8,649.3,158.8z M658.4,160.7l-0.7,0.3
	c0.4,0.6,0.8,1.3,1.1,2l0.7-0.3C659.3,162.1,658.7,161.2,658.4,160.7z M659.9,160.1l-0.7,0.3c0.4,0.6,0.9,1.3,1.2,2l0.7-0.3
	C660.8,161.5,660.3,160.6,659.9,160.1z M670,158.5l-1.2,0c-0.1,1.5-0.4,3-0.8,4.4c-0.7,2.4-1.5,3.3-2.1,3.3c-0.6,0-1.4-0.8-1.4-2.5
	c0-2.1,1.9-4.6,5-4.6c2.7,0,4.2,1.8,4.2,4.1c0,2.4-1.8,3.8-3.6,4.2c-0.3,0.1-0.8,0.1-1.2,0.2l0.6,1c3.3-0.4,5.3-2.4,5.3-5.3
	c0-2.8-2.1-5.2-5.4-5.2c-3.4,0-6.1,2.6-6.1,5.7c0,2.3,1.2,3.8,2.5,3.8c1.3,0,2.4-1.5,3.3-4.4C669.6,161.5,669.9,159.9,670,158.5z
	 M681,164.8v0.8h4.2v-0.8H681z M681,162.7v0.8h3.8v3.5H681v0.8h4.8v-5.1H681z M680.5,162.7v5.8h1v-5.8H680.5z M677.9,158.8v0.8h3.9
	v-0.8H677.9z M684.4,158.8v0.8h4v-0.8H684.4z M687.9,156.8v10.9c0,0.2-0.1,0.3-0.3,0.3c-0.3,0-1.1,0-2,0c0.2,0.3,0.3,0.8,0.4,1.1
	c1.2,0,1.9,0,2.4-0.2c0.4-0.2,0.6-0.5,0.6-1.2v-10.9H687.9z M678,156.8v0.8h3.5v3.2H678v0.8h4.5v-4.8H678z M688.4,156.8h-4.7v4.8
	h4.7v-0.8h-3.7v-3.2h3.7V156.8z M677.4,156.8v12.3h1v-12.3H677.4z M698,158.5l-1.2,0c-0.1,1.5-0.4,3-0.8,4.4
	c-0.7,2.4-1.5,3.3-2.1,3.3c-0.6,0-1.4-0.8-1.4-2.5c0-2.1,1.9-4.6,5-4.6c2.7,0,4.2,1.8,4.2,4.1c0,2.4-1.8,3.8-3.6,4.2
	c-0.3,0.1-0.8,0.1-1.2,0.2l0.6,1c3.3-0.4,5.3-2.4,5.3-5.3c0-2.8-2.1-5.2-5.4-5.2c-3.4,0-6.1,2.6-6.1,5.7c0,2.3,1.2,3.8,2.5,3.8
	c1.3,0,2.4-1.5,3.3-4.4C697.6,161.5,697.9,159.9,698,158.5z M414.8,185v0.9h3.8v2.3h-3.8v0.9h4.8V185H414.8z M414.3,185v4.9h1V185
	H414.3z M411.8,180.9v0.8h3.9v-0.8H411.8z M418.2,180.9v0.8h4v-0.8H418.2z M421.7,178.8v10.9c0,0.3-0.1,0.4-0.4,0.4
	c-0.3,0-1.2,0-2.1,0c0.2,0.3,0.3,0.8,0.4,1.1c1.2,0,2,0,2.5-0.2c0.4-0.2,0.6-0.5,0.6-1.2v-10.9H421.7z M411.9,178.8v0.9h3.5v3.2
	h-3.5v0.9h4.5v-4.9H411.9z M422.3,178.8h-4.7v4.9h4.7v-0.8h-3.7v-3.3h3.7V178.8z M411.3,178.8v12.3h1v-12.3H411.3z M427.1,180.2
	l-1.4,0c0.1,0.3,0.1,0.9,0.1,1.2c0,0.8,0,2.5,0.2,3.7c0.4,3.6,1.7,4.9,3,4.9c1,0,1.8-0.8,2.6-3.2l-0.9-1c-0.4,1.4-1,2.8-1.7,2.8
	c-1,0-1.7-1.6-1.9-3.9c-0.1-1.1-0.1-2.4-0.1-3.3C427,181.2,427.1,180.6,427.1,180.2z M434.4,180.6l-1.1,0.4c1.3,1.6,2.2,4.5,2.4,7
	l1.1-0.4C436.7,185.2,435.7,182.2,434.4,180.6z M441.5,182.8v0.9h7.1v-0.9H441.5z M441.2,189.6v0.9h7.5v-0.9H441.2z M440.7,185.5
	v5.6h1v-4.7h6.5v4.7h1.1v-5.6H440.7z M445,179.3c1.3,1.8,3.8,3.8,6,4.9c0.2-0.3,0.4-0.7,0.7-0.9c-2.2-1-4.7-2.9-6.2-5h-1.1
	c-1.1,1.8-3.4,3.9-5.9,5.2c0.2,0.2,0.5,0.6,0.7,0.8C441.5,183,443.8,181,445,179.3z M459.4,189l0.5,1.1c3.1-0.6,5.1-2.1,5.1-4.9
	c0-2.2-1.7-3.5-3.7-3.5c-1.5,0-3.2,0.6-4.9,2.2v1.2c1.4-1.4,3-2.4,4.8-2.4c1.9,0,2.7,1.4,2.7,2.5C463.9,187.6,461.8,188.7,459.4,189
	z M456.2,182.3l-0.1,0.4l-0.1,0.7c-0.5,0.9-2.4,3.5-3.3,4.6l0.7,1c0.9-1.2,2.2-3.1,2.8-4.1l0.4-1.9c0.2-0.4,0.6-1,0.9-1.4l-0.4-0.5
	c-0.7,0.2-2.4,0.4-3.1,0.5c-0.4,0-0.6,0-0.9,0l0.1,1.2C454.3,182.5,455.8,182.3,456.2,182.3z M456.1,179.9c0,0.5-0.3,5-0.4,6.2
	c0,1.5,0,2.2,0,3.6c0,0.2,0,0.6,0,0.8h1.2c0-0.3-0.1-0.6-0.1-0.9c-0.1-1.2-0.1-2.1-0.1-3.4c0-2.5,0.4-6.5,0.6-7.4l-1.3,0
	C456.1,179.2,456.1,179.6,456.1,179.9z M476.3,179.2h-1.2c0,0.3,0.1,0.7,0.1,1.1c0,0.8,0,1.8,0,2.5c0,1-0.1,2.2-0.2,2.7
	c-0.1,0.3-0.2,0.4-0.5,0.4c-0.3,0-0.9-0.1-1.4-0.2l0,1c0.4,0.1,1.3,0.2,1.8,0.2c0.6,0,1-0.2,1.1-0.8c0.1-0.7,0.2-2.2,0.2-3.3
	c0-0.7,0-1.7,0-2.6C476.3,179.9,476.3,179.4,476.3,179.2z M470.8,179.7h-1.2c0.1,0.4,0.1,0.8,0.1,1.2c0,0.6,0,5.3,0,6.4
	c0.1,2.2,0.4,3,3.6,3c1.4,0,3.1-0.1,4.1-0.2l0-1.2c-0.9,0.2-2.6,0.3-4.2,0.3c-2.4,0-2.4-0.5-2.5-2c0-1,0-4.8,0-6.3
	C470.8,180.4,470.8,180,470.8,179.7z M466.6,183l0.1,1.1c0.4-0.1,1-0.1,1.4-0.2c1.8-0.2,7.4-0.8,9.6-0.8c0.4,0,0.9,0,1.1,0V182
	c-0.3,0-0.7,0.1-1.1,0.1c-2.9,0.2-8.2,0.7-9.7,0.8C467.6,183,467.1,183,466.6,183z M486.4,180.6l0,1.1c1.5,0.2,4.2,0.2,5.7,0v-1.1
	C490.7,180.8,487.9,180.8,486.4,180.6z M486.9,186.3l-1-0.1c-0.2,0.7-0.2,1.2-0.2,1.6c0,1.3,1.1,2.1,3.4,2.1c1.5,0,2.6-0.1,3.5-0.3
	l0-1.2c-1.1,0.3-2.2,0.4-3.5,0.4c-1.9,0-2.4-0.6-2.4-1.3C486.7,187.2,486.8,186.8,486.9,186.3z M483.7,179.5l-1.2-0.1
	c0,0.3-0.1,0.7-0.1,1c-0.2,1.2-0.6,3.6-0.6,5.6c0,1.9,0.2,3.5,0.5,4.5l1-0.1c0-0.2,0-0.4,0-0.5c0-0.2,0-0.4,0.1-0.6
	c0.1-0.7,0.6-2.1,1-3.1l-0.6-0.5c-0.2,0.6-0.6,1.4-0.8,2c-0.1-0.7-0.1-1.3-0.1-1.9c0-1.6,0.4-4.1,0.7-5.4
	C483.5,180.2,483.6,179.7,483.7,179.5z M500.9,181.6v1h6.6v-1H500.9z M494.8,180.6v1h6.5v-1H494.8z M504.7,178.2v11.5
	c0,0.3-0.1,0.3-0.3,0.3c-0.2,0-1,0-1.9,0c0.2,0.3,0.3,0.8,0.4,1.1c1.2,0,1.9,0,2.3-0.2c0.4-0.2,0.6-0.5,0.6-1.2v-11.5H504.7z
	 M501,184.5c0.7,1,1.3,2.3,1.5,3.1l0.9-0.4c-0.2-0.9-0.9-2.1-1.6-3.1L501,184.5z M495.2,183.5c1.7,1.8,3.6,4.3,4.4,6l0.8-0.7
	c-0.8-1.6-2.8-4.1-4.5-5.9L495.2,183.5z M497.4,178.3v2.9h1v-2.9H497.4z M499,181.9c-0.6,3.9-1.9,6.7-4.6,8.3
	c0.2,0.2,0.6,0.6,0.7,0.8c2.8-1.9,4.2-4.8,4.9-9L499,181.9z M513.9,183.9v5.4c0,1.2,0.3,1.5,1.6,1.5c0.3,0,1.8,0,2,0
	c1.2,0,1.5-0.6,1.6-2.9c-0.3-0.1-0.7-0.3-0.9-0.4c-0.1,2.1-0.2,2.4-0.7,2.4c-0.3,0-1.6,0-1.8,0c-0.5,0-0.7-0.1-0.7-0.6v-5.4H513.9z
	 M512,185.1c-0.2,1.5-0.5,3.2-1.2,4.3l0.9,0.4c0.7-1.1,1.1-3,1.3-4.5L512,185.1z M514.1,182.2c1.1,0.6,2.5,1.5,3.2,2.2l0.8-0.8
	c-0.7-0.6-2.2-1.5-3.3-2.1L514.1,182.2z M518.6,185.2c0.9,1.5,1.8,3.4,2,4.6l1-0.4c-0.3-1.3-1.1-3.1-2.1-4.6L518.6,185.2z
	 M514.9,178.3v2.4h1.1v-2.4H514.9z M510.2,180.1v1h11.1v-1H510.2z M509.7,180.1v3.6c0,2-0.1,4.8-1.2,6.9c0.3,0.1,0.7,0.4,0.9,0.6
	c1.2-2.1,1.4-5.3,1.4-7.4v-3.6H509.7z M525.1,180.2l-1.4,0c0.1,0.3,0.1,0.9,0.1,1.2c0,0.8,0,2.5,0.2,3.7c0.4,3.6,1.7,4.9,3,4.9
	c1,0,1.8-0.8,2.6-3.2l-0.9-1c-0.4,1.4-1,2.8-1.7,2.8c-1,0-1.7-1.6-1.9-3.9c-0.1-1.1-0.1-2.4-0.1-3.3
	C525,181.2,525.1,180.6,525.1,180.2z M532.4,180.6l-1.1,0.4c1.3,1.6,2.2,4.5,2.4,7l1.1-0.4C534.7,185.2,533.7,182.2,532.4,180.6z
	 M542.2,179l-1.3-0.1c0,0.3,0,0.8-0.1,1.2c-0.1,0.7-0.5,2.5-0.8,3.8c-0.5,2-1.5,4.8-2.4,6.3l1.2,0.4c0.7-1.5,1.7-4.4,2.2-6.4
	c0.4-1.4,0.7-3,0.9-4C542,179.8,542.1,179.3,542.2,179z M539.1,181.3c-0.5,0-1,0-1.7-0.1l0,1.1c0.5,0,1,0.1,1.6,0.1
	c1.5,0,3.6-0.2,5.4-0.6v-1.1C542.7,181.1,540.6,181.3,539.1,181.3z M543.5,183.3v1.1c0.9-0.1,1.7-0.2,2.6-0.2c0.8,0,1.6,0.1,2.4,0.2
	l0-1.1c-0.8-0.1-1.6-0.1-2.4-0.1C545.2,183.1,544.2,183.2,543.5,183.3z M543.8,186.7l-1-0.1c-0.1,0.6-0.2,1.1-0.2,1.7
	c0,1.4,1.2,2.1,3.4,2.1c1,0,2-0.1,2.7-0.2l0-1.1c-0.9,0.2-1.8,0.3-2.7,0.3c-2,0-2.4-0.6-2.4-1.3
	C543.6,187.6,543.7,187.1,543.8,186.7z M554.8,179.1h-1.4c0.1,0.4,0.1,0.9,0.1,1.4c0,1.5-0.1,5-0.1,7.1c0,2.3,1.4,3.1,3.4,3.1
	c3.1,0,4.9-1.8,5.8-3.1l-0.8-1c-1,1.5-2.5,2.9-5,2.9c-1.3,0-2.3-0.5-2.3-2.1c0-2.1,0.1-5.4,0.2-7C554.6,180,554.7,179.6,554.8,179.1
	z M572,178.9h-1.2c0,0.2,0.1,0.6,0.1,0.8c0,1,0,2.4,0,3.7c0,1.2,0.1,3.9,0.1,5c0,1-0.7,1.2-1.5,1.2c-1.4,0-1.9-0.5-1.9-1.1
	c0-0.6,0.7-1.2,2.1-1.2c2.5,0,4.6,1.4,5.8,2.6l0.6-1c-1.1-0.9-3.4-2.5-6.3-2.5c-2,0-3.2,0.9-3.2,2.1c0,1.4,1.1,2.1,3.1,2.1
	c1.8,0,2.5-1,2.5-2c0-0.9-0.2-3.4-0.2-5.2c0-1.2,0-3.1,0-3.6C572,179.4,572,179.1,572,178.9z M566.7,180.4l0,1
	c0.9,0.1,2.6,0.2,3.6,0.2c1.9,0,3.9-0.2,5.5-0.4v-1c-1.8,0.3-3.7,0.4-5.5,0.4C569.3,180.7,567.6,180.6,566.7,180.4z M566.6,183.4
	l0,1.1c1,0.1,2.5,0.2,3.5,0.2c2.1,0,3.8-0.1,5.7-0.3v-1c-1.8,0.3-3.7,0.4-5.7,0.4C569.2,183.6,567.6,183.5,566.6,183.4z
	 M586.8,178.9h-1.3c0,0.1,0.1,0.5,0.1,0.9c0,0.8,0.1,3.6,0.1,4.2l1.1,0.5c0-1.1,0-3.8,0-4.7C586.7,179.6,586.8,179.1,586.8,178.9z
	 M579.3,180.9l0,1.1c2.1-0.2,5.1-0.3,7.5-0.3c2.1,0,3.3,0,4.1,0.1l0-1c-0.7,0-2.4,0-4.1,0C584.7,180.7,581.2,180.8,579.3,180.9z
	 M586.7,184.9l-0.8-0.4c0.2,1.5-0.3,2.2-1.2,2.2c-0.8,0-1.4-0.5-1.4-1.4c0-0.9,0.7-1.5,1.4-1.5c0.8,0,1.4,0.5,1.4,1.8
	c0,2.3-1.5,3.6-4,4.2l0.9,0.9c3.2-1,4.2-3.1,4.2-5c0-1.6-0.8-2.8-2.5-2.8c-1.3,0-2.5,1-2.5,2.4c0,1.5,1.1,2.4,2.3,2.4
	C585.8,187.7,586.7,186.8,586.7,184.9z M596.3,184.7c0-2.7-1.1-4.9-2.8-6.6l-0.8,0.4c1.6,1.7,2.6,3.7,2.6,6.2c0,2.5-1,4.6-2.6,6.2
	l0.8,0.4C595.2,189.6,596.3,187.4,596.3,184.7z"/>
<path class="st1" d="M761.4,100h9.9v-2.5h-3.2c-0.7,0-1.7,0.1-2.4,0.2c2.7-2.6,4.9-5.5,4.9-8.2c0-2.8-1.9-4.5-4.7-4.5
	c-2,0-3.4,0.8-4.7,2.2l1.6,1.6c0.8-0.8,1.6-1.5,2.7-1.5c1.4,0,2.2,0.9,2.2,2.4c0,2.3-2.4,5.1-6.4,8.7V100z M779.1,100h2.7V85.2h-3.5
	l-5.5,9v2h10.8v-2.3h-7.9l2.3-3.7c0.4-0.8,0.8-1.6,1.2-2.4h0.1c0,0.9-0.1,2.2-0.1,3.1V100z M790,100.3c3,0,5-2.6,5-7.7
	c0-5.1-2-7.6-5-7.6c-3,0-5,2.5-5,7.6C785,97.7,787,100.3,790,100.3z M790,98c-1.3,0-2.2-1.3-2.2-5.4c0-4.1,1-5.3,2.2-5.3
	c1.3,0,2.2,1.2,2.2,5.3C792.3,96.7,791.3,98,790,98z M797.6,104.3c2.4-0.8,3.8-2.6,3.8-4.9c0-1.8-0.8-2.9-2.1-2.9
	c-1.1,0-1.9,0.7-1.9,1.7c0,1.1,0.9,1.7,1.8,1.7c0.4,0,0.8-0.1,1.1-0.4l-1-1.7l0.1,2.1c0,1.2-0.8,2.2-2.4,2.8L797.6,104.3z
	 M808.3,100.3c3,0,5-2.6,5-7.7c0-5.1-2-7.6-5-7.6c-3,0-5,2.5-5,7.6C803.3,97.7,805.3,100.3,808.3,100.3z M808.3,98
	c-1.3,0-2.2-1.3-2.2-5.4c0-4.1,1-5.3,2.2-5.3c1.3,0,2.2,1.2,2.2,5.3C810.6,96.7,809.6,98,808.3,98z M820.1,100.3c3,0,5-2.6,5-7.7
	c0-5.1-2-7.6-5-7.6c-3,0-5,2.5-5,7.6C815.1,97.7,817.1,100.3,820.1,100.3z M820.1,98c-1.3,0-2.2-1.3-2.2-5.4c0-4.1,1-5.3,2.2-5.3
	c1.3,0,2.2,1.2,2.2,5.3C822.3,96.7,821.4,98,820.1,98z M831.9,100.3c3,0,5-2.6,5-7.7c0-5.1-2-7.6-5-7.6c-3,0-5,2.5-5,7.6
	C826.9,97.7,828.9,100.3,831.9,100.3z M831.9,98c-1.3,0-2.2-1.3-2.2-5.4c0-4.1,1-5.3,2.2-5.3c1.3,0,2.2,1.2,2.2,5.3
	C834.1,96.7,833.2,98,831.9,98z M838.9,89v12.3h1.7V90.7h9.3V89H838.9z M849.1,89v10.3c0,0.3-0.1,0.3-0.3,0.3c-0.3,0-1.2,0-2,0
	c0.2,0.4,0.5,1.2,0.6,1.7c1.3,0,2.1,0,2.7-0.3c0.6-0.3,0.8-0.8,0.8-1.7V89H849.1z M839.9,94.2v1.7h10.1v-1.7H839.9z M843.9,89.9V95
	h1.7v-5.1H843.9z M751.6,125.8l0.8-0.4c-1.2-2-1.8-4.4-1.8-6.7c0-2.4,0.6-4.7,1.8-6.7l-0.8-0.4c-1.3,2.1-2.1,4.4-2.1,7.1
	C749.5,121.4,750.2,123.7,751.6,125.8z M759.3,111.6c0.5,0.7,1,1.8,1.2,2.4l0.9-0.4c-0.2-0.6-0.7-1.6-1.3-2.4L759.3,111.6z
	 M764.6,111.2c-0.3,0.7-0.8,1.8-1.3,2.4l0.9,0.3c0.5-0.6,1-1.6,1.5-2.4L764.6,111.2z M760.7,118.4c-0.2,2.1-0.7,4-3,4.9
	c0.2,0.2,0.5,0.6,0.6,0.8c2.5-1.1,3.2-3.2,3.4-5.7H760.7z M762.9,118.3v4.3c0,1,0.2,1.4,1.2,1.4c0.2,0,1,0,1.2,0
	c0.8,0,1.1-0.5,1.2-2.3c-0.3-0.1-0.7-0.3-0.9-0.4c0,1.5-0.1,1.8-0.4,1.8c-0.2,0-0.8,0-1,0c-0.3,0-0.3-0.1-0.3-0.4v-4.3H762.9z
	 M760.2,115h4.4v2.7h-4.4V115z M759.2,114.1v4.6h6.5v-4.6H759.2z M755.9,112.4v11.7h1v-11.7H755.9z M753.6,115.2v1h5.1v-1H753.6z
	 M756,115.6c-0.5,1.7-1.6,3.9-2.6,5c0.2,0.2,0.4,0.7,0.5,1c1.1-1.3,2.2-3.8,2.8-5.7L756,115.6z M758,111.4c-1,0.5-2.9,0.9-4.5,1.1
	c0.1,0.2,0.3,0.6,0.3,0.8c1.6-0.2,3.6-0.6,4.9-1.1L758,111.4z M756.9,117l-0.5,0.4c0.4,0.5,1.5,1.8,1.8,2.4l0.6-0.8
	C758.6,118.6,757.2,117.3,756.9,117z M772.6,112v1h2.9v-1H772.6z M774.9,112v0.5h0.2c0.4,4.3,1.5,7.7,4.3,9.4
	c0.2-0.2,0.6-0.6,0.8-0.8c-2.8-1.5-3.9-4.8-4.2-9.1H774.9z M774.9,114.7c-0.5,2.9-1.7,5.1-3.8,6.4c0.2,0.2,0.7,0.6,0.8,0.8
	c2.1-1.5,3.4-3.8,4-7L774.9,114.7z M770.6,116.8h-3v1h2v4h1V116.8z M770.6,121.3h-1c-0.7,0.6-1.5,1.2-2.2,1.7l0.6,1.1
	c0.8-0.6,1.5-1.2,2.1-1.8c0.9,1.1,2.2,1.6,4,1.7c1.6,0.1,4.5,0,6,0c0-0.3,0.2-0.8,0.3-1.1c-1.7,0.1-4.8,0.2-6.3,0.1
	C772.5,122.8,771.2,122.3,770.6,121.3z M767.8,112.2c0.9,0.6,2,1.6,2.4,2.2l0.8-0.7c-0.5-0.7-1.5-1.6-2.5-2.2L767.8,112.2z
	 M787.9,115.4c0.6,0,1-0.4,1-1.1c0-0.6-0.5-1.1-1-1.1c-0.6,0-1.1,0.4-1.1,1.1C786.9,115,787.4,115.4,787.9,115.4z M787.9,122.2
	c0.6,0,1-0.4,1-1.1s-0.5-1.1-1-1.1c-0.6,0-1.1,0.4-1.1,1.1S787.4,122.2,787.9,122.2z M795.6,123h6.4v-1.1h-2.8c-0.5,0-1.1,0-1.7,0.1
	c2.4-2.3,4-4.4,4-6.4c0-1.8-1.1-3-3-3c-1.3,0-2.2,0.6-3,1.5l0.7,0.7c0.6-0.7,1.3-1.2,2.1-1.2c1.3,0,1.9,0.9,1.9,2
	c0,1.8-1.5,3.8-4.7,6.6V123z M806.9,123.2c1.6,0,2.9-1.3,2.9-3.3c0-2.2-1.1-3.2-2.9-3.2c-0.8,0-1.8,0.5-2.4,1.3l0,1
	c0.7-1,1.5-1.4,2.2-1.4c1.2,0,1.8,0.9,1.8,2.3c0,1.4-0.8,2.3-1.7,2.3c-1.4,0-2.2-1.4-2.2-4.1c0-3.4,1.2-4.5,2.6-4.5
	c0.6,0,1.2,0.3,1.6,0.8l0.7-0.8c-0.6-0.6-1.3-1.1-2.4-1.1c-2,0-3.8,1.5-3.8,5.6C803.5,121.5,804.9,123.2,806.9,123.2z M815.2,123
	h1.2v-10.3H815l-4.3,6.6v0.8h7.1v-1h-5.7l2.3-3.5c0.3-0.5,0.6-1,0.8-1.5h0.1c0,0.5-0.1,1.4-0.1,1.9V123z M819.3,125.7
	c1.3-0.5,2-1.6,2-2.9c0-0.9-0.4-1.5-1.1-1.5c-0.5,0-1,0.3-1,0.9c0,0.6,0.4,0.9,0.9,0.9c0.3,0,0.5-0.1,0.6-0.3l-0.6-0.9l0.1,1.1
	c0,0.9-0.5,1.6-1.4,1.9L819.3,125.7z M826,123.2c1.9,0,3.2-1.8,3.2-5.4c0-3.6-1.2-5.3-3.2-5.3c-2,0-3.2,1.7-3.2,5.3
	C822.8,121.4,824.1,123.2,826,123.2z M826,122.2c-1.2,0-2-1.3-2-4.3c0-3,0.8-4.3,2-4.3c1.2,0,1.9,1.3,1.9,4.3
	C828,120.9,827.2,122.2,826,122.2z M833.8,123.2c1.9,0,3.2-1.8,3.2-5.4c0-3.6-1.2-5.3-3.2-5.3c-2,0-3.2,1.7-3.2,5.3
	C830.6,121.4,831.8,123.2,833.8,123.2z M833.8,122.2c-1.2,0-2-1.3-2-4.3c0-3,0.8-4.3,2-4.3c1.2,0,1.9,1.3,1.9,4.3
	C835.7,120.9,835,122.2,833.8,122.2z M841.6,123.2c1.9,0,3.2-1.8,3.2-5.4c0-3.6-1.2-5.3-3.2-5.3c-2,0-3.2,1.7-3.2,5.3
	C838.3,121.4,839.6,123.2,841.6,123.2z M841.6,122.2c-1.2,0-2-1.3-2-4.3c0-3,0.8-4.3,2-4.3c1.2,0,1.9,1.3,1.9,4.3
	C843.5,120.9,842.7,122.2,841.6,122.2z M846.7,112.2v11.9h1v-10.9h9.9v-1H846.7z M857.2,112.2v10.5c0,0.3-0.1,0.3-0.4,0.3
	c-0.3,0-1.2,0-2.2,0c0.2,0.3,0.3,0.8,0.4,1.1c1.3,0,2.1,0,2.5-0.2c0.5-0.2,0.6-0.5,0.6-1.2v-10.5H857.2z M847.3,117.4v1h10.4v-1
	H847.3z M851.9,112.7v5.2h1v-5.2H851.9z M860.8,125.8c1.3-2.1,2.1-4.3,2.1-7.1c0-2.7-0.8-5-2.1-7.1l-0.8,0.4c1.2,2,1.8,4.4,1.8,6.7
	c0,2.4-0.6,4.7-1.8,6.7L860.8,125.8z"/>
</svg>
