<?xml version="1.0" encoding="UTF-8"?><svg id="a" xmlns="http://www.w3.org/2000/svg" viewBox="0 0 642.03 214.43"><defs><style>.b{fill:#fff;}.c,.d,.e,.f{fill:none;}.c,.e{stroke:#363636;stroke-width:2px;}.c,.e,.f{stroke-miterlimit:10;}.g,.h,.i{fill:#363636;}.j,.h,.k,.l,.i{font-family:NotoSansJP-Regular-90ms-RKSJ-H, Noto Sans JP;}.j,.m,.n,.o{fill:#004386;}.j,.n,.i{font-size:16px;}.p{letter-spacing:-.23em;}.p,.q{font-family:Verdana, Verdana;}.q{letter-spacing:-.08em;}.h{font-size:14px;}.d{stroke-width:10.53px;}.d,.o{stroke-linecap:round;stroke-linejoin:round;}.d,.o,.f{stroke:#004386;}.e{stroke-dasharray:0 0 4.17 4.17;}.l{letter-spacing:-.19em;}.o{stroke-width:5.98px;}</style></defs><g><path class="g" d="M167.24,48.14v-8.67c0-2.76,2.24-5,5-5H437.38c2.76,0,5,2.24,5,5v8.67h2v-8.67c0-3.86-3.14-7-7-7H172.24c-3.86,0-7,3.14-7,7v8.67h2Z"/><rect class="g" x="303.81" y="21.51" width="2" height="11.97"/></g><g><line class="c" x1="15.44" y1="114.43" x2="15.44" y2="116.48"/><line class="e" x1="15.44" y1="120.65" x2="15.44" y2="210.3"/><line class="c" x1="15.44" y1="212.39" x2="15.44" y2="214.43"/></g><g><line class="c" x1="181.11" y1="114.43" x2="181.11" y2="116.48"/><line class="e" x1="181.11" y1="120.65" x2="181.11" y2="210.3"/><line class="c" x1="181.11" y1="212.39" x2="181.11" y2="214.43"/></g><g><line class="c" x1="428.98" y1="114.43" x2="428.98" y2="116.48"/><line class="e" x1="428.98" y1="120.65" x2="428.98" y2="210.3"/><line class="c" x1="428.98" y1="212.39" x2="428.98" y2="214.43"/></g><g><polygon class="b" points="19.14 193.93 19.14 134.93 158.37 134.93 178.04 164.43 158.37 193.93 19.14 193.93"/><path class="m" d="M158.11,135.43l19.33,29-19.33,29H19.64v-58H158.11m.54-1H18.64v60H158.64l20-30-20-30h0Z"/></g><text class="i" transform="translate(55.3 161.91)"><tspan x="0" y="0">実施内容</tspan><tspan x="0" y="16">コンサル</tspan></text><g><polygon class="b" points="185.33 193.94 185.33 134.94 402.76 134.94 424.21 164.43 402.76 193.94 185.33 193.94"/><path class="m" d="M402.5,135.43l21.09,29-21.09,29H185.83v-58h216.67m.51-1H184.83v60h218.18l21.82-30-21.82-30h0Z"/></g><text class="j" transform="translate(11.08 84.59)"><tspan x="0" y="0">お申込み</tspan></text><polygon class="m" points="15.47 105.93 22.97 92.94 7.97 92.94 15.47 105.93"/><path class="f" d="M4.5,64.05H82.14c2.41,0,4.36,1.95,4.36,4.36v20.17c0,2.41-1.95,4.36-4.36,4.36H4.86c-2.41,0-4.36-1.95-4.36-4.36v-20.53c0-2.21,1.79-4,4-4Z"/><polygon class="m" points="428.73 105.93 436.23 92.94 421.23 92.94 428.73 105.93"/><text class="j" transform="translate(368.96 84.59)"><tspan x="0" y="0">完了報告</tspan></text><path class="f" d="M362.38,64.05h77.64c2.41,0,4.36,1.95,4.36,4.36v20.17c0,2.41-1.95,4.36-4.36,4.36h-77.28c-2.41,0-4.36-1.95-4.36-4.36v-20.53c0-2.21,1.79-4,4-4Z"/><text class="n" transform="translate(256.5 14.21)"><tspan class="k" x="0" y="0">最</tspan><tspan class="l" x="16" y="0">短</tspan><tspan class="q" x="32.96" y=".74">1</tspan><tspan class="p" x="41.87" y=".74">0</tspan><tspan class="k" x="52.36" y="0">営業日</tspan></text><text class="j" transform="translate(176.81 84.19)"><tspan x="0" y="0">実施内容の決定</tspan></text><polygon class="m" points="181.21 105.53 188.71 92.54 173.71 92.54 181.21 105.53"/><path class="f" d="M170.24,63.65h125.93c2.41,0,4.36,1.95,4.36,4.36v20.17c0,2.41-1.95,4.36-4.36,4.36h-125.57c-2.41,0-4.36-1.95-4.36-4.36v-20.53c0-2.21,1.79-4,4-4Z"/><path class="m" d="M499.05,133.55c0-10.66-8.64-19.3-19.3-19.3-10.66,0-19.3,8.64-19.3,19.3s8.64,19.3,19.3,19.3,19.3-8.64,19.3-19.3Z"/><path class="m" d="M485.62,196.13h14.94v-19.47c0-11.49-9.32-20.81-20.81-20.81s-20.81,9.32-20.81,20.81v32.89h26.68v-13.43Z"/><polygon class="m" points="556.11 209.56 570.93 171.8 523.38 171.8 513.19 199.49 488.98 199.49 488.98 209.56 508.56 209.56 540.73 209.56 556.11 209.56"/><path class="d" d="M516.7,158.56l-10.95,26.48-11.34-14.48"/><g><line class="o" x1="531.62" y1="152.35" x2="533.73" y2="161.03"/><line class="o" x1="544.72" y1="148.71" x2="543.46" y2="158.45"/><line class="o" x1="556.83" y1="154.88" x2="552.67" y2="162.59"/></g><path class="f" d="M637.17,64.05h-111.42c-2.21,0-4,1.79-4,4v44.77c-7,4.12-11.75,8.79-14.46,11.79,3.1-1.59,8.06-3.78,14.46-5.21v13.63c0,2.41,1.95,4.36,4.36,4.36h111.06c2.41,0,4.36-1.95,4.36-4.36V68.41c0-2.41-1.95-4.36-4.36-4.36Z"/><text class="h" transform="translate(539.64 87.21)"><tspan x="0" y="0">必要な設定が</tspan><tspan x="0" y="18">完了していて</tspan><tspan x="-7" y="36">すぐに使える！</tspan></text><text class="i" transform="translate(254.41 169.91)"><tspan x="0" y="0">設定等実施</tspan></text></svg>