<?xml version="1.0" encoding="UTF-8"?><svg id="a" xmlns="http://www.w3.org/2000/svg" viewBox="0 0 820 270"><defs><style>.b{fill:#fff;}.c,.d,.e,.f,.g{fill:none;}.c,.d,.f,.g{stroke-miterlimit:10;}.c,.f{stroke:#363636;stroke-width:2px;}.h,.i,.j{fill:#363636;}.k,.i,.l,.m,.j{font-family:NotoSansJP-Regular-90ms-RKSJ-H, Noto Sans JP;}.k,.n,.o,.p{fill:#004386;}.k,.o,.j{font-size:16px;}.q{letter-spacing:-.23em;}.q,.r{font-family:Verdana, Verdana;}.d{stroke-width:.88px;}.d,.e,.p,.g{stroke:#004386;}.s{letter-spacing:.25em;}.r{letter-spacing:-.08em;}.t{letter-spacing:.13em;}.i{font-size:14px;}.e{stroke-width:10.53px;}.e,.p{stroke-linecap:round;stroke-linejoin:round;}.f{stroke-dasharray:0 0 4.17 4.17;}.m{letter-spacing:-.19em;}.p{stroke-width:5.98px;}</style></defs><rect class="b" width="820" height="270"/><g><line class="c" x1="31.13" y1="144.01" x2="31.13" y2="146.05"/><line class="f" x1="31.13" y1="150.22" x2="31.13" y2="239.87"/><line class="c" x1="31.13" y1="241.96" x2="31.13" y2="244.01"/></g><g><line class="c" x1="196.8" y1="144.01" x2="196.8" y2="146.05"/><line class="f" x1="196.8" y1="150.22" x2="196.8" y2="239.87"/><line class="c" x1="196.8" y1="241.96" x2="196.8" y2="244.01"/></g><g><line class="c" x1="444.67" y1="144.01" x2="444.67" y2="146.05"/><line class="f" x1="444.67" y1="150.22" x2="444.67" y2="239.87"/><line class="c" x1="444.67" y1="241.96" x2="444.67" y2="244.01"/></g><g><polygon class="b" points="34.83 223.51 34.83 164.51 174.06 164.51 193.73 194.01 174.06 223.51 34.83 223.51"/><path class="n" d="M173.8,165.01l19.33,29-19.33,29H35.33v-58H173.8m.54-1H34.33v60H174.33l20-30-20-30h0Z"/></g><text class="j" transform="translate(74.55 191.48)"><tspan x="0" y="0">実施内容</tspan><tspan x="0" y="16">コンサル</tspan></text><g><polygon class="b" points="201.02 223.51 201.02 164.51 418.45 164.51 439.9 194.01 418.45 223.51 201.02 223.51"/><path class="n" d="M418.19,165.01l21.09,29-21.09,29H201.52v-58h216.67m.51-1H200.52v60h218.18l21.82-30-21.82-30h0Z"/></g><text class="k" transform="translate(26.77 114.16)"><tspan x="0" y="0">お申込み</tspan></text><polygon class="n" points="31.16 135.5 38.66 122.51 23.66 122.51 31.16 135.5"/><path class="g" d="M20.19,93.62H97.83c2.41,0,4.36,1.95,4.36,4.36v20.17c0,2.41-1.95,4.36-4.36,4.36H20.55c-2.41,0-4.36-1.95-4.36-4.36v-20.53c0-2.21,1.79-4,4-4Z"/><text class="o" transform="translate(272.19 35.28)"><tspan class="l" x="0" y="0">最</tspan><tspan class="m" x="16" y="0">短</tspan><tspan class="r" x="32.96" y=".74">1</tspan><tspan class="q" x="41.87" y=".74">0</tspan><tspan class="l" x="52.36" y="0">営業日</tspan></text><text class="o" transform="translate(485.52 37.2)"><tspan class="r" x="0" y="0">1</tspan><tspan class="q" x="8.91" y="0">0</tspan><tspan class="l" x="19.4" y="-.74">営業日</tspan></text><text class="k" transform="translate(61.3 38.11)"><tspan class="s" x="0" y="0">2～</tspan><tspan x="32.88" y="0">1</tspan><tspan class="t" x="41.76" y="0">5</tspan><tspan x="52.72" y="0">日程度</tspan></text><text class="k" transform="translate(192.5 113.77)"><tspan x="0" y="0">実施内容の決定</tspan></text><polygon class="n" points="196.9 135.1 204.4 122.11 189.4 122.11 196.9 135.1"/><path class="g" d="M185.93,93.22h125.93c2.41,0,4.36,1.95,4.36,4.36v20.17c0,2.41-1.95,4.36-4.36,4.36h-125.57c-2.41,0-4.36-1.95-4.36-4.36v-20.53c0-2.21,1.79-4,4-4Z"/><text class="k" transform="translate(440.21 113.77)"><tspan x="0" y="0">ご利用開始</tspan></text><polygon class="n" points="444.6 135.1 452.1 122.11 437.1 122.11 444.6 135.1"/><path class="d" d="M433.63,93.22h95.86c2.41,0,4.36,1.95,4.36,4.36v20.17c0,2.41-1.95,4.36-4.36,4.36h-95.5c-2.41,0-4.36-1.95-4.36-4.36v-20.53c0-2.21,1.79-4,4-4Z"/><path class="n" d="M653.64,163.13c0-10.66-8.64-19.3-19.3-19.3-10.66,0-19.3,8.64-19.3,19.3s8.64,19.3,19.3,19.3c10.66,0,19.3-8.64,19.3-19.3Z"/><path class="n" d="M640.21,225.7h14.94v-19.47c0-11.49-9.32-20.81-20.81-20.81s-20.81,9.32-20.81,20.81v32.89h26.68v-13.43Z"/><polygon class="n" points="710.7 239.13 725.52 201.37 677.97 201.37 667.78 229.06 643.57 229.06 643.57 239.13 663.15 239.13 695.31 239.13 710.7 239.13"/><path class="e" d="M671.29,188.13l-10.95,26.48-11.34-14.48"/><g><line class="p" x1="686.21" y1="181.93" x2="688.32" y2="190.6"/><line class="p" x1="699.31" y1="178.28" x2="698.05" y2="188.02"/><line class="p" x1="711.42" y1="184.45" x2="707.26" y2="192.17"/></g><path class="g" d="M791.76,93.62h-111.42c-2.21,0-4,1.79-4,4v44.77c-7,4.12-11.75,8.79-14.46,11.79,3.1-1.59,8.06-3.78,14.46-5.21v13.63c0,2.41,1.95,4.36,4.36,4.36h111.06c2.41,0,4.36-1.95,4.36-4.36V97.98c0-2.41-1.95-4.36-4.36-4.36Z"/><text class="i" transform="translate(694.23 116.78)"><tspan x="0" y="0">必要な設定が</tspan><tspan x="0" y="18">完了していて</tspan><tspan x="-7" y="36">すぐに使える！</tspan></text><text class="j" transform="translate(270.1 199.48)"><tspan x="0" y="0">設定等実施</tspan></text><g><polygon class="b" points="449.73 223.64 449.73 164.38 569.02 164.38 580.86 194.01 569.02 223.64 449.73 223.64"/><path class="n" d="M568.77,164.75l11.69,29.26-11.69,29.26h-118.66v-58.52h118.66m.5-.74h-119.91v60h119.91l11.99-30-11.99-30h0Z"/></g><text class="i" transform="translate(469.35 182.59)"><tspan x="0" y="0">実施結果への</tspan><tspan x="0" y="15">お問い合わせ</tspan><tspan x="14" y="30">対応期間</tspan></text><path class="h" d="M32.13,64.8v-9.29c0-2.76,2.24-5,5-5H188.33c2.76,0,5,2.24,5,5v9.29h2v-9.29c0-3.86-3.14-7-7-7H37.13c-3.86,0-7,3.14-7,7v9.29h2Z"/><path class="h" d="M201.52,64.8v-9.29c0-2.76,2.24-5,5-5h228c2.76,0,5,2.24,5,5v9.29h2v-9.29c0-3.86-3.14-7-7-7H206.52c-3.86,0-7,3.14-7,7v9.29h2Z"/><path class="h" d="M447.53,64.8v-9.29c0-2.76,2.24-5,5-5h122.73c2.76,0,5,2.24,5,5v9.29h2v-9.29c0-3.86-3.14-7-7-7h-122.73c-3.86,0-7,3.14-7,7v9.29h2Z"/><line class="c" x1="112.73" y1="49.51" x2="112.73" y2="42.33"/><line class="c" x1="320.52" y1="49.51" x2="320.52" y2="42.33"/><line class="c" x1="513.89" y1="49.51" x2="513.89" y2="42.33"/></svg>