<svg width="50" height="50" viewBox="0 0 50 50" fill="none" xmlns="http://www.w3.org/2000/svg">
	<path
		d="M4.73667 50C3.48042 50 2.27563 49.501 1.38734 48.6127C0.49904 47.7244 0 46.5196 0 45.2633L0 4.73667C0 3.48042 0.49904 2.27563 1.38734 1.38734C2.27563 0.49904 3.48042 0 4.73667 0L45.2633 0C46.5196 0 47.7244 0.49904 48.6127 1.38734C49.501 2.27563 50 3.48042 50 4.73667V45.2633C50 46.5196 49.501 47.7244 48.6127 48.6127C47.7244 49.501 46.5196 50 45.2633 50H4.73667Z"
		fill="#004386" />
	<path
		d="M24.9217 45.4683C36.2693 45.4683 45.4683 36.2693 45.4683 24.9217C45.4683 13.5741 36.2693 4.375 24.9217 4.375C13.5741 4.375 4.375 13.5741 4.375 24.9217C4.375 36.2693 13.5741 45.4683 24.9217 45.4683Z"
		fill="white" />
	<path
		d="M32.2484 12.15C31.0604 11.7648 29.7937 12.1348 28.9979 13.1066L25.227 17.7065C25.1644 17.7823 25.1043 17.8605 25.0447 17.9388C25.0292 17.9569 25.0159 17.9745 24.9996 17.9929C24.927 17.8958 24.852 17.8004 24.7752 17.7072L21.0035 13.1062C20.2054 12.1342 18.9363 11.7648 17.7485 12.1515C16.4772 12.5655 15.6666 13.8173 15.6666 15.154V27.609C15.6666 28.5495 15.9948 29.4676 16.5908 30.1943L24.399 39.7194C24.7104 40.0992 25.2913 40.0992 25.6027 39.7194L33.4095 30.1944C34.0054 29.4676 34.3339 28.5495 34.3339 27.609V15.1528C34.3338 13.8148 33.5213 12.5626 32.2484 12.15ZM32.1077 27.609C32.1077 28.0361 31.9591 28.4528 31.6878 28.7827L25.2752 36.6444C25.1828 36.7577 24.9994 36.6922 24.9994 36.5461V21.5653C24.9994 21.4396 25.0434 21.318 25.124 21.2216L30.7195 14.5183C30.8739 14.3309 31.0838 14.2274 31.3117 14.2274C31.4441 14.2274 31.5829 14.2622 31.7096 14.3313C31.9708 14.4736 32.1077 14.7721 32.1077 15.0694V27.609V27.609Z"
		fill="#004386" />
</svg>