<svg width="50" height="50" viewBox="0 0 50 50" fill="none" xmlns="http://www.w3.org/2000/svg">
	<path
		d="M4.73636 50C2.12045 50 0 47.8795 0 45.2636V4.73636C0 2.12045 2.12045 0 4.73636 0H45.2636C47.8795 0 50 2.12045 50 4.73636V45.2636C50 47.8795 47.8795 50 45.2636 50H4.73636Z"
		fill="#004386" />
	<path
		d="M24.9217 45.4683C36.2693 45.4683 45.4683 36.2693 45.4683 24.9217C45.4683 13.5741 36.2693 4.375 24.9217 4.375C13.5741 4.375 4.375 13.5741 4.375 24.9217C4.375 36.2693 13.5741 45.4683 24.9217 45.4683Z"
		fill="white" />
	<path
		d="M32.5138 15.4508C31.2811 15.4508 30.1057 15.6949 29.021 16.1208C28.3378 11.5268 24.391 8 19.6129 8C17.0423 8 14.7106 9.02407 13 10.6846V39.3154C14.7153 40.9759 17.0423 42 19.6129 42C24.3958 42 28.3425 38.4636 29.0258 33.8649C30.1057 34.2908 31.2811 34.5348 32.5138 34.5348C37.7745 34.5348 42.0366 30.2615 42.0366 24.9976C42.0366 19.7337 37.7745 15.4508 32.5138 15.4508Z"
		fill="white" />
	<path
		d="M41.1001 25.4618C40.8564 30.0031 37.1056 33.6065 32.5138 33.6065C30.9466 33.6065 29.4797 33.1806 28.2135 32.4436C28.2135 32.4484 28.2135 32.4484 28.2135 32.4532C28.2135 37.2098 24.3624 41.0668 19.6129 41.0668C17.4341 41.0668 15.4464 40.2581 13.9317 38.923V11.0674C15.4464 9.73228 17.4341 8.92355 19.6129 8.92355C24.3624 8.92355 28.2135 12.7806 28.2135 17.5372C28.2135 17.542 28.2135 17.542 28.2135 17.5468C29.4797 16.8146 30.9466 16.3839 32.5138 16.3839C37.1056 16.3839 40.8612 19.9921 41.1001 24.5286H40.0585H34.8026C34.3439 24.5286 34.0763 24.4903 33.9043 24.1889C33.6224 23.7008 33.092 23.3753 32.4852 23.3849C32.2033 23.3897 31.9357 23.4663 31.7063 23.6003C31.4101 23.7725 31.1569 23.672 30.7603 23.4423L21.83 18.2789C21.4334 18.0492 21.2232 17.8818 21.2232 17.5372C21.2232 16.9821 20.9365 16.4414 20.4204 16.1399C19.6512 15.6948 18.6669 15.958 18.2225 16.7285C17.7781 17.4989 18.0409 18.4847 18.8102 18.9297C19.3262 19.2264 19.9378 19.2073 20.4204 18.9297C20.7167 18.7575 20.9699 18.858 21.3665 19.0877L30.2968 24.2511C30.6934 24.4808 30.9036 24.6483 30.9036 24.9928C30.9036 25.3373 30.6934 25.5048 30.2968 25.7345L21.3617 30.9027C20.9651 31.1324 20.7119 31.2329 20.4157 31.0606C19.9331 30.7831 19.3215 30.7639 18.8054 31.0606C18.0362 31.5057 17.7734 32.4915 18.2177 33.2619C18.6621 34.0323 19.6464 34.2955 20.4157 33.8505C20.9317 33.5538 21.2184 33.0131 21.2184 32.4532C21.2184 32.1086 21.4286 31.9411 21.8252 31.7114L30.7555 26.548C31.1521 26.3183 31.4053 26.2179 31.7016 26.3901C31.9453 26.5289 32.2319 26.6103 32.533 26.6055C33.1207 26.5959 33.6271 26.2753 33.8995 25.8015C34.0715 25.5048 34.3391 25.4618 34.7978 25.4618H40.0537H41.1001Z"
		fill="#004386" />
	<path
		d="M19.6129 21.533C21.8164 21.533 23.6026 19.7441 23.6026 17.5373C23.6026 15.3304 21.8164 13.5415 19.6129 13.5415C17.4094 13.5415 15.6232 15.3304 15.6232 17.5373C15.6232 19.7441 17.4094 21.533 19.6129 21.533Z"
		fill="#FDD000" />
	<path
		d="M19.6129 36.449C21.8164 36.449 23.6026 34.66 23.6026 32.4532C23.6026 30.2464 21.8164 28.4574 19.6129 28.4574C17.4094 28.4574 15.6232 30.2464 15.6232 32.4532C15.6232 34.66 17.4094 36.449 19.6129 36.449Z"
		fill="#FDD000" />
	<path
		d="M32.5139 28.9934C34.7173 28.9934 36.5036 27.2044 36.5036 24.9976C36.5036 22.7908 34.7173 21.0018 32.5139 21.0018C30.3104 21.0018 28.5241 22.7908 28.5241 24.9976C28.5241 27.2044 30.3104 28.9934 32.5139 28.9934Z"
		fill="#FDD000" />
	<path
		d="M40.0585 25.4618H41.1001C41.1097 25.3086 41.1144 25.1507 41.1144 24.9928C41.1144 24.8349 41.1097 24.6818 41.1001 24.5238H40.0585H34.8026C34.3439 24.5238 34.0763 24.4856 33.9043 24.1841C33.6224 23.696 33.092 23.3706 32.4852 23.3801C32.2033 23.3849 31.9357 23.4615 31.7063 23.5955C31.4101 23.7678 31.1569 23.6673 30.7603 23.4376L21.83 18.279C21.4334 18.0493 21.2231 17.8818 21.2231 17.5372C21.2231 16.9821 20.9365 16.4414 20.4204 16.1399C19.6511 15.6949 18.6668 15.958 18.2225 16.7285C17.7781 17.4989 18.0409 18.4847 18.8102 18.9298C19.3262 19.2265 19.9378 19.2073 20.4204 18.9298C20.7167 18.7575 20.9699 18.858 21.3665 19.0877L30.2968 24.2511C30.6934 24.4808 30.9036 24.6483 30.9036 24.9928C30.9036 25.3374 30.6934 25.5048 30.2968 25.7345L21.3617 30.9027C20.9651 31.1324 20.7119 31.2329 20.4156 31.0607C19.9331 30.7831 19.3215 30.764 18.8054 31.0607C18.0361 31.5057 17.7733 32.4915 18.2177 33.2619C18.6621 34.0324 19.6464 34.2956 20.4156 33.8505C20.9317 33.5538 21.2184 33.0131 21.2184 32.4532C21.2184 32.1086 21.4286 31.9412 21.8252 31.7115L30.7555 26.5481C31.1521 26.3184 31.4053 26.2179 31.7016 26.3901C31.9452 26.5289 32.2319 26.6103 32.5329 26.6055C33.1207 26.5959 33.6271 26.2753 33.8995 25.8015C34.0715 25.5048 34.3391 25.4618 34.7978 25.4618H40.0585Z"
		fill="white" />
</svg>