<svg width="76" height="51" viewBox="0 0 76 51" fill="none" xmlns="http://www.w3.org/2000/svg">
<circle cx="40.1933" cy="32.5942" r="14.6024" fill="#004386"/>
<circle cx="40.1933" cy="32.5942" r="16.1024" stroke="white" stroke-width="3"/>
<circle cx="58.3976" cy="32.5942" r="14.6024" fill="#004386"/>
<circle cx="58.3976" cy="32.5942" r="16.1024" stroke="white" stroke-width="3"/>
<circle cx="49.8309" cy="17.6024" r="14.6024" fill="#004386"/>
<circle cx="49.8309" cy="17.6024" r="16.1024" stroke="white" stroke-width="3"/>
<path d="M42.7384 16.2033H47.6247L48.1516 16.9836V18.8565H42.7384V18.8638V21.1358V21.5152H48.1516V25.5294H51.5122V21.5152H56.9236V21.1358V18.8638V18.8565H51.5122V16.9873L52.0372 16.2033H56.9236V13.9311H53.5649L56.4193 9.67542H53.5725L49.8348 15.2469L46.0895 9.67542H43.2425L46.0971 13.9311H42.7384V16.2033Z" fill="white"/>
<path d="M6.14887 25.1228H12.2925V18.9799C12.2925 16.4138 14.3754 14.3313 16.9414 14.3313C19.5074 14.3313 21.5903 16.4138 21.5903 18.9799V25.1228H27.7314C30.3005 25.1228 32.3802 27.2061 32.3802 29.7714C32.3802 32.3368 30.3005 34.42 27.7314 34.42H21.5903V40.563C21.5903 43.1291 19.5074 45.2115 16.9414 45.2115C14.3754 45.2115 12.2925 43.1291 12.2925 40.563V34.42H6.14887C3.58286 34.42 1.5 32.3375 1.5 29.7714C1.5 27.2053 3.58286 25.1228 6.14887 25.1228Z" fill="#004386" stroke="white" stroke-width="3"/>
</svg>
