<?xml version="1.0" encoding="UTF-8" standalone="no"?>
<!DOCTYPE svg PUBLIC "-//W3C//DTD SVG 1.1//EN" "http://www.w3.org/Graphics/SVG/1.1/DTD/svg11.dtd">
<svg width="100%" height="100%" viewBox="0 0 176 176" version="1.1" xmlns="http://www.w3.org/2000/svg" xmlns:xlink="http://www.w3.org/1999/xlink" xml:space="preserve" xmlns:serif="http://www.serif.com/" style="fill-rule:evenodd;clip-rule:evenodd;stroke-linejoin:round;stroke-miterlimit:2;">
    <path d="M16.672,176C7.464,176 0,168.536 0,159.328L0,16.672C0,7.464 7.464,0 16.672,0L159.328,0C168.536,0 176,7.464 176,16.672L176,159.328C176,168.536 168.536,176 159.328,176L16.672,176Z" style="fill:white;fill-rule:nonzero;"/>
    <g transform="matrix(0.957001,0,0,0.957001,3.7839,3.7839)">
        <path d="M16.672,176C7.464,176 0,168.536 0,159.328L0,16.672C0,7.464 7.464,0 16.672,0L159.328,0C168.536,0 176,7.464 176,16.672L176,159.328C176,168.536 168.536,176 159.328,176L16.672,176Z" style="fill:rgb(0,67,134);fill-rule:nonzero;"/>
    </g>
    <g>
        <g transform="matrix(1,0,0,1,-6.07292,12.0076)">
            <g transform="matrix(30,0,0,30,20.9149,94.5006)">
                <path d="M0.117,-0C0.1,-0 0.086,-0.004 0.076,-0.012C0.065,-0.02 0.06,-0.029 0.06,-0.04L0.06,-0.691C0.06,-0.702 0.065,-0.711 0.076,-0.719C0.086,-0.727 0.1,-0.731 0.117,-0.731L0.294,-0.731C0.339,-0.731 0.379,-0.724 0.414,-0.709C0.449,-0.694 0.477,-0.669 0.499,-0.635C0.52,-0.602 0.53,-0.557 0.53,-0.502L0.53,-0.229C0.53,-0.174 0.52,-0.129 0.499,-0.096C0.477,-0.062 0.449,-0.038 0.414,-0.023C0.379,-0.008 0.339,-0 0.294,-0L0.117,-0ZM0.19,-0.114L0.294,-0.114C0.327,-0.114 0.353,-0.124 0.372,-0.142C0.391,-0.162 0.4,-0.19 0.4,-0.229L0.4,-0.502C0.4,-0.541 0.391,-0.57 0.372,-0.589C0.353,-0.608 0.328,-0.617 0.295,-0.617L0.19,-0.617L0.19,-0.114Z" style="fill:white;fill-rule:nonzero;"/>
            </g>
            <g transform="matrix(30,0,0,30,38.3149,94.5006)">
                <path d="M0.114,-0C0.095,-0 0.08,-0.004 0.068,-0.013C0.056,-0.022 0.05,-0.031 0.05,-0.041L0.05,-0.435C0.05,-0.447 0.056,-0.457 0.068,-0.464C0.08,-0.471 0.095,-0.475 0.114,-0.475C0.132,-0.475 0.147,-0.471 0.16,-0.464C0.173,-0.457 0.179,-0.447 0.179,-0.435L0.179,-0.041C0.179,-0.031 0.173,-0.022 0.16,-0.013C0.147,-0.004 0.132,-0 0.114,-0ZM0.114,-0.581C0.095,-0.581 0.078,-0.588 0.064,-0.601C0.05,-0.614 0.043,-0.628 0.043,-0.644C0.043,-0.661 0.05,-0.676 0.064,-0.689C0.078,-0.701 0.095,-0.707 0.114,-0.707C0.133,-0.707 0.15,-0.701 0.164,-0.689C0.177,-0.676 0.184,-0.661 0.184,-0.644C0.184,-0.628 0.177,-0.614 0.164,-0.601C0.15,-0.588 0.133,-0.581 0.114,-0.581Z" style="fill:white;fill-rule:nonzero;"/>
            </g>
            <g transform="matrix(30,0,0,30,45.1549,94.5006)">
                <path d="M0.237,0.221C0.198,0.221 0.161,0.215 0.128,0.204C0.094,0.193 0.067,0.177 0.047,0.156C0.026,0.135 0.016,0.109 0.016,0.08C0.016,0.055 0.023,0.033 0.037,0.015C0.051,-0.002 0.068,-0.016 0.089,-0.026C0.076,-0.032 0.066,-0.04 0.059,-0.05C0.051,-0.06 0.047,-0.073 0.047,-0.09C0.047,-0.109 0.052,-0.124 0.062,-0.136C0.071,-0.147 0.083,-0.158 0.098,-0.168C0.078,-0.183 0.063,-0.202 0.052,-0.224C0.041,-0.245 0.036,-0.269 0.036,-0.295L0.036,-0.316C0.036,-0.349 0.044,-0.377 0.06,-0.402C0.076,-0.427 0.099,-0.446 0.129,-0.46C0.158,-0.474 0.192,-0.481 0.231,-0.481C0.253,-0.481 0.274,-0.478 0.293,-0.473C0.312,-0.469 0.33,-0.461 0.345,-0.452C0.356,-0.479 0.367,-0.497 0.377,-0.506C0.387,-0.515 0.397,-0.52 0.406,-0.52C0.422,-0.52 0.435,-0.515 0.444,-0.506C0.453,-0.497 0.457,-0.488 0.457,-0.48C0.457,-0.474 0.456,-0.469 0.453,-0.464C0.45,-0.459 0.445,-0.455 0.44,-0.452C0.434,-0.448 0.427,-0.443 0.418,-0.438C0.409,-0.432 0.401,-0.424 0.394,-0.414C0.406,-0.401 0.415,-0.386 0.421,-0.37C0.426,-0.353 0.429,-0.335 0.429,-0.316L0.429,-0.295C0.429,-0.263 0.421,-0.234 0.404,-0.21C0.387,-0.185 0.364,-0.165 0.334,-0.15C0.304,-0.135 0.27,-0.128 0.231,-0.128C0.207,-0.128 0.185,-0.131 0.166,-0.137C0.163,-0.134 0.16,-0.131 0.158,-0.128C0.155,-0.125 0.154,-0.121 0.154,-0.117C0.154,-0.106 0.161,-0.098 0.176,-0.093C0.191,-0.088 0.209,-0.085 0.232,-0.082C0.255,-0.079 0.279,-0.076 0.305,-0.071C0.33,-0.067 0.354,-0.06 0.377,-0.051C0.4,-0.042 0.418,-0.028 0.433,-0.01C0.448,0.009 0.455,0.033 0.455,0.064C0.455,0.101 0.445,0.131 0.424,0.154C0.403,0.177 0.376,0.194 0.343,0.205C0.31,0.216 0.274,0.221 0.237,0.221ZM0.235,0.138C0.261,0.138 0.283,0.132 0.302,0.119C0.32,0.106 0.329,0.089 0.329,0.068C0.329,0.054 0.325,0.043 0.317,0.034C0.309,0.025 0.298,0.019 0.284,0.014C0.271,0.01 0.256,0.007 0.24,0.004C0.224,0.002 0.208,-0 0.192,-0.002C0.176,0.005 0.163,0.015 0.153,0.026C0.143,0.037 0.138,0.051 0.138,0.067C0.138,0.089 0.148,0.106 0.167,0.119C0.186,0.132 0.208,0.138 0.235,0.138ZM0.233,-0.206C0.255,-0.206 0.272,-0.214 0.285,-0.231C0.298,-0.248 0.304,-0.269 0.304,-0.295L0.304,-0.316C0.304,-0.341 0.298,-0.361 0.285,-0.378C0.273,-0.395 0.255,-0.403 0.232,-0.403C0.209,-0.403 0.192,-0.395 0.18,-0.378C0.167,-0.361 0.161,-0.341 0.161,-0.316L0.161,-0.296C0.161,-0.271 0.167,-0.249 0.18,-0.232C0.192,-0.215 0.21,-0.206 0.233,-0.206Z" style="fill:white;fill-rule:nonzero;"/>
            </g>
            <g transform="matrix(30,0,0,30,59.2849,94.5006)">
                <path d="M0.114,-0C0.095,-0 0.08,-0.004 0.068,-0.013C0.056,-0.022 0.05,-0.031 0.05,-0.041L0.05,-0.435C0.05,-0.447 0.056,-0.457 0.068,-0.464C0.08,-0.471 0.095,-0.475 0.114,-0.475C0.132,-0.475 0.147,-0.471 0.16,-0.464C0.173,-0.457 0.179,-0.447 0.179,-0.435L0.179,-0.041C0.179,-0.031 0.173,-0.022 0.16,-0.013C0.147,-0.004 0.132,-0 0.114,-0ZM0.114,-0.581C0.095,-0.581 0.078,-0.588 0.064,-0.601C0.05,-0.614 0.043,-0.628 0.043,-0.644C0.043,-0.661 0.05,-0.676 0.064,-0.689C0.078,-0.701 0.095,-0.707 0.114,-0.707C0.133,-0.707 0.15,-0.701 0.164,-0.689C0.177,-0.676 0.184,-0.661 0.184,-0.644C0.184,-0.628 0.177,-0.614 0.164,-0.601C0.15,-0.588 0.133,-0.581 0.114,-0.581Z" style="fill:white;fill-rule:nonzero;"/>
            </g>
            <g transform="matrix(30,0,0,30,66.1249,94.5006)">
                <path d="M0.233,-0C0.173,-0 0.127,-0.013 0.096,-0.039C0.064,-0.065 0.048,-0.106 0.048,-0.162L0.048,-0.647C0.048,-0.659 0.055,-0.669 0.069,-0.676C0.083,-0.683 0.097,-0.687 0.112,-0.687C0.128,-0.687 0.143,-0.683 0.157,-0.676C0.17,-0.669 0.177,-0.659 0.177,-0.647L0.177,-0.475L0.295,-0.475C0.306,-0.475 0.314,-0.47 0.32,-0.461C0.325,-0.451 0.328,-0.44 0.328,-0.428C0.328,-0.416 0.325,-0.405 0.32,-0.396C0.314,-0.386 0.306,-0.381 0.295,-0.381L0.177,-0.381L0.177,-0.162C0.177,-0.143 0.181,-0.129 0.19,-0.121C0.198,-0.113 0.212,-0.109 0.233,-0.109L0.272,-0.109C0.291,-0.109 0.305,-0.103 0.314,-0.092C0.323,-0.081 0.327,-0.068 0.327,-0.055C0.327,-0.041 0.323,-0.028 0.314,-0.017C0.305,-0.006 0.291,-0 0.272,-0L0.233,-0Z" style="fill:white;fill-rule:nonzero;"/>
            </g>
            <g transform="matrix(30,0,0,30,76.4449,94.5006)">
                <path d="M0.152,0.009C0.117,0.009 0.086,-0.002 0.061,-0.024C0.035,-0.045 0.022,-0.079 0.022,-0.124C0.022,-0.162 0.032,-0.192 0.051,-0.213C0.071,-0.234 0.099,-0.249 0.134,-0.258C0.169,-0.267 0.209,-0.271 0.255,-0.271L0.296,-0.271L0.296,-0.284C0.296,-0.299 0.293,-0.313 0.288,-0.327C0.282,-0.341 0.273,-0.353 0.261,-0.362C0.248,-0.371 0.231,-0.376 0.208,-0.376C0.183,-0.376 0.163,-0.374 0.15,-0.369C0.136,-0.364 0.125,-0.358 0.118,-0.353C0.111,-0.348 0.103,-0.345 0.094,-0.345C0.08,-0.345 0.069,-0.352 0.062,-0.366C0.054,-0.38 0.05,-0.394 0.05,-0.409C0.05,-0.423 0.059,-0.436 0.076,-0.447C0.093,-0.458 0.113,-0.466 0.138,-0.472C0.163,-0.478 0.187,-0.481 0.21,-0.481C0.262,-0.481 0.304,-0.472 0.335,-0.453C0.366,-0.434 0.389,-0.41 0.404,-0.381C0.418,-0.352 0.425,-0.32 0.425,-0.286L0.425,-0.041C0.425,-0.03 0.419,-0.02 0.407,-0.012C0.395,-0.004 0.38,-0 0.362,-0C0.345,-0 0.332,-0.004 0.321,-0.012C0.31,-0.02 0.304,-0.03 0.304,-0.041L0.304,-0.07C0.286,-0.049 0.265,-0.031 0.241,-0.015C0.216,0.001 0.187,0.009 0.152,0.009ZM0.204,-0.087C0.218,-0.087 0.232,-0.092 0.246,-0.101C0.26,-0.11 0.272,-0.122 0.281,-0.137C0.291,-0.152 0.296,-0.167 0.296,-0.183L0.296,-0.204L0.281,-0.204C0.259,-0.204 0.238,-0.203 0.218,-0.2C0.198,-0.197 0.182,-0.192 0.17,-0.183C0.157,-0.173 0.151,-0.16 0.151,-0.141C0.151,-0.122 0.156,-0.109 0.167,-0.1C0.177,-0.091 0.189,-0.087 0.204,-0.087Z" style="fill:white;fill-rule:nonzero;"/>
            </g>
            <g transform="matrix(30,0,0,30,90.5749,94.5006)">
                <path d="M0.123,-0C0.104,-0 0.089,-0.004 0.077,-0.013C0.065,-0.022 0.059,-0.031 0.059,-0.041L0.059,-0.712C0.059,-0.724 0.065,-0.734 0.077,-0.741C0.089,-0.748 0.104,-0.752 0.123,-0.752C0.141,-0.752 0.156,-0.748 0.169,-0.741C0.182,-0.734 0.188,-0.724 0.188,-0.712L0.188,-0.041C0.188,-0.031 0.182,-0.022 0.169,-0.013C0.156,-0.004 0.141,-0 0.123,-0Z" style="fill:white;fill-rule:nonzero;"/>
            </g>
            <g transform="matrix(30,0,0,30,97.9849,94.5006)">
                <path d="M0.262,-0C0.245,-0 0.23,-0.004 0.217,-0.011C0.204,-0.018 0.197,-0.028 0.197,-0.041L0.197,-0.614L0.05,-0.614C0.037,-0.614 0.027,-0.62 0.02,-0.632C0.013,-0.644 0.009,-0.658 0.009,-0.673C0.009,-0.687 0.012,-0.7 0.019,-0.713C0.026,-0.725 0.036,-0.731 0.05,-0.731L0.473,-0.731C0.488,-0.731 0.498,-0.725 0.504,-0.713C0.511,-0.7 0.514,-0.687 0.514,-0.673C0.514,-0.658 0.51,-0.644 0.503,-0.632C0.497,-0.62 0.486,-0.614 0.473,-0.614L0.327,-0.614L0.327,-0.041C0.327,-0.028 0.32,-0.018 0.307,-0.011C0.293,-0.004 0.278,-0 0.262,-0Z" style="fill:white;fill-rule:nonzero;"/>
            </g>
            <g transform="matrix(30,0,0,30,110.855,94.5006)">
                <path d="M0.113,-0C0.095,-0 0.08,-0.004 0.068,-0.013C0.056,-0.022 0.05,-0.031 0.05,-0.041L0.05,-0.435C0.05,-0.447 0.056,-0.457 0.068,-0.464C0.08,-0.471 0.095,-0.475 0.113,-0.475C0.13,-0.475 0.143,-0.471 0.155,-0.464C0.166,-0.457 0.171,-0.447 0.171,-0.435L0.171,-0.394C0.178,-0.409 0.188,-0.423 0.201,-0.436C0.213,-0.449 0.227,-0.459 0.243,-0.468C0.259,-0.477 0.276,-0.481 0.294,-0.481L0.325,-0.481C0.338,-0.481 0.349,-0.475 0.358,-0.465C0.367,-0.454 0.372,-0.44 0.372,-0.425C0.372,-0.409 0.367,-0.396 0.358,-0.385C0.349,-0.374 0.338,-0.368 0.325,-0.368L0.294,-0.368C0.275,-0.368 0.257,-0.362 0.239,-0.349C0.222,-0.337 0.207,-0.32 0.196,-0.299C0.185,-0.277 0.179,-0.251 0.179,-0.22L0.179,-0.041C0.179,-0.031 0.173,-0.022 0.16,-0.013C0.147,-0.004 0.132,-0 0.113,-0Z" style="fill:white;fill-rule:nonzero;"/>
            </g>
            <g transform="matrix(30,0,0,30,121.925,94.5006)">
                <path d="M0.152,0.009C0.117,0.009 0.086,-0.002 0.061,-0.024C0.035,-0.045 0.022,-0.079 0.022,-0.124C0.022,-0.162 0.032,-0.192 0.051,-0.213C0.071,-0.234 0.099,-0.249 0.134,-0.258C0.169,-0.267 0.209,-0.271 0.255,-0.271L0.296,-0.271L0.296,-0.284C0.296,-0.299 0.293,-0.313 0.288,-0.327C0.282,-0.341 0.273,-0.353 0.261,-0.362C0.248,-0.371 0.231,-0.376 0.208,-0.376C0.183,-0.376 0.163,-0.374 0.15,-0.369C0.136,-0.364 0.125,-0.358 0.118,-0.353C0.111,-0.348 0.103,-0.345 0.094,-0.345C0.08,-0.345 0.069,-0.352 0.062,-0.366C0.054,-0.38 0.05,-0.394 0.05,-0.409C0.05,-0.423 0.059,-0.436 0.076,-0.447C0.093,-0.458 0.113,-0.466 0.138,-0.472C0.163,-0.478 0.187,-0.481 0.21,-0.481C0.262,-0.481 0.304,-0.472 0.335,-0.453C0.366,-0.434 0.389,-0.41 0.404,-0.381C0.418,-0.352 0.425,-0.32 0.425,-0.286L0.425,-0.041C0.425,-0.03 0.419,-0.02 0.407,-0.012C0.395,-0.004 0.38,-0 0.362,-0C0.345,-0 0.332,-0.004 0.321,-0.012C0.31,-0.02 0.304,-0.03 0.304,-0.041L0.304,-0.07C0.286,-0.049 0.265,-0.031 0.241,-0.015C0.216,0.001 0.187,0.009 0.152,0.009ZM0.204,-0.087C0.218,-0.087 0.232,-0.092 0.246,-0.101C0.26,-0.11 0.272,-0.122 0.281,-0.137C0.291,-0.152 0.296,-0.167 0.296,-0.183L0.296,-0.204L0.281,-0.204C0.259,-0.204 0.238,-0.203 0.218,-0.2C0.198,-0.197 0.182,-0.192 0.17,-0.183C0.157,-0.173 0.151,-0.16 0.151,-0.141C0.151,-0.122 0.156,-0.109 0.167,-0.1C0.177,-0.091 0.189,-0.087 0.204,-0.087Z" style="fill:white;fill-rule:nonzero;"/>
            </g>
            <g transform="matrix(30,0,0,30,136.055,94.5006)">
                <path d="M0.208,0.009C0.177,0.009 0.148,-0.001 0.121,-0.02C0.094,-0.039 0.073,-0.065 0.057,-0.096C0.041,-0.127 0.033,-0.161 0.033,-0.196L0.033,-0.278C0.033,-0.315 0.041,-0.349 0.057,-0.38C0.073,-0.411 0.094,-0.435 0.121,-0.454C0.148,-0.472 0.177,-0.481 0.21,-0.481C0.241,-0.481 0.268,-0.473 0.29,-0.458C0.312,-0.442 0.328,-0.424 0.339,-0.405L0.339,-0.712C0.339,-0.724 0.345,-0.734 0.358,-0.741C0.371,-0.748 0.386,-0.752 0.405,-0.752C0.423,-0.752 0.438,-0.748 0.45,-0.741C0.462,-0.734 0.468,-0.724 0.468,-0.712L0.468,-0.041C0.468,-0.031 0.462,-0.022 0.45,-0.013C0.438,-0.004 0.423,-0 0.405,-0C0.389,-0 0.375,-0.004 0.364,-0.013C0.353,-0.022 0.347,-0.031 0.347,-0.041L0.347,-0.07C0.337,-0.049 0.319,-0.031 0.294,-0.015C0.268,0.001 0.239,0.009 0.208,0.009ZM0.249,-0.104C0.266,-0.104 0.282,-0.109 0.295,-0.118C0.308,-0.128 0.319,-0.139 0.327,-0.151C0.335,-0.162 0.339,-0.171 0.339,-0.178L0.339,-0.278C0.339,-0.297 0.335,-0.313 0.326,-0.326C0.317,-0.339 0.305,-0.35 0.292,-0.357C0.278,-0.364 0.264,-0.368 0.25,-0.368C0.234,-0.368 0.219,-0.364 0.205,-0.355C0.192,-0.345 0.181,-0.334 0.173,-0.321C0.166,-0.308 0.162,-0.293 0.162,-0.278L0.162,-0.196C0.162,-0.181 0.166,-0.166 0.173,-0.152C0.181,-0.138 0.192,-0.127 0.205,-0.117C0.218,-0.109 0.233,-0.104 0.249,-0.104Z" style="fill:white;fill-rule:nonzero;"/>
            </g>
            <g transform="matrix(30,0,0,30,151.625,94.5006)">
                <path d="M0.274,0.009C0.227,0.009 0.185,0 0.149,-0.017C0.112,-0.034 0.084,-0.058 0.063,-0.089C0.042,-0.119 0.032,-0.155 0.032,-0.196L0.032,-0.281C0.032,-0.317 0.042,-0.35 0.062,-0.381C0.081,-0.411 0.108,-0.435 0.141,-0.454C0.173,-0.472 0.21,-0.481 0.251,-0.481C0.288,-0.481 0.323,-0.473 0.354,-0.457C0.385,-0.441 0.41,-0.419 0.429,-0.391C0.448,-0.363 0.458,-0.33 0.458,-0.293C0.458,-0.264 0.453,-0.244 0.444,-0.232C0.435,-0.219 0.423,-0.212 0.408,-0.209C0.394,-0.205 0.379,-0.204 0.364,-0.204L0.161,-0.204L0.161,-0.189C0.161,-0.16 0.172,-0.137 0.194,-0.119C0.215,-0.102 0.243,-0.093 0.278,-0.093C0.3,-0.093 0.318,-0.096 0.333,-0.103C0.348,-0.11 0.36,-0.116 0.371,-0.122C0.382,-0.128 0.392,-0.131 0.401,-0.131C0.411,-0.131 0.42,-0.128 0.427,-0.121C0.434,-0.114 0.44,-0.107 0.444,-0.098C0.448,-0.089 0.45,-0.081 0.45,-0.074C0.45,-0.063 0.443,-0.051 0.429,-0.038C0.414,-0.025 0.394,-0.014 0.368,-0.005C0.341,0.004 0.31,0.009 0.274,0.009ZM0.161,-0.28L0.307,-0.28C0.318,-0.28 0.326,-0.282 0.331,-0.285C0.335,-0.289 0.337,-0.296 0.337,-0.307C0.337,-0.322 0.333,-0.336 0.325,-0.348C0.317,-0.36 0.306,-0.369 0.293,-0.376C0.28,-0.383 0.265,-0.386 0.249,-0.386C0.234,-0.386 0.219,-0.383 0.206,-0.377C0.193,-0.37 0.182,-0.361 0.173,-0.349C0.165,-0.338 0.161,-0.324 0.161,-0.308L0.161,-0.28Z" style="fill:white;fill-rule:nonzero;"/>
            </g>
        </g>
        <g transform="matrix(1,0,0,1,12.216,16.9465)">
            <g transform="matrix(30,0,0,30,51.589,131.151)">
                <path d="M0.125,-0C0.109,-0 0.094,-0.004 0.081,-0.011C0.067,-0.018 0.06,-0.028 0.06,-0.041L0.06,-0.691C0.06,-0.702 0.065,-0.711 0.074,-0.719C0.083,-0.727 0.095,-0.731 0.11,-0.731L0.31,-0.731C0.353,-0.731 0.391,-0.724 0.426,-0.709C0.46,-0.694 0.487,-0.671 0.507,-0.637C0.527,-0.605 0.537,-0.561 0.537,-0.506L0.537,-0.5C0.537,-0.445 0.527,-0.401 0.506,-0.368C0.485,-0.335 0.457,-0.311 0.422,-0.296C0.386,-0.281 0.346,-0.273 0.302,-0.273L0.19,-0.273L0.19,-0.041C0.19,-0.028 0.183,-0.018 0.17,-0.011C0.157,-0.004 0.142,-0 0.125,-0ZM0.19,-0.375L0.302,-0.375C0.335,-0.375 0.361,-0.385 0.38,-0.404C0.398,-0.423 0.407,-0.451 0.407,-0.49L0.407,-0.502C0.407,-0.541 0.398,-0.57 0.38,-0.589C0.361,-0.608 0.335,-0.617 0.302,-0.617L0.19,-0.617L0.19,-0.375Z" style="fill:white;fill-rule:nonzero;"/>
            </g>
            <g transform="matrix(30,0,0,30,67.609,131.151)">
                <path d="M0.248,0.009C0.209,0.009 0.174,-0.001 0.141,-0.02C0.108,-0.039 0.082,-0.064 0.062,-0.095C0.042,-0.126 0.032,-0.16 0.032,-0.196L0.032,-0.278C0.032,-0.314 0.042,-0.347 0.061,-0.379C0.08,-0.409 0.107,-0.434 0.14,-0.453C0.172,-0.472 0.209,-0.481 0.248,-0.481C0.287,-0.481 0.324,-0.472 0.357,-0.454C0.39,-0.435 0.416,-0.411 0.436,-0.38C0.455,-0.349 0.465,-0.315 0.465,-0.278L0.465,-0.196C0.465,-0.161 0.455,-0.127 0.435,-0.096C0.415,-0.065 0.389,-0.039 0.356,-0.02C0.323,-0.001 0.287,0.009 0.248,0.009ZM0.248,-0.104C0.264,-0.104 0.279,-0.108 0.292,-0.117C0.305,-0.126 0.316,-0.137 0.324,-0.152C0.332,-0.166 0.336,-0.181 0.336,-0.196L0.336,-0.278C0.336,-0.293 0.332,-0.308 0.324,-0.321C0.316,-0.334 0.306,-0.345 0.293,-0.355C0.28,-0.364 0.265,-0.368 0.248,-0.368C0.232,-0.368 0.217,-0.364 0.204,-0.355C0.191,-0.346 0.18,-0.335 0.172,-0.322C0.165,-0.308 0.161,-0.293 0.161,-0.278L0.161,-0.196C0.161,-0.181 0.165,-0.166 0.172,-0.152C0.18,-0.137 0.191,-0.126 0.204,-0.117C0.217,-0.108 0.232,-0.104 0.248,-0.104Z" style="fill:white;fill-rule:nonzero;"/>
            </g>
            <g transform="matrix(30,0,0,30,82.519,131.151)">
                <path d="M0.283,0.006C0.242,0.006 0.203,-0.002 0.168,-0.017C0.133,-0.032 0.105,-0.056 0.084,-0.09C0.063,-0.123 0.053,-0.168 0.053,-0.223L0.053,-0.502C0.053,-0.557 0.063,-0.602 0.084,-0.635C0.105,-0.669 0.133,-0.694 0.168,-0.709C0.203,-0.724 0.242,-0.731 0.284,-0.731C0.331,-0.731 0.372,-0.723 0.407,-0.708C0.443,-0.692 0.471,-0.67 0.492,-0.642C0.512,-0.614 0.522,-0.58 0.522,-0.541C0.522,-0.515 0.517,-0.498 0.506,-0.49C0.495,-0.481 0.479,-0.477 0.457,-0.477C0.439,-0.477 0.424,-0.48 0.411,-0.487C0.399,-0.493 0.393,-0.503 0.392,-0.518C0.392,-0.526 0.391,-0.536 0.389,-0.547C0.386,-0.558 0.382,-0.568 0.375,-0.579C0.368,-0.59 0.358,-0.599 0.344,-0.606C0.331,-0.613 0.312,-0.617 0.288,-0.617C0.254,-0.617 0.228,-0.608 0.21,-0.589C0.191,-0.57 0.182,-0.541 0.182,-0.502L0.182,-0.223C0.182,-0.184 0.191,-0.155 0.21,-0.136C0.229,-0.117 0.255,-0.108 0.29,-0.108C0.313,-0.108 0.331,-0.112 0.344,-0.119C0.357,-0.126 0.367,-0.136 0.374,-0.147C0.38,-0.158 0.384,-0.169 0.387,-0.181C0.389,-0.193 0.391,-0.204 0.392,-0.215C0.393,-0.23 0.4,-0.241 0.412,-0.247C0.424,-0.253 0.439,-0.256 0.456,-0.256C0.479,-0.256 0.495,-0.252 0.506,-0.243C0.517,-0.234 0.522,-0.217 0.522,-0.192C0.522,-0.152 0.512,-0.117 0.492,-0.087C0.471,-0.057 0.443,-0.034 0.407,-0.018C0.371,-0.002 0.33,0.006 0.283,0.006Z" style="fill:white;fill-rule:nonzero;"/>
            </g>
        </g>
        <g transform="matrix(0,38.1069,38.1069,0,76.6599,34.1992)">
            <path d="M0.51,-1.714C0.739,-1.714 0.931,-1.196 0.99,-0.489C0.916,-0.969 0.756,-1.477 0.576,-1.477C0.301,-1.477 0.079,-0.718 0.079,0.209C0.079,0.848 0.23,1.469 0.385,1.714C0.187,1.478 0.013,0.753 0.013,-0.028C0.013,-0.955 0.235,-1.714 0.51,-1.714Z" style="fill:url(#_Linear1);fill-rule:nonzero;"/>
        </g>
        <g transform="matrix(-1.2222e-17,-34.7064,-34.5068,-1.2222e-17,80.8149,72.0451)">
            <path d="M0.458,1.772C0.258,1.772 0.079,1.208 -0.002,0.675C0.098,1.063 0.242,1.466 0.429,1.466C0.708,1.466 0.934,0.719 0.934,-0.191C0.934,-0.818 0.824,-1.471 0.669,-1.772C0.842,-1.5 1.01,-0.81 1.01,-0.101C1.01,0.929 0.762,1.772 0.458,1.772Z" style="fill:url(#_Linear2);fill-rule:nonzero;"/>
        </g>
        <g transform="matrix(0.8576,0,0,0.8576,38.2184,61.1792)">
            <path d="M0,-12.248L7.033,-12.248L7.492,-3.614L7.526,-3.614L9.333,-12.248L13.369,-12.248L10.805,0L3.891,0L3.364,-8.876L3.329,-8.876L1.471,0L-2.563,0L0,-12.248Z" style="fill:white;fill-rule:nonzero;"/>
        </g>
        <g transform="matrix(0.8576,0,0,0.8576,61.1864,58.0792)">
            <path d="M0,-5.019L-4.046,-5.019L-5.854,3.614L-10.554,3.614L-8.746,-5.019L-12.791,-5.019L-12.033,-8.633L0.756,-8.633L0,-5.019Z" style="fill:white;fill-rule:nonzero;"/>
        </g>
        <g transform="matrix(0.8576,0,0,0.8576,73.2205,58.0792)">
            <path d="M0,-5.019L-4.044,-5.019L-5.853,3.614L-10.553,3.614L-8.746,-5.019L-12.787,-5.019L-12.034,-8.633L0.757,-8.633L0,-5.019Z" style="fill:white;fill-rule:nonzero;"/>
        </g>
        <g transform="matrix(0.8576,0,0,0.8576,86.2168,58.4569)">
            <path d="M0,-1.268C0,-2.256 -0.329,-3.081 -1.45,-3.081C-2.949,-3.081 -3.701,-1.354 -3.701,0.019C-3.701,1.024 -3.304,1.806 -2.211,1.806C-0.739,1.806 0,0.034 0,-1.268M1.986,-1.281C1.986,1.392 0.21,3.345 -2.37,3.345C-4.439,3.345 -5.69,2.007 -5.69,-0.13C-5.69,-2.664 -3.815,-4.613 -1.362,-4.613C0.614,-4.613 1.986,-3.376 1.986,-1.281" style="fill:white;fill-rule:nonzero;"/>
        </g>
        <g transform="matrix(0.8576,0,0,0.8576,89.1824,60.2972)">
            <path d="M0,-5.742C0.056,-6.043 0.114,-6.348 0.159,-6.587L1.931,-6.587L1.757,-5.567L1.788,-5.567C2.298,-6.348 3.138,-6.759 4.027,-6.759C4.898,-6.759 5.788,-6.224 5.889,-5.316L5.919,-5.316C6.399,-6.304 7.465,-6.759 8.485,-6.759C9.576,-6.759 10.511,-5.83 10.511,-4.674C10.511,-4 10.342,-3.238 10.185,-2.611L9.417,1.017L7.521,1.017L8.284,-2.687C8.384,-3.14 8.528,-3.852 8.528,-4.311C8.528,-4.871 8.118,-5.227 7.634,-5.227C6.314,-5.227 5.991,-3.63 5.749,-2.596L4.993,1.017L3.095,1.017L3.858,-2.687C3.957,-3.14 4.1,-3.852 4.1,-4.311C4.1,-4.871 3.69,-5.227 3.21,-5.227C1.917,-5.227 1.564,-3.614 1.32,-2.596L0.567,1.017L-1.331,1.017L0,-5.742Z" style="fill:white;fill-rule:nonzero;"/>
        </g>
        <g transform="matrix(0.8576,0,0,0.8576,99.5129,60.2972)">
            <path d="M0,-5.742C0.054,-6.043 0.11,-6.348 0.154,-6.587L1.928,-6.587L1.755,-5.567L1.786,-5.567C2.294,-6.348 3.135,-6.759 4.027,-6.759C4.894,-6.759 5.786,-6.224 5.886,-5.316L5.915,-5.316C6.398,-6.304 7.463,-6.759 8.48,-6.759C9.572,-6.759 10.507,-5.83 10.507,-4.674C10.507,-4 10.339,-3.238 10.184,-2.611L9.416,1.017L7.518,1.017L8.284,-2.687C8.382,-3.14 8.524,-3.852 8.524,-4.311C8.524,-4.871 8.114,-5.227 7.63,-5.227C6.312,-5.227 5.987,-3.63 5.745,-2.596L4.992,1.017L3.091,1.017L3.856,-2.687C3.955,-3.14 4.098,-3.852 4.098,-4.311C4.098,-4.871 3.69,-5.227 3.207,-5.227C1.915,-5.227 1.562,-3.614 1.318,-2.596L0.567,1.017L-1.332,1.017L0,-5.742Z" style="fill:white;fill-rule:nonzero;"/>
        </g>
        <g transform="matrix(0.8576,0,0,0.8576,114.583,55.7439)">
            <path d="M0,5.231C-0.083,5.695 -0.151,6.099 -0.181,6.327L-2.04,6.327L-1.912,5.595L-1.941,5.595C-2.467,6.099 -3.19,6.509 -4.012,6.509C-5.445,6.509 -6.395,5.579 -6.395,4.071C-6.395,3.496 -6.251,2.89 -6.152,2.421L-5.389,-1.278L-3.485,-1.278L-4.197,2.315C-4.295,2.829 -4.41,3.353 -4.41,3.909C-4.41,4.544 -3.982,4.969 -3.372,4.969C-2.056,4.969 -1.573,3.688 -1.331,2.546L-0.552,-1.278L1.351,-1.278L0,5.231Z" style="fill:white;fill-rule:nonzero;"/>
        </g>
        <g transform="matrix(0.8576,0,0,0.8576,116.799,60.0837)">
            <path d="M0,-5.244C0.083,-5.704 0.154,-6.099 0.182,-6.338L2.04,-6.338L1.913,-5.597L1.941,-5.597C2.467,-6.099 3.192,-6.51 4.013,-6.51C5.447,-6.51 6.396,-5.581 6.396,-4.077C6.396,-3.502 6.253,-2.891 6.153,-2.423L5.389,1.266L3.486,1.266L4.194,-2.316C4.296,-2.836 4.41,-3.351 4.41,-3.917C4.41,-4.545 3.985,-4.978 3.376,-4.978C2.056,-4.978 1.574,-3.699 1.332,-2.558L0.555,1.266L-1.35,1.266L0,-5.244Z" style="fill:white;fill-rule:nonzero;"/>
        </g>
        <g transform="matrix(0.8576,0,0,0.8576,124.698,61.1692)">
            <path d="M0,-10.878L1.9,-10.878L1.503,-8.992L-0.399,-8.992L0,-10.878ZM-0.696,-7.604L1.205,-7.604L-0.354,0L-2.255,0L-0.696,-7.604Z" style="fill:white;fill-rule:nonzero;"/>
        </g>
        <g transform="matrix(0.8576,0,0,0.8576,131.07,59.6853)">
            <path d="M0,-4.132C-0.37,-4.38 -0.864,-4.513 -1.389,-4.513C-2.907,-4.513 -3.757,-3.037 -3.757,-1.607C-3.757,-0.616 -3.447,0.373 -2.143,0.373C-1.677,0.373 -1.092,0.243 -0.595,-0.01L-0.807,1.558C-1.389,1.851 -2.014,1.913 -2.638,1.913C-4.526,1.913 -5.745,0.596 -5.745,-1.367C-5.745,-4.028 -4.057,-6.045 -1.433,-6.045C-0.723,-6.045 -0.04,-5.919 0.469,-5.752L0,-4.132Z" style="fill:white;fill-rule:nonzero;"/>
        </g>
        <g transform="matrix(0.8576,0,0,0.8576,133.74,55.7435)">
            <path d="M0,5.06C1.422,5.06 1.86,4.046 2.16,2.814L1.492,2.814C0.569,2.814 -0.962,2.976 -0.962,4.264C-0.962,4.793 -0.479,5.06 0,5.06M1.86,5.162L1.833,5.162C1.179,6.024 0.526,6.509 -0.522,6.509C-1.84,6.509 -2.776,5.737 -2.776,4.336C-2.776,1.831 -0.083,1.634 1.705,1.634L2.372,1.634C2.428,1.427 2.428,1.206 2.428,0.983C2.428,0.216 1.634,-0.006 0.966,-0.006C0.129,-0.006 -0.679,0.216 -1.429,0.589L-1.159,-0.995C-0.354,-1.293 0.472,-1.449 1.321,-1.449C2.784,-1.449 4.158,-0.888 4.158,0.898C4.158,1.914 3.435,4.899 3.265,6.327L1.664,6.327L1.86,5.162Z" style="fill:white;fill-rule:nonzero;"/>
        </g>
        <g transform="matrix(0.8576,0,0,0.8576,138.279,59.388)">
            <path d="M0,-5.527L1.377,-5.527L1.702,-7.089L3.746,-7.787L3.277,-5.527L4.979,-5.527L4.682,-4.074L2.979,-4.074L2.285,-0.753C2.241,-0.578 2.199,-0.309 2.199,-0.019C2.199,0.436 2.498,0.72 2.922,0.72C3.263,0.72 3.602,0.649 3.844,0.544L3.518,2.077C3.193,2.153 2.824,2.26 2.498,2.26C1.206,2.26 0.298,1.729 0.298,0.265C0.298,-0.324 0.412,-0.897 0.54,-1.505L1.077,-4.074L-0.299,-4.074L0,-5.527Z" style="fill:white;fill-rule:nonzero;"/>
        </g>
        <g transform="matrix(0.8576,0,0,0.8576,144.455,61.1692)">
            <path d="M0,-10.878L1.903,-10.878L1.508,-8.992L-0.394,-8.992L0,-10.878ZM-0.692,-7.604L1.207,-7.604L-0.352,0L-2.252,0L-0.692,-7.604Z" style="fill:white;fill-rule:nonzero;"/>
        </g>
        <g transform="matrix(0.8576,0,0,0.8576,150.648,58.4569)">
            <path d="M0,-1.268C0,-2.256 -0.324,-3.081 -1.444,-3.081C-2.947,-3.081 -3.698,-1.354 -3.698,0.019C-3.698,1.024 -3.305,1.806 -2.211,1.806C-0.736,1.806 0,0.034 0,-1.268M1.988,-1.281C1.988,1.392 0.215,3.345 -2.365,3.345C-4.437,3.345 -5.685,2.007 -5.685,-0.13C-5.685,-2.664 -3.813,-4.613 -1.36,-4.613C0.612,-4.613 1.988,-3.376 1.988,-1.281" style="fill:white;fill-rule:nonzero;"/>
        </g>
        <g transform="matrix(0.8576,0,0,0.8576,153.742,60.0837)">
            <path d="M0,-5.244C0.087,-5.704 0.157,-6.099 0.184,-6.338L2.042,-6.338L1.914,-5.597L1.944,-5.597C2.467,-6.099 3.192,-6.51 4.015,-6.51C5.447,-6.51 6.398,-5.581 6.398,-4.077C6.398,-3.502 6.256,-2.891 6.157,-2.423L5.391,1.266L3.488,1.266L4.199,-2.316C4.298,-2.836 4.413,-3.351 4.413,-3.917C4.413,-4.545 3.987,-4.978 3.377,-4.978C2.058,-4.978 1.576,-3.699 1.334,-2.558L0.555,1.266L-1.348,1.266L0,-5.244Z" style="fill:white;fill-rule:nonzero;"/>
        </g>
        <g transform="matrix(0.8576,0,0,0.8576,164.299,59.7864)">
            <path d="M0,-4.368C-0.498,-4.555 -1.019,-4.721 -1.56,-4.721C-2.127,-4.721 -2.835,-4.555 -2.835,-3.949C-2.835,-2.99 -0.368,-2.642 -0.368,-0.773C-0.368,1.199 -2.027,1.795 -3.659,1.795C-4.425,1.795 -5.189,1.673 -5.885,1.335L-5.474,-0.244C-4.935,0.064 -4.397,0.346 -3.659,0.346C-3.021,0.346 -2.352,0.126 -2.352,-0.492C-2.352,-1.725 -4.822,-1.839 -4.822,-3.746C-4.822,-5.533 -3.162,-6.163 -1.659,-6.163C-0.962,-6.163 -0.255,-6.037 0.413,-5.859L0,-4.368Z" style="fill:white;fill-rule:nonzero;"/>
        </g>
        <g transform="matrix(0.8576,0,0,0.8576,81.3551,59.416)">
            <path d="M0,-6.21C-0.443,-6.534 -1.193,-6.811 -2.255,-6.811C-3.206,-6.811 -5.258,-6.191 -5.958,-3.723C-6.84,-0.604 -5.079,0.6 -3.33,0.6C-2.492,0.6 -1.806,0.325 -1.233,-0.034L-1.585,1.943C-2.315,2.15 -3.076,2.227 -3.831,2.227C-6.824,2.227 -8.91,-0.074 -8.026,-3.723C-7.236,-7.012 -4.806,-8.437 -2.365,-8.437C-1.368,-8.437 -0.323,-8.305 0.534,-7.931L0,-6.21Z" style="fill:white;fill-rule:nonzero;"/>
        </g>
    </g>
    <defs>
        <linearGradient id="_Linear1" x1="0" y1="0" x2="1" y2="0" gradientUnits="userSpaceOnUse" gradientTransform="matrix(1,0,0,-1,0,-8.50694e-07)"><stop offset="0" style="stop-color:rgb(255,234,189);stop-opacity:1"/><stop offset="0.5" style="stop-color:rgb(252,209,5);stop-opacity:1"/><stop offset="1" style="stop-color:rgb(182,115,41);stop-opacity:1"/></linearGradient>
        <linearGradient id="_Linear2" x1="0" y1="0" x2="1" y2="0" gradientUnits="userSpaceOnUse" gradientTransform="matrix(1,0,0,-1,0,-9.44913e-07)"><stop offset="0" style="stop-color:rgb(255,234,189);stop-opacity:1"/><stop offset="0.25" style="stop-color:rgb(252,209,5);stop-opacity:1"/><stop offset="1" style="stop-color:rgb(182,115,41);stop-opacity:1"/></linearGradient>
    </defs>
</svg>
