<svg width="62" height="60" viewBox="0 0 62 60" fill="none" xmlns="http://www.w3.org/2000/svg">
<path d="M59.6546 34.4531C60.1782 34.4133 60.6671 34.1826 61.0238 33.807C61.3805 33.4315 61.5787 32.9387 61.5789 32.427V27.5754C61.5788 27.0634 61.3806 26.5704 61.024 26.1944C60.6673 25.8185 60.1784 25.5873 59.6546 25.5469L53.0601 25.0453C52.8553 25.0297 52.6588 24.9592 52.4926 24.8415C52.3264 24.7238 52.1969 24.5636 52.1184 24.3785L49.9535 19.2785C49.8739 19.0943 49.8486 18.892 49.8804 18.6945C49.9123 18.497 50.0001 18.3121 50.1339 18.1605L54.4336 13.2598C54.7751 12.8709 54.9534 12.3708 54.9329 11.8594C54.9124 11.3479 54.6946 10.8629 54.323 10.5012L50.8014 7.07344C50.4301 6.71104 49.9321 6.4986 49.4069 6.47861C48.8818 6.45862 48.3682 6.63256 47.969 6.96563L42.9369 11.1551C42.7808 11.2849 42.5909 11.3702 42.3882 11.4014C42.1855 11.4326 41.9779 11.4086 41.7883 11.332L36.5625 9.2168C36.3728 9.14028 36.2084 9.01424 36.0874 8.85255C35.9665 8.69087 35.8936 8.49981 35.877 8.30039L35.3598 1.875C35.3192 1.36435 35.0821 0.887473 34.6961 0.539813C34.3101 0.192154 33.8036 -0.000643868 33.2779 1.61557e-06H28.3011C27.7754 -0.000643868 27.2689 0.192154 26.8828 0.539813C26.4968 0.887473 26.2598 1.36435 26.2192 1.875L25.7032 8.29805C25.6877 8.49764 25.6157 8.68912 25.495 8.85114C25.3744 9.01316 25.21 9.13934 25.0201 9.21563L19.7846 11.325C19.5964 11.4009 19.3904 11.4251 19.1891 11.3952C18.9877 11.3652 18.7985 11.2822 18.6421 11.1551L13.6099 6.96563C13.2106 6.63282 12.6971 6.45905 12.172 6.47903C11.647 6.49902 11.149 6.71129 10.7775 7.07344L7.25958 10.5012C6.88816 10.8632 6.67048 11.3484 6.64997 11.86C6.62946 12.3715 6.80763 12.8717 7.14893 13.2609L11.4486 18.1641C11.5817 18.3163 11.669 18.5013 11.7008 18.6988C11.7327 18.8964 11.7078 19.0986 11.629 19.2832L9.46055 24.375C9.38288 24.5603 9.25372 24.7209 9.08759 24.8387C8.92145 24.9565 8.72491 25.0268 8.52003 25.0418L1.92434 25.5469C1.40056 25.5873 0.911622 25.8185 0.554979 26.1944C0.198337 26.5704 0.000180019 27.0634 1.89132e-06 27.5754V32.4223C-0.000705574 32.9347 0.197085 33.4285 0.553843 33.805C0.9106 34.1815 1.40004 34.413 1.92434 34.4531L8.52003 34.9535C8.72473 34.9697 8.92088 35.0406 9.08684 35.1584C9.2528 35.2763 9.38213 35.4365 9.46055 35.6215L11.6254 40.7215C11.7042 40.9063 11.729 41.1087 11.6972 41.3064C11.6653 41.5041 11.5781 41.6894 11.445 41.8418L7.14893 46.7402C6.80771 47.1292 6.62958 47.6293 6.65009 48.1406C6.6706 48.652 6.88824 49.137 7.25958 49.4988L10.7775 52.9266C11.1491 53.2885 11.6472 53.5006 12.1723 53.5204C12.6973 53.5401 13.2107 53.3662 13.6099 53.0332L18.6421 48.8438C18.7986 48.7139 18.989 48.6287 19.1921 48.5977C19.3953 48.5667 19.6032 48.591 19.7931 48.668L25.0285 50.7773C25.2184 50.8541 25.3828 50.9805 25.5036 51.1427C25.6244 51.3048 25.6968 51.4964 25.7128 51.6961L26.2192 58.125C26.26 58.6352 26.4968 59.1115 26.8823 59.4591C27.2677 59.8066 27.7735 59.9998 28.2987 60H33.2755C33.8014 60.0007 34.3082 59.808 34.6946 59.4604C35.081 59.1128 35.3186 58.6359 35.3598 58.125L35.8721 51.7008C35.8888 51.5009 35.9617 51.3094 36.0829 51.1473C36.204 50.9852 36.3688 50.8588 36.5589 50.782L41.7943 48.6727C41.9835 48.5956 42.191 48.5712 42.3935 48.6023C42.5961 48.6333 42.7859 48.7185 42.9417 48.8484L47.9714 53.0379C48.3704 53.3708 48.8836 53.5447 49.4085 53.5249C49.9333 53.5052 50.4312 53.2932 50.8026 52.9312L54.3206 49.5035C54.6923 49.1419 54.9104 48.657 54.9311 48.1456C54.9519 47.6342 54.7738 47.134 54.4324 46.7449L50.1315 41.8359C49.9981 41.6837 49.9106 41.4984 49.8788 41.3006C49.8469 41.1029 49.872 40.9004 49.9511 40.7156L52.116 35.6156C52.1944 35.4307 52.3237 35.2704 52.4897 35.1526C52.6557 35.0347 52.8518 34.9638 53.0565 34.9477L59.6546 34.4531ZM30.7895 40.1391C28.3827 40.1382 26.0507 39.3244 24.1907 37.8361C22.3307 36.3478 21.0579 34.2772 20.589 31.9771C20.1201 29.6769 20.4843 27.2896 21.6193 25.2217C22.7544 23.1538 24.5902 21.5333 26.814 20.6364C29.0378 19.7394 31.512 19.6215 33.815 20.3027C36.118 20.9838 38.1074 22.4219 39.4442 24.372C40.781 26.322 41.3826 28.6634 41.1464 30.9971C40.9102 33.3309 39.8509 35.5126 38.1489 37.1707C37.1844 38.1148 36.0374 38.8633 34.7742 39.3728C33.511 39.8823 32.1566 40.1427 30.7895 40.1391Z" fill="#004386"/>
</svg>
