<svg width="46" height="60" viewBox="0 0 46 60" fill="none" xmlns="http://www.w3.org/2000/svg">
<path d="M16.4811 14.4668V0.804496L0.768158 16.5185H14.4295C15.9062 16.5185 16.4811 15.9435 16.4811 14.4668Z" fill="#004386"/>
<path d="M43.2895 0H19.5193V16.2952C19.5193 18.0932 18.0568 19.5567 16.2599 19.5567H0V57.3398C0 58.8063 1.19367 60 2.66016 60H43.2895C44.7559 60 45.9497 58.8064 45.9497 57.3398V2.65816C45.9497 1.1925 44.7559 0 43.2895 0Z" fill="#004386"/>
<path d="M8.456 41H10.824V36.792H12.408C14.952 36.792 16.968 35.592 16.968 32.888C16.968 30.072 14.952 29.16 12.344 29.16H8.456V41ZM10.824 34.92V31.048H12.168C13.8 31.048 14.664 31.496 14.664 32.888C14.664 34.232 13.88 34.92 12.248 34.92H10.824ZM19.1279 41H22.5039C25.9919 41 28.2159 39.016 28.2159 35.032C28.2159 31.032 25.9919 29.16 22.3759 29.16H19.1279V41ZM21.4959 39.096V31.048H22.2159C24.4399 31.048 25.7999 32.152 25.7999 35.032C25.7999 37.912 24.4399 39.096 22.2159 39.096H21.4959ZM30.5498 41H32.9178V36.2H37.1258V34.232H32.9178V31.128H37.8458V29.16H30.5498V41Z" fill="white"/>
</svg>
