<?xml version="1.0" encoding="utf-8"?>
<!-- Generator: Adobe Illustrator 25.3.1, SVG Export Plug-In . SVG Version: 6.00 Build 0)  -->
<svg version="1.1" xmlns="http://www.w3.org/2000/svg" xmlns:xlink="http://www.w3.org/1999/xlink" x="0px" y="0px"
	 viewBox="0 0 701.33 87.02" style="enable-background:new 0 0 701.33 87.02;" xml:space="preserve">
<style type="text/css">
	.st0{fill:#004386;}
	.st1{fill:#FDD000;}
	.st2{fill:#FFFFFF;}
	.st3{fill:#B3B3B3;}
	.st4{clip-path:url(#SVGID_2_);}
</style>
<g id="レイヤー_1">
	<g>
		<g>
			<path class="st2" d="M48.81,23.56c-2.58,0-5.04,0.51-7.31,1.4c-1.43-9.6-9.69-16.97-19.69-16.97c-5.38,0-10.26,2.14-13.84,5.61
				v59.83c3.59,3.47,8.46,5.61,13.84,5.61c10.01,0,18.27-7.39,19.7-17c2.26,0.89,4.72,1.4,7.3,1.4c11.01,0,19.93-8.93,19.93-19.93
				S59.82,23.56,48.81,23.56z"/>
			<g>
				<g>
					<path class="st0" d="M66.78,44.48c-0.51,9.49-8.36,17.02-17.97,17.02c-3.28,0-6.35-0.89-9-2.43c0,0.01,0,0.01,0,0.02
						c0,9.94-8.06,18-18,18c-4.56,0-8.72-1.69-11.89-4.48l0-58.21c3.17-2.79,7.33-4.48,11.89-4.48c9.94,0,18,8.06,18,18
						c0,0.01,0,0.01,0,0.02c2.65-1.53,5.72-2.43,9-2.43c9.61,0,17.47,7.54,17.97,17.02H64.6v0h-11c-0.96,0-1.52-0.08-1.88-0.71
						c-0.59-1.02-1.7-1.7-2.97-1.68c-0.59,0.01-1.15,0.17-1.63,0.45c-0.62,0.36-1.15,0.15-1.98-0.33L26.45,29.47
						c-0.83-0.48-1.27-0.83-1.27-1.55c0-1.16-0.6-2.29-1.68-2.92c-1.61-0.93-3.67-0.38-4.6,1.23c-0.93,1.61-0.38,3.67,1.23,4.6
						c1.08,0.62,2.36,0.58,3.37,0c0.62-0.36,1.15-0.15,1.98,0.33l18.69,10.79c0.83,0.48,1.27,0.83,1.27,1.55
						c0,0.72-0.44,1.07-1.27,1.55L25.47,55.85c-0.83,0.48-1.36,0.69-1.98,0.33c-1.01-0.58-2.29-0.62-3.37,0
						c-1.61,0.93-2.16,2.99-1.23,4.6c0.93,1.61,2.99,2.16,4.6,1.23c1.08-0.62,1.68-1.75,1.68-2.92c0-0.72,0.44-1.07,1.27-1.55
						l18.69-10.79c0.83-0.48,1.36-0.69,1.98-0.33c0.51,0.29,1.11,0.46,1.74,0.45c1.23-0.02,2.29-0.69,2.86-1.68
						c0.36-0.62,0.92-0.71,1.88-0.71h11v0H66.78z"/>
					<circle class="st1" cx="21.81" cy="27.92" r="8.35"/>
					<circle class="st1" cx="21.81" cy="59.09" r="8.35"/>
					<circle class="st1" cx="48.81" cy="43.51" r="8.35"/>
					<path class="st2" d="M64.6,44.48h2.18c0.02-0.32,0.03-0.65,0.03-0.98s-0.01-0.65-0.03-0.98H64.6v0h-11
						c-0.96,0-1.52-0.08-1.88-0.71c-0.59-1.02-1.7-1.7-2.97-1.68c-0.59,0.01-1.15,0.17-1.63,0.45c-0.62,0.36-1.15,0.15-1.98-0.33
						L26.45,29.47c-0.83-0.48-1.27-0.83-1.27-1.55c0-1.16-0.6-2.29-1.68-2.92c-1.61-0.93-3.67-0.38-4.6,1.23
						c-0.93,1.61-0.38,3.67,1.23,4.6c1.08,0.62,2.36,0.58,3.37,0c0.62-0.36,1.15-0.15,1.98,0.33l18.69,10.79
						c0.83,0.48,1.27,0.83,1.27,1.55c0,0.72-0.44,1.07-1.27,1.55L25.47,55.85c-0.83,0.48-1.36,0.69-1.98,0.33
						c-1.01-0.58-2.29-0.62-3.37,0c-1.61,0.93-2.16,2.99-1.23,4.6c0.93,1.61,2.99,2.16,4.6,1.23c1.08-0.62,1.68-1.75,1.68-2.92
						c0-0.72,0.44-1.07,1.27-1.55l18.69-10.79c0.83-0.48,1.36-0.69,1.98-0.33c0.51,0.29,1.11,0.46,1.74,0.45
						c1.23-0.02,2.29-0.69,2.86-1.68c0.36-0.62,0.92-0.71,1.88-0.71L64.6,44.48L64.6,44.48z"/>
				</g>
			</g>
		</g>
		<g>
			<g>
				<path class="st2" d="M78.03,27.47c0-2.46,1.06-3.52,3.46-3.52h9.22c8.94,0,13.02,3.19,13.02,9.72c0,5.14-2.9,7.88-7.77,8.89V43
					c5.03,0.56,8.89,3.18,8.89,9.33c0,7.6-5.14,10.73-14.47,10.73h-8.88c-2.4,0-3.46-1.06-3.46-3.52V27.47z M90.15,40.1
					c3.69,0,6.03-1.51,6.03-5.36c0-3.91-2.29-5.36-6.03-5.36h-4.69V40.1H90.15z M90.54,57.64c4.36,0,6.76-1.9,6.76-6.09
					c0-4.25-2.4-6.09-6.76-6.09h-5.09v12.18H90.54z"/>
				<path class="st2" d="M134.73,59.54c0,1.79-0.73,2.85-3.35,3.46c-1.51,0.39-3.58,0.61-5.53,0.61c-10.62,0-17.66-6.54-17.66-20.12
					c0-13.58,7.04-20.12,17.66-20.12c1.96,0,4.02,0.22,5.53,0.62c2.63,0.61,3.35,1.68,3.35,3.46v0.22c0,1.84-1.12,3.19-3.97,2.46
					c-1.51-0.39-2.46-0.67-4.3-0.67c-6.26,0-10.34,3.91-10.34,14.02c0,10.11,4.08,14.03,10.34,14.03c1.84,0,2.79-0.28,4.3-0.67
					c2.85-0.73,3.97,0.61,3.97,2.46V59.54z"/>
				<path class="st2" d="M136.35,48.48c0-10.23,5.7-15.14,14.19-15.14s14.19,4.92,14.19,15.14c0,10.17-5.7,15.14-14.19,15.14
					S136.35,58.65,136.35,48.48z M157.25,48.48c0-7.04-2.74-9.78-6.71-9.78c-3.91,0-6.71,2.74-6.71,9.78c0,7.04,2.79,9.72,6.71,9.72
					C154.51,58.2,157.25,55.52,157.25,48.48z"/>
				<path class="st2" d="M169.1,37.08c0-2.46,1.06-3.52,3.52-3.52h0.33c2.12,0,3.52,1.12,3.52,2.91v0.17l0.45,0.22
					c2.07-2.18,4.92-3.52,8.38-3.52c5.48,0,9.83,3.3,9.83,10.56v15.98c0,2.46-1.06,3.52-3.52,3.52h-0.34
					c-2.46,0-3.52-1.06-3.52-3.52V44.51c0-3.86-1.9-5.36-4.8-5.36c-2.4,0-4.81,1.06-6.48,3.02v17.71c0,2.46-1.06,3.52-3.52,3.52
					h-0.33c-2.46,0-3.52-1.06-3.52-3.52V37.08z"/>
				<path class="st2" d="M200.78,37.08c0-2.46,1.06-3.52,3.52-3.52h0.33c2.12,0,3.52,1.12,3.52,2.91v0.17l0.45,0.22
					c2.07-2.18,4.92-3.52,8.38-3.52c5.48,0,9.83,3.3,9.83,10.56v15.98c0,2.46-1.06,3.52-3.52,3.52h-0.34
					c-2.46,0-3.52-1.06-3.52-3.52V44.51c0-3.86-1.9-5.36-4.81-5.36c-2.4,0-4.8,1.06-6.48,3.02v17.71c0,2.46-1.06,3.52-3.52,3.52
					h-0.33c-2.46,0-3.52-1.06-3.52-3.52V37.08z"/>
				<path class="st2" d="M255.71,59.49c0,1.73-0.78,2.68-2.85,3.3c-1.56,0.45-4.19,0.84-6.71,0.84c-9.61,0-14.97-5.14-14.97-15.09
					c0-10.23,5.7-15.2,13.13-15.2c7.32,0,12.68,5.08,12.68,13.91c0,2.18-1.17,3.13-3.46,3.13h-15.09c0.34,5.36,3.02,7.6,8.33,7.6
					c2.01,0,3.63-0.45,5.42-1.06c2.24-0.78,3.52,0.5,3.52,2.07V59.49z M249.96,45.74c-0.22-5.08-2.51-7.43-5.64-7.43
					c-3.24,0-5.64,2.46-5.87,7.43H249.96z"/>
				<path class="st2" d="M281.95,59.71c0,2.07-0.84,2.85-2.91,3.41c-1.28,0.33-2.68,0.5-4.36,0.5c-8.77,0-14.58-5.03-14.58-15.14
					c0-10.17,5.81-15.14,14.58-15.14c1.68,0,3.07,0.17,4.36,0.5c2.07,0.5,2.91,1.34,2.91,3.41v0.17c0,1.73-1.23,3.02-3.46,2.24
					c-1.12-0.34-2.12-0.62-3.46-0.62c-4.08,0-7.32,2.46-7.32,9.44c0,6.98,3.24,9.39,7.32,9.39c1.34,0,2.35-0.22,3.46-0.61
					c2.24-0.73,3.46,0.56,3.46,2.24V59.71z"/>
				<path class="st2" d="M289.49,39.15h-2.85c-1.79,0-2.57-0.78-2.57-2.57v-0.11c0-1.84,0.78-2.57,2.57-2.57h2.85v-5.2
					c0-2.29,1.01-3.3,3.3-3.3h0.78c2.29,0,3.3,1.01,3.3,3.3v5.2h4.64c1.79,0,2.57,0.73,2.57,2.57v0.11c0,1.79-0.78,2.57-2.57,2.57
					h-4.64v14.53c0,2.91,1.45,4.13,3.86,4.13c0.5,0,0.56,0,1.12-0.06c1.73-0.17,2.4,0.78,2.4,2.57v0.45c0,1.73-0.78,2.46-2.57,2.68
					c-0.84,0.11-1.4,0.17-2.18,0.17c-6.71,0-10-3.07-10-9.72V39.15z"/>
				<path class="st2" d="M309.93,39.15h-1.4c-1.84,0-2.57-0.78-2.57-2.51v-0.28c0-1.68,0.73-2.46,2.57-2.46h5.25
					c2.46,0,3.52,1.06,3.52,3.46v22.52c0,2.46-1.06,3.52-3.52,3.52h-0.33c-2.46,0-3.52-1.06-3.52-3.52V39.15z M309.93,39.15h-1.4
					c-1.84,0-2.57-0.78-2.57-2.51v-0.28c0-1.68,0.73-2.46,2.57-2.46h5.25c2.46,0,3.52,1.06,3.52,3.46v22.52
					c0,2.46-1.06,3.52-3.52,3.52h-0.33c-2.46,0-3.52-1.06-3.52-3.52V39.15z M309.49,24.4c0-2.29,1.01-3.3,3.3-3.3h1.68
					c2.29,0,3.3,1.01,3.3,3.3v0.89c0,2.29-1.01,3.3-3.3,3.3h-1.68c-2.29,0-3.3-1.01-3.3-3.3V24.4z"/>
				<path class="st2" d="M321.67,48.48c0-10.23,5.7-15.14,14.19-15.14c8.49,0,14.19,4.92,14.19,15.14c0,10.17-5.7,15.14-14.19,15.14
					C327.37,63.62,321.67,58.65,321.67,48.48z M342.57,48.48c0-7.04-2.74-9.78-6.71-9.78c-3.91,0-6.71,2.74-6.71,9.78
					c0,7.04,2.79,9.72,6.71,9.72C339.83,58.2,342.57,55.52,342.57,48.48z"/>
				<path class="st2" d="M354.42,37.08c0-2.46,1.06-3.52,3.52-3.52h0.33c2.12,0,3.52,1.12,3.52,2.91v0.17l0.45,0.22
					c2.07-2.18,4.92-3.52,8.38-3.52c5.48,0,9.83,3.3,9.83,10.56v15.98c0,2.46-1.06,3.52-3.52,3.52h-0.34
					c-2.46,0-3.52-1.06-3.52-3.52V44.51c0-3.86-1.9-5.36-4.8-5.36c-2.4,0-4.81,1.06-6.48,3.02v17.71c0,2.46-1.06,3.52-3.52,3.52
					h-0.33c-2.46,0-3.52-1.06-3.52-3.52V37.08z"/>
			</g>
			<g>
				<path class="st2" d="M685.33,32.95c0,0.54-0.44,0.98-0.98,0.98h-1.12c-0.54,0-0.98-0.44-0.98-0.98v-4.21
					c0-0.54,0.44-0.98,0.98-0.98h1.12c0.54,0,0.98,0.44,0.98,0.98V32.95z"/>
				<path class="st2" d="M689.9,32.95c0,0.54-0.44,0.98-0.98,0.98h-1.12c-0.54,0-0.98-0.44-0.98-0.98v-4.21
					c0-0.54,0.44-0.98,0.98-0.98h1.12c0.54,0,0.98,0.44,0.98,0.98V32.95z"/>
			</g>
			<path class="st2" d="M584.1,42.57l-18.44-2.19c-0.04-0.01-0.08,0.01-0.13,0.01V29.07c0-0.76-0.62-1.38-1.38-1.38h-2.87
				c-0.76,0-1.38,0.62-1.38,1.38v32.99c0,0.76,0.62,1.38,1.38,1.38h2.87c0.76,0,1.38-0.62,1.38-1.38V46.08l18.57,2.18
				c0.76,0.09,1.37-0.46,1.37-1.22v-2.92C585.47,43.35,584.85,42.66,584.1,42.57z"/>
			<path class="st2" d="M690.03,42.57l-18.44-2.19c-0.04-0.01-0.08,0.01-0.13,0.01V29.07c0-0.76-0.62-1.38-1.38-1.38h-2.87
				c-0.76,0-1.38,0.62-1.38,1.38v32.99c0,0.76,0.62,1.38,1.38,1.38h2.87c0.76,0,1.38-0.62,1.38-1.38V46.08l18.57,2.18
				c0.76,0.09,1.37-0.46,1.37-1.22v-2.92C691.4,43.35,690.78,42.66,690.03,42.57z"/>
			<g>
				<path class="st2" d="M420.67,31.42c0,0.54-0.44,0.98-0.98,0.98h-1.12c-0.54,0-0.98-0.44-0.98-0.98v-4.21
					c0-0.54,0.44-0.98,0.98-0.98h1.12c0.54,0,0.98,0.44,0.98,0.98V31.42z"/>
				<path class="st2" d="M425.24,31.42c0,0.54-0.44,0.98-0.98,0.98h-1.12c-0.54,0-0.98-0.44-0.98-0.98v-4.21
					c0-0.54,0.44-0.98,0.98-0.98h1.12c0.54,0,0.98,0.44,0.98,0.98V31.42z"/>
			</g>
			<g>
				<path class="st2" d="M463.57,31.42c0,0.54-0.44,0.98-0.98,0.98h-1.12c-0.54,0-0.98-0.44-0.98-0.98v-4.21
					c0-0.54,0.44-0.98,0.98-0.98h1.12c0.54,0,0.98,0.44,0.98,0.98V31.42z"/>
				<path class="st2" d="M468.14,31.42c0,0.54-0.44,0.98-0.98,0.98h-1.12c-0.54,0-0.98-0.44-0.98-0.98v-4.21
					c0-0.54,0.44-0.98,0.98-0.98h1.12c0.54,0,0.98,0.44,0.98,0.98V31.42z"/>
			</g>
			<path class="st2" d="M415.63,30.69c-0.01-0.76-0.64-1.38-1.4-1.38h-23.96c-0.76,0-1.38,0.62-1.38,1.38v2.71
				c0,0.76,0.62,1.38,1.38,1.38h24.02c0.76,0,1.38-0.62,1.37-1.38L415.63,30.69z"/>
			<path class="st2" d="M627.74,45.91c0,0.76,0.62,1.38,1.38,1.38h29.93c0.76,0,1.38-0.62,1.38-1.38v-2.99
				c0-0.76-0.62-1.38-1.38-1.38h-29.93c-0.76,0-1.38,0.62-1.38,1.38V45.91z"/>
			<path class="st2" d="M451.46,30.69c0-0.76-0.62-1.38-1.38-1.38h-16.82c-0.76,0-1.38,0.62-1.38,1.38v2.68
				c0,0.76,0.62,1.38,1.38,1.38h16.82c0.76,0,1.38-0.62,1.38-1.38V30.69z"/>
			<path class="st2" d="M451.46,41.72c0-0.76-0.62-1.38-1.38-1.38h-16.82c-0.76,0-1.38,0.62-1.38,1.38v2.68
				c0,0.76,0.62,1.38,1.38,1.38h16.82c0.76,0,1.38-0.62,1.38-1.38V41.72z"/>
			<path class="st2" d="M433.27,57.16c19.34-0.32,26.15-5.58,27.81-21.49c0.07-0.69,0.66-1.24,1.38-1.24h3
				c0.8-0.01,1.45,0.66,1.38,1.51c-1.75,18.91-11.27,26.51-33.52,26.89c-0.79,0.01-1.41-0.62-1.41-1.38c0-0.85,0-2.91,0-2.91
				c-0.01-0.76,0.58-1.37,1.41-1.39"/>
			<path class="st2" d="M533.98,57.09c7.74-0.47,10.85-4.89,11.75-16.3c0.06-0.71,0.65-1.27,1.38-1.27h2.82
				c0.76,0,1.38,0.62,1.38,1.38c0,0.03,0,0.05,0,0.08c-0.84,15.07-5.67,21.02-17.16,21.98c-1.21,0.08-2.65,0.11-4.31,0.12
				c-0.76,0-1.38-0.59-1.38-1.35V29.06c0-0.76,0.62-1.38,1.38-1.38h2.87c0.76,0,1.38,0.62,1.37,1.38L533.98,57.09"/>
			<path class="st2" d="M621.77,39.51h-3.03c-0.64,0-1.18,0.43-1.33,1.02c-2.92,10.87-8.62,15.58-19.99,16.55l0,0
				c0-0.01,0-0.02,0-0.03V29.36c0-0.76-0.62-1.38-1.38-1.38h-2.95c-0.76,0-1.38,0.62-1.38,1.38l-0.02,32.41
				c0,0.76,0.62,1.35,1.38,1.31l0.47-0.02c0.01,0,0.02,0,0.02,0c0.83-0.03,1.65-0.09,2.39-0.15c0.34-0.03,0.66-0.05,0.99-0.07
				c15.31-1.33,22.74-7.38,26.19-21.61c0.03-0.1,0.04-0.21,0.04-0.33C623.16,40.13,622.54,39.51,621.77,39.51z"/>
			<path class="st2" d="M423.03,40.45h-32.76c-0.76,0-1.38,0.62-1.38,1.38v2.75c0,0.76,0.62,1.38,1.38,1.38h18.48
				c-0.43,7.33-3.46,10.75-17.61,11.34c-0.73,0.03-1.32,0.64-1.32,1.38v2.91c0,0.76,0.62,1.38,1.38,1.38c0.02,0,0.03,0,0.05,0h0
				c16.27-0.53,22.73-5.19,23.37-17.02h8.4c0.76,0,1.38-0.62,1.38-1.38v-2.75C424.41,41.07,423.79,40.45,423.03,40.45z"/>
			<path class="st2" d="M523.2,29.07h-2.8c-0.76,0-1.38,0.62-1.38,1.38v3.11v7.8v1.08c0,6.69-1.57,11.82-5.77,18.96
				c-0.2,0.34-0.2,0.75-0.01,1.09c0.19,0.34,0.55,0.55,0.94,0.55c0.08,0,0.28,0,0.52,0h1.31h1.56c0.48,0,0.91-0.25,1.16-0.62
				c4.06-6.16,5.71-11.18,5.85-18.88h0.01v-1.08v-1.08v-7.8v-3.11C524.59,29.69,523.96,29.07,523.2,29.07z"/>
			<path class="st2" d="M473.71,44.48v-3.45c0-0.6,0.34-1.13,0.83-1.4c3.2-1.74,6.12-5.33,7.63-9.45c0.24-0.65,0.86-1.11,1.59-1.11
				l23.4,0c0.76,0,1.38,0.62,1.38,1.38l0,1.05c0.04,6.84,0.11,18.28-6.43,24.47c-4.84,4.58-12.15,6.7-24.4,7.13
				c-0.02,0-0.03,0-0.05,0c-0.76,0-1.38-0.62-1.38-1.38v-2.79c0-0.76,0.61-1.37,1.36-1.38c11.69-0.4,19.7-2.15,22.98-9.16h-18.14
				c-0.76,0-1.38-0.62-1.38-1.38v-2.71c0-0.76,0.62-1.38,1.38-1.38h19.63c0.31-2.31,0.53-5.49,0.58-8.35h-16.38v0
				c-2.5,5.01-6.52,9.07-10.89,10.97c-0.16,0.07-0.34,0.13-0.53,0.13C474.24,45.65,473.71,45.12,473.71,44.48z"/>
		</g>
	</g>
</g>
<g id="レイヤー_2">
</g>
</svg>
