<?xml version="1.0" encoding="UTF-8" standalone="no"?>
<svg
   width="100%"
   height="100%"
   viewBox="0 0 176 176"
   version="1.1"
   xml:space="preserve"
   style="fill-rule:evenodd;clip-rule:evenodd;stroke-linejoin:round;stroke-miterlimit:2;"
   id="svg783"
   sodipodi:docname="ts-app-digitaltrade-func-icon-olta-type1.svg"
   inkscape:version="1.1 (c68e22c387, 2021-05-23)"
   xmlns:inkscape="http://www.inkscape.org/namespaces/inkscape"
   xmlns:sodipodi="http://sodipodi.sourceforge.net/DTD/sodipodi-0.dtd"
   xmlns="http://www.w3.org/2000/svg"
   xmlns:svg="http://www.w3.org/2000/svg"><defs
   id="defs787" /><sodipodi:namedview
   id="namedview785"
   pagecolor="#ffffff"
   bordercolor="#666666"
   borderopacity="1.0"
   inkscape:pageshadow="2"
   inkscape:pageopacity="0.0"
   inkscape:pagecheckerboard="0"
   showgrid="false"
   inkscape:zoom="1.4772727"
   inkscape:cx="28.769231"
   inkscape:cy="102.55385"
   inkscape:window-width="1366"
   inkscape:window-height="705"
   inkscape:window-x="-8"
   inkscape:window-y="-8"
   inkscape:window-maximized="1"
   inkscape:current-layer="svg783" />
    <path
   d="M16.672,176C7.464,176 0,168.536 0,159.328L0,16.672C0,7.464 7.464,0 16.672,0L159.328,0C168.536,0 176,7.464 176,16.672L176,159.328C176,168.536 168.536,176 159.328,176L16.672,176Z"
   style="fill:rgb(0,67,134);fill-rule:nonzero;"
   id="path771" />
    <g
   transform="matrix(2.02507,0,0,2.02507,-42.7098,-40.5069)"
   id="g775">
        <circle
   cx="64.518"
   cy="63.486"
   r="35.716"
   style="fill:white;"
   id="circle773" />
    </g>
    
<g
   id="g916"
   transform="matrix(0.42487423,0,0,0.42487423,-0.78639814,79.264478)"
   style="stroke-width:2.35364"><path
     class="st1"
     d="m 127.07077,87.794615 c -15.57,0 -28.250001,12.670005 -28.250001,28.250005 v 0 c 0,15.57 12.670001,28.25 28.250001,28.25 15.57,0 28.25,-12.67001 28.25,-28.25 v 0 c -0.01,-15.58 -12.68,-28.250005 -28.25,-28.250005 z m 14.07,28.240005 c 0,7.75999 -6.32,14.08 -14.08,14.08 -7.76,0 -14.08,-6.32001 -14.08,-14.08 v 0 c 0,-7.76 6.32,-14.08 14.08,-14.08 7.77,0 14.08,6.32 14.08,14.08 z"
     id="path174"
     style="fill:#284add;stroke-width:2.35364" /><path
     class="st1"
     d="m 182.46077,144.28461 h -12.02 c -0.58,0 -1.05,-0.47 -1.05,-1.04999 V 74.724615 c 0,-0.58 0.47,-1.05 1.05,-1.05 h 12.02 c 0.58,0 1.05,0.47 1.05,1.05 v 68.510005 c 0,0.57999 -0.47,1.04999 -1.05,1.04999 z"
     id="path176"
     style="fill:#284add;stroke-width:2.35364" /><path
     class="st0"
     d="m 248.68077,114.67462 c 0,8.61999 -7.08,15.60999 -15.72,15.47999 -8.5,-0.13 -15.24,-7.21999 -15.24,-15.71999 v -12.52001 h 10.1 c 0.58,0 1.05,-0.46999 1.05,-1.04999 V 88.844615 c 0,-0.58 -0.47,-1.05 -1.05,-1.05 h -10.1 v -13.07 c 0,-0.58 -0.47,-1.05 -1.05,-1.05 h -12.02 c -0.58,0 -1.05,0.47 -1.05,1.05 v 13.07 h -5.18 c -0.41,0 -0.74,0.33 -0.74,0.74 v 12.680005 c 0,0.41 0.33,0.74 0.74,0.74 h 5.18 v 1.02 11.38 c 0,16.33999 13.1,29.83999 29.43,29.92999 16.4,0.09 29.78,-13.22 29.78,-29.59999 h -14.13 z"
     id="path186"
     style="fill:#207fef;stroke-width:2.35364" /><path
     class="st1"
     d="m 317.11077,130.17462 c -8.15,0 -11.93,-5.99 -11.93,-14.14 v 0 c 0,-15.95 -13.28,-28.850005 -29.36,-28.220005 -14.66,0.57 -26.54,12.450005 -27.11,27.110005 -0.63,16.07999 12.28,29.35999 28.22,29.35999 8.61,0 16.32,-3.87 21.51,-9.96 5.14,8.03 10.07,9.96 18.67,9.96 0.24,0 0.48,0 0.72,-0.01 0.57,-0.02 1.01,-0.48 1.01,-1.05 v -12.01 c 0,-0.59999 -0.5,-1.07 -1.1,-1.05 -0.21,0.01 -0.42,0.01 -0.63,0.01 z m -39.69,-0.06 c -7.76,0 -14.08,-6.32001 -14.08,-14.08 0,-7.76 6.32,-14.08 14.08,-14.08 7.76,0 14.08,6.32 14.08,14.08 0,7.76999 -6.32,14.08 -14.08,14.08 z"
     id="path188"
     style="fill:#284add;stroke-width:2.35364" /></g><g
   id="g1159"
   transform="translate(-134.34077,-4.4000001)"><path
     class="st0"
     d="m 189.70078,54.509801 c 0.2,-3.83 3.33,-6.95 7.16,-7.15 0.12,-0.01 0.24,-0.01 0.36,-0.01 0.58,0 1.05,-0.45 1.05,-1.03 v -3.29 c 0,-0.57 -0.46,-1.04 -1.04,-1.03 -0.22,0 -0.43,0.01 -0.65,0.02 -6.82,0.35 -12.23,6.07 -12.24,12.9 -0.01,7.15 5.78,12.94 12.93,12.94 1.77,0 3.45,-0.36 4.99,-1 v -6.24 c -1.33,1.17 -3.08,1.88 -4.99,1.88 -4.33,0 -7.81,-3.62 -7.57,-7.99 z"
     id="path172"
     style="fill:#207fef" /><path
     class="st0"
     d="m 208.78078,80.119801 v 0 c 0,0.02 0,0.04 0,0.06 0,2.18 -1.47,4.02 -3.48,4.57 V 106.1898 c 0,0.29 0.24,0.53 0.53,0.53 h 4.24 c 0.29,0 0.53,-0.24 0.53,-0.53 V 89.639801 c 7.98,-1.72 13.95,-8.82 13.95,-17.31 v -2.57 h -15.77 z"
     id="path178"
     style="fill:#207fef" /><path
     class="st0"
     d="m 245.37078,35.669801 c 0,0.02 0,0.04 0,0.07 v 0 7.35 h 4.95 v -11.87 c 0,-0.31 -0.27,-0.56 -0.58,-0.52 -2.46,0.31 -4.37,2.42 -4.37,4.97 z"
     id="path180"
     style="fill:#207fef" /><path
     class="st0"
     d="m 234.54078,77.859801 v 0 3.92 c 1.81,-0.23 3.56,-0.7 5.19,-1.36 V 106.1998 c 0,0.29 0.24,0.53 0.53,0.53 h 4.85 c 0.29,0 0.53,-0.24 0.53,-0.52 V 82.249801 c 0.01,-4.59 1.61,-8.81 4.3,-12.13 0.2,-0.24 0.13,-0.61 -0.14,-0.77 -1.53,-0.94 -3.32,-1.48 -5.24,-1.48 -5.54,-0.02 -10.02,4.46 -10.02,9.99 z"
     id="path182"
     style="fill:#207fef" /><path
     class="st1"
     d="m 259.44078,43.079801 h -6.56 c -0.72,-2.3 -2.87,-3.97 -5.41,-3.97 -0.03,0 -0.05,0 -0.08,0 h -6.9 v -3.38 0 c 0,-0.02 0,-0.04 0,-0.07 0,-2.55 -1.91,-4.66 -4.37,-4.97 -0.31,-0.04 -0.58,0.21 -0.58,0.52 v 5.43 4.25 0 c 0,0.02 0,0.04 0,0.07 0,1.58 0.73,2.99 1.88,3.9 l -5.38,12.56 h -21.54 v 0 c 0,0 -0.01,0 -0.01,0 -6.82,0 -12.34,5.53 -12.35,12.34 v 0 10.36 0 c 0,0.02 0,0.04 0,0.06 0,1.94 -1.17,3.61 -2.84,4.34 -0.38,0.17 -0.64,0.54 -0.64,0.96 V 106.1898 c 0,0.29 0.24,0.53 0.53,0.53 h 4.24 c 0.29,0 0.53,-0.24 0.53,-0.53 V 89.639801 c 7.98,-1.72 13.95,-8.82 13.95,-17.31 v -0.37 c 3.2,5.16 8.56,8.83 14.82,9.75 V 106.1898 c 0,0.29 0.24,0.53 0.53,0.53 h 4.76 c 0.29,0 0.53,-0.24 0.53,-0.53 V 81.769801 c 4.75,-0.61 9.01,-2.8 12.23,-6.03 0.73,-2.03 1.78,-3.9 3.1,-5.55 0.29,-0.37 0.45,-0.83 0.45,-1.3 v -18.66 h 2.49 v 0 c 3.82,-0.03 6.79,-3.08 6.9,-6.88 -0.01,-0.14 -0.08,-0.27 -0.28,-0.27 z"
     id="path184"
     style="fill:#284add" /></g></svg>
