<svg width="54" height="63" viewBox="0 0 54 63" fill="none" xmlns="http://www.w3.org/2000/svg">
<path d="M14.9829 13.1516V0.731359L0.698334 15.0168H13.1178C14.4602 15.0168 14.9829 14.4941 14.9829 13.1516Z" fill="#004386"/>
<path d="M39.3541 0H17.7449V14.8138C17.7449 16.4483 16.4153 17.7788 14.7817 17.7788H0V52.1271C0 53.4603 1.08516 54.5455 2.41832 54.5455H39.3541C40.6872 54.5455 41.7724 53.4604 41.7724 52.1271V2.41651C41.7724 1.08409 40.6872 0 39.3541 0Z" fill="#004386"/>
<circle cx="37.013" cy="46.3636" r="12.1364" fill="white" stroke="#004386" stroke-width="3"/>
<circle cx="37.013" cy="46.3636" r="15.1364" stroke="white" stroke-width="3"/>
<path d="M30.3896 45.0571H34.9526L35.4447 45.7857V47.5347H30.3896V47.5415V49.6633V50.0175H35.4447V53.7662H38.5829V50.0175H43.6364V49.6633V47.5415V47.5347H38.5829V45.7892L39.0732 45.0571H43.6364V42.9352H40.4999L43.1654 38.961H40.507L37.0165 44.1639L33.519 38.961H30.8604L33.5261 42.9352H30.3896V45.0571Z" fill="#004386"/>
</svg>
