<svg width="54" height="63" viewBox="0 0 54 63" fill="none" xmlns="http://www.w3.org/2000/svg">
<path d="M14.9828 13.1516V0.731359L0.698318 15.0168H13.1177C14.4602 15.0168 14.9828 14.4941 14.9828 13.1516Z" fill="#004386"/>
<path d="M39.3541 0H17.7449V14.8138C17.7449 16.4483 16.4153 17.7788 14.7817 17.7788H0V52.1271C0 53.4603 1.08516 54.5455 2.41832 54.5455H39.3541C40.6872 54.5455 41.7724 53.4604 41.7724 52.1271V2.41651C41.7724 1.08409 40.6872 0 39.3541 0Z" fill="#004386"/>
<circle cx="37.013" cy="46.3637" r="12.1364" fill="white" stroke="#004386" stroke-width="3"/>
<circle cx="37.013" cy="46.3637" r="15.1364" stroke="white" stroke-width="3"/>
<path d="M29.5552 43.8554C30.271 43.1745 31.4023 43.2025 32.0828 43.9182L34.9522 46.9342V39.7876C34.9522 38.8002 35.7527 38 36.7404 38C37.7274 38 38.528 38.8002 38.528 39.7876V46.9342L41.3973 43.9182C42.0778 43.2025 43.2098 43.1745 43.9249 43.8554C44.64 44.5352 44.6686 45.6672 43.9877 46.3823L36.7404 54L29.4924 46.3823C28.8122 45.6672 28.8402 44.5352 29.5552 43.8554Z" fill="#004386"/>
</svg>
