<?xml version="1.0" encoding="UTF-8" standalone="no"?>
<!DOCTYPE svg PUBLIC "-//W3C//DTD SVG 1.1//EN" "http://www.w3.org/Graphics/SVG/1.1/DTD/svg11.dtd">
<svg width="100%" height="100%" viewBox="0 0 1480 380" version="1.1" xmlns="http://www.w3.org/2000/svg" xmlns:xlink="http://www.w3.org/1999/xlink" xml:space="preserve" xmlns:serif="http://www.serif.com/" style="fill-rule:evenodd;clip-rule:evenodd;stroke-linejoin:round;stroke-miterlimit:2;">
    <rect x="0" y="0" width="1480" height="380" style="fill:rgb(0,67,134);"/>
    <g transform="matrix(1,0,0,1,355.753,-14.2296)">
        <g transform="matrix(30,0,0,30,1056.16,380)">
            <path d="M0.109,-0C0.1,-0 0.093,-0.002 0.086,-0.007C0.079,-0.011 0.076,-0.017 0.076,-0.026L0.076,-0.707C0.076,-0.714 0.079,-0.719 0.084,-0.724C0.089,-0.728 0.095,-0.73 0.104,-0.731L0.288,-0.731C0.327,-0.731 0.362,-0.724 0.393,-0.71C0.424,-0.696 0.449,-0.674 0.467,-0.643C0.485,-0.612 0.494,-0.57 0.494,-0.519L0.494,-0.509C0.494,-0.457 0.485,-0.416 0.467,-0.385C0.448,-0.354 0.423,-0.331 0.392,-0.317C0.36,-0.303 0.325,-0.296 0.286,-0.296L0.142,-0.296L0.142,-0.026C0.142,-0.017 0.139,-0.011 0.132,-0.007C0.125,-0.002 0.117,-0 0.109,-0ZM0.142,-0.353L0.286,-0.353C0.331,-0.353 0.366,-0.366 0.391,-0.391C0.416,-0.416 0.428,-0.454 0.428,-0.506L0.428,-0.518C0.428,-0.57 0.416,-0.608 0.391,-0.633C0.366,-0.658 0.331,-0.67 0.286,-0.67L0.142,-0.67L0.142,-0.353Z" style="fill:white;fill-rule:nonzero;"/>
        </g>
        <g transform="matrix(30,0,0,30,1071.22,380)">
            <path d="M0.234,0.007C0.2,0.007 0.169,-0.002 0.14,-0.02C0.111,-0.037 0.088,-0.061 0.07,-0.09C0.053,-0.118 0.044,-0.15 0.044,-0.183L0.044,-0.292C0.044,-0.325 0.053,-0.356 0.07,-0.385C0.087,-0.413 0.11,-0.436 0.139,-0.453C0.168,-0.47 0.199,-0.479 0.234,-0.479C0.268,-0.479 0.3,-0.47 0.329,-0.454C0.358,-0.437 0.381,-0.414 0.398,-0.386C0.415,-0.358 0.424,-0.327 0.424,-0.292L0.424,-0.183C0.424,-0.15 0.415,-0.119 0.398,-0.09C0.381,-0.061 0.358,-0.037 0.329,-0.02C0.3,-0.002 0.268,0.007 0.234,0.007ZM0.234,-0.053C0.257,-0.053 0.278,-0.059 0.297,-0.071C0.316,-0.084 0.331,-0.1 0.342,-0.12C0.353,-0.14 0.359,-0.161 0.359,-0.183L0.359,-0.292C0.359,-0.313 0.354,-0.334 0.343,-0.353C0.332,-0.372 0.317,-0.388 0.298,-0.401C0.279,-0.413 0.257,-0.419 0.234,-0.419C0.211,-0.419 0.19,-0.413 0.171,-0.401C0.152,-0.388 0.137,-0.372 0.126,-0.353C0.115,-0.334 0.109,-0.313 0.109,-0.292L0.109,-0.183C0.109,-0.161 0.115,-0.14 0.126,-0.12C0.137,-0.1 0.153,-0.084 0.172,-0.071C0.191,-0.059 0.211,-0.053 0.234,-0.053Z" style="fill:white;fill-rule:nonzero;"/>
        </g>
        <g transform="matrix(30,0,0,30,1085.29,380)">
            <path d="M0.276,0.006C0.239,0.006 0.204,-0.001 0.172,-0.015C0.141,-0.029 0.116,-0.052 0.097,-0.083C0.078,-0.114 0.069,-0.156 0.069,-0.208L0.069,-0.518C0.069,-0.569 0.079,-0.611 0.098,-0.642C0.117,-0.673 0.142,-0.696 0.173,-0.71C0.205,-0.724 0.24,-0.731 0.278,-0.731C0.322,-0.731 0.359,-0.723 0.39,-0.708C0.421,-0.693 0.444,-0.672 0.461,-0.647C0.477,-0.622 0.485,-0.594 0.485,-0.564C0.485,-0.548 0.482,-0.537 0.476,-0.532C0.471,-0.527 0.463,-0.524 0.452,-0.524C0.44,-0.524 0.432,-0.527 0.427,-0.532C0.422,-0.537 0.419,-0.542 0.419,-0.549C0.418,-0.56 0.416,-0.572 0.412,-0.586C0.409,-0.6 0.402,-0.613 0.393,-0.626C0.383,-0.639 0.369,-0.649 0.35,-0.658C0.332,-0.666 0.308,-0.67 0.279,-0.67C0.232,-0.67 0.197,-0.658 0.172,-0.633C0.147,-0.608 0.135,-0.57 0.135,-0.518L0.135,-0.208C0.135,-0.155 0.148,-0.117 0.172,-0.092C0.198,-0.067 0.234,-0.055 0.282,-0.055C0.312,-0.055 0.336,-0.059 0.353,-0.068C0.37,-0.076 0.384,-0.086 0.393,-0.099C0.402,-0.111 0.408,-0.124 0.411,-0.139C0.414,-0.153 0.417,-0.166 0.419,-0.178C0.42,-0.187 0.423,-0.193 0.428,-0.198C0.433,-0.202 0.441,-0.204 0.451,-0.204C0.462,-0.204 0.471,-0.201 0.476,-0.196C0.482,-0.19 0.485,-0.179 0.485,-0.163C0.485,-0.133 0.477,-0.105 0.46,-0.08C0.443,-0.054 0.42,-0.033 0.389,-0.018C0.358,-0.002 0.32,0.006 0.276,0.006Z" style="fill:white;fill-rule:nonzero;"/>
        </g>
    </g>
    <g transform="matrix(1,0,0,1,0.688515,-51.7469)">
        <g transform="matrix(72,0,0,72,381.903,274.812)">
            <path d="M0.106,-0C0.097,-0 0.09,-0.003 0.085,-0.008C0.079,-0.013 0.076,-0.018 0.076,-0.025L0.076,-0.706C0.076,-0.714 0.079,-0.72 0.086,-0.725C0.092,-0.729 0.099,-0.731 0.106,-0.731L0.27,-0.731C0.307,-0.731 0.342,-0.727 0.373,-0.718C0.404,-0.709 0.428,-0.693 0.447,-0.669C0.465,-0.644 0.474,-0.608 0.474,-0.561C0.474,-0.519 0.466,-0.484 0.451,-0.456C0.435,-0.427 0.414,-0.407 0.389,-0.396C0.41,-0.388 0.428,-0.377 0.443,-0.363C0.458,-0.349 0.47,-0.331 0.479,-0.309C0.488,-0.287 0.492,-0.259 0.492,-0.224L0.492,-0.206C0.492,-0.155 0.483,-0.115 0.466,-0.085C0.449,-0.055 0.425,-0.033 0.395,-0.02C0.365,-0.007 0.332,-0 0.295,-0L0.106,-0ZM0.142,-0.061L0.286,-0.061C0.33,-0.061 0.364,-0.073 0.389,-0.097C0.414,-0.12 0.426,-0.158 0.426,-0.209L0.426,-0.226C0.426,-0.278 0.414,-0.315 0.389,-0.336C0.364,-0.357 0.33,-0.368 0.286,-0.368L0.142,-0.368L0.142,-0.061ZM0.142,-0.425L0.272,-0.425C0.319,-0.425 0.353,-0.435 0.375,-0.454C0.397,-0.473 0.408,-0.507 0.408,-0.554C0.408,-0.585 0.402,-0.609 0.39,-0.626C0.378,-0.643 0.362,-0.654 0.341,-0.661C0.32,-0.667 0.296,-0.67 0.268,-0.67L0.142,-0.67L0.142,-0.425Z" style="fill:white;fill-rule:nonzero;"/>
        </g>
        <g transform="matrix(72,0,0,72,420.639,274.812)">
            <path d="M0.276,0.006C0.239,0.006 0.204,-0.001 0.172,-0.015C0.141,-0.029 0.116,-0.052 0.097,-0.083C0.078,-0.114 0.069,-0.156 0.069,-0.208L0.069,-0.518C0.069,-0.569 0.079,-0.611 0.098,-0.642C0.117,-0.673 0.142,-0.696 0.173,-0.71C0.205,-0.724 0.24,-0.731 0.278,-0.731C0.322,-0.731 0.359,-0.723 0.39,-0.708C0.421,-0.693 0.444,-0.672 0.461,-0.647C0.477,-0.622 0.485,-0.594 0.485,-0.564C0.485,-0.548 0.482,-0.537 0.476,-0.532C0.471,-0.527 0.463,-0.524 0.452,-0.524C0.44,-0.524 0.432,-0.527 0.427,-0.532C0.422,-0.537 0.419,-0.542 0.419,-0.549C0.418,-0.56 0.416,-0.572 0.412,-0.586C0.409,-0.6 0.402,-0.613 0.393,-0.626C0.383,-0.639 0.369,-0.649 0.35,-0.658C0.332,-0.666 0.308,-0.67 0.279,-0.67C0.232,-0.67 0.197,-0.658 0.172,-0.633C0.147,-0.608 0.135,-0.57 0.135,-0.518L0.135,-0.208C0.135,-0.155 0.148,-0.117 0.172,-0.092C0.198,-0.067 0.234,-0.055 0.282,-0.055C0.312,-0.055 0.336,-0.059 0.353,-0.068C0.37,-0.076 0.384,-0.086 0.393,-0.099C0.402,-0.111 0.408,-0.124 0.411,-0.139C0.414,-0.153 0.417,-0.166 0.419,-0.178C0.42,-0.187 0.423,-0.193 0.428,-0.198C0.433,-0.202 0.441,-0.204 0.451,-0.204C0.462,-0.204 0.471,-0.201 0.476,-0.196C0.482,-0.19 0.485,-0.179 0.485,-0.163C0.485,-0.133 0.477,-0.105 0.46,-0.08C0.443,-0.054 0.42,-0.033 0.389,-0.018C0.358,-0.002 0.32,0.006 0.276,0.006Z" style="fill:white;fill-rule:nonzero;"/>
        </g>
        <g transform="matrix(72,0,0,72,458.439,274.812)">
            <path d="M0.234,0.007C0.2,0.007 0.169,-0.002 0.14,-0.02C0.111,-0.037 0.088,-0.061 0.07,-0.09C0.053,-0.118 0.044,-0.15 0.044,-0.183L0.044,-0.292C0.044,-0.325 0.053,-0.356 0.07,-0.385C0.087,-0.413 0.11,-0.436 0.139,-0.453C0.168,-0.47 0.199,-0.479 0.234,-0.479C0.268,-0.479 0.3,-0.47 0.329,-0.454C0.358,-0.437 0.381,-0.414 0.398,-0.386C0.415,-0.358 0.424,-0.327 0.424,-0.292L0.424,-0.183C0.424,-0.15 0.415,-0.119 0.398,-0.09C0.381,-0.061 0.358,-0.037 0.329,-0.02C0.3,-0.002 0.268,0.007 0.234,0.007ZM0.234,-0.053C0.257,-0.053 0.278,-0.059 0.297,-0.071C0.316,-0.084 0.331,-0.1 0.342,-0.12C0.353,-0.14 0.359,-0.161 0.359,-0.183L0.359,-0.292C0.359,-0.313 0.354,-0.334 0.343,-0.353C0.332,-0.372 0.317,-0.388 0.298,-0.401C0.279,-0.413 0.257,-0.419 0.234,-0.419C0.211,-0.419 0.19,-0.413 0.171,-0.401C0.152,-0.388 0.137,-0.372 0.126,-0.353C0.115,-0.334 0.109,-0.313 0.109,-0.292L0.109,-0.183C0.109,-0.161 0.115,-0.14 0.126,-0.12C0.137,-0.1 0.153,-0.084 0.172,-0.071C0.191,-0.059 0.211,-0.053 0.234,-0.053Z" style="fill:white;fill-rule:nonzero;"/>
        </g>
        <g transform="matrix(72,0,0,72,492.207,274.812)">
            <path d="M0.094,-0C0.085,-0 0.078,-0.003 0.071,-0.008C0.065,-0.013 0.062,-0.019 0.062,-0.026L0.062,-0.449C0.062,-0.456 0.065,-0.462 0.071,-0.467C0.078,-0.471 0.085,-0.473 0.094,-0.473C0.103,-0.473 0.11,-0.471 0.116,-0.467C0.122,-0.462 0.125,-0.456 0.125,-0.449L0.125,-0.403C0.136,-0.422 0.152,-0.44 0.175,-0.456C0.198,-0.471 0.226,-0.479 0.259,-0.479C0.291,-0.479 0.321,-0.47 0.347,-0.454C0.375,-0.437 0.396,-0.414 0.412,-0.386C0.428,-0.358 0.436,-0.327 0.436,-0.292L0.436,-0.026C0.436,-0.017 0.433,-0.011 0.426,-0.007C0.419,-0.002 0.412,-0 0.403,-0C0.396,-0 0.389,-0.002 0.382,-0.007C0.375,-0.011 0.371,-0.017 0.371,-0.026L0.371,-0.292C0.371,-0.313 0.365,-0.334 0.354,-0.353C0.343,-0.372 0.328,-0.388 0.309,-0.401C0.29,-0.413 0.27,-0.419 0.247,-0.419C0.227,-0.419 0.208,-0.414 0.19,-0.404C0.171,-0.393 0.156,-0.379 0.145,-0.36C0.133,-0.341 0.127,-0.319 0.127,-0.292L0.127,-0.026C0.127,-0.019 0.124,-0.013 0.117,-0.008C0.111,-0.003 0.103,-0 0.094,-0Z" style="fill:white;fill-rule:nonzero;"/>
        </g>
        <g transform="matrix(72,0,0,72,527.775,274.812)">
            <path d="M0.094,-0C0.085,-0 0.078,-0.003 0.071,-0.008C0.065,-0.013 0.062,-0.019 0.062,-0.026L0.062,-0.449C0.062,-0.456 0.065,-0.462 0.071,-0.467C0.078,-0.471 0.085,-0.473 0.094,-0.473C0.103,-0.473 0.11,-0.471 0.116,-0.467C0.122,-0.462 0.125,-0.456 0.125,-0.449L0.125,-0.403C0.136,-0.422 0.152,-0.44 0.175,-0.456C0.198,-0.471 0.226,-0.479 0.259,-0.479C0.291,-0.479 0.321,-0.47 0.347,-0.454C0.375,-0.437 0.396,-0.414 0.412,-0.386C0.428,-0.358 0.436,-0.327 0.436,-0.292L0.436,-0.026C0.436,-0.017 0.433,-0.011 0.426,-0.007C0.419,-0.002 0.412,-0 0.403,-0C0.396,-0 0.389,-0.002 0.382,-0.007C0.375,-0.011 0.371,-0.017 0.371,-0.026L0.371,-0.292C0.371,-0.313 0.365,-0.334 0.354,-0.353C0.343,-0.372 0.328,-0.388 0.309,-0.401C0.29,-0.413 0.27,-0.419 0.247,-0.419C0.227,-0.419 0.208,-0.414 0.19,-0.404C0.171,-0.393 0.156,-0.379 0.145,-0.36C0.133,-0.341 0.127,-0.319 0.127,-0.292L0.127,-0.026C0.127,-0.019 0.124,-0.013 0.117,-0.008C0.111,-0.003 0.103,-0 0.094,-0Z" style="fill:white;fill-rule:nonzero;"/>
        </g>
        <g transform="matrix(72,0,0,72,563.343,274.812)">
            <path d="M0.26,0.007C0.218,0.007 0.181,-0.001 0.149,-0.017C0.116,-0.033 0.091,-0.055 0.073,-0.084C0.054,-0.112 0.045,-0.145 0.045,-0.183L0.045,-0.295C0.045,-0.328 0.054,-0.359 0.071,-0.387C0.088,-0.415 0.112,-0.437 0.141,-0.454C0.17,-0.471 0.201,-0.479 0.236,-0.479C0.269,-0.479 0.3,-0.471 0.329,-0.456C0.357,-0.44 0.38,-0.418 0.397,-0.391C0.414,-0.364 0.423,-0.332 0.423,-0.297C0.423,-0.271 0.419,-0.253 0.41,-0.242C0.401,-0.231 0.391,-0.224 0.378,-0.221C0.365,-0.218 0.351,-0.217 0.336,-0.217L0.11,-0.217L0.11,-0.18C0.11,-0.14 0.124,-0.108 0.153,-0.085C0.182,-0.062 0.218,-0.05 0.262,-0.05C0.289,-0.05 0.309,-0.053 0.324,-0.06C0.339,-0.067 0.35,-0.073 0.359,-0.08C0.367,-0.087 0.375,-0.09 0.382,-0.09C0.387,-0.09 0.392,-0.088 0.397,-0.085C0.401,-0.081 0.404,-0.077 0.406,-0.072C0.409,-0.067 0.41,-0.063 0.41,-0.059C0.41,-0.052 0.404,-0.043 0.392,-0.032C0.38,-0.021 0.363,-0.012 0.34,-0.005C0.317,0.003 0.291,0.007 0.26,0.007ZM0.11,-0.265L0.31,-0.265C0.33,-0.265 0.343,-0.267 0.35,-0.272C0.357,-0.276 0.36,-0.285 0.36,-0.299C0.36,-0.32 0.355,-0.341 0.344,-0.36C0.334,-0.379 0.32,-0.395 0.301,-0.407C0.281,-0.419 0.26,-0.425 0.235,-0.425C0.212,-0.425 0.192,-0.42 0.172,-0.408C0.154,-0.398 0.138,-0.383 0.127,-0.365C0.116,-0.346 0.11,-0.326 0.11,-0.303L0.11,-0.265Z" style="fill:white;fill-rule:nonzero;"/>
        </g>
        <g transform="matrix(72,0,0,72,596.319,274.812)">
            <path d="M0.24,0.007C0.196,0.007 0.16,-0.001 0.131,-0.018C0.102,-0.035 0.081,-0.057 0.067,-0.086C0.053,-0.115 0.046,-0.147 0.046,-0.183L0.046,-0.29C0.046,-0.325 0.053,-0.357 0.067,-0.386C0.08,-0.415 0.102,-0.437 0.131,-0.454C0.16,-0.471 0.196,-0.479 0.24,-0.479C0.268,-0.479 0.293,-0.475 0.314,-0.469C0.335,-0.462 0.351,-0.453 0.363,-0.443C0.374,-0.433 0.38,-0.423 0.38,-0.414C0.38,-0.41 0.379,-0.406 0.377,-0.401C0.374,-0.396 0.371,-0.391 0.367,-0.388C0.362,-0.384 0.357,-0.382 0.352,-0.382C0.346,-0.382 0.339,-0.385 0.332,-0.392C0.324,-0.398 0.313,-0.404 0.3,-0.41C0.287,-0.416 0.268,-0.419 0.243,-0.419C0.2,-0.419 0.167,-0.407 0.145,-0.385C0.122,-0.362 0.111,-0.33 0.111,-0.29L0.111,-0.183C0.111,-0.142 0.122,-0.111 0.145,-0.087C0.167,-0.065 0.2,-0.053 0.244,-0.053C0.269,-0.053 0.289,-0.056 0.303,-0.063C0.317,-0.069 0.328,-0.075 0.336,-0.082C0.343,-0.088 0.35,-0.091 0.357,-0.091C0.363,-0.091 0.368,-0.089 0.373,-0.086C0.377,-0.083 0.38,-0.079 0.383,-0.074C0.385,-0.069 0.386,-0.064 0.386,-0.059C0.386,-0.05 0.38,-0.041 0.368,-0.031C0.356,-0.02 0.339,-0.011 0.318,-0.004C0.296,0.003 0.27,0.007 0.24,0.007Z" style="fill:white;fill-rule:nonzero;"/>
        </g>
        <g transform="matrix(72,0,0,72,625.983,274.812)">
            <path d="M0.219,-0C0.168,-0 0.128,-0.012 0.101,-0.035C0.074,-0.058 0.06,-0.096 0.06,-0.147L0.06,-0.674C0.06,-0.681 0.064,-0.687 0.07,-0.692C0.078,-0.696 0.085,-0.698 0.092,-0.698C0.101,-0.698 0.108,-0.696 0.115,-0.692C0.122,-0.687 0.125,-0.681 0.125,-0.674L0.125,-0.473L0.255,-0.473C0.262,-0.473 0.267,-0.47 0.271,-0.465C0.275,-0.46 0.277,-0.453 0.277,-0.446C0.277,-0.439 0.275,-0.432 0.271,-0.427C0.267,-0.422 0.262,-0.419 0.255,-0.419L0.125,-0.419L0.125,-0.147C0.125,-0.114 0.132,-0.092 0.146,-0.079C0.16,-0.066 0.184,-0.059 0.219,-0.059L0.247,-0.059C0.256,-0.059 0.264,-0.056 0.269,-0.051C0.274,-0.045 0.276,-0.038 0.276,-0.03C0.276,-0.022 0.274,-0.015 0.269,-0.009C0.264,-0.003 0.256,-0 0.247,-0L0.219,-0Z" style="fill:white;fill-rule:nonzero;"/>
        </g>
        <g transform="matrix(72,0,0,72,647.223,274.812)">
            <path d="M0.094,-0C0.085,-0 0.078,-0.003 0.071,-0.008C0.065,-0.013 0.062,-0.019 0.062,-0.026L0.062,-0.449C0.062,-0.456 0.065,-0.462 0.071,-0.467C0.078,-0.471 0.085,-0.473 0.094,-0.473C0.103,-0.473 0.111,-0.471 0.117,-0.467C0.124,-0.462 0.127,-0.456 0.127,-0.449L0.127,-0.026C0.127,-0.019 0.124,-0.013 0.117,-0.008C0.111,-0.003 0.103,-0 0.094,-0ZM0.094,-0.613C0.082,-0.613 0.072,-0.617 0.063,-0.625C0.054,-0.634 0.05,-0.644 0.05,-0.655C0.05,-0.666 0.054,-0.676 0.063,-0.684C0.072,-0.692 0.082,-0.696 0.094,-0.696C0.107,-0.696 0.117,-0.692 0.126,-0.684C0.134,-0.676 0.138,-0.666 0.138,-0.655C0.138,-0.644 0.134,-0.634 0.126,-0.625C0.117,-0.617 0.107,-0.613 0.094,-0.613Z" style="fill:white;fill-rule:nonzero;"/>
        </g>
        <g transform="matrix(72,0,0,72,660.831,274.812)">
            <path d="M0.234,0.007C0.2,0.007 0.169,-0.002 0.14,-0.02C0.111,-0.037 0.088,-0.061 0.07,-0.09C0.053,-0.118 0.044,-0.15 0.044,-0.183L0.044,-0.292C0.044,-0.325 0.053,-0.356 0.07,-0.385C0.087,-0.413 0.11,-0.436 0.139,-0.453C0.168,-0.47 0.199,-0.479 0.234,-0.479C0.268,-0.479 0.3,-0.47 0.329,-0.454C0.358,-0.437 0.381,-0.414 0.398,-0.386C0.415,-0.358 0.424,-0.327 0.424,-0.292L0.424,-0.183C0.424,-0.15 0.415,-0.119 0.398,-0.09C0.381,-0.061 0.358,-0.037 0.329,-0.02C0.3,-0.002 0.268,0.007 0.234,0.007ZM0.234,-0.053C0.257,-0.053 0.278,-0.059 0.297,-0.071C0.316,-0.084 0.331,-0.1 0.342,-0.12C0.353,-0.14 0.359,-0.161 0.359,-0.183L0.359,-0.292C0.359,-0.313 0.354,-0.334 0.343,-0.353C0.332,-0.372 0.317,-0.388 0.298,-0.401C0.279,-0.413 0.257,-0.419 0.234,-0.419C0.211,-0.419 0.19,-0.413 0.171,-0.401C0.152,-0.388 0.137,-0.372 0.126,-0.353C0.115,-0.334 0.109,-0.313 0.109,-0.292L0.109,-0.183C0.109,-0.161 0.115,-0.14 0.126,-0.12C0.137,-0.1 0.153,-0.084 0.172,-0.071C0.191,-0.059 0.211,-0.053 0.234,-0.053Z" style="fill:white;fill-rule:nonzero;"/>
        </g>
        <g transform="matrix(72,0,0,72,694.599,274.812)">
            <path d="M0.094,-0C0.085,-0 0.078,-0.003 0.071,-0.008C0.065,-0.013 0.062,-0.019 0.062,-0.026L0.062,-0.449C0.062,-0.456 0.065,-0.462 0.071,-0.467C0.078,-0.471 0.085,-0.473 0.094,-0.473C0.103,-0.473 0.11,-0.471 0.116,-0.467C0.122,-0.462 0.125,-0.456 0.125,-0.449L0.125,-0.403C0.136,-0.422 0.152,-0.44 0.175,-0.456C0.198,-0.471 0.226,-0.479 0.259,-0.479C0.291,-0.479 0.321,-0.47 0.347,-0.454C0.375,-0.437 0.396,-0.414 0.412,-0.386C0.428,-0.358 0.436,-0.327 0.436,-0.292L0.436,-0.026C0.436,-0.017 0.433,-0.011 0.426,-0.007C0.419,-0.002 0.412,-0 0.403,-0C0.396,-0 0.389,-0.002 0.382,-0.007C0.375,-0.011 0.371,-0.017 0.371,-0.026L0.371,-0.292C0.371,-0.313 0.365,-0.334 0.354,-0.353C0.343,-0.372 0.328,-0.388 0.309,-0.401C0.29,-0.413 0.27,-0.419 0.247,-0.419C0.227,-0.419 0.208,-0.414 0.19,-0.404C0.171,-0.393 0.156,-0.379 0.145,-0.36C0.133,-0.341 0.127,-0.319 0.127,-0.292L0.127,-0.026C0.127,-0.019 0.124,-0.013 0.117,-0.008C0.111,-0.003 0.103,-0 0.094,-0Z" style="fill:white;fill-rule:nonzero;"/>
        </g>
        <g transform="matrix(72,0,0,72,744.567,274.812)">
            <path d="M0.117,-0C0.1,-0 0.086,-0.004 0.076,-0.012C0.065,-0.02 0.06,-0.029 0.06,-0.04L0.06,-0.691C0.06,-0.702 0.065,-0.711 0.076,-0.719C0.086,-0.727 0.1,-0.731 0.117,-0.731L0.294,-0.731C0.339,-0.731 0.379,-0.724 0.414,-0.709C0.449,-0.694 0.477,-0.669 0.499,-0.635C0.52,-0.602 0.53,-0.557 0.53,-0.502L0.53,-0.229C0.53,-0.174 0.52,-0.129 0.499,-0.096C0.477,-0.062 0.449,-0.038 0.414,-0.023C0.379,-0.008 0.339,-0 0.294,-0L0.117,-0ZM0.19,-0.114L0.294,-0.114C0.327,-0.114 0.353,-0.124 0.372,-0.142C0.391,-0.162 0.4,-0.19 0.4,-0.229L0.4,-0.502C0.4,-0.541 0.391,-0.57 0.372,-0.589C0.353,-0.608 0.328,-0.617 0.295,-0.617L0.19,-0.617L0.19,-0.114Z" style="fill:white;fill-rule:nonzero;"/>
        </g>
        <g transform="matrix(72,0,0,72,786.327,274.812)">
            <path d="M0.114,-0C0.095,-0 0.08,-0.004 0.068,-0.013C0.056,-0.022 0.05,-0.031 0.05,-0.041L0.05,-0.435C0.05,-0.447 0.056,-0.457 0.068,-0.464C0.08,-0.471 0.095,-0.475 0.114,-0.475C0.132,-0.475 0.147,-0.471 0.16,-0.464C0.173,-0.457 0.179,-0.447 0.179,-0.435L0.179,-0.041C0.179,-0.031 0.173,-0.022 0.16,-0.013C0.147,-0.004 0.132,-0 0.114,-0ZM0.114,-0.581C0.095,-0.581 0.078,-0.588 0.064,-0.601C0.05,-0.614 0.043,-0.628 0.043,-0.644C0.043,-0.661 0.05,-0.676 0.064,-0.689C0.078,-0.701 0.095,-0.707 0.114,-0.707C0.133,-0.707 0.15,-0.701 0.164,-0.689C0.177,-0.676 0.184,-0.661 0.184,-0.644C0.184,-0.628 0.177,-0.614 0.164,-0.601C0.15,-0.588 0.133,-0.581 0.114,-0.581Z" style="fill:white;fill-rule:nonzero;"/>
        </g>
        <g transform="matrix(72,0,0,72,802.743,274.812)">
            <path d="M0.237,0.221C0.198,0.221 0.161,0.215 0.128,0.204C0.094,0.193 0.067,0.177 0.047,0.156C0.026,0.135 0.016,0.109 0.016,0.08C0.016,0.055 0.023,0.033 0.037,0.015C0.051,-0.002 0.068,-0.016 0.089,-0.026C0.076,-0.032 0.066,-0.04 0.059,-0.05C0.051,-0.06 0.047,-0.073 0.047,-0.09C0.047,-0.109 0.052,-0.124 0.062,-0.136C0.071,-0.147 0.083,-0.158 0.098,-0.168C0.078,-0.183 0.063,-0.202 0.052,-0.224C0.041,-0.245 0.036,-0.269 0.036,-0.295L0.036,-0.316C0.036,-0.349 0.044,-0.377 0.06,-0.402C0.076,-0.427 0.099,-0.446 0.129,-0.46C0.158,-0.474 0.192,-0.481 0.231,-0.481C0.253,-0.481 0.274,-0.478 0.293,-0.473C0.312,-0.469 0.33,-0.461 0.345,-0.452C0.356,-0.479 0.367,-0.497 0.377,-0.506C0.387,-0.515 0.397,-0.52 0.406,-0.52C0.422,-0.52 0.435,-0.515 0.444,-0.506C0.453,-0.497 0.457,-0.488 0.457,-0.48C0.457,-0.474 0.456,-0.469 0.453,-0.464C0.45,-0.459 0.445,-0.455 0.44,-0.452C0.434,-0.448 0.427,-0.443 0.418,-0.438C0.409,-0.432 0.401,-0.424 0.394,-0.414C0.406,-0.401 0.415,-0.386 0.421,-0.37C0.426,-0.353 0.429,-0.335 0.429,-0.316L0.429,-0.295C0.429,-0.263 0.421,-0.234 0.404,-0.21C0.387,-0.185 0.364,-0.165 0.334,-0.15C0.304,-0.135 0.27,-0.128 0.231,-0.128C0.207,-0.128 0.185,-0.131 0.166,-0.137C0.163,-0.134 0.16,-0.131 0.158,-0.128C0.155,-0.125 0.154,-0.121 0.154,-0.117C0.154,-0.106 0.161,-0.098 0.176,-0.093C0.191,-0.088 0.209,-0.085 0.232,-0.082C0.255,-0.079 0.279,-0.076 0.305,-0.071C0.33,-0.067 0.354,-0.06 0.377,-0.051C0.4,-0.042 0.418,-0.028 0.433,-0.01C0.448,0.009 0.455,0.033 0.455,0.064C0.455,0.101 0.445,0.131 0.424,0.154C0.403,0.177 0.376,0.194 0.343,0.205C0.31,0.216 0.274,0.221 0.237,0.221ZM0.235,0.138C0.261,0.138 0.283,0.132 0.302,0.119C0.32,0.106 0.329,0.089 0.329,0.068C0.329,0.054 0.325,0.043 0.317,0.034C0.309,0.025 0.298,0.019 0.284,0.014C0.271,0.01 0.256,0.007 0.24,0.004C0.224,0.002 0.208,-0 0.192,-0.002C0.176,0.005 0.163,0.015 0.153,0.026C0.143,0.037 0.138,0.051 0.138,0.067C0.138,0.089 0.148,0.106 0.167,0.119C0.186,0.132 0.208,0.138 0.235,0.138ZM0.233,-0.206C0.255,-0.206 0.272,-0.214 0.285,-0.231C0.298,-0.248 0.304,-0.269 0.304,-0.295L0.304,-0.316C0.304,-0.341 0.298,-0.361 0.285,-0.378C0.273,-0.395 0.255,-0.403 0.232,-0.403C0.209,-0.403 0.192,-0.395 0.18,-0.378C0.167,-0.361 0.161,-0.341 0.161,-0.316L0.161,-0.296C0.161,-0.271 0.167,-0.249 0.18,-0.232C0.192,-0.215 0.21,-0.206 0.233,-0.206Z" style="fill:white;fill-rule:nonzero;"/>
        </g>
        <g transform="matrix(72,0,0,72,836.655,274.812)">
            <path d="M0.114,-0C0.095,-0 0.08,-0.004 0.068,-0.013C0.056,-0.022 0.05,-0.031 0.05,-0.041L0.05,-0.435C0.05,-0.447 0.056,-0.457 0.068,-0.464C0.08,-0.471 0.095,-0.475 0.114,-0.475C0.132,-0.475 0.147,-0.471 0.16,-0.464C0.173,-0.457 0.179,-0.447 0.179,-0.435L0.179,-0.041C0.179,-0.031 0.173,-0.022 0.16,-0.013C0.147,-0.004 0.132,-0 0.114,-0ZM0.114,-0.581C0.095,-0.581 0.078,-0.588 0.064,-0.601C0.05,-0.614 0.043,-0.628 0.043,-0.644C0.043,-0.661 0.05,-0.676 0.064,-0.689C0.078,-0.701 0.095,-0.707 0.114,-0.707C0.133,-0.707 0.15,-0.701 0.164,-0.689C0.177,-0.676 0.184,-0.661 0.184,-0.644C0.184,-0.628 0.177,-0.614 0.164,-0.601C0.15,-0.588 0.133,-0.581 0.114,-0.581Z" style="fill:white;fill-rule:nonzero;"/>
        </g>
        <g transform="matrix(72,0,0,72,853.071,274.812)">
            <path d="M0.233,-0C0.173,-0 0.127,-0.013 0.096,-0.039C0.064,-0.065 0.048,-0.106 0.048,-0.162L0.048,-0.647C0.048,-0.659 0.055,-0.669 0.069,-0.676C0.083,-0.683 0.097,-0.687 0.112,-0.687C0.128,-0.687 0.143,-0.683 0.157,-0.676C0.17,-0.669 0.177,-0.659 0.177,-0.647L0.177,-0.475L0.295,-0.475C0.306,-0.475 0.314,-0.47 0.32,-0.461C0.325,-0.451 0.328,-0.44 0.328,-0.428C0.328,-0.416 0.325,-0.405 0.32,-0.396C0.314,-0.386 0.306,-0.381 0.295,-0.381L0.177,-0.381L0.177,-0.162C0.177,-0.143 0.181,-0.129 0.19,-0.121C0.198,-0.113 0.212,-0.109 0.233,-0.109L0.272,-0.109C0.291,-0.109 0.305,-0.103 0.314,-0.092C0.323,-0.081 0.327,-0.068 0.327,-0.055C0.327,-0.041 0.323,-0.028 0.314,-0.017C0.305,-0.006 0.291,-0 0.272,-0L0.233,-0Z" style="fill:white;fill-rule:nonzero;"/>
        </g>
        <g transform="matrix(72,0,0,72,877.839,274.812)">
            <path d="M0.152,0.009C0.117,0.009 0.086,-0.002 0.061,-0.024C0.035,-0.045 0.022,-0.079 0.022,-0.124C0.022,-0.162 0.032,-0.192 0.051,-0.213C0.071,-0.234 0.099,-0.249 0.134,-0.258C0.169,-0.267 0.209,-0.271 0.255,-0.271L0.296,-0.271L0.296,-0.284C0.296,-0.299 0.293,-0.313 0.288,-0.327C0.282,-0.341 0.273,-0.353 0.261,-0.362C0.248,-0.371 0.231,-0.376 0.208,-0.376C0.183,-0.376 0.163,-0.374 0.15,-0.369C0.136,-0.364 0.125,-0.358 0.118,-0.353C0.111,-0.348 0.103,-0.345 0.094,-0.345C0.08,-0.345 0.069,-0.352 0.062,-0.366C0.054,-0.38 0.05,-0.394 0.05,-0.409C0.05,-0.423 0.059,-0.436 0.076,-0.447C0.093,-0.458 0.113,-0.466 0.138,-0.472C0.163,-0.478 0.187,-0.481 0.21,-0.481C0.262,-0.481 0.304,-0.472 0.335,-0.453C0.366,-0.434 0.389,-0.41 0.404,-0.381C0.418,-0.352 0.425,-0.32 0.425,-0.286L0.425,-0.041C0.425,-0.03 0.419,-0.02 0.407,-0.012C0.395,-0.004 0.38,-0 0.362,-0C0.345,-0 0.332,-0.004 0.321,-0.012C0.31,-0.02 0.304,-0.03 0.304,-0.041L0.304,-0.07C0.286,-0.049 0.265,-0.031 0.241,-0.015C0.216,0.001 0.187,0.009 0.152,0.009ZM0.204,-0.087C0.218,-0.087 0.232,-0.092 0.246,-0.101C0.26,-0.11 0.272,-0.122 0.281,-0.137C0.291,-0.152 0.296,-0.167 0.296,-0.183L0.296,-0.204L0.281,-0.204C0.259,-0.204 0.238,-0.203 0.218,-0.2C0.198,-0.197 0.182,-0.192 0.17,-0.183C0.157,-0.173 0.151,-0.16 0.151,-0.141C0.151,-0.122 0.156,-0.109 0.167,-0.1C0.177,-0.091 0.189,-0.087 0.204,-0.087Z" style="fill:white;fill-rule:nonzero;"/>
        </g>
        <g transform="matrix(72,0,0,72,911.751,274.812)">
            <path d="M0.123,-0C0.104,-0 0.089,-0.004 0.077,-0.013C0.065,-0.022 0.059,-0.031 0.059,-0.041L0.059,-0.712C0.059,-0.724 0.065,-0.734 0.077,-0.741C0.089,-0.748 0.104,-0.752 0.123,-0.752C0.141,-0.752 0.156,-0.748 0.169,-0.741C0.182,-0.734 0.188,-0.724 0.188,-0.712L0.188,-0.041C0.188,-0.031 0.182,-0.022 0.169,-0.013C0.156,-0.004 0.141,-0 0.123,-0Z" style="fill:white;fill-rule:nonzero;"/>
        </g>
        <g transform="matrix(72,0,0,72,929.535,274.812)">
            <path d="M0.262,-0C0.245,-0 0.23,-0.004 0.217,-0.011C0.204,-0.018 0.197,-0.028 0.197,-0.041L0.197,-0.614L0.05,-0.614C0.037,-0.614 0.027,-0.62 0.02,-0.632C0.013,-0.644 0.009,-0.658 0.009,-0.673C0.009,-0.687 0.012,-0.7 0.019,-0.713C0.026,-0.725 0.036,-0.731 0.05,-0.731L0.473,-0.731C0.488,-0.731 0.498,-0.725 0.504,-0.713C0.511,-0.7 0.514,-0.687 0.514,-0.673C0.514,-0.658 0.51,-0.644 0.503,-0.632C0.497,-0.62 0.486,-0.614 0.473,-0.614L0.327,-0.614L0.327,-0.041C0.327,-0.028 0.32,-0.018 0.307,-0.011C0.293,-0.004 0.278,-0 0.262,-0Z" style="fill:white;fill-rule:nonzero;"/>
        </g>
        <g transform="matrix(72,0,0,72,960.423,274.812)">
            <path d="M0.113,-0C0.095,-0 0.08,-0.004 0.068,-0.013C0.056,-0.022 0.05,-0.031 0.05,-0.041L0.05,-0.435C0.05,-0.447 0.056,-0.457 0.068,-0.464C0.08,-0.471 0.095,-0.475 0.113,-0.475C0.13,-0.475 0.143,-0.471 0.155,-0.464C0.166,-0.457 0.171,-0.447 0.171,-0.435L0.171,-0.394C0.178,-0.409 0.188,-0.423 0.201,-0.436C0.213,-0.449 0.227,-0.459 0.243,-0.468C0.259,-0.477 0.276,-0.481 0.294,-0.481L0.325,-0.481C0.338,-0.481 0.349,-0.475 0.358,-0.465C0.367,-0.454 0.372,-0.44 0.372,-0.425C0.372,-0.409 0.367,-0.396 0.358,-0.385C0.349,-0.374 0.338,-0.368 0.325,-0.368L0.294,-0.368C0.275,-0.368 0.257,-0.362 0.239,-0.349C0.222,-0.337 0.207,-0.32 0.196,-0.299C0.185,-0.277 0.179,-0.251 0.179,-0.22L0.179,-0.041C0.179,-0.031 0.173,-0.022 0.16,-0.013C0.147,-0.004 0.132,-0 0.113,-0Z" style="fill:white;fill-rule:nonzero;"/>
        </g>
        <g transform="matrix(72,0,0,72,986.991,274.812)">
            <path d="M0.152,0.009C0.117,0.009 0.086,-0.002 0.061,-0.024C0.035,-0.045 0.022,-0.079 0.022,-0.124C0.022,-0.162 0.032,-0.192 0.051,-0.213C0.071,-0.234 0.099,-0.249 0.134,-0.258C0.169,-0.267 0.209,-0.271 0.255,-0.271L0.296,-0.271L0.296,-0.284C0.296,-0.299 0.293,-0.313 0.288,-0.327C0.282,-0.341 0.273,-0.353 0.261,-0.362C0.248,-0.371 0.231,-0.376 0.208,-0.376C0.183,-0.376 0.163,-0.374 0.15,-0.369C0.136,-0.364 0.125,-0.358 0.118,-0.353C0.111,-0.348 0.103,-0.345 0.094,-0.345C0.08,-0.345 0.069,-0.352 0.062,-0.366C0.054,-0.38 0.05,-0.394 0.05,-0.409C0.05,-0.423 0.059,-0.436 0.076,-0.447C0.093,-0.458 0.113,-0.466 0.138,-0.472C0.163,-0.478 0.187,-0.481 0.21,-0.481C0.262,-0.481 0.304,-0.472 0.335,-0.453C0.366,-0.434 0.389,-0.41 0.404,-0.381C0.418,-0.352 0.425,-0.32 0.425,-0.286L0.425,-0.041C0.425,-0.03 0.419,-0.02 0.407,-0.012C0.395,-0.004 0.38,-0 0.362,-0C0.345,-0 0.332,-0.004 0.321,-0.012C0.31,-0.02 0.304,-0.03 0.304,-0.041L0.304,-0.07C0.286,-0.049 0.265,-0.031 0.241,-0.015C0.216,0.001 0.187,0.009 0.152,0.009ZM0.204,-0.087C0.218,-0.087 0.232,-0.092 0.246,-0.101C0.26,-0.11 0.272,-0.122 0.281,-0.137C0.291,-0.152 0.296,-0.167 0.296,-0.183L0.296,-0.204L0.281,-0.204C0.259,-0.204 0.238,-0.203 0.218,-0.2C0.198,-0.197 0.182,-0.192 0.17,-0.183C0.157,-0.173 0.151,-0.16 0.151,-0.141C0.151,-0.122 0.156,-0.109 0.167,-0.1C0.177,-0.091 0.189,-0.087 0.204,-0.087Z" style="fill:white;fill-rule:nonzero;"/>
        </g>
        <g transform="matrix(72,0,0,72,1020.9,274.812)">
            <path d="M0.208,0.009C0.177,0.009 0.148,-0.001 0.121,-0.02C0.094,-0.039 0.073,-0.065 0.057,-0.096C0.041,-0.127 0.033,-0.161 0.033,-0.196L0.033,-0.278C0.033,-0.315 0.041,-0.349 0.057,-0.38C0.073,-0.411 0.094,-0.435 0.121,-0.454C0.148,-0.472 0.177,-0.481 0.21,-0.481C0.241,-0.481 0.268,-0.473 0.29,-0.458C0.312,-0.442 0.328,-0.424 0.339,-0.405L0.339,-0.712C0.339,-0.724 0.345,-0.734 0.358,-0.741C0.371,-0.748 0.386,-0.752 0.405,-0.752C0.423,-0.752 0.438,-0.748 0.45,-0.741C0.462,-0.734 0.468,-0.724 0.468,-0.712L0.468,-0.041C0.468,-0.031 0.462,-0.022 0.45,-0.013C0.438,-0.004 0.423,-0 0.405,-0C0.389,-0 0.375,-0.004 0.364,-0.013C0.353,-0.022 0.347,-0.031 0.347,-0.041L0.347,-0.07C0.337,-0.049 0.319,-0.031 0.294,-0.015C0.268,0.001 0.239,0.009 0.208,0.009ZM0.249,-0.104C0.266,-0.104 0.282,-0.109 0.295,-0.118C0.308,-0.128 0.319,-0.139 0.327,-0.151C0.335,-0.162 0.339,-0.171 0.339,-0.178L0.339,-0.278C0.339,-0.297 0.335,-0.313 0.326,-0.326C0.317,-0.339 0.305,-0.35 0.292,-0.357C0.278,-0.364 0.264,-0.368 0.25,-0.368C0.234,-0.368 0.219,-0.364 0.205,-0.355C0.192,-0.345 0.181,-0.334 0.173,-0.321C0.166,-0.308 0.162,-0.293 0.162,-0.278L0.162,-0.196C0.162,-0.181 0.166,-0.166 0.173,-0.152C0.181,-0.138 0.192,-0.127 0.205,-0.117C0.218,-0.109 0.233,-0.104 0.249,-0.104Z" style="fill:white;fill-rule:nonzero;"/>
        </g>
        <g transform="matrix(72,0,0,72,1058.27,274.812)">
            <path d="M0.274,0.009C0.227,0.009 0.185,0 0.149,-0.017C0.112,-0.034 0.084,-0.058 0.063,-0.089C0.042,-0.119 0.032,-0.155 0.032,-0.196L0.032,-0.281C0.032,-0.317 0.042,-0.35 0.062,-0.381C0.081,-0.411 0.108,-0.435 0.141,-0.454C0.173,-0.472 0.21,-0.481 0.251,-0.481C0.288,-0.481 0.323,-0.473 0.354,-0.457C0.385,-0.441 0.41,-0.419 0.429,-0.391C0.448,-0.363 0.458,-0.33 0.458,-0.293C0.458,-0.264 0.453,-0.244 0.444,-0.232C0.435,-0.219 0.423,-0.212 0.408,-0.209C0.394,-0.205 0.379,-0.204 0.364,-0.204L0.161,-0.204L0.161,-0.189C0.161,-0.16 0.172,-0.137 0.194,-0.119C0.215,-0.102 0.243,-0.093 0.278,-0.093C0.3,-0.093 0.318,-0.096 0.333,-0.103C0.348,-0.11 0.36,-0.116 0.371,-0.122C0.382,-0.128 0.392,-0.131 0.401,-0.131C0.411,-0.131 0.42,-0.128 0.427,-0.121C0.434,-0.114 0.44,-0.107 0.444,-0.098C0.448,-0.089 0.45,-0.081 0.45,-0.074C0.45,-0.063 0.443,-0.051 0.429,-0.038C0.414,-0.025 0.394,-0.014 0.368,-0.005C0.341,0.004 0.31,0.009 0.274,0.009ZM0.161,-0.28L0.307,-0.28C0.318,-0.28 0.326,-0.282 0.331,-0.285C0.335,-0.289 0.337,-0.296 0.337,-0.307C0.337,-0.322 0.333,-0.336 0.325,-0.348C0.317,-0.36 0.306,-0.369 0.293,-0.376C0.28,-0.383 0.265,-0.386 0.249,-0.386C0.234,-0.386 0.219,-0.383 0.206,-0.377C0.193,-0.37 0.182,-0.361 0.173,-0.349C0.165,-0.338 0.161,-0.324 0.161,-0.308L0.161,-0.28Z" style="fill:white;fill-rule:nonzero;"/>
        </g>
    </g>
</svg>
