<svg width="105" height="21" viewBox="0 0 105 21" fill="none" xmlns="http://www.w3.org/2000/svg">
<rect width="50" height="21" rx="3" fill="#E34949"/>
<path d="M14.15 9.224V10.218H21.85V9.224H14.15ZM12.75 4.842V5.78H16.922V4.842H12.75ZM12.386 12.318V13.284H23.558V12.318H12.386ZM16.558 4.842V5.052C15.704 7.334 13.492 9.266 11.392 10.12C11.602 10.316 11.91 10.68 12.05 10.918C14.332 9.896 16.628 7.908 17.65 5.136L16.95 4.8L16.754 4.842H16.558ZM15.648 9.7V12.08C15.648 13.662 15.27 15.3 12.092 16.364C12.316 16.56 12.638 16.952 12.778 17.19C16.236 15.986 16.684 14.04 16.684 12.094V9.7H15.648ZM19.106 4.296L18.182 4.562C19.288 7.404 21.318 9.77 23.866 10.904C24.034 10.638 24.356 10.232 24.594 10.008C22.102 9.042 20.086 6.83 19.106 4.296ZM12.554 6.83C13.212 7.32 14.024 8.02 14.416 8.454L15.116 7.824C14.71 7.39 13.884 6.718 13.226 6.256L12.554 6.83ZM21.71 4.394C21.178 5.038 20.212 5.92 19.512 6.438L20.156 6.942C20.87 6.452 21.808 5.668 22.522 4.954L21.71 4.394ZM23.376 6.004C22.774 6.662 21.724 7.586 20.954 8.118L21.598 8.622C22.382 8.09 23.39 7.292 24.16 6.564L23.376 6.004ZM19.134 9.728V15.538C19.134 16.7 19.442 17.022 20.632 17.022C20.884 17.022 22.214 17.022 22.48 17.022C23.516 17.022 23.81 16.518 23.908 14.712C23.614 14.656 23.194 14.474 22.956 14.292C22.9 15.79 22.83 16.07 22.382 16.07C22.102 16.07 20.996 16.07 20.786 16.07C20.296 16.07 20.212 15.986 20.212 15.538V9.728H19.134ZM31.09 5.094V6.102H37.964V5.094H31.09ZM35.178 9.266V15.762C35.178 16 35.094 16.056 34.814 16.07C34.562 16.084 33.624 16.084 32.63 16.056C32.784 16.364 32.924 16.798 32.966 17.092C34.338 17.092 35.136 17.078 35.612 16.924C36.088 16.756 36.242 16.434 36.242 15.776V9.266H35.178ZM30.474 8.958V9.952H38.37V8.958H30.474ZM27.674 10.036V17.162H28.724V9.182L28.598 9.126L27.674 10.036ZM29.298 7.236C28.332 8.846 26.792 10.47 25.336 11.506C25.56 11.702 25.924 12.164 26.078 12.374C27.548 11.198 29.2 9.392 30.292 7.614L29.298 7.236ZM28.724 4.24C28.01 5.248 26.652 6.508 25.49 7.292C25.672 7.502 25.952 7.908 26.106 8.132C27.352 7.236 28.794 5.878 29.732 4.646L28.724 4.24Z" fill="white"/>
<rect x="55" width="50" height="21" rx="3" fill="#CCCCCC"/>
<path d="M67.008 8.286V11.142H67.988V9.224H77.97V11.142H78.992V8.286H67.008ZM68.702 10.806V11.786H76.528V10.806H68.702ZM77.466 4.198C75.072 4.702 70.76 5.066 67.134 5.234C67.232 5.472 67.358 5.864 67.386 6.13C71.026 5.99 75.394 5.626 78.208 5.038L77.466 4.198ZM68.31 6.424C68.688 7.026 69.094 7.824 69.262 8.328L70.214 8.02C70.046 7.516 69.626 6.732 69.22 6.158L68.31 6.424ZM72.034 6.13C72.356 6.788 72.65 7.656 72.734 8.202L73.728 7.964C73.644 7.418 73.308 6.564 72.986 5.92L72.034 6.13ZM76.822 5.892C76.486 6.676 75.87 7.796 75.38 8.496L76.22 8.79C76.724 8.132 77.382 7.096 77.886 6.2L76.822 5.892ZM76.15 10.806V10.988C74.694 14.082 70.914 15.566 66.714 16.14C66.924 16.364 67.218 16.826 67.33 17.092C71.6 16.378 75.562 14.754 77.284 11.198L76.584 10.764L76.388 10.806H76.15ZM70.074 11.45L69.15 11.842C70.984 14.754 74.358 16.462 78.628 17.078C78.754 16.784 79.048 16.336 79.258 16.098C75.044 15.594 71.67 14.026 70.074 11.45ZM87.154 6.172V7.194H92.32V6.172H87.154ZM80.658 5.122V6.102H87.504V5.122H80.658ZM82.296 7.964V8.93H85.936V7.964H82.296ZM82.296 10.876V11.828H85.936V10.876H82.296ZM92.012 6.172V6.424C91.41 11.338 89.324 14.628 86.552 16.07C86.79 16.266 87.084 16.658 87.252 16.924C90.248 15.188 92.39 11.898 93.062 6.326L92.39 6.144L92.194 6.172H92.012ZM88.428 7.25L87.42 7.446C88.288 11.842 89.898 15.258 92.936 16.98C93.104 16.7 93.44 16.308 93.678 16.098C90.794 14.614 89.17 11.296 88.428 7.25ZM81.75 5.5V14.586H82.758V5.5H81.75ZM85.502 5.5V17.092H86.51V5.5H85.502ZM80.378 14.278L80.574 15.328C82.03 15.104 84.046 14.782 85.964 14.474L85.908 13.508C83.864 13.816 81.75 14.11 80.378 14.278Z" fill="white"/>
</svg>
