<svg width="60" height="62" viewBox="0 0 60 62" fill="none" xmlns="http://www.w3.org/2000/svg">
<circle cx="30" cy="30" r="30" fill="#004386"/>
<path d="M26.805 35.005H31.355C30.795 30.175 38.46 29.545 38.46 24.435C38.46 19.78 34.75 17.4 29.675 17.4C25.93 17.4 22.85 19.115 20.61 21.705L23.48 24.33C25.195 22.545 26.945 21.565 29.08 21.565C31.845 21.565 33.525 22.755 33.525 24.89C33.525 28.285 26.07 29.51 26.805 35.005ZM29.115 44.35C30.865 44.35 32.195 43.055 32.195 41.235C32.195 39.415 30.865 38.155 29.115 38.155C27.33 38.155 26 39.415 26 41.235C26 43.055 27.295 44.35 29.115 44.35Z" fill="white"/>
</svg>
