<?xml version="1.0" encoding="UTF-8" standalone="no"?>
<!DOCTYPE svg PUBLIC "-//W3C//DTD SVG 1.1//EN" "http://www.w3.org/Graphics/SVG/1.1/DTD/svg11.dtd">
<svg width="100%" height="100%" viewBox="0 0 176 44" version="1.1" xmlns="http://www.w3.org/2000/svg" xmlns:xlink="http://www.w3.org/1999/xlink" xml:space="preserve" xmlns:serif="http://www.serif.com/" style="fill-rule:evenodd;clip-rule:evenodd;stroke-linejoin:round;stroke-miterlimit:2;">
    <g transform="matrix(1.0747,0,0,1.0747,-6.46704,-35.7322)">
        <g>
            <g transform="matrix(0,35.4582,35.4582,0,77.3497,35.9505)">
                <path d="M0.51,-1.714C0.739,-1.714 0.931,-1.196 0.99,-0.489C0.916,-0.969 0.756,-1.477 0.576,-1.477C0.301,-1.477 0.079,-0.718 0.079,0.209C0.079,0.848 0.23,1.469 0.385,1.714C0.187,1.478 0.013,0.753 0.013,-0.028C0.013,-0.955 0.235,-1.714 0.51,-1.714Z" style="fill:url(#_Linear1);fill-rule:nonzero;"/>
            </g>
            <g transform="matrix(0,-31.9226,-31.9226,0,81.5452,70.9788)">
                <path d="M0.458,1.772C0.258,1.772 0.079,1.208 -0.002,0.675C0.098,1.063 0.242,1.466 0.429,1.466C0.708,1.466 0.934,0.719 0.934,-0.191C0.934,-0.818 0.824,-1.471 0.669,-1.772C0.842,-1.5 1.01,-0.81 1.01,-0.101C1.01,0.929 0.762,1.772 0.458,1.772Z" style="fill:url(#_Linear2);fill-rule:nonzero;"/>
            </g>
            <g transform="matrix(0.797992,0,0,0.797992,41.5796,61.0552)">
                <path d="M0,-12.248L7.033,-12.248L7.493,-3.614L7.526,-3.614L9.333,-12.248L13.369,-12.248L10.805,0L3.891,0L3.364,-8.876L3.329,-8.876L1.471,0L-2.563,0L0,-12.248Z" style="fill:white;fill-rule:nonzero;"/>
            </g>
            <g transform="matrix(0.797992,0,0,0.797992,62.9511,58.1707)">
                <path d="M0,-5.019L-4.046,-5.019L-5.854,3.614L-10.554,3.614L-8.746,-5.019L-12.791,-5.019L-12.033,-8.633L0.756,-8.633L0,-5.019Z" style="fill:white;fill-rule:nonzero;"/>
            </g>
            <g transform="matrix(0.797992,0,0,0.797992,74.1488,58.1707)">
                <path d="M0,-5.019L-4.044,-5.019L-5.852,3.614L-10.553,3.614L-8.746,-5.019L-12.787,-5.019L-12.033,-8.633L0.757,-8.633L0,-5.019Z" style="fill:white;fill-rule:nonzero;"/>
            </g>
            <g transform="matrix(0.797992,0,0,0.797992,86.2418,58.5222)">
                <path d="M0,-1.268C0,-2.256 -0.329,-3.081 -1.449,-3.081C-2.949,-3.081 -3.701,-1.354 -3.701,0.019C-3.701,1.024 -3.303,1.806 -2.211,1.806C-0.739,1.806 0,0.034 0,-1.268M1.986,-1.281C1.986,1.392 0.211,3.345 -2.37,3.345C-4.439,3.345 -5.689,2.008 -5.689,-0.13C-5.689,-2.664 -3.815,-4.613 -1.362,-4.613C0.614,-4.613 1.986,-3.376 1.986,-1.281" style="fill:white;fill-rule:nonzero;"/>
            </g>
            <g transform="matrix(0.797992,0,0,0.797992,89.0013,60.2346)">
                <path d="M0,-5.742C0.056,-6.043 0.114,-6.348 0.16,-6.587L1.931,-6.587L1.757,-5.567L1.788,-5.567C2.298,-6.348 3.138,-6.759 4.027,-6.759C4.898,-6.759 5.788,-6.224 5.89,-5.316L5.919,-5.316C6.4,-6.304 7.465,-6.759 8.485,-6.759C9.576,-6.759 10.511,-5.83 10.511,-4.674C10.511,-4 10.343,-3.238 10.185,-2.611L9.417,1.017L7.521,1.017L8.285,-2.687C8.384,-3.14 8.528,-3.852 8.528,-4.311C8.528,-4.871 8.118,-5.227 7.634,-5.227C6.314,-5.227 5.991,-3.63 5.749,-2.596L4.993,1.017L3.096,1.017L3.858,-2.687C3.957,-3.14 4.101,-3.852 4.101,-4.311C4.101,-4.871 3.69,-5.227 3.21,-5.227C1.917,-5.227 1.564,-3.614 1.32,-2.596L0.567,1.017L-1.331,1.017L0,-5.742Z" style="fill:white;fill-rule:nonzero;"/>
            </g>
            <g transform="matrix(0.797992,0,0,0.797992,98.6138,60.2346)">
                <path d="M0,-5.742C0.054,-6.043 0.11,-6.348 0.155,-6.587L1.928,-6.587L1.756,-5.567L1.786,-5.567C2.294,-6.348 3.135,-6.759 4.027,-6.759C4.894,-6.759 5.786,-6.224 5.887,-5.316L5.915,-5.316C6.398,-6.304 7.463,-6.759 8.48,-6.759C9.572,-6.759 10.507,-5.83 10.507,-4.674C10.507,-4 10.34,-3.238 10.184,-2.611L9.416,1.017L7.518,1.017L8.285,-2.687C8.382,-3.14 8.524,-3.852 8.524,-4.311C8.524,-4.871 8.114,-5.227 7.63,-5.227C6.312,-5.227 5.987,-3.63 5.745,-2.596L4.992,1.017L3.092,1.017L3.856,-2.687C3.955,-3.14 4.099,-3.852 4.099,-4.311C4.099,-4.871 3.691,-5.227 3.207,-5.227C1.916,-5.227 1.562,-3.614 1.318,-2.596L0.567,1.017L-1.332,1.017L0,-5.742Z" style="fill:white;fill-rule:nonzero;"/>
            </g>
            <g transform="matrix(0.797992,0,0,0.797992,112.636,55.9977)">
                <path d="M0,5.231C-0.083,5.695 -0.152,6.099 -0.182,6.327L-2.041,6.327L-1.913,5.595L-1.941,5.595C-2.467,6.099 -3.19,6.509 -4.012,6.509C-5.445,6.509 -6.395,5.579 -6.395,4.071C-6.395,3.496 -6.251,2.89 -6.153,2.421L-5.389,-1.278L-3.486,-1.278L-4.197,2.315C-4.295,2.829 -4.41,3.353 -4.41,3.909C-4.41,4.544 -3.982,4.969 -3.373,4.969C-2.056,4.969 -1.574,3.688 -1.331,2.546L-0.552,-1.278L1.351,-1.278L0,5.231Z" style="fill:white;fill-rule:nonzero;"/>
            </g>
            <g transform="matrix(0.797992,0,0,0.797992,114.698,60.0359)">
                <path d="M0,-5.244C0.083,-5.704 0.155,-6.099 0.182,-6.338L2.041,-6.338L1.913,-5.597L1.942,-5.597C2.467,-6.099 3.192,-6.51 4.013,-6.51C5.447,-6.51 6.396,-5.581 6.396,-4.077C6.396,-3.502 6.253,-2.891 6.154,-2.423L5.389,1.266L3.487,1.266L4.194,-2.316C4.296,-2.836 4.41,-3.351 4.41,-3.917C4.41,-4.545 3.985,-4.978 3.376,-4.978C2.056,-4.978 1.574,-3.699 1.332,-2.558L0.555,1.266L-1.35,1.266L0,-5.244Z" style="fill:white;fill-rule:nonzero;"/>
            </g>
            <g transform="matrix(0.797992,0,0,0.797992,122.048,61.046)">
                <path d="M0,-10.878L1.9,-10.878L1.503,-8.992L-0.399,-8.992L0,-10.878ZM-0.695,-7.604L1.205,-7.604L-0.354,0L-2.255,0L-0.695,-7.604Z" style="fill:white;fill-rule:nonzero;"/>
            </g>
            <g transform="matrix(0.797992,0,0,0.797992,127.978,59.6652)">
                <path d="M0,-4.132C-0.371,-4.38 -0.864,-4.513 -1.389,-4.513C-2.907,-4.513 -3.758,-3.037 -3.758,-1.607C-3.758,-0.616 -3.447,0.373 -2.143,0.373C-1.677,0.373 -1.093,0.243 -0.595,-0.01L-0.807,1.558C-1.389,1.851 -2.014,1.913 -2.639,1.913C-4.526,1.913 -5.745,0.596 -5.745,-1.367C-5.745,-4.028 -4.057,-6.045 -1.434,-6.045C-0.723,-6.045 -0.041,-5.919 0.469,-5.752L0,-4.132Z" style="fill:white;fill-rule:nonzero;"/>
            </g>
            <g transform="matrix(0.797992,0,0,0.797992,130.462,55.9974)">
                <path d="M0,5.06C1.421,5.06 1.86,4.046 2.159,2.814L1.491,2.814C0.569,2.814 -0.963,2.976 -0.963,4.264C-0.963,4.793 -0.48,5.06 0,5.06M1.86,5.162L1.833,5.162C1.179,6.024 0.526,6.509 -0.522,6.509C-1.84,6.509 -2.776,5.737 -2.776,4.336C-2.776,1.831 -0.083,1.634 1.704,1.634L2.371,1.634C2.427,1.427 2.427,1.206 2.427,0.983C2.427,0.216 1.633,-0.006 0.965,-0.006C0.129,-0.006 -0.679,0.216 -1.43,0.589L-1.16,-0.995C-0.354,-1.293 0.472,-1.449 1.321,-1.449C2.784,-1.449 4.157,-0.888 4.157,0.898C4.157,1.914 3.434,4.899 3.265,6.327L1.664,6.327L1.86,5.162Z" style="fill:white;fill-rule:nonzero;"/>
            </g>
            <g transform="matrix(0.797992,0,0,0.797992,134.686,59.3885)">
                <path d="M0,-5.527L1.377,-5.527L1.701,-7.089L3.746,-7.787L3.276,-5.527L4.978,-5.527L4.682,-4.074L2.978,-4.074L2.285,-0.753C2.24,-0.578 2.199,-0.309 2.199,-0.019C2.199,0.436 2.498,0.72 2.922,0.72C3.263,0.72 3.602,0.649 3.844,0.544L3.518,2.077C3.193,2.153 2.823,2.26 2.498,2.26C1.206,2.26 0.297,1.729 0.297,0.265C0.297,-0.324 0.412,-0.897 0.54,-1.505L1.077,-4.074L-0.3,-4.074L0,-5.527Z" style="fill:white;fill-rule:nonzero;"/>
            </g>
            <g transform="matrix(0.797992,0,0,0.797992,140.432,61.046)">
                <path d="M0,-10.878L1.902,-10.878L1.507,-8.992L-0.394,-8.992L0,-10.878ZM-0.693,-7.604L1.207,-7.604L-0.352,0L-2.252,0L-0.693,-7.604Z" style="fill:white;fill-rule:nonzero;"/>
            </g>
            <g transform="matrix(0.797992,0,0,0.797992,146.195,58.5222)">
                <path d="M0,-1.268C0,-2.256 -0.324,-3.081 -1.444,-3.081C-2.947,-3.081 -3.699,-1.354 -3.699,0.019C-3.699,1.024 -3.306,1.806 -2.212,1.806C-0.736,1.806 0,0.034 0,-1.268M1.988,-1.281C1.988,1.392 0.215,3.345 -2.366,3.345C-4.437,3.345 -5.685,2.008 -5.685,-0.13C-5.685,-2.664 -3.813,-4.613 -1.361,-4.613C0.612,-4.613 1.988,-3.376 1.988,-1.281" style="fill:white;fill-rule:nonzero;"/>
            </g>
            <g transform="matrix(0.797992,0,0,0.797992,149.073,60.0359)">
                <path d="M0,-5.244C0.087,-5.704 0.157,-6.099 0.185,-6.338L2.042,-6.338L1.915,-5.597L1.944,-5.597C2.467,-6.099 3.192,-6.51 4.015,-6.51C5.447,-6.51 6.398,-5.581 6.398,-4.077C6.398,-3.502 6.256,-2.891 6.158,-2.423L5.391,1.266L3.489,1.266L4.199,-2.316C4.299,-2.836 4.413,-3.351 4.413,-3.917C4.413,-4.545 3.987,-4.978 3.377,-4.978C2.058,-4.978 1.577,-3.699 1.334,-2.558L0.555,1.266L-1.348,1.266L0,-5.244Z" style="fill:white;fill-rule:nonzero;"/>
            </g>
            <g transform="matrix(0.797992,0,0,0.797992,158.896,59.7592)">
                <path d="M0,-4.368C-0.497,-4.555 -1.019,-4.721 -1.56,-4.721C-2.127,-4.721 -2.835,-4.555 -2.835,-3.949C-2.835,-2.99 -0.367,-2.642 -0.367,-0.773C-0.367,1.199 -2.026,1.795 -3.659,1.795C-4.424,1.795 -5.189,1.673 -5.884,1.335L-5.474,-0.244C-4.935,0.064 -4.397,0.346 -3.659,0.346C-3.021,0.346 -2.352,0.126 -2.352,-0.492C-2.352,-1.725 -4.821,-1.839 -4.821,-3.746C-4.821,-5.533 -3.161,-6.163 -1.659,-6.163C-0.962,-6.163 -0.255,-6.037 0.413,-5.859L0,-4.368Z" style="fill:white;fill-rule:nonzero;"/>
            </g>
            <g transform="matrix(0.797992,0,0,0.797992,81.718,59.4146)">
                <path d="M0,-6.21C-0.443,-6.534 -1.193,-6.811 -2.255,-6.811C-3.206,-6.811 -5.258,-6.191 -5.958,-3.723C-6.84,-0.604 -5.079,0.6 -3.33,0.6C-2.492,0.6 -1.806,0.325 -1.233,-0.034L-1.585,1.943C-2.315,2.15 -3.076,2.227 -3.831,2.227C-6.823,2.227 -8.91,-0.074 -8.026,-3.723C-7.236,-7.012 -4.806,-8.437 -2.364,-8.437C-1.367,-8.437 -0.323,-8.305 0.534,-7.931L0,-6.21Z" style="fill:white;fill-rule:nonzero;"/>
            </g>
        </g>
    </g>
    <defs>
        <linearGradient id="_Linear1" x1="0" y1="0" x2="1" y2="0" gradientUnits="userSpaceOnUse" gradientTransform="matrix(1,0,0,-1,0,-1.26704e-05)"><stop offset="0" style="stop-color:rgb(255,234,189);stop-opacity:1"/><stop offset="0.5" style="stop-color:rgb(252,209,5);stop-opacity:1"/><stop offset="1" style="stop-color:rgb(182,115,41);stop-opacity:1"/></linearGradient>
        <linearGradient id="_Linear2" x1="0" y1="0" x2="1" y2="0" gradientUnits="userSpaceOnUse" gradientTransform="matrix(1,0,0,-1,0,1.52336e-05)"><stop offset="0" style="stop-color:rgb(255,234,189);stop-opacity:1"/><stop offset="0.25" style="stop-color:rgb(252,209,5);stop-opacity:1"/><stop offset="1" style="stop-color:rgb(182,115,41);stop-opacity:1"/></linearGradient>
    </defs>
</svg>
