<svg width="80" height="80" viewBox="0 0 80 80" fill="none" xmlns="http://www.w3.org/2000/svg">
<path d="M7.57818 80C3.39273 80 0 76.6073 0 72.4218V7.57818C0 3.39273 3.39273 0 7.57818 0H72.4218C76.6073 0 80 3.39273 80 7.57818V72.4218C80 76.6073 76.6073 80 72.4218 80H7.57818Z" fill="#004386"/>
<path d="M39.8747 72.7493C58.0308 72.7493 72.7493 58.0308 72.7493 39.8747C72.7493 21.7185 58.0308 7 39.8747 7C21.7185 7 7 21.7185 7 39.8747C7 58.0308 21.7185 72.7493 39.8747 72.7493Z" fill="white"/>
<g clip-path="url(#clip0_87_2)">
<path d="M65.6376 38.7832C64.8287 35.3653 62.7492 32.4709 59.7834 30.6319C59.4006 30.3946 59.0041 30.1788 58.6046 29.9844C57.5826 27.5622 55.8443 25.4217 53.4577 23.9423C47.3352 20.1457 39.2953 22.0865 35.5358 28.2671C35.159 28.887 34.8543 29.5298 34.5897 30.1826C32.5034 31.2793 30.7483 32.9232 29.5111 34.9574C29.0971 35.6385 29.3079 36.5293 29.9826 36.9472C30.2169 37.0918 30.4754 37.1615 30.7309 37.1615C31.213 37.1615 31.6831 36.9158 31.9537 36.4712C32.4238 35.699 32.9908 35.001 33.6345 34.3857C33.3722 39.064 35.5942 43.74 39.8184 46.3597C40.1967 46.5946 40.5849 46.7997 40.9768 46.9911C41.7001 48.7107 42.7637 50.226 44.101 51.475C41.2118 52.5418 37.9754 52.2457 35.2947 50.5842C33.5594 49.5082 32.2001 47.9546 31.3624 46.0918C31.0349 45.364 30.1843 45.0411 29.4648 45.3724C28.7439 45.7023 28.4247 46.5602 28.7522 47.288C29.8264 49.6781 31.5701 51.6709 33.7944 53.05C35.8899 54.3495 38.2506 55 40.6137 55C42.7341 55 44.8546 54.4689 46.7878 53.4189C48.6998 54.462 50.8028 55 52.9399 55C53.9566 55 54.98 54.8791 55.9936 54.6342C59.3786 53.8176 62.2466 51.7191 64.0676 48.7253C65.8886 45.7314 66.4465 42.201 65.6376 38.7832ZM37.9785 29.7816C39.8958 26.6316 43.2368 24.8936 46.6559 24.8936C48.4685 24.8936 50.3032 25.3826 51.9582 26.4082C56.7335 29.3691 58.2323 35.6997 55.2999 40.5212C52.366 45.3418 46.0956 46.8541 41.3195 43.8939C36.5441 40.9329 35.0453 34.6023 37.9785 29.7816ZM61.6257 47.2107C60.205 49.5457 57.9678 51.1826 55.328 51.8201C52.6882 52.4569 49.9598 52.0184 47.646 50.5842C46.6134 49.9436 45.7226 49.1339 44.9895 48.1957C45.5316 48.2645 46.0752 48.302 46.618 48.302C51.0007 48.302 55.2855 46.0742 57.7426 42.0357C59.2475 39.5622 59.8282 36.7804 59.6076 34.0872C61.2117 35.4824 62.3481 37.336 62.85 39.4559C63.4808 42.1214 63.0464 44.875 61.6257 47.2107Z" fill="#004386"/>
<path d="M45.6302 35.0477V35.4418H43.7515C43.3763 35.4418 43.0723 35.7487 43.0723 36.1276C43.0723 36.5064 43.3763 36.8133 43.7515 36.8133H45.6302V37.8571H43.7515C43.3763 37.8571 43.0723 38.164 43.0723 38.5429C43.0723 38.9217 43.3763 39.2286 43.7515 39.2286H45.6302V41.5245C45.6302 42.0923 46.0865 42.5531 46.6491 42.5531C47.2116 42.5531 47.668 42.0923 47.668 41.5245V39.2286H49.5466C49.9219 39.2286 50.2259 38.9217 50.2259 38.5429C50.2259 38.164 49.9219 37.8571 49.5466 37.8571H47.668V36.8133H49.5466C49.9219 36.8133 50.2259 36.5064 50.2259 36.1276C50.2259 35.7487 49.9219 35.4418 49.5466 35.4418H47.668V35.0469L51.247 31.127C51.6284 30.7092 51.6018 30.0587 51.1887 29.6737C50.7747 29.2888 50.1303 29.3156 49.749 29.7327L46.6498 33.1276L43.5514 29.7327C43.1693 29.3156 42.5249 29.288 42.111 29.673C41.697 30.0579 41.6713 30.7092 42.0518 31.127L45.6309 35.0477H45.6302Z" fill="#004386"/>
<path d="M30.7665 43.3038C31.8749 43.3038 32.7733 42.3969 32.7733 41.2781C32.7733 40.1592 31.8749 39.2523 30.7665 39.2523H25.393V33.8278C25.393 32.7089 24.4946 31.802 23.3862 31.802C22.2779 31.802 21.3795 32.7089 21.3795 33.8278V39.2523H16.0067C14.8984 39.2523 14 40.1592 14 41.2781C14 42.3969 14.8984 43.3038 16.0067 43.3038H21.3795V48.7283C21.3795 49.8472 22.2779 50.7541 23.3862 50.7541C24.4946 50.7541 25.393 49.8472 25.393 48.7283V43.3038H30.7665Z" fill="#004386"/>
</g>
<defs>
<clipPath id="clip0_87_2">
<rect width="52" height="33" fill="white" transform="translate(14 22)"/>
</clipPath>
</defs>
</svg>
