<?xml version="1.0" encoding="utf-8"?>
<!-- Generator: Adobe Illustrator 26.5.0, SVG Export Plug-In . SVG Version: 6.00 Build 0)  -->
<svg version="1.1" id="レイヤー_1" xmlns="http://www.w3.org/2000/svg" xmlns:xlink="http://www.w3.org/1999/xlink" x="0px"
	 y="0px" viewBox="0 0 500 62" style="enable-background:new 0 0 500 62;" xml:space="preserve">
<style type="text/css">
	.st0{fill:#004386;}
	.st1{fill:#FDD000;}
	.st2{fill:#FFFFFF;}
</style>
<g id="レイヤー_1_00000174585331232057480450000015391907453011525284_">
	<g>
		<g>
			<path class="st0" d="M50,19.2c0-1.8,0.8-2.6,2.5-2.6h6.8c6.6,0,9.6,2.3,9.6,7.1c0,3.8-2.1,5.8-5.7,6.5v0.3
				c3.7,0.4,6.5,2.3,6.5,6.8c0,5.6-3.8,7.9-10.6,7.9h-6.5c-1.8,0-2.5-0.8-2.5-2.6L50,19.2L50,19.2z M58.9,28.5
				c2.7,0,4.4-1.1,4.4-3.9c0-2.9-1.7-3.9-4.4-3.9h-3.4v7.9H58.9z M59.2,41.4c3.2,0,5-1.4,5-4.5c0-3.1-1.8-4.5-5-4.5h-3.7v8.9H59.2z"
				/>
			<path class="st0" d="M91.6,42.8c0,1.3-0.5,2.1-2.5,2.5c-1.1,0.3-2.6,0.4-4.1,0.4c-7.8,0-13-4.8-13-14.8s5.2-14.8,13-14.8
				c1.4,0,2.9,0.2,4.1,0.5c1.9,0.4,2.5,1.2,2.5,2.5v0.2c0,1.4-0.8,2.3-2.9,1.8c-1.1-0.3-1.8-0.5-3.2-0.5c-4.6,0-7.6,2.9-7.6,10.3
				s3,10.3,7.6,10.3c1.3,0,2-0.2,3.2-0.5c2.1-0.5,2.9,0.4,2.9,1.8V42.8z"/>
			<path class="st0" d="M92.8,34.7c0-7.5,4.2-11.1,10.4-11.1c6.2,0,10.4,3.6,10.4,11.1c0,7.5-4.2,11.1-10.4,11.1
				C96.9,45.8,92.8,42.1,92.8,34.7z M108.1,34.7c0-5.2-2-7.2-4.9-7.2c-2.9,0-4.9,2-4.9,7.2s2,7.1,4.9,7.1
				C106.1,41.8,108.1,39.8,108.1,34.7z"/>
			<path class="st0" d="M116.8,26.3c0-1.8,0.8-2.6,2.6-2.6h0.2c1.6,0,2.6,0.8,2.6,2.1V26l0.3,0.2c1.5-1.6,3.6-2.6,6.1-2.6
				c4,0,7.2,2.4,7.2,7.7V43c0,1.8-0.8,2.6-2.6,2.6H133c-1.8,0-2.6-0.8-2.6-2.6V31.7c0-2.8-1.4-3.9-3.5-3.9c-1.8,0-3.5,0.8-4.8,2.2
				v13c0,1.8-0.8,2.6-2.6,2.6h-0.2c-1.8,0-2.6-0.8-2.6-2.6V26.3z"/>
			<path class="st0" d="M140,26.3c0-1.8,0.8-2.6,2.6-2.6h0.2c1.6,0,2.6,0.8,2.6,2.1V26l0.3,0.2c1.5-1.6,3.6-2.6,6.1-2.6
				c4,0,7.2,2.4,7.2,7.7V43c0,1.8-0.8,2.6-2.6,2.6h-0.2c-1.8,0-2.6-0.8-2.6-2.6V31.7c0-2.8-1.4-3.9-3.5-3.9c-1.8,0-3.5,0.8-4.8,2.2
				v13c0,1.8-0.8,2.6-2.6,2.6h-0.2c-1.8,0-2.6-0.8-2.6-2.6L140,26.3L140,26.3z"/>
			<path class="st0" d="M180.3,42.7c0,1.3-0.6,2-2.1,2.4c-1.1,0.3-3.1,0.6-4.9,0.6c-7.1,0-11-3.8-11-11.1c0-7.5,4.2-11.2,9.6-11.2
				c5.4,0,9.3,3.7,9.3,10.2c0,1.6-0.9,2.3-2.5,2.3h-11.1c0.2,3.9,2.2,5.6,6.1,5.6c1.5,0,2.7-0.3,4-0.8c1.6-0.6,2.6,0.4,2.6,1.5V42.7
				z M176.1,32.7c-0.2-3.7-1.8-5.5-4.1-5.5c-2.4,0-4.1,1.8-4.3,5.5H176.1z"/>
			<path class="st0" d="M199.6,42.9c0,1.5-0.6,2.1-2.1,2.5c-0.9,0.2-2,0.4-3.2,0.4c-6.4,0-10.7-3.7-10.7-11.1
				c0-7.5,4.3-11.1,10.7-11.1c1.2,0,2.3,0.1,3.2,0.4c1.5,0.4,2.1,1,2.1,2.5v0.1c0,1.3-0.9,2.2-2.5,1.6c-0.8-0.2-1.6-0.5-2.5-0.5
				c-3,0-5.4,1.8-5.4,6.9s2.4,6.9,5.4,6.9c1,0,1.7-0.2,2.5-0.4c1.6-0.5,2.5,0.4,2.5,1.6V42.9z"/>
			<path class="st0" d="M205.1,27.8H203c-1.3,0-1.9-0.6-1.9-1.9v-0.1c0-1.4,0.6-1.9,1.9-1.9h2.1v-3.8c0-1.7,0.7-2.4,2.4-2.4h0.6
				c1.7,0,2.4,0.7,2.4,2.4V24h3.4c1.3,0,1.9,0.5,1.9,1.9v0.1c0,1.3-0.6,1.9-1.9,1.9h-3.4v10.7c0,2.1,1.1,3,2.8,3c0.4,0,0.4,0,0.8,0
				c1.3-0.1,1.8,0.6,1.8,1.9v0.3c0,1.3-0.6,1.8-1.9,2c-0.6,0.1-1,0.1-1.6,0.1c-4.9,0-7.3-2.3-7.3-7.1L205.1,27.8L205.1,27.8z"/>
			<path class="st0" d="M220.1,27.8h-1c-1.4,0-1.9-0.6-1.9-1.8v-0.2c0-1.2,0.5-1.8,1.9-1.8h3.9c1.8,0,2.6,0.8,2.6,2.5V43
				c0,1.8-0.8,2.6-2.6,2.6h-0.2c-1.8,0-2.6-0.8-2.6-2.6L220.1,27.8L220.1,27.8z M220.1,27.8h-1c-1.4,0-1.9-0.6-1.9-1.8v-0.2
				c0-1.2,0.5-1.8,1.9-1.8h3.9c1.8,0,2.6,0.8,2.6,2.5V43c0,1.8-0.8,2.6-2.6,2.6h-0.2c-1.8,0-2.6-0.8-2.6-2.6L220.1,27.8L220.1,27.8z
				 M219.8,17c0-1.7,0.7-2.4,2.4-2.4h1.2c1.7,0,2.4,0.7,2.4,2.4v0.7c0,1.7-0.7,2.4-2.4,2.4h-1.2c-1.7,0-2.4-0.7-2.4-2.4V17z"/>
			<path class="st0" d="M228.7,34.7c0-7.5,4.2-11.1,10.4-11.1c6.2,0,10.4,3.6,10.4,11.1c0,7.5-4.2,11.1-10.4,11.1
				C232.9,45.8,228.7,42.1,228.7,34.7z M244.1,34.7c0-5.2-2-7.2-4.9-7.2c-2.9,0-4.9,2-4.9,7.2s2,7.1,4.9,7.1
				C242.1,41.8,244.1,39.8,244.1,34.7z"/>
			<path class="st0" d="M252.8,26.3c0-1.8,0.8-2.6,2.6-2.6h0.2c1.6,0,2.6,0.8,2.6,2.1V26l0.3,0.2c1.5-1.6,3.6-2.6,6.1-2.6
				c4,0,7.2,2.4,7.2,7.7V43c0,1.8-0.8,2.6-2.6,2.6H269c-1.8,0-2.6-0.8-2.6-2.6V31.7c0-2.8-1.4-3.9-3.5-3.9c-1.8,0-3.5,0.8-4.8,2.2
				v13c0,1.8-0.8,2.6-2.6,2.6h-0.2c-1.8,0-2.6-0.8-2.6-2.6L252.8,26.3L252.8,26.3z"/>
		</g>
		<g>
			<path class="st0" d="M41.7,31.7c-0.4,7-6.1,12.5-13.2,12.5c-2.4,0-4.7-0.7-6.6-1.8c0,0,0,0,0,0c0,7.3-5.9,13.2-13.2,13.2
				c-3.3,0-6.4-1.2-8.7-3.3V9.7c2.3-2,5.4-3.3,8.7-3.3c7.3,0,13.2,5.9,13.2,13.2c0,0,0,0,0,0c1.9-1.1,4.2-1.8,6.6-1.8
				c7.1,0,12.8,5.5,13.2,12.5h-1.6l0,0H32c-0.7,0-1.1-0.1-1.4-0.5c-0.4-0.7-1.2-1.2-2.2-1.2c-0.4,0-0.8,0.1-1.2,0.3
				c-0.5,0.3-0.8,0.1-1.5-0.2l-13.7-7.9c-0.6-0.4-0.9-0.6-0.9-1.1c0-0.9-0.4-1.7-1.2-2.1c-1.2-0.7-2.7-0.3-3.4,0.9S6.3,21,7.5,21.7
				c0.8,0.5,1.7,0.4,2.5,0c0.5-0.3,0.8-0.1,1.5,0.2l13.7,7.9c0.6,0.4,0.9,0.6,0.9,1.1c0,0.5-0.3,0.8-0.9,1.1l-13.7,7.9
				c-0.6,0.4-1,0.5-1.5,0.2c-0.7-0.4-1.7-0.5-2.5,0c-1.2,0.7-1.6,2.2-0.9,3.4s2.2,1.6,3.4,0.9c0.8-0.5,1.2-1.3,1.2-2.1
				c0-0.5,0.3-0.8,0.9-1.1l13.7-7.9c0.6-0.4,1-0.5,1.5-0.2c0.4,0.2,0.8,0.3,1.3,0.3c0.9,0,1.7-0.5,2.1-1.2c0.3-0.5,0.7-0.5,1.4-0.5
				h8.1l0,0L41.7,31.7L41.7,31.7z"/>
			<circle class="st1" cx="8.7" cy="19.6" r="6.1"/>
			<circle class="st1" cx="8.7" cy="42.5" r="6.1"/>
			<circle class="st1" cx="28.5" cy="31" r="6.1"/>
			<path class="st2" d="M40.1,31.7h1.6c0-0.2,0-0.5,0-0.7c0-0.2,0-0.5,0-0.7h-1.6l0,0H32c-0.7,0-1.1-0.1-1.4-0.5
				c-0.4-0.7-1.2-1.2-2.2-1.2c-0.4,0-0.8,0.1-1.2,0.3c-0.5,0.3-0.8,0.1-1.5-0.2l-13.7-7.9c-0.6-0.4-0.9-0.6-0.9-1.1
				c0-0.9-0.4-1.7-1.2-2.1c-1.2-0.7-2.7-0.3-3.4,0.9S6.3,21,7.5,21.7c0.8,0.5,1.7,0.4,2.5,0c0.5-0.3,0.8-0.1,1.5,0.2l13.7,7.9
				c0.6,0.4,0.9,0.6,0.9,1.1c0,0.5-0.3,0.8-0.9,1.1l-13.7,7.9c-0.6,0.4-1,0.5-1.5,0.2c-0.7-0.4-1.7-0.5-2.5,0
				c-1.2,0.7-1.6,2.2-0.9,3.4s2.2,1.6,3.4,0.9c0.8-0.5,1.2-1.3,1.2-2.1c0-0.5,0.3-0.8,0.9-1.1l13.7-7.9c0.6-0.4,1-0.5,1.5-0.2
				c0.4,0.2,0.8,0.3,1.3,0.3c0.9,0,1.7-0.5,2.1-1.2c0.3-0.5,0.7-0.5,1.4-0.5L40.1,31.7L40.1,31.7z"/>
		</g>
		<g>
			<path class="st0" d="M495.5,23.3c0,0.4-0.3,0.7-0.7,0.7H494c-0.4,0-0.7-0.3-0.7-0.7v-3.1c0-0.4,0.3-0.7,0.7-0.7h0.8
				c0.4,0,0.7,0.3,0.7,0.7V23.3z"/>
			<path class="st0" d="M498.9,23.3c0,0.4-0.3,0.7-0.7,0.7h-0.8c-0.4,0-0.7-0.3-0.7-0.7v-3.1c0-0.4,0.3-0.7,0.7-0.7h0.8
				c0.4,0,0.7,0.3,0.7,0.7V23.3z"/>
		</g>
		<path class="st0" d="M421.3,30.3l-13.5-1.6c0,0-0.1,0-0.1,0v-8.3c0-0.6-0.5-1-1-1h-2.1c-0.6,0-1,0.5-1,1v24.2c0,0.6,0.5,1,1,1h2.1
			c0.6,0,1-0.5,1-1V32.9l13.6,1.6c0.6,0.1,1-0.3,1-0.9v-2.1C422.3,30.9,421.8,30.4,421.3,30.3z"/>
		<path class="st0" d="M499,30.3l-13.5-1.6c0,0-0.1,0-0.1,0v-8.3c0-0.6-0.5-1-1-1h-2.1c-0.6,0-1,0.5-1,1v24.2c0,0.6,0.5,1,1,1h2.1
			c0.6,0,1-0.5,1-1V32.9l13.6,1.6c0.6,0.1,1-0.3,1-0.9v-2.1C500,30.9,499.5,30.4,499,30.3z"/>
		<g>
			<path class="st0" d="M301.4,22.2c0,0.4-0.3,0.7-0.7,0.7h-0.8c-0.4,0-0.7-0.3-0.7-0.7v-3.1c0-0.4,0.3-0.7,0.7-0.7h0.8
				c0.4,0,0.7,0.3,0.7,0.7V22.2z"/>
			<path class="st0" d="M304.7,22.2c0,0.4-0.3,0.7-0.7,0.7h-0.8c-0.4,0-0.7-0.3-0.7-0.7v-3.1c0-0.4,0.3-0.7,0.7-0.7h0.8
				c0.4,0,0.7,0.3,0.7,0.7V22.2z"/>
		</g>
		<g>
			<path class="st0" d="M332.8,22.2c0,0.4-0.3,0.7-0.7,0.7h-0.8c-0.4,0-0.7-0.3-0.7-0.7v-3.1c0-0.4,0.3-0.7,0.7-0.7h0.8
				c0.4,0,0.7,0.3,0.7,0.7V22.2z"/>
			<path class="st0" d="M336.2,22.2c0,0.4-0.3,0.7-0.7,0.7h-0.8c-0.4,0-0.7-0.3-0.7-0.7v-3.1c0-0.4,0.3-0.7,0.7-0.7h0.8
				c0.4,0,0.7,0.3,0.7,0.7V22.2z"/>
		</g>
		<path class="st0" d="M297.7,21.6c0-0.6-0.5-1-1-1h-17.6c-0.6,0-1,0.5-1,1v2c0,0.6,0.5,1,1,1h17.6c0.6,0,1-0.5,1-1L297.7,21.6z"/>
		<path class="st0" d="M453.3,32.8c0,0.6,0.5,1,1,1h22c0.6,0,1-0.5,1-1v-2.2c0-0.6-0.5-1-1-1h-22c-0.6,0-1,0.5-1,1V32.8z"/>
		<path class="st0" d="M323.9,21.6c0-0.6-0.5-1-1-1h-12.3c-0.6,0-1,0.5-1,1v2c0,0.6,0.5,1,1,1h12.3c0.6,0,1-0.5,1-1V21.6z"/>
		<path class="st0" d="M323.9,29.7c0-0.6-0.5-1-1-1h-12.3c-0.6,0-1,0.5-1,1v2c0,0.6,0.5,1,1,1h12.3c0.6,0,1-0.5,1-1V29.7z"/>
		<path class="st0" d="M310.6,41c14.2-0.2,19.2-4.1,20.4-15.8c0.1-0.5,0.5-0.9,1-0.9h2.2c0.6,0,1.1,0.5,1,1.1
			c-1.3,13.9-8.3,19.5-24.6,19.7c-0.6,0-1-0.5-1-1c0-0.6,0-2.1,0-2.1C309.6,41.5,310,41,310.6,41"/>
		<path class="st0" d="M384.5,41c5.7-0.3,8-3.6,8.6-12c0-0.5,0.5-0.9,1-0.9h2.1c0.6,0,1,0.5,1,1c0,0,0,0,0,0.1
			c-0.6,11.1-4.2,15.4-12.6,16.1c-0.9,0.1-1.9,0.1-3.2,0.1c-0.6,0-1-0.4-1-1v-24c0-0.6,0.5-1,1-1h2.1c0.6,0,1,0.5,1,1L384.5,41"/>
		<path class="st0" d="M448.9,28.1h-2.2c-0.5,0-0.9,0.3-1,0.7c-2.1,8-6.3,11.4-14.7,12.1l0,0c0,0,0,0,0,0V20.6c0-0.6-0.5-1-1-1h-2.2
			c-0.6,0-1,0.5-1,1l0,23.8c0,0.6,0.5,1,1,1l0.3,0c0,0,0,0,0,0c0.6,0,1.2-0.1,1.8-0.1c0.2,0,0.5,0,0.7-0.1
			c11.2-1,16.7-5.4,19.2-15.9c0-0.1,0-0.2,0-0.2C449.9,28.5,449.5,28.1,448.9,28.1z"/>
		<path class="st0" d="M303.1,28.8h-24c-0.6,0-1,0.5-1,1v2c0,0.6,0.5,1,1,1h13.6c-0.3,5.4-2.5,7.9-12.9,8.3c-0.5,0-1,0.5-1,1v2.1
			c0,0.6,0.5,1,1,1c0,0,0,0,0,0l0,0c11.9-0.4,16.7-3.8,17.1-12.5h6.2c0.6,0,1-0.5,1-1v-2C304.1,29.2,303.7,28.8,303.1,28.8z"/>
		<path class="st0" d="M376.6,20.4h-2.1c-0.6,0-1,0.5-1,1v2.3v5.7v0.8c0,4.9-1.2,8.7-4.2,13.9c-0.1,0.2-0.1,0.6,0,0.8
			s0.4,0.4,0.7,0.4c0.1,0,0.2,0,0.4,0h1h1.1c0.4,0,0.7-0.2,0.9-0.5c3-4.5,4.2-8.2,4.3-13.9h0v-0.8v-0.8v-5.7v-2.3
			C377.6,20.9,377.1,20.4,376.6,20.4z"/>
		<path class="st0" d="M340.3,31.7v-2.5c0-0.4,0.2-0.8,0.6-1c2.3-1.3,4.5-3.9,5.6-6.9c0.2-0.5,0.6-0.8,1.2-0.8h17.2c0.6,0,1,0.5,1,1
			v0.8c0,5,0.1,13.4-4.7,18c-3.6,3.4-8.9,4.9-17.9,5.2c0,0,0,0,0,0c-0.6,0-1-0.5-1-1v-2c0-0.6,0.4-1,1-1c8.6-0.3,14.5-1.6,16.9-6.7
			h-13.3c-0.6,0-1-0.5-1-1v-2c0-0.6,0.5-1,1-1h14.4c0.2-1.7,0.4-4,0.4-6.1h-12l0,0c-1.8,3.7-4.8,6.7-8,8c-0.1,0.1-0.2,0.1-0.4,0.1
			C340.7,32.6,340.3,32.2,340.3,31.7z"/>
	</g>
</g>
<g id="レイヤー_2_00000005251716682319610990000013276039229718222473_">
</g>
</svg>
