<?xml version="1.0" encoding="UTF-8" standalone="no"?>
<svg
   width="100%"
   height="100%"
   viewBox="0 0 176 176"
   version="1.1"
   xml:space="preserve"
   style="fill-rule:evenodd;clip-rule:evenodd;stroke-linejoin:round;stroke-miterlimit:2;"
   id="svg6776"
   sodipodi:docname="ts-app-digitaltrade-func-icon-siwake-type3.svg"
   inkscape:version="1.1.1 (3bf5ae0d25, 2021-09-20)"
   xmlns:inkscape="http://www.inkscape.org/namespaces/inkscape"
   xmlns:sodipodi="http://sodipodi.sourceforge.net/DTD/sodipodi-0.dtd"
   xmlns="http://www.w3.org/2000/svg"
   xmlns:svg="http://www.w3.org/2000/svg"><defs
   id="defs6780"><linearGradient
     id="linearGradient88623"
     inkscape:swatch="solid"><stop
       style="stop-color:#0000ff;stop-opacity:1;"
       offset="0"
       id="stop88621" /></linearGradient></defs><sodipodi:namedview
   id="namedview6778"
   pagecolor="#ffffff"
   bordercolor="#666666"
   borderopacity="1.0"
   inkscape:pageshadow="2"
   inkscape:pageopacity="0.0"
   inkscape:pagecheckerboard="0"
   showgrid="false"
   inkscape:zoom="5.6568542"
   inkscape:cx="42.161242"
   inkscape:cy="98.553008"
   inkscape:window-width="2560"
   inkscape:window-height="1361"
   inkscape:window-x="-9"
   inkscape:window-y="-9"
   inkscape:window-maximized="1"
   inkscape:current-layer="svg6776" />
    <path
   d="m 16.940885,176.26889 c -9.2079994,0 -16.6719994,-7.464 -16.6719994,-16.672 V 16.940886 c 0,-9.2080004 7.464,-16.67200041 16.6719994,-16.67200041 H 159.59689 c 9.208,0 16.672,7.46400001 16.672,16.67200041 V 159.59689 c 0,9.208 -7.464,16.672 -16.672,16.672 z"
   style="fill:#004386;fill-rule:nonzero"
   id="path6764" />
    <g
   transform="matrix(2.02507,0,0,2.02507,-42.7098,-40.5069)"
   id="g6768">
        <circle
   cx="64.518"
   cy="63.486"
   r="35.716"
   style="fill:white;"
   id="circle6766" />
    </g>
    
<rect
   style="clip-rule:evenodd;fill:#253a7b;fill-opacity:1;fill-rule:evenodd;stroke-width:3.69914;stroke-linejoin:round;stroke-miterlimit:2"
   id="rect6884-4"
   width="63.066845"
   height="78.347351"
   x="-33.107632"
   y="81.630234"
   rx="4.0307751"
   ry="3.8284254"
   transform="rotate(-36.739085)" /><rect
   style="clip-rule:evenodd;fill:#ffffff;fill-opacity:1;fill-rule:evenodd;stroke-width:3.48068;stroke-linejoin:round;stroke-miterlimit:2"
   id="rect6884-4-3"
   width="59.342278"
   height="73.72036"
   x="-30.988649"
   y="83.810883"
   rx="3.7927279"
   ry="3.6023283"
   transform="rotate(-36.739085)" /><g
   id="g90764"
   transform="matrix(1.2768175,0.06850296,-0.06850296,1.2768175,-204.69262,-32.475381)"><path
     style="fill:#ffffff;fill-opacity:1;stroke:#253a7b;stroke-width:0.693725;stroke-opacity:1;paint-order:markers fill stroke"
     d="m 228.86134,97.873913 -1.91335,-1.926209 1.5853,-3.223014 c 1.81807,-3.696227 3.32231,-7.616481 4.14778,-10.809668 l 0.57225,-2.213667 1.88625,-0.568311 c 3.12099,-0.94033 5.15458,-2.056574 7.11378,-3.904782 l 1.82792,-1.724373 4.4044,5.041152 4.40439,5.041153 -1.49031,1.400934 c -1.67683,1.576275 -3.27576,4.088933 -3.94223,6.195084 -0.41052,1.29729 -0.51352,1.411971 -1.27148,1.415623 -2.76181,0.01331 -7.75042,2.122481 -12.55467,5.308084 l -2.85667,1.894203 z"
     id="path41993" /><g
     id="g76422"
     transform="translate(-0.3112848,-0.35309657)"
     style="fill:#004386;fill-opacity:1"><rect
       style="fill:#004386;fill-opacity:1;stroke-width:0.881796;paint-order:markers fill stroke"
       id="rect42134"
       width="0.65403575"
       height="5.9658546"
       x="234.51154"
       y="-56.221462"
       rx="1.0508151"
       ry="1.4498548e-06"
       transform="matrix(0.82223772,0.5691442,-0.70637544,0.70783736,0,0)" /><ellipse
       style="fill:#004386;fill-opacity:1;stroke-width:2.58;paint-order:markers fill stroke"
       id="path42270"
       cx="233.93362"
       cy="92.593864"
       rx="1.7111773"
       ry="1.9013082" /></g><g
     id="g46101"
     transform="matrix(0.61478223,0,0,0.61478223,79.645414,61.69076)"
     style="fill:none;fill-opacity:1;stroke:#253a7b;stroke-opacity:1;paint-order:markers fill stroke"><g
       id="g43833"
       transform="translate(55.407805,-6.6030027)"
       style="fill:none;fill-opacity:1;stroke:#253a7b;stroke-opacity:1;paint-order:markers fill stroke"><path
         style="fill:none;fill-opacity:1;stroke:#253a7b;stroke-width:1px;stroke-linecap:butt;stroke-linejoin:miter;stroke-opacity:1;paint-order:markers fill stroke"
         d="M 247.35172,-6.8287054 C 213.41482,22.828037 213.41482,22.828037 213.41482,22.828037"
         id="path43548" /><path
         style="fill:none;fill-opacity:1;stroke:#253a7b;stroke-width:1px;stroke-linecap:butt;stroke-linejoin:miter;stroke-opacity:1;paint-order:markers fill stroke"
         d="m 213.41482,22.828037 16.35128,17.79786"
         id="path43550" /><path
         style="fill:none;fill-opacity:1;stroke:#253a7b;stroke-width:1px;stroke-linecap:butt;stroke-linejoin:miter;stroke-opacity:1;paint-order:markers fill stroke"
         d="M 229.7661,40.625897 248.88338,22.834052"
         id="path43552" /><path
         style="fill:none;fill-opacity:1;stroke:#253a7b;stroke-width:1px;stroke-linecap:butt;stroke-linejoin:miter;stroke-opacity:1;paint-order:markers fill stroke"
         d="m 247.35172,-6.8287054 1.53166,29.6627574"
         id="path43747" /></g><path
       style="fill:none;fill-opacity:1;stroke:#253a7b;stroke-width:0.370342;stroke-opacity:1;paint-order:markers fill stroke"
       d="m 277.44877,24.739192 c -4.25175,-4.628829 -7.71013,-8.455312 -7.68529,-8.503298 0.11537,-0.222806 32.35921,-28.306081 32.42459,-28.240701 0.0674,0.06738 1.46453,26.073511 1.47419,27.4402 l 0.004,0.578638 -8.70655,8.105746 c -4.7886,4.458161 -8.9482,8.314935 -9.24355,8.570607 l -0.53701,0.464859 -7.73047,-8.416051 z"
       id="path45976" /></g></g><rect
   style="clip-rule:evenodd;fill:#253a7b;fill-opacity:1;fill-rule:evenodd;stroke-width:1.33134;stroke-linejoin:round;stroke-miterlimit:2;paint-order:stroke fill markers"
   id="rect7090-9-7"
   width="4.2336655"
   height="35.891529"
   x="-105.78429"
   y="-14.41996"
   rx="1.411224"
   ry="2.4609467e-06"
   transform="matrix(-0.6018526,-0.7986072,0.80111439,-0.59851126,0,0)" /><rect
   style="fill:#253a7b;fill-opacity:1;stroke-width:1.91587"
   id="rect7090"
   width="4.2787457"
   height="73.543633"
   x="-28.172836"
   y="84.83223"
   rx="1.4262511"
   ry="5.0426092e-06"
   transform="matrix(0.82435159,-0.56607813,0.59804384,0.80146339,0,0)" /><rect
   style="clip-rule:evenodd;fill:#253a7b;fill-opacity:1;fill-rule:evenodd;stroke-width:1.46314;stroke-linejoin:round;stroke-miterlimit:2"
   id="rect7090-9"
   width="4.2336669"
   height="43.349625"
   x="-115.40427"
   y="-18.346052"
   rx="1.4112246"
   ry="2.9723203e-06"
   transform="matrix(-0.60163617,-0.79877026,0.8005496,-0.5992665,0,0)" /><path
   style="fill:#ffffff;fill-opacity:0;stroke-width:0.645;paint-order:markers fill stroke"
   d="m 93.501514,101.75158 -0.729359,-0.76129 1.802083,-1.814187 c 1.685287,-1.69661 1.863121,-1.808369 2.743878,-1.724375 1.18411,0.112923 1.844528,-0.533852 1.88163,-1.842762 0.0203,-0.71634 -0.128181,-1.055742 -0.663232,-1.515973 -0.886403,-0.762452 -1.527367,-0.749867 -2.32284,0.04561 -0.516674,0.516674 -0.62065,0.8268 -0.544592,1.624339 0.08926,0.936016 0.0025,1.076649 -1.720185,2.787824 l -1.814191,1.802074 -0.733193,-0.702435 -0.733193,-0.702443 1.377819,-2.911479 c 1.811529,-3.82796 3.385189,-7.894736 4.181717,-10.806725 C 96.885852,82.824219 97.282933,82.25 98.288404,82.25 c 1.67282,0 5.567706,-2.064527 7.808186,-4.138815 l 1.47875,-1.369061 4.29127,4.887774 4.29128,4.887774 -1.77706,1.902858 c -1.30734,1.399881 -2.04313,2.471375 -2.78366,4.053664 -0.55363,1.182943 -1.08935,2.309812 -1.19047,2.504152 -0.1031,0.198122 -1.11142,0.545429 -2.29529,0.790593 -1.16127,0.240486 -2.73016,0.679446 -3.48641,0.975467 -1.94357,0.760774 -5.736033,2.812234 -7.906603,4.276924 -1.014729,0.68473 -1.989538,1.30044 -2.166243,1.36825 -0.176704,0.0678 -0.649492,-0.21929 -1.05064,-0.638 z"
   id="path65223" /><path
   style="fill:#ffffff;fill-opacity:0;stroke-width:0.645;paint-order:markers fill stroke"
   d="m 93.501514,101.75158 -0.729359,-0.76129 1.802083,-1.814187 c 1.685287,-1.69661 1.863121,-1.808369 2.743878,-1.724375 1.18411,0.112923 1.844528,-0.533852 1.88163,-1.842762 0.0203,-0.71634 -0.128181,-1.055742 -0.663232,-1.515973 -0.886403,-0.762452 -1.527367,-0.749867 -2.32284,0.04561 -0.516674,0.516674 -0.62065,0.8268 -0.544592,1.624339 0.08926,0.936016 0.0025,1.076649 -1.720185,2.787824 l -1.814191,1.802074 -0.733193,-0.702435 -0.733193,-0.702443 1.377819,-2.911479 c 1.811529,-3.82796 3.385189,-7.894736 4.181717,-10.806725 C 96.885852,82.824219 97.282933,82.25 98.288404,82.25 c 1.67282,0 5.567706,-2.064527 7.808186,-4.138815 l 1.47875,-1.369061 4.29127,4.887774 4.29128,4.887774 -1.77706,1.902858 c -1.30734,1.399881 -2.04313,2.471375 -2.78366,4.053664 -0.55363,1.182943 -1.08935,2.309812 -1.19047,2.504152 -0.1031,0.198122 -1.11142,0.545429 -2.29529,0.790593 -1.16127,0.240486 -2.73016,0.679446 -3.48641,0.975467 -1.94357,0.760774 -5.736033,2.812234 -7.906603,4.276924 -1.014729,0.68473 -1.989538,1.30044 -2.166243,1.36825 -0.176704,0.0678 -0.649492,-0.21929 -1.05064,-0.638 z"
   id="path65262" /><path
   style="fill:#ffffff;fill-opacity:0;stroke-width:0.645;paint-order:markers fill stroke"
   d="m 93.501514,101.75158 -0.729359,-0.76129 1.802083,-1.814187 c 1.685287,-1.69661 1.863121,-1.808369 2.743878,-1.724375 1.18411,0.112923 1.844528,-0.533852 1.88163,-1.842762 0.0203,-0.71634 -0.128181,-1.055742 -0.663232,-1.515973 -0.886403,-0.762452 -1.527367,-0.749867 -2.32284,0.04561 -0.516674,0.516674 -0.62065,0.8268 -0.544592,1.624339 0.08926,0.936016 0.0025,1.076649 -1.720185,2.787824 l -1.814191,1.802074 -0.733193,-0.702435 -0.733193,-0.702443 1.377819,-2.911479 c 1.811529,-3.82796 3.385189,-7.894736 4.181717,-10.806725 C 96.885852,82.824219 97.282933,82.25 98.288404,82.25 c 1.67282,0 5.567706,-2.064527 7.808186,-4.138815 l 1.47875,-1.369061 4.29127,4.887774 4.29128,4.887774 -1.77706,1.902858 c -1.30734,1.399881 -2.04313,2.471375 -2.78366,4.053664 -0.55363,1.182943 -1.08935,2.309812 -1.19047,2.504152 -0.1031,0.198122 -1.11142,0.545429 -2.29529,0.790593 -1.16127,0.240486 -2.73016,0.679446 -3.48641,0.975467 -1.94357,0.760774 -5.736033,2.812234 -7.906603,4.276924 -1.014729,0.68473 -1.989538,1.30044 -2.166243,1.36825 -0.176704,0.0678 -0.649492,-0.21929 -1.05064,-0.638 z"
   id="path65301" /><path
   style="fill:#ffffff;fill-opacity:0;stroke-width:0.645;paint-order:markers fill stroke"
   d="m 93.501514,101.75158 -0.729359,-0.76129 1.802083,-1.814187 c 1.685287,-1.69661 1.863121,-1.808369 2.743878,-1.724375 1.18411,0.112923 1.844528,-0.533852 1.88163,-1.842762 0.0203,-0.71634 -0.128181,-1.055742 -0.663232,-1.515973 -0.886403,-0.762452 -1.527367,-0.749867 -2.32284,0.04561 -0.516674,0.516674 -0.62065,0.8268 -0.544592,1.624339 0.08926,0.936016 0.0025,1.076649 -1.720185,2.787824 l -1.814191,1.802074 -0.733193,-0.702435 -0.733193,-0.702443 1.377819,-2.911479 c 1.811529,-3.82796 3.385189,-7.894736 4.181717,-10.806725 C 96.885852,82.824219 97.282933,82.25 98.288404,82.25 c 1.67282,0 5.567706,-2.064527 7.808186,-4.138815 l 1.47875,-1.369061 4.29127,4.887774 4.29128,4.887774 -1.77706,1.902858 c -1.30734,1.399881 -2.04313,2.471375 -2.78366,4.053664 -0.55363,1.182943 -1.08935,2.309812 -1.19047,2.504152 -0.1031,0.198122 -1.11142,0.545429 -2.29529,0.790593 -1.16127,0.240486 -2.73016,0.679446 -3.48641,0.975467 -1.94357,0.760774 -5.736033,2.812234 -7.906603,4.276924 -1.014729,0.68473 -1.989538,1.30044 -2.166243,1.36825 -0.176704,0.0678 -0.649492,-0.21929 -1.05064,-0.638 z"
   id="path65340" /><path
   style="fill:#ffffff;fill-opacity:0;stroke-width:0.645;paint-order:markers fill stroke"
   d="m 93.501514,101.75158 -0.729359,-0.76129 1.802083,-1.814187 c 1.685287,-1.69661 1.863121,-1.808369 2.743878,-1.724375 1.18411,0.112923 1.844528,-0.533852 1.88163,-1.842762 0.0203,-0.71634 -0.128181,-1.055742 -0.663232,-1.515973 -0.886403,-0.762452 -1.527367,-0.749867 -2.32284,0.04561 -0.516674,0.516674 -0.62065,0.8268 -0.544592,1.624339 0.08926,0.936016 0.0025,1.076649 -1.720185,2.787824 l -1.814191,1.802074 -0.733193,-0.702435 -0.733193,-0.702443 1.377819,-2.911479 c 1.811529,-3.82796 3.385189,-7.894736 4.181717,-10.806725 C 96.885852,82.824219 97.282933,82.25 98.288404,82.25 c 1.67282,0 5.567706,-2.064527 7.808186,-4.138815 l 1.47875,-1.369061 4.29127,4.887774 4.29128,4.887774 -1.77706,1.902858 c -1.30734,1.399881 -2.04313,2.471375 -2.78366,4.053664 -0.55363,1.182943 -1.08935,2.309812 -1.19047,2.504152 -0.1031,0.198122 -1.11142,0.545429 -2.29529,0.790593 -1.16127,0.240486 -2.73016,0.679446 -3.48641,0.975467 -1.94357,0.760774 -5.736033,2.812234 -7.906603,4.276924 -1.014729,0.68473 -1.989538,1.30044 -2.166243,1.36825 -0.176704,0.0678 -0.649492,-0.21929 -1.05064,-0.638 z"
   id="path65379" /><path
   style="fill:#ffffff;fill-opacity:0;stroke-width:0.645;paint-order:markers fill stroke"
   d="m 93.501514,101.75158 -0.729359,-0.76129 1.802083,-1.814187 c 1.685287,-1.69661 1.863121,-1.808369 2.743878,-1.724375 1.18411,0.112923 1.844528,-0.533852 1.88163,-1.842762 0.0203,-0.71634 -0.128181,-1.055742 -0.663232,-1.515973 -0.886403,-0.762452 -1.527367,-0.749867 -2.32284,0.04561 -0.516674,0.516674 -0.62065,0.8268 -0.544592,1.624339 0.08926,0.936016 0.0025,1.076649 -1.720185,2.787824 l -1.814191,1.802074 -0.733193,-0.702435 -0.733193,-0.702443 1.377819,-2.911479 c 1.811529,-3.82796 3.385189,-7.894736 4.181717,-10.806725 C 96.885852,82.824219 97.282933,82.25 98.288404,82.25 c 1.67282,0 5.567706,-2.064527 7.808186,-4.138815 l 1.47875,-1.369061 4.29127,4.887774 4.29128,4.887774 -1.77706,1.902858 c -1.30734,1.399881 -2.04313,2.471375 -2.78366,4.053664 -0.55363,1.182943 -1.08935,2.309812 -1.19047,2.504152 -0.1031,0.198122 -1.11142,0.545429 -2.29529,0.790593 -1.16127,0.240486 -2.73016,0.679446 -3.48641,0.975467 -1.94357,0.760774 -5.736033,2.812234 -7.906603,4.276924 -1.014729,0.68473 -1.989538,1.30044 -2.166243,1.36825 -0.176704,0.0678 -0.649492,-0.21929 -1.05064,-0.638 z"
   id="path65418" /><path
   style="fill:#ffffff;fill-opacity:0;stroke-width:0.645;paint-order:markers fill stroke"
   d="m 230.00151,98.75158 -0.72935,-0.761286 1.80208,-1.814191 c 1.68529,-1.69661 1.86312,-1.808369 2.74388,-1.724375 1.18411,0.112923 1.84452,-0.533852 1.88163,-1.842762 0.0203,-0.71634 -0.12819,-1.055742 -0.66324,-1.515973 -0.8864,-0.762452 -1.52736,-0.749867 -2.32284,0.04561 -0.51667,0.516674 -0.62065,0.8268 -0.54459,1.624339 0.0893,0.936016 0.002,1.076649 -1.72018,2.787824 l -1.81419,1.802083 -0.7332,-0.702444 -0.73319,-0.702443 1.37782,-2.911479 c 1.80388,-3.811797 3.38356,-7.889769 4.17486,-10.777515 0.35049,-1.279052 0.66915,-2.35493 0.70813,-2.390839 0.039,-0.03591 1.08888,-0.404956 2.33312,-0.820106 2.78891,-0.93054 4.9018,-2.147646 6.83434,-3.936834 l 1.47875,-1.369061 4.29127,4.887774 4.29128,4.887774 -1.77706,1.902858 c -1.30734,1.399881 -2.04313,2.471375 -2.78366,4.053664 -0.55363,1.182943 -1.09164,2.313442 -1.19556,2.512218 -0.10928,0.209014 -0.91902,0.487019 -1.92029,0.659288 -3.12608,0.537845 -7.67301,2.615781 -11.76292,5.375626 -1.01473,0.684732 -1.98954,1.300447 -2.16625,1.368254 -0.1767,0.06781 -0.64949,-0.219292 -1.05064,-0.638 z"
   id="path65591" /><path
   style="fill:#ffffff;fill-opacity:0;stroke-width:0.645;paint-order:markers fill stroke"
   d="m 230.00151,98.75158 -0.72935,-0.761286 1.80208,-1.814191 c 1.68529,-1.69661 1.86312,-1.808369 2.74388,-1.724375 1.18411,0.112923 1.84452,-0.533852 1.88163,-1.842762 0.0203,-0.71634 -0.12819,-1.055742 -0.66324,-1.515973 -0.8864,-0.762452 -1.52736,-0.749867 -2.32284,0.04561 -0.51667,0.516674 -0.62065,0.8268 -0.54459,1.624339 0.0893,0.936016 0.002,1.076649 -1.72018,2.787824 l -1.81419,1.802083 -0.7332,-0.702444 -0.73319,-0.702443 1.37782,-2.911479 c 1.80388,-3.811797 3.38356,-7.889769 4.17486,-10.777515 0.35049,-1.279052 0.66915,-2.35493 0.70813,-2.390839 0.039,-0.03591 1.08888,-0.404956 2.33312,-0.820106 2.78891,-0.93054 4.9018,-2.147646 6.83434,-3.936834 l 1.47875,-1.369061 4.29127,4.887774 4.29128,4.887774 -1.77706,1.902858 c -1.30734,1.399881 -2.04313,2.471375 -2.78366,4.053664 -0.55363,1.182943 -1.09164,2.313442 -1.19556,2.512218 -0.10928,0.209014 -0.91902,0.487019 -1.92029,0.659288 -3.12608,0.537845 -7.67301,2.615781 -11.76292,5.375626 -1.01473,0.684732 -1.98954,1.300447 -2.16625,1.368254 -0.1767,0.06781 -0.64949,-0.219292 -1.05064,-0.638 z"
   id="path65630" /><path
   style="fill:#ffffff;fill-opacity:0;stroke-width:0.645;paint-order:markers fill stroke"
   d="m 230.00151,98.75158 -0.72935,-0.761286 1.80208,-1.814191 c 1.68529,-1.69661 1.86312,-1.808369 2.74388,-1.724375 1.18411,0.112923 1.84452,-0.533852 1.88163,-1.842762 0.0203,-0.71634 -0.12819,-1.055742 -0.66324,-1.515973 -0.8864,-0.762452 -1.52736,-0.749867 -2.32284,0.04561 -0.51667,0.516674 -0.62065,0.8268 -0.54459,1.624339 0.0893,0.936016 0.002,1.076649 -1.72018,2.787824 l -1.81419,1.802083 -0.7332,-0.702444 -0.73319,-0.702443 1.37782,-2.911479 c 1.80388,-3.811797 3.38356,-7.889769 4.17486,-10.777515 0.35049,-1.279052 0.66915,-2.35493 0.70813,-2.390839 0.039,-0.03591 1.08888,-0.404956 2.33312,-0.820106 2.78891,-0.93054 4.9018,-2.147646 6.83434,-3.936834 l 1.47875,-1.369061 4.29127,4.887774 4.29128,4.887774 -1.77706,1.902858 c -1.30734,1.399881 -2.04313,2.471375 -2.78366,4.053664 -0.55363,1.182943 -1.09164,2.313442 -1.19556,2.512218 -0.10928,0.209014 -0.91902,0.487019 -1.92029,0.659288 -3.12608,0.537845 -7.67301,2.615781 -11.76292,5.375626 -1.01473,0.684732 -1.98954,1.300447 -2.16625,1.368254 -0.1767,0.06781 -0.64949,-0.219292 -1.05064,-0.638 z"
   id="path65706" /><path
   style="fill:#ffffff;fill-opacity:0;stroke-width:0.645;paint-order:markers fill stroke"
   d="m 230.00151,98.75158 -0.72935,-0.761286 1.80208,-1.814191 c 1.68529,-1.69661 1.86312,-1.808369 2.74388,-1.724375 1.18411,0.112923 1.84452,-0.533852 1.88163,-1.842762 0.0203,-0.71634 -0.12819,-1.055742 -0.66324,-1.515973 -0.8864,-0.762452 -1.52736,-0.749867 -2.32284,0.04561 -0.51667,0.516674 -0.62065,0.8268 -0.54459,1.624339 0.0893,0.936016 0.002,1.076649 -1.72018,2.787824 l -1.81419,1.802083 -0.7332,-0.702444 -0.73319,-0.702443 1.37782,-2.911479 c 1.80388,-3.811797 3.38356,-7.889769 4.17486,-10.777515 0.35049,-1.279052 0.66915,-2.35493 0.70813,-2.390839 0.039,-0.03591 1.08888,-0.404956 2.33312,-0.820106 2.78891,-0.93054 4.9018,-2.147646 6.83434,-3.936834 l 1.47875,-1.369061 4.29127,4.887774 4.29128,4.887774 -1.77706,1.902858 c -1.30734,1.399881 -2.04313,2.471375 -2.78366,4.053664 -0.55363,1.182943 -1.09164,2.313442 -1.19556,2.512218 -0.10928,0.209014 -0.91902,0.487019 -1.92029,0.659288 -3.12608,0.537845 -7.67301,2.615781 -11.76292,5.375626 -1.01473,0.684732 -1.98954,1.300447 -2.16625,1.368254 -0.1767,0.06781 -0.64949,-0.219292 -1.05064,-0.638 z"
   id="path65745" /><path
   style="fill:#ffffff;fill-opacity:0;stroke-width:0.645;paint-order:markers fill stroke"
   d="m 230.00151,98.75158 -0.72935,-0.761286 1.80208,-1.814191 c 1.68529,-1.69661 1.86312,-1.808369 2.74388,-1.724375 1.18411,0.112923 1.84452,-0.533852 1.88163,-1.842762 0.0203,-0.71634 -0.12819,-1.055742 -0.66324,-1.515973 -0.8864,-0.762452 -1.52736,-0.749867 -2.32284,0.04561 -0.51667,0.516674 -0.62065,0.8268 -0.54459,1.624339 0.0893,0.936016 0.002,1.076649 -1.72018,2.787824 l -1.81419,1.802083 -0.7332,-0.702444 -0.73319,-0.702443 1.37782,-2.911479 c 1.80388,-3.811797 3.38356,-7.889769 4.17486,-10.777515 0.35049,-1.279052 0.66915,-2.35493 0.70813,-2.390839 0.039,-0.03591 1.08888,-0.404956 2.33312,-0.820106 2.78891,-0.93054 4.9018,-2.147646 6.83434,-3.936834 l 1.47875,-1.369061 4.29127,4.887774 4.29128,4.887774 -1.77706,1.902858 c -1.30734,1.399881 -2.04313,2.471375 -2.78366,4.053664 -0.55363,1.182943 -1.09164,2.313442 -1.19556,2.512218 -0.10928,0.209014 -0.91902,0.487019 -1.92029,0.659288 -3.12608,0.537845 -7.67301,2.615781 -11.76292,5.375626 -1.01473,0.684732 -1.98954,1.300447 -2.16625,1.368254 -0.1767,0.06781 -0.64949,-0.219292 -1.05064,-0.638 z"
   id="path65784" /><path
   style="fill:#ffffff;fill-opacity:0;stroke-width:0.645;paint-order:markers fill stroke"
   d="m 230.00151,98.75158 -0.72935,-0.761286 1.80208,-1.814191 c 1.68529,-1.69661 1.86312,-1.808369 2.74388,-1.724375 1.18411,0.112923 1.84452,-0.533852 1.88163,-1.842762 0.0203,-0.71634 -0.12819,-1.055742 -0.66324,-1.515973 -0.8864,-0.762452 -1.52736,-0.749867 -2.32284,0.04561 -0.51667,0.516674 -0.62065,0.8268 -0.54459,1.624339 0.0893,0.936016 0.002,1.076649 -1.72018,2.787824 l -1.81419,1.802083 -0.7332,-0.702444 -0.73319,-0.702443 1.37782,-2.911479 c 1.80388,-3.811797 3.38356,-7.889769 4.17486,-10.777515 0.35049,-1.279052 0.66915,-2.35493 0.70813,-2.390839 0.039,-0.03591 1.08888,-0.404956 2.33312,-0.820106 2.78891,-0.93054 4.9018,-2.147646 6.83434,-3.936834 l 1.47875,-1.369061 4.29127,4.887774 4.29128,4.887774 -1.77706,1.902858 c -1.30734,1.399881 -2.04313,2.471375 -2.78366,4.053664 -0.55363,1.182943 -1.09164,2.313442 -1.19556,2.512218 -0.10928,0.209014 -0.91902,0.487019 -1.92029,0.659288 -3.12608,0.537845 -7.67301,2.615781 -11.76292,5.375626 -1.01473,0.684732 -1.98954,1.300447 -2.16625,1.368254 -0.1767,0.06781 -0.64949,-0.219292 -1.05064,-0.638 z"
   id="path65823" /><path
   style="fill:#ffffff;fill-opacity:0;stroke-width:0.645;paint-order:markers fill stroke"
   d="m 230.00151,98.75158 -0.72935,-0.761286 1.80208,-1.814191 c 1.68529,-1.69661 1.86312,-1.808369 2.74388,-1.724375 1.18411,0.112923 1.84452,-0.533852 1.88163,-1.842762 0.0203,-0.71634 -0.12819,-1.055742 -0.66324,-1.515973 -0.8864,-0.762452 -1.52736,-0.749867 -2.32284,0.04561 -0.51667,0.516674 -0.62065,0.8268 -0.54459,1.624339 0.0893,0.936016 0.002,1.076649 -1.72018,2.787824 l -1.81419,1.802083 -0.7332,-0.702444 -0.73319,-0.702443 1.37782,-2.911479 c 1.80388,-3.811797 3.38356,-7.889769 4.17486,-10.777515 0.35049,-1.279052 0.66915,-2.35493 0.70813,-2.390839 0.039,-0.03591 1.08888,-0.404956 2.33312,-0.820106 2.78891,-0.93054 4.9018,-2.147646 6.83434,-3.936834 l 1.47875,-1.369061 4.29127,4.887774 4.29128,4.887774 -1.77706,1.902858 c -1.30734,1.399881 -2.04313,2.471375 -2.78366,4.053664 -0.55363,1.182943 -1.09164,2.313442 -1.19556,2.512218 -0.10928,0.209014 -0.91902,0.487019 -1.92029,0.659288 -3.12608,0.537845 -7.67301,2.615781 -11.76292,5.375626 -1.01473,0.684732 -1.98954,1.300447 -2.16625,1.368254 -0.1767,0.06781 -0.64949,-0.219292 -1.05064,-0.638 z"
   id="path65862" /><path
   style="fill:#ffffff;fill-opacity:0;stroke-width:0.645;paint-order:markers fill stroke"
   d="m 230.00151,98.75158 -0.72935,-0.761286 1.80208,-1.814191 c 1.68529,-1.69661 1.86312,-1.808369 2.74388,-1.724375 1.18411,0.112923 1.84452,-0.533852 1.88163,-1.842762 0.0203,-0.71634 -0.12819,-1.055742 -0.66324,-1.515973 -0.8864,-0.762452 -1.52736,-0.749867 -2.32284,0.04561 -0.51667,0.516674 -0.62065,0.8268 -0.54459,1.624339 0.0893,0.936016 0.002,1.076649 -1.72018,2.787824 l -1.81419,1.802083 -0.7332,-0.702444 -0.73319,-0.702443 1.37782,-2.911479 c 1.80388,-3.811797 3.38356,-7.889769 4.17486,-10.777515 0.35049,-1.279052 0.66915,-2.35493 0.70813,-2.390839 0.039,-0.03591 1.08888,-0.404956 2.33312,-0.820106 2.78891,-0.93054 4.9018,-2.147646 6.83434,-3.936834 l 1.47875,-1.369061 4.29127,4.887774 4.29128,4.887774 -1.77706,1.902858 c -1.30734,1.399881 -2.04313,2.471375 -2.78366,4.053664 -0.55363,1.182943 -1.09164,2.313442 -1.19556,2.512218 -0.10928,0.209014 -0.91902,0.487019 -1.92029,0.659288 -3.12608,0.537845 -7.67301,2.615781 -11.76292,5.375626 -1.01473,0.684732 -1.98954,1.300447 -2.16625,1.368254 -0.1767,0.06781 -0.64949,-0.219292 -1.05064,-0.638 z"
   id="path65901" /><path
   style="fill:#ffffff;fill-opacity:0;stroke-width:0.645;paint-order:markers fill stroke"
   d="m 230.00151,98.75158 -0.72935,-0.761286 1.80208,-1.814191 c 1.68529,-1.69661 1.86312,-1.808369 2.74388,-1.724375 1.18411,0.112923 1.84452,-0.533852 1.88163,-1.842762 0.0203,-0.71634 -0.12819,-1.055742 -0.66324,-1.515973 -0.8864,-0.762452 -1.52736,-0.749867 -2.32284,0.04561 -0.51667,0.516674 -0.62065,0.8268 -0.54459,1.624339 0.0893,0.936016 0.002,1.076649 -1.72018,2.787824 l -1.81419,1.802083 -0.7332,-0.702444 -0.73319,-0.702443 1.37782,-2.911479 c 1.80388,-3.811797 3.38356,-7.889769 4.17486,-10.777515 0.35049,-1.279052 0.66915,-2.35493 0.70813,-2.390839 0.039,-0.03591 1.08888,-0.404956 2.33312,-0.820106 2.78891,-0.93054 4.9018,-2.147646 6.83434,-3.936834 l 1.47875,-1.369061 4.29127,4.887774 4.29128,4.887774 -1.77706,1.902858 c -1.30734,1.399881 -2.04313,2.471375 -2.78366,4.053664 -0.55363,1.182943 -1.09164,2.313442 -1.19556,2.512218 -0.10928,0.209014 -0.91902,0.487019 -1.92029,0.659288 -3.12608,0.537845 -7.67301,2.615781 -11.76292,5.375626 -1.01473,0.684732 -1.98954,1.300447 -2.16625,1.368254 -0.1767,0.06781 -0.64949,-0.219292 -1.05064,-0.638 z"
   id="path65940" /><path
   style="fill:#ffffff;fill-opacity:0;stroke-width:0.645;paint-order:markers fill stroke"
   d="m 230.00151,98.75158 -0.72935,-0.761286 1.80208,-1.814191 c 1.68529,-1.69661 1.86312,-1.808369 2.74388,-1.724375 1.18411,0.112923 1.84452,-0.533852 1.88163,-1.842762 0.0203,-0.71634 -0.12819,-1.055742 -0.66324,-1.515973 -0.8864,-0.762452 -1.52736,-0.749867 -2.32284,0.04561 -0.51667,0.516674 -0.62065,0.8268 -0.54459,1.624339 0.0893,0.936016 0.002,1.076649 -1.72018,2.787824 l -1.81419,1.802083 -0.7332,-0.702444 -0.73319,-0.702443 1.37782,-2.911479 c 1.80388,-3.811797 3.38356,-7.889769 4.17486,-10.777515 0.35049,-1.279052 0.66915,-2.35493 0.70813,-2.390839 0.039,-0.03591 1.08888,-0.404956 2.33312,-0.820106 2.78891,-0.93054 4.9018,-2.147646 6.83434,-3.936834 l 1.47875,-1.369061 4.29127,4.887774 4.29128,4.887774 -1.77706,1.902858 c -1.30734,1.399881 -2.04313,2.471375 -2.78366,4.053664 -0.55363,1.182943 -1.09164,2.313442 -1.19556,2.512218 -0.10928,0.209014 -0.91902,0.487019 -1.92029,0.659288 -3.12608,0.537845 -7.67301,2.615781 -11.76292,5.375626 -1.01473,0.684732 -1.98954,1.300447 -2.16625,1.368254 -0.1767,0.06781 -0.64949,-0.219292 -1.05064,-0.638 z"
   id="path65979" /><path
   style="fill:#000000;fill-opacity:0;stroke-width:0.645;paint-order:markers fill stroke"
   d="m 232.76418,93.694374 c -0.55979,-0.799202 -0.48015,-1.626131 0.22446,-2.330738 0.74439,-0.744393 1.22656,-0.773439 1.88636,-0.113636 1.10252,1.102522 0.45449,3 -1.02457,3 -0.43694,0 -0.84231,-0.207354 -1.08625,-0.555626 z"
   id="path66018" /></svg>
