<?xml version="1.0" encoding="UTF-8" standalone="no"?>
<!DOCTYPE svg PUBLIC "-//W3C//DTD SVG 1.1//EN" "http://www.w3.org/Graphics/SVG/1.1/DTD/svg11.dtd">
<svg width="100%" height="100%" viewBox="0 0 1480 380" version="1.1" xmlns="http://www.w3.org/2000/svg" xmlns:xlink="http://www.w3.org/1999/xlink" xml:space="preserve" xmlns:serif="http://www.serif.com/" style="fill-rule:evenodd;clip-rule:evenodd;stroke-linejoin:round;stroke-miterlimit:2;">
    <rect x="0" y="0" width="1480" height="380" style="fill:rgb(0,67,134);"/>
    <g transform="matrix(1.53295,0,0,1.53295,404.886,212.012)">
        <path d="M0,-28.718C-1.858,-28.718 -3.63,-28.353 -5.26,-27.709C-6.292,-34.619 -12.233,-39.925 -19.431,-39.925C-23.306,-39.925 -26.814,-38.384 -29.392,-35.885L-29.392,7.171C-26.812,9.665 -23.304,11.207 -19.431,11.207C-12.226,11.207 -6.278,5.889 -5.256,-1.031C-3.627,-0.389 -1.857,-0.025 0,-0.025C7.924,-0.025 14.347,-6.447 14.347,-14.371C14.347,-22.294 7.924,-28.718 0,-28.718" style="fill:white;fill-rule:nonzero;"/>
    </g>
    <g transform="matrix(1.53295,0,0,1.53295,424.715,188.923)">
        <path d="M0,1.405C-0.365,8.233 -6.017,13.656 -12.936,13.656C-15.298,13.656 -17.506,13.013 -19.413,11.909C-19.413,11.913 -19.412,11.917 -19.412,11.921C-19.412,19.075 -25.212,24.875 -32.366,24.875C-35.646,24.875 -38.641,23.656 -40.923,21.647L-40.921,-20.243C-38.64,-22.252 -35.646,-23.47 -32.366,-23.47C-25.212,-23.47 -19.412,-17.67 -19.412,-10.516C-19.412,-10.512 -19.413,-10.508 -19.413,-10.504C-17.506,-11.609 -15.298,-12.252 -12.936,-12.252C-6.017,-12.252 -0.365,-6.828 0,0L-9.484,0C-10.176,0 -10.578,-0.062 -10.837,-0.509C-11.263,-1.245 -12.063,-1.735 -12.974,-1.72C-13.401,-1.713 -13.801,-1.596 -14.146,-1.397C-14.595,-1.138 -14.974,-1.285 -15.572,-1.632L-29.026,-9.4C-29.625,-9.745 -29.942,-9.999 -29.943,-10.516C-29.944,-11.353 -30.379,-12.166 -31.155,-12.614C-32.313,-13.283 -33.795,-12.886 -34.464,-11.727C-35.134,-10.569 -34.736,-9.087 -33.578,-8.418C-32.801,-7.97 -31.88,-8 -31.155,-8.418C-30.707,-8.676 -30.328,-8.528 -29.73,-8.182L-16.275,-0.414C-15.677,-0.069 -15.358,0.185 -15.358,0.702C-15.359,1.219 -15.677,1.473 -16.275,1.819L-29.73,9.587C-30.328,9.932 -30.707,10.081 -31.155,9.823C-31.88,9.405 -32.801,9.375 -33.578,9.823C-34.736,10.492 -35.134,11.973 -34.464,13.133C-33.795,14.291 -32.313,14.688 -31.155,14.019C-30.379,13.571 -29.944,12.758 -29.943,11.921C-29.942,11.404 -29.625,11.15 -29.026,10.804L-15.572,3.037C-14.974,2.691 -14.596,2.543 -14.147,2.801C-13.779,3.012 -13.352,3.133 -12.896,3.125C-12.014,3.111 -11.249,2.627 -10.837,1.914C-10.578,1.467 -10.176,1.405 -9.484,1.405L0,1.405Z" style="fill:rgb(0,67,134);fill-rule:nonzero;"/>
    </g>
    <g transform="matrix(0,-1.53295,-1.53295,0,375.101,163.586)">
        <path d="M-6.012,-6.011C-2.692,-6.011 0,-3.319 0,0.001C0,3.321 -2.692,6.012 -6.012,6.012C-9.332,6.012 -12.023,3.321 -12.023,0.001C-12.023,-3.319 -9.332,-6.011 -6.012,-6.011" style="fill:rgb(253,208,0);fill-rule:nonzero;"/>
    </g>
    <g transform="matrix(0,-1.53295,-1.53295,0,375.1,197.981)">
        <path d="M-6.012,-6.012C-2.693,-6.012 0,-3.32 0,0C0,3.321 -2.693,6.012 -6.012,6.012C-9.332,6.012 -12.023,3.321 -12.023,0C-12.023,-3.32 -9.332,-6.012 -6.012,-6.012" style="fill:rgb(253,208,0);fill-rule:nonzero;"/>
    </g>
    <g transform="matrix(0,-1.53295,-1.53295,0,404.887,180.785)">
        <path d="M-6.012,-6.011C-2.692,-6.011 0,-3.32 0,0.001C0,3.321 -2.692,6.012 -6.012,6.012C-9.331,6.012 -12.023,3.321 -12.023,0.001C-12.023,-3.32 -9.331,-6.011 -6.012,-6.011" style="fill:rgb(253,208,0);fill-rule:nonzero;"/>
    </g>
    <g transform="matrix(1.53295,0,0,1.53295,422.308,188.923)">
        <path d="M-7.914,1.405L1.57,1.405C1.583,1.173 1.589,0.938 1.589,0.703C1.589,0.467 1.583,0.232 1.57,-0L-7.914,-0C-8.605,-0 -9.008,-0.062 -9.267,-0.509C-9.692,-1.245 -10.493,-1.735 -11.403,-1.72C-11.831,-1.714 -12.23,-1.596 -12.576,-1.397C-13.024,-1.139 -13.403,-1.286 -14.002,-1.632L-27.456,-9.4C-28.055,-9.745 -28.373,-9.999 -28.373,-10.516C-28.374,-11.353 -28.809,-12.166 -29.585,-12.614C-30.743,-13.283 -32.226,-12.887 -32.895,-11.728C-33.563,-10.569 -33.166,-9.087 -32.008,-8.418C-31.231,-7.97 -30.31,-8 -29.585,-8.418C-29.137,-8.676 -28.758,-8.528 -28.159,-8.182L-14.705,-0.414C-14.106,-0.069 -13.788,0.185 -13.788,0.702C-13.789,1.219 -14.106,1.473 -14.705,1.819L-28.159,9.587C-28.758,9.932 -29.137,10.081 -29.585,9.823C-30.31,9.405 -31.231,9.375 -32.008,9.823C-33.166,10.492 -33.563,11.973 -32.895,13.133C-32.226,14.292 -30.743,14.688 -29.585,14.019C-28.809,13.571 -28.374,12.758 -28.373,11.921C-28.373,11.404 -28.055,11.15 -27.456,10.804L-14.002,3.037C-13.403,2.691 -13.025,2.543 -12.577,2.801C-12.209,3.013 -11.781,3.133 -11.326,3.125C-10.443,3.111 -9.679,2.627 -9.267,1.914C-9.008,1.467 -8.605,1.405 -7.914,1.405Z" style="fill:white;fill-rule:nonzero;"/>
    </g>
    <g transform="matrix(1.53295,0,0,1.53295,450.928,174.403)">
        <path d="M0,20.349C3.136,20.349 4.865,18.982 4.865,15.965C4.865,12.91 3.136,11.582 0,11.582L-3.66,11.582L-3.66,20.349L0,20.349ZM-0.282,7.722C2.372,7.722 4.061,6.635 4.061,3.862C4.061,1.046 2.412,0.001 -0.282,0.001L-3.66,0.001L-3.66,7.722L-0.282,7.722ZM-9.009,-1.367C-9.009,-3.136 -8.244,-3.9 -6.516,-3.9L0.12,-3.9C6.555,-3.9 9.489,-1.608 9.489,3.097C9.489,6.797 7.399,8.767 3.899,9.492L3.899,9.813C7.52,10.214 10.295,12.105 10.295,16.529C10.295,21.997 6.594,24.249 -0.121,24.249L-6.516,24.249C-8.244,24.249 -9.009,23.486 -9.009,21.716L-9.009,-1.367Z" style="fill:white;fill-rule:nonzero;"/>
    </g>
    <g transform="matrix(1.53295,0,0,1.53295,499.681,172.307)">
        <path d="M0,23.083C0,24.37 -0.522,25.134 -2.412,25.576C-3.498,25.858 -4.986,26.019 -6.394,26.019C-14.034,26.019 -19.102,21.313 -19.102,11.541C-19.102,1.77 -14.034,-2.936 -6.394,-2.936C-4.986,-2.936 -3.498,-2.774 -2.412,-2.493C-0.522,-2.051 0,-1.287 0,0L0,0.161C0,1.488 -0.804,2.453 -2.854,1.93C-3.94,1.649 -4.625,1.448 -5.951,1.448C-10.455,1.448 -13.391,4.263 -13.391,11.541C-13.391,18.82 -10.455,21.636 -5.951,21.636C-4.625,21.636 -3.94,21.435 -2.854,21.152C-0.804,20.63 0,21.595 0,22.922L0,23.083Z" style="fill:white;fill-rule:nonzero;"/>
    </g>
    <g transform="matrix(1.53295,0,0,1.53295,524.523,195.487)">
        <path d="M0,-0.001C0,-5.067 -1.971,-7.038 -4.826,-7.038C-7.641,-7.038 -9.651,-5.067 -9.651,-0.001C-9.651,5.066 -7.641,6.997 -4.826,6.997C-1.971,6.997 0,5.066 0,-0.001M-15.04,-0.001C-15.04,-7.359 -10.938,-10.898 -4.826,-10.898C1.287,-10.898 5.389,-7.359 5.389,-0.001C5.389,7.318 1.287,10.897 -4.826,10.897C-10.938,10.897 -15.04,7.318 -15.04,-0.001" style="fill:white;fill-rule:nonzero;"/>
    </g>
    <g transform="matrix(1.53295,0,0,1.53295,537.596,207.817)">
        <path d="M0,-16.247C0,-18.017 0.764,-18.78 2.533,-18.78L2.774,-18.78C4.303,-18.78 5.308,-17.976 5.308,-16.689L5.308,-16.569L5.629,-16.408C7.117,-17.976 9.168,-18.941 11.662,-18.941C15.603,-18.941 18.739,-16.569 18.739,-11.341L18.739,0.16C18.739,1.93 17.976,2.694 16.206,2.694L15.965,2.694C14.195,2.694 13.431,1.93 13.431,0.16L13.431,-10.898C13.431,-13.674 12.063,-14.759 9.973,-14.759C8.243,-14.759 6.515,-13.995 5.308,-12.588L5.308,0.16C5.308,1.93 4.544,2.694 2.774,2.694L2.533,2.694C0.764,2.694 0,1.93 0,0.16L0,-16.247Z" style="fill:white;fill-rule:nonzero;"/>
    </g>
    <g transform="matrix(1.53295,0,0,1.53295,572.553,207.817)">
        <path d="M0,-16.247C0,-18.017 0.765,-18.78 2.534,-18.78L2.774,-18.78C4.304,-18.78 5.309,-17.976 5.309,-16.689L5.309,-16.569L5.631,-16.408C7.118,-17.976 9.169,-18.941 11.662,-18.941C15.604,-18.941 18.74,-16.569 18.74,-11.341L18.74,0.16C18.74,1.93 17.976,2.694 16.207,2.694L15.965,2.694C14.195,2.694 13.432,1.93 13.432,0.16L13.432,-10.898C13.432,-13.674 12.064,-14.759 9.973,-14.759C8.244,-14.759 6.515,-13.995 5.309,-12.588L5.309,0.16C5.309,1.93 4.544,2.694 2.774,2.694L2.534,2.694C0.765,2.694 0,1.93 0,0.16L0,-16.247Z" style="fill:white;fill-rule:nonzero;"/>
    </g>
    <g transform="matrix(1.53295,0,0,1.53295,626.807,198.508)">
        <path d="M0,-3.942C-0.161,-7.601 -1.811,-9.29 -4.062,-9.29C-6.395,-9.29 -8.124,-7.52 -8.285,-3.942L0,-3.942ZM4.142,5.952C4.142,7.198 3.579,7.881 2.091,8.324C0.965,8.646 -0.925,8.927 -2.735,8.927C-9.651,8.927 -13.513,5.228 -13.513,-1.93C-13.513,-9.29 -9.411,-12.869 -4.062,-12.869C1.206,-12.869 5.066,-9.21 5.066,-2.855C5.066,-1.287 4.223,-0.603 2.573,-0.603L-8.285,-0.603C-8.043,3.257 -6.113,4.866 -2.293,4.866C-0.845,4.866 0.321,4.544 1.608,4.101C3.217,3.538 4.142,4.463 4.142,5.589L4.142,5.952Z" style="fill:white;fill-rule:nonzero;"/>
    </g>
    <g transform="matrix(1.53295,0,0,1.53295,662.096,183.095)">
        <path d="M0,16.167C0,17.654 -0.604,18.217 -2.091,18.62C-3.016,18.86 -4.021,18.981 -5.229,18.981C-11.541,18.981 -15.724,15.362 -15.724,8.083C-15.724,0.765 -11.541,-2.814 -5.229,-2.814C-4.021,-2.814 -3.016,-2.694 -2.091,-2.452C-0.604,-2.09 0,-1.487 0,-0L0,0.121C0,1.368 -0.885,2.292 -2.493,1.729C-3.298,1.488 -4.021,1.287 -4.986,1.287C-7.923,1.287 -10.255,3.057 -10.255,8.083C-10.255,13.11 -7.923,14.839 -4.986,14.839C-4.021,14.839 -3.298,14.679 -2.493,14.397C-0.885,13.874 0,14.799 0,16.006L0,16.167Z" style="fill:white;fill-rule:nonzero;"/>
    </g>
    <g transform="matrix(1.53295,0,0,1.53295,670.422,197.026)">
        <path d="M0,-7.72L-2.052,-7.72C-3.338,-7.72 -3.901,-8.283 -3.901,-9.57L-3.901,-9.651C-3.901,-10.978 -3.338,-11.5 -2.052,-11.5L0,-11.5L0,-15.241C0,-16.889 0.724,-17.613 2.372,-17.613L2.936,-17.613C4.584,-17.613 5.309,-16.889 5.309,-15.241L5.309,-11.5L8.646,-11.5C9.933,-11.5 10.495,-10.978 10.495,-9.651L10.495,-9.57C10.495,-8.283 9.933,-7.72 8.646,-7.72L5.309,-7.72L5.309,2.735C5.309,4.826 6.354,5.711 8.083,5.711C8.444,5.711 8.485,5.711 8.887,5.671C10.134,5.551 10.616,6.234 10.616,7.52L10.616,7.843C10.616,9.09 10.053,9.612 8.767,9.772C8.163,9.853 7.762,9.893 7.198,9.893C2.372,9.893 0,7.681 0,2.896L0,-7.72Z" style="fill:white;fill-rule:nonzero;"/>
    </g>
    <g transform="matrix(1.53295,0,0,1.53295,692.481,208.31)">
        <path d="M0,-25.698C0,-27.347 0.724,-28.07 2.373,-28.07L3.579,-28.07C5.228,-28.07 5.952,-27.347 5.952,-25.698L5.952,-25.054C5.952,-23.406 5.228,-22.682 3.579,-22.682L2.373,-22.682C0.724,-22.682 0,-23.406 0,-25.054L0,-25.698ZM0.321,-15.081L-0.684,-15.081C-2.011,-15.081 -2.533,-15.644 -2.533,-16.891L-2.533,-17.093C-2.533,-18.299 -2.011,-18.861 -0.684,-18.861L3.097,-18.861C4.866,-18.861 5.631,-18.097 5.631,-16.368L5.631,-0.162C5.631,1.608 4.866,2.372 3.097,2.372L2.855,2.372C1.086,2.372 0.321,1.608 0.321,-0.162L0.321,-15.081ZM0.321,-15.081L-0.684,-15.081C-2.011,-15.081 -2.533,-15.644 -2.533,-16.891L-2.533,-17.093C-2.533,-18.299 -2.011,-18.861 -0.684,-18.861L3.097,-18.861C4.866,-18.861 5.631,-18.097 5.631,-16.368L5.631,-0.162C5.631,1.608 4.866,2.372 3.097,2.372L2.855,2.372C1.086,2.372 0.321,1.608 0.321,-0.162L0.321,-15.081Z" style="fill:white;fill-rule:nonzero;"/>
    </g>
    <g transform="matrix(1.53295,0,0,1.53295,728.98,195.487)">
        <path d="M0,-0.001C0,-5.067 -1.97,-7.038 -4.826,-7.038C-7.641,-7.038 -9.651,-5.067 -9.651,-0.001C-9.651,5.066 -7.641,6.997 -4.826,6.997C-1.97,6.997 0,5.066 0,-0.001M-15.04,-0.001C-15.04,-7.359 -10.938,-10.898 -4.826,-10.898C1.287,-10.898 5.389,-7.359 5.389,-0.001C5.389,7.318 1.287,10.897 -4.826,10.897C-10.938,10.897 -15.04,7.318 -15.04,-0.001" style="fill:white;fill-rule:nonzero;"/>
    </g>
    <g transform="matrix(1.53295,0,0,1.53295,742.053,207.817)">
        <path d="M0,-16.247C0,-18.017 0.764,-18.78 2.533,-18.78L2.774,-18.78C4.303,-18.78 5.308,-17.976 5.308,-16.689L5.308,-16.569L5.629,-16.408C7.117,-17.976 9.168,-18.941 11.662,-18.941C15.603,-18.941 18.739,-16.569 18.739,-11.341L18.739,0.16C18.739,1.93 17.976,2.694 16.206,2.694L15.965,2.694C14.195,2.694 13.431,1.93 13.431,0.16L13.431,-10.898C13.431,-13.674 12.063,-14.759 9.973,-14.759C8.243,-14.759 6.515,-13.995 5.308,-12.588L5.308,0.16C5.308,1.93 4.544,2.694 2.774,2.694L2.533,2.694C0.764,2.694 0,1.93 0,0.16L0,-16.247Z" style="fill:white;fill-rule:nonzero;"/>
    </g>
    <g transform="matrix(1.53295,0,0,1.53295,1113.47,173.717)">
        <path d="M0,3.027C0,3.417 -0.318,3.735 -0.708,3.735L-1.514,3.735C-1.902,3.735 -2.222,3.417 -2.222,3.027L-2.222,-0C-2.222,-0.39 -1.902,-0.708 -1.514,-0.708L-0.708,-0.708C-0.318,-0.708 0,-0.39 0,-0L0,3.027Z" style="fill:white;fill-rule:nonzero;"/>
    </g>
    <g transform="matrix(1.53295,0,0,1.53295,1118.52,173.717)">
        <path d="M0,3.027C0,3.417 -0.318,3.735 -0.707,3.735L-1.514,3.735C-1.902,3.735 -2.221,3.417 -2.221,3.027L-2.221,-0C-2.221,-0.39 -1.902,-0.708 -1.514,-0.708L-0.707,-0.708C-0.318,-0.708 0,-0.39 0,-0L0,3.027Z" style="fill:white;fill-rule:nonzero;"/>
    </g>
    <g transform="matrix(1.53295,0,0,1.53295,1001.79,195.573)">
        <path d="M0,-4.313L-13.273,-5.889C-13.305,-5.893 -13.333,-5.883 -13.365,-5.885L-13.365,-14.028C-13.365,-14.575 -13.813,-15.023 -14.36,-15.023L-16.426,-15.023C-16.974,-15.023 -17.422,-14.575 -17.422,-14.028L-17.422,9.715C-17.422,10.262 -16.974,10.71 -16.426,10.71L-14.36,10.71C-13.813,10.71 -13.365,10.262 -13.365,9.715L-13.365,-1.784L-0.001,-0.217C0.543,-0.154 0.988,-0.549 0.988,-1.097L0.988,-3.2C0.988,-3.748 0.544,-4.249 0,-4.313" style="fill:white;fill-rule:nonzero;"/>
    </g>
    <g transform="matrix(1.53295,0,0,1.53295,1118.66,195.573)">
        <path d="M0,-4.313L-13.272,-5.889C-13.305,-5.893 -13.333,-5.883 -13.365,-5.885L-13.365,-14.028C-13.365,-14.575 -13.813,-15.023 -14.36,-15.023L-16.426,-15.023C-16.974,-15.023 -17.422,-14.575 -17.422,-14.028L-17.422,9.715C-17.422,10.262 -16.974,10.71 -16.426,10.71L-14.36,10.71C-13.813,10.71 -13.365,10.262 -13.365,9.715L-13.365,-1.784L0,-0.217C0.544,-0.154 0.988,-0.549 0.988,-1.097L0.988,-3.2C0.988,-3.748 0.544,-4.249 0,-4.313" style="fill:white;fill-rule:nonzero;"/>
    </g>
    <g transform="matrix(1.53295,0,0,1.53295,821.482,172.029)">
        <path d="M0,3.027C0,3.417 -0.318,3.735 -0.708,3.735L-1.514,3.735C-1.903,3.735 -2.222,3.417 -2.222,3.027L-2.222,-0C-2.222,-0.39 -1.903,-0.708 -1.514,-0.708L-0.708,-0.708C-0.318,-0.708 0,-0.39 0,-0L0,3.027Z" style="fill:white;fill-rule:nonzero;"/>
    </g>
    <g transform="matrix(1.53295,0,0,1.53295,826.524,172.029)">
        <path d="M0,3.027C0,3.417 -0.318,3.735 -0.708,3.735L-1.514,3.735C-1.902,3.735 -2.222,3.417 -2.222,3.027L-2.222,-0C-2.222,-0.39 -1.902,-0.708 -1.514,-0.708L-0.708,-0.708C-0.318,-0.708 0,-0.39 0,-0L0,3.027Z" style="fill:white;fill-rule:nonzero;"/>
    </g>
    <g transform="matrix(1.53295,0,0,1.53295,868.816,172.029)">
        <path d="M0,3.027C0,3.417 -0.318,3.735 -0.708,3.735L-1.514,3.735C-1.903,3.735 -2.222,3.417 -2.222,3.027L-2.222,-0C-2.222,-0.39 -1.903,-0.708 -1.514,-0.708L-0.708,-0.708C-0.318,-0.708 0,-0.39 0,-0L0,3.027Z" style="fill:white;fill-rule:nonzero;"/>
    </g>
    <g transform="matrix(1.53295,0,0,1.53295,873.858,172.029)">
        <path d="M0,3.027C0,3.417 -0.318,3.735 -0.708,3.735L-1.514,3.735C-1.903,3.735 -2.222,3.417 -2.222,3.027L-2.222,-0C-2.222,-0.39 -1.903,-0.708 -1.514,-0.708L-0.708,-0.708C-0.318,-0.708 0,-0.39 0,-0L0,3.027Z" style="fill:white;fill-rule:nonzero;"/>
    </g>
    <g transform="matrix(1.53295,0,0,1.53295,815.928,178.854)">
        <path d="M0,-1.954C-0.007,-2.501 -0.46,-2.949 -1.007,-2.949L-18.251,-2.949C-18.799,-2.949 -19.246,-2.501 -19.246,-1.954L-19.246,0C-19.246,0.547 -18.799,0.995 -18.251,0.995L-0.961,0.995C-0.413,0.995 0.029,0.547 0.023,0L0,-1.954Z" style="fill:white;fill-rule:nonzero;"/>
    </g>
    <g transform="matrix(1.53295,0,0,1.53295,1049.93,189.357)">
        <path d="M0,2.149C0,2.697 0.448,3.145 0.995,3.145L22.537,3.145C23.085,3.145 23.533,2.697 23.533,2.149L23.533,0C23.533,-0.548 23.085,-0.996 22.537,-0.996L0.995,-0.996C0.448,-0.996 0,-0.548 0,0L0,2.149Z" style="fill:white;fill-rule:nonzero;"/>
    </g>
    <g transform="matrix(1.53295,0,0,1.53295,855.449,178.808)">
        <path d="M0,-1.924C0,-2.472 -0.447,-2.92 -0.995,-2.92L-13.101,-2.92C-13.647,-2.92 -14.096,-2.472 -14.096,-1.924L-14.096,0.001C-14.096,0.549 -13.647,0.996 -13.101,0.996L-0.995,0.996C-0.447,0.996 0,0.549 0,0.001L0,-1.924Z" style="fill:white;fill-rule:nonzero;"/>
    </g>
    <g transform="matrix(1.53295,0,0,1.53295,855.449,190.977)">
        <path d="M0,-1.926C0,-2.474 -0.447,-2.921 -0.995,-2.921L-13.101,-2.921C-13.647,-2.921 -14.096,-2.474 -14.096,-1.926L-14.096,0C-14.096,0.547 -13.647,0.995 -13.101,0.995L-0.995,0.995C-0.447,0.995 0,0.547 0,0L0,-1.926Z" style="fill:white;fill-rule:nonzero;"/>
    </g>
    <g transform="matrix(1.53295,0,0,1.53295,835.391,186.256)">
        <path d="M0,12.27C13.92,12.039 18.819,8.254 20.016,-3.194C20.068,-3.694 20.491,-4.084 21.006,-4.084L23.164,-4.084C23.74,-4.093 24.21,-3.611 24.153,-2.999C22.891,10.61 16.043,16.083 0.031,16.353C-0.534,16.363 -0.982,15.907 -0.982,15.357L-0.982,13.265C-0.986,12.717 -0.562,12.278 0.031,12.268" style="fill:white;fill-rule:nonzero;"/>
    </g>
    <g transform="matrix(1.53295,0,0,1.53295,946.492,179.137)">
        <path d="M0,16.859C5.574,16.518 7.811,13.338 8.454,5.129C8.494,4.616 8.923,4.213 9.446,4.213L11.478,4.213C12.027,4.213 12.474,4.658 12.474,5.208C12.474,5.226 12.473,5.246 12.472,5.264C11.869,16.107 8.39,20.393 0.123,21.082C-0.749,21.136 -1.788,21.164 -2.98,21.167C-3.527,21.168 -3.976,20.743 -3.976,20.196L-3.976,-3.313C-3.976,-3.861 -3.527,-4.309 -2.979,-4.309L-0.911,-4.309C-0.364,-4.309 0.08,-3.861 0.076,-3.313L0,16.859" style="fill:white;fill-rule:nonzero;"/>
    </g>
    <g transform="matrix(1.53295,0,0,1.53295,1043.35,198.918)">
        <path d="M0,-8.691L-2.183,-8.691C-2.643,-8.691 -3.029,-8.379 -3.144,-7.956C-5.248,-0.133 -9.344,3.26 -17.532,3.955L-17.533,3.955C-17.533,3.949 -17.532,3.94 -17.532,3.933L-17.532,-15.996C-17.532,-16.543 -17.979,-16.991 -18.527,-16.991L-20.649,-16.991C-21.196,-16.991 -21.646,-16.543 -21.646,-15.996L-21.659,7.329C-21.659,7.875 -21.212,8.3 -20.665,8.272L-20.33,8.255C-20.325,8.255 -20.318,8.252 -20.312,8.251C-19.719,8.233 -19.127,8.19 -18.592,8.148C-18.348,8.128 -18.114,8.11 -17.881,8.094C-6.862,7.141 -1.513,2.783 0.968,-7.461C0.986,-7.536 0.996,-7.615 0.996,-7.696C0.996,-8.246 0.55,-8.691 0,-8.691" style="fill:white;fill-rule:nonzero;"/>
    </g>
    <g transform="matrix(1.53295,0,0,1.53295,824.088,211.494)">
        <path d="M0,-16.221L-23.574,-16.221C-24.122,-16.221 -24.569,-15.774 -24.569,-15.226L-24.569,-13.244C-24.569,-12.698 -24.122,-12.249 -23.574,-12.249L-10.272,-12.249C-10.583,-6.976 -12.766,-4.513 -22.944,-4.086C-23.473,-4.063 -23.896,-3.627 -23.896,-3.092L-23.896,-0.996C-23.896,-0.447 -23.451,0 -22.901,0C-22.889,0 -22.878,-0.001 -22.865,-0.001C-11.154,-0.381 -6.506,-3.734 -6.045,-12.249L0,-12.249C0.548,-12.249 0.995,-12.698 0.995,-13.244L0.995,-15.226C0.995,-15.774 0.548,-16.221 0,-16.221" style="fill:white;fill-rule:nonzero;"/>
    </g>
    <g transform="matrix(1.53295,0,0,1.53295,934.605,211.54)">
        <path d="M0,-24.44L-2.013,-24.44C-2.56,-24.44 -3.008,-23.992 -3.008,-23.445L-3.008,-14.818C-3.008,-10.006 -4.135,-6.309 -7.164,-1.177C-7.307,-0.936 -7.309,-0.637 -7.17,-0.394C-7.031,-0.149 -6.772,0 -6.492,0L-4.053,0C-3.706,0 -3.399,-0.178 -3.222,-0.447C-0.298,-4.881 0.891,-8.496 0.986,-14.035L0.996,-14.035L0.996,-23.445C0.996,-23.992 0.548,-24.44 0,-24.44" style="fill:white;fill-rule:nonzero;"/>
    </g>
    <g transform="matrix(1.53295,0,0,1.53295,880.003,194.627)">
        <path d="M0,-2.322L0,-4.804C0,-5.238 0.243,-5.618 0.601,-5.811C2.901,-7.061 5.002,-9.646 6.089,-12.611C6.259,-13.075 6.705,-13.407 7.229,-13.407L24.067,-13.407C24.617,-13.407 25.063,-12.962 25.063,-12.412L25.064,-11.657C25.095,-6.735 25.145,1.501 20.438,5.956C16.957,9.253 11.697,10.782 2.882,11.085L2.847,11.085C2.297,11.085 1.851,10.64 1.851,10.09L1.851,8.081C1.851,7.537 2.286,7.094 2.828,7.085C11.238,6.794 17.004,5.536 19.366,0.492L6.311,0.492C5.763,0.492 5.315,0.044 5.315,-0.504L5.315,-2.457C5.315,-3.005 5.763,-3.452 6.311,-3.452L20.438,-3.452C20.664,-5.118 20.823,-7.407 20.857,-9.463L9.066,-9.463C7.27,-5.859 4.376,-2.937 1.228,-1.566C1.109,-1.514 0.983,-1.475 0.847,-1.475C0.379,-1.475 0,-1.854 0,-2.322" style="fill:white;fill-rule:nonzero;"/>
    </g>
</svg>
