<svg width="74" height="74" viewBox="0 0 74 74" fill="none" xmlns="http://www.w3.org/2000/svg">
<path d="M36.984 73.968C57.4097 73.968 73.968 57.4097 73.968 36.984C73.968 16.5583 57.4097 0 36.984 0C16.5583 0 0 16.5583 0 36.984C0 57.4097 16.5583 73.968 36.984 73.968Z" fill="white"/>
<path d="M14.625 25.5636H60.525V52.222C60.525 53.8789 59.1818 55.222 57.525 55.222H17.625C15.9681 55.222 14.625 53.8789 14.625 52.222V25.5636Z" fill="#004386"/>
<path d="M19.625 17.8835H55.525C57.458 17.8835 59.025 19.4505 59.025 21.3835V24.7697H16.125V21.3835C16.125 19.4505 17.692 17.8835 19.625 17.8835Z" stroke="#004386" stroke-width="3"/>
<rect x="18.1558" y="29.7013" width="7.06154" height="4.23692" fill="white"/>
<rect x="28.3145" y="29.3173" width="28.9895" height="4.83158" fill="white"/>
<rect x="18.1558" y="37.5682" width="7.06154" height="4.23692" fill="white"/>
<rect x="28.3145" y="37.3699" width="28.9895" height="4.83158" fill="white"/>
<rect x="18.1558" y="45.4349" width="7.06154" height="4.23692" fill="white"/>
<rect x="28.3145" y="45.4226" width="28.9895" height="4.02631" fill="white"/>
<path d="M51.3368 60.9634L52.8462 59.508L53.8548 61.8097L53.8587 61.8185L53.8627 61.8274C54.3322 62.8621 55.5481 63.3562 56.6205 62.9174L58.3557 62.2085L58.3636 62.2052L58.3714 62.2019C59.3865 61.7737 59.9988 60.5685 59.4953 59.4225C59.4951 59.4222 59.495 59.4218 59.4948 59.4214L58.445 57.024H59.8962C60.8182 57.024 61.5386 56.4564 61.8482 55.7487C62.1632 55.0289 62.0843 54.0727 61.3681 53.4032L51.3524 43.7451C50.6786 43.0651 49.752 43.0162 49.0796 43.278C48.3882 43.5473 47.7266 44.2388 47.7266 45.2353V59.4581C47.7266 61.3136 49.9885 62.2634 51.3367 60.9635L51.3368 60.9634Z" fill="#004386" stroke="white" stroke-width="3"/>
</svg>
