<svg width="74" height="74" viewBox="0 0 74 74" fill="none" xmlns="http://www.w3.org/2000/svg">
<path d="M36.984 73.968C57.4097 73.968 73.968 57.4097 73.968 36.984C73.968 16.5583 57.4097 0 36.984 0C16.5583 0 0 16.5583 0 36.984C0 57.4097 16.5583 73.968 36.984 73.968Z" fill="white"/>
<path d="M37.0047 16C33.7463 15.9985 30.5322 16.7472 27.6168 18.1866C24.7015 19.626 22.165 21.7168 20.208 24.2933C18.2511 26.8699 16.9274 29.8615 16.3418 33.0315C15.7562 36.2015 15.9248 39.4627 16.8341 42.5571C17.7434 45.6515 19.3686 48.4942 21.581 50.86C23.7934 53.2258 26.5322 55.0499 29.5807 56.1879C32.6293 57.3259 35.9038 57.7466 39.1452 57.4166C42.3865 57.0867 45.5057 56.0151 48.2559 54.2868L55.8412 58L52.5376 50.6962C55.2745 47.7229 57.0783 44.0268 57.7294 40.058C58.3805 36.0892 57.8508 32.0187 56.2049 28.3422C54.5589 24.6657 51.8677 21.5416 48.4589 19.3504C45.05 17.1591 41.0705 15.995 37.0047 16ZM37.0047 24.4953C43.111 24.4953 47.891 29.8381 47.891 36.1294C47.8969 38.5735 47.1627 40.9633 45.7831 42.9911L47.0455 44.1989C47.2545 44.3971 47.4218 44.6342 47.5378 44.8965C47.6539 45.1588 47.7164 45.4413 47.7218 45.7275C47.7272 46.0138 47.6754 46.2983 47.5693 46.5648C47.4632 46.8312 47.3049 47.0743 47.1036 47.28C46.9022 47.4858 46.6618 47.6502 46.396 47.7638C46.1302 47.8775 45.8444 47.938 45.5549 47.9421C45.2654 47.9462 44.9779 47.8937 44.709 47.7876C44.44 47.6815 44.1949 47.5239 43.9878 47.3239L42.6684 46.0613C40.9921 47.1696 39.0212 47.7614 37.0047 47.762C30.8985 47.762 26.1185 42.421 26.1185 36.1296C26.1185 29.8383 30.8985 24.4953 37.0047 24.4953ZM37.0047 28.8431C33.5149 28.8431 30.5149 31.9723 30.5149 36.1294C30.5149 40.2866 33.5147 43.4141 37.0047 43.4141C37.8219 43.4125 38.6296 43.2409 39.3753 42.9104L38.5466 42.1172C38.3341 41.9199 38.1633 41.6828 38.0443 41.4196C37.9252 41.1565 37.8603 40.8725 37.8533 40.5843C37.8463 40.2961 37.8973 40.0094 38.0034 39.7408C38.1094 39.4723 38.2685 39.2273 38.4712 39.0201C38.6739 38.8129 38.9163 38.6477 39.1842 38.534C39.4521 38.4203 39.7402 38.3605 40.0317 38.3579C40.3232 38.3554 40.6123 38.4102 40.8822 38.5192C41.1521 38.6282 41.3974 38.7892 41.6038 38.9928L42.5618 39.9091C43.1819 38.7444 43.5018 37.4465 43.4931 36.1302C43.4931 31.9733 40.4946 28.8439 37.0056 28.8439L37.0047 28.8431Z" fill="#004386"/>
</svg>
