<svg width="74" height="74" viewBox="0 0 74 74" fill="none" xmlns="http://www.w3.org/2000/svg">
<path d="M36.984 73.968C57.4097 73.968 73.968 57.4097 73.968 36.984C73.968 16.5583 57.4097 0 36.984 0C16.5583 0 0 16.5583 0 36.984C0 57.4097 16.5583 73.968 36.984 73.968Z" fill="white"/>
<path d="M48.6855 23.0876C46.8733 23.0876 45.1454 23.4464 43.551 24.0725C42.5466 17.3193 36.7449 12.1349 29.721 12.1349C25.9422 12.1349 22.5145 13.6403 20 16.0812V58.1687C22.5216 60.6097 25.9422 62.1151 29.721 62.1151C36.7519 62.1151 42.5536 56.9166 43.558 50.1564C45.1454 50.7825 46.8733 51.1413 48.6855 51.1413C56.4187 51.1413 62.684 44.8594 62.684 37.1215C62.684 29.3835 56.4187 23.0876 48.6855 23.0876Z" fill="white"/>
<path d="M61.3073 37.8038C60.9491 44.4796 55.4354 49.7766 48.6854 49.7766C46.3816 49.7766 44.2253 49.1505 42.364 48.0672C42.364 48.0742 42.364 48.0742 42.364 48.0813C42.364 55.0736 36.7027 60.7434 29.721 60.7434C26.5181 60.7434 23.5962 59.5545 21.3696 57.5919V16.644C23.5962 14.6814 26.5181 13.4926 29.721 13.4926C36.7027 13.4926 42.364 19.1624 42.364 26.1547C42.364 26.1617 42.364 26.1617 42.364 26.1687C44.2253 25.0925 46.3816 24.4594 48.6854 24.4594C55.4354 24.4594 60.9561 29.7634 61.3073 36.4321H59.7761H52.0499C51.3756 36.4321 50.9822 36.3758 50.7294 35.9326C50.315 35.2151 49.5353 34.7368 48.6433 34.7509C48.2289 34.7579 47.8355 34.8704 47.4984 35.0674C47.0629 35.3206 46.6907 35.1729 46.1077 34.8353L32.9801 27.245C32.3971 26.9074 32.088 26.6612 32.088 26.1547C32.088 25.3387 31.6666 24.5438 30.908 24.1006C29.7772 23.4464 28.3303 23.8333 27.6771 24.9658C27.0238 26.0984 27.4102 27.5475 28.541 28.2017C29.2996 28.6379 30.1986 28.6097 30.908 28.2017C31.3435 27.9485 31.7158 28.0962 32.2988 28.4339L45.4264 36.0241C46.0093 36.3618 46.3184 36.608 46.3184 37.1144C46.3184 37.6209 46.0093 37.8671 45.4264 38.2048L32.2917 45.8021C31.7088 46.1397 31.3365 46.2875 30.901 46.0342C30.1916 45.6262 29.2925 45.5981 28.534 46.0342C27.4031 46.6884 27.0168 48.1375 27.67 49.2701C28.3233 50.4026 29.7702 50.7895 30.901 50.1353C31.6596 49.6992 32.081 48.9043 32.081 48.0813C32.081 47.5748 32.3901 47.3286 32.9731 46.9909L46.1007 39.4007C46.6836 39.063 47.0559 38.9153 47.4914 39.1685C47.8496 39.3725 48.271 39.4921 48.7135 39.4851C49.5775 39.471 50.322 38.9997 50.7224 38.3033C50.9752 37.8671 51.3685 37.8038 52.0428 37.8038H59.7691H61.3073Z" fill="#004386"/>
<path d="M29.721 32.0286C32.9601 32.0286 35.5859 29.3988 35.5859 26.1548C35.5859 22.9108 32.9601 20.281 29.721 20.281C26.4819 20.281 23.8561 22.9108 23.8561 26.1548C23.8561 29.3988 26.4819 32.0286 29.721 32.0286Z" fill="#FDD000"/>
<path d="M29.721 53.955C32.9601 53.955 35.5859 51.3252 35.5859 48.0812C35.5859 44.8372 32.9601 42.2074 29.721 42.2074C26.4819 42.2074 23.8561 44.8372 23.8561 48.0812C23.8561 51.3252 26.4819 53.955 29.721 53.955Z" fill="#FDD000"/>
<path d="M48.6855 42.9953C51.9246 42.9953 54.5504 40.3655 54.5504 37.1215C54.5504 33.8775 51.9246 31.2477 48.6855 31.2477C45.4464 31.2477 42.8206 33.8775 42.8206 37.1215C42.8206 40.3655 45.4464 42.9953 48.6855 42.9953Z" fill="#FDD000"/>
<path d="M59.7762 37.8039H61.3074C61.3214 37.5788 61.3284 37.3466 61.3284 37.1145C61.3284 36.8823 61.3214 36.6572 61.3074 36.4251H59.7762H52.0499C51.3756 36.4251 50.9823 36.3688 50.7294 35.9256C50.315 35.2081 49.5354 34.7298 48.6434 34.7438C48.2289 34.7509 47.8356 34.8634 47.4985 35.0604C47.063 35.3136 46.6907 35.1659 46.1077 34.8283L32.9801 27.2451C32.3972 26.9074 32.0881 26.6612 32.0881 26.1547C32.0881 25.3387 31.6667 24.5438 30.9081 24.1006C29.7773 23.4464 28.3303 23.8333 27.6771 24.9659C27.0239 26.0984 27.4102 27.5475 28.541 28.2017C29.2996 28.6379 30.1987 28.6097 30.9081 28.2017C31.3436 27.9485 31.7158 28.0962 32.2988 28.4339L45.4264 36.0241C46.0094 36.3618 46.3185 36.608 46.3185 37.1145C46.3185 37.621 46.0094 37.8672 45.4264 38.2048L32.2918 45.8021C31.7088 46.1398 31.3365 46.2875 30.9011 46.0342C30.1917 45.6262 29.2926 45.5981 28.534 46.0342C27.4032 46.6885 27.0169 48.1376 27.6701 49.2701C28.3233 50.4027 29.7702 50.7896 30.9011 50.1354C31.6596 49.6992 32.0811 48.9043 32.0811 48.0813C32.0811 47.5748 32.3901 47.3286 32.9731 46.9909L46.1007 39.4007C46.6837 39.063 47.056 38.9153 47.4914 39.1686C47.8497 39.3726 48.2711 39.4921 48.7136 39.4851C49.5775 39.471 50.3221 38.9997 50.7224 38.3033C50.9753 37.8672 51.3686 37.8039 52.0429 37.8039H59.7762Z" fill="white"/>
</svg>
