<svg id="svg39" xmlns="http://www.w3.org/2000/svg" width="150" height="150" viewBox="0 0 150 150"><path id="path27" d="M14.21,150A14.21,14.21,0,0,1,0,135.79V14.21A14.21,14.21,0,0,1,14.21,0H135.79A14.21,14.21,0,0,1,150,14.21V135.79A14.21,14.21,0,0,1,135.79,150Z" style="fill:#004386"/><circle id="circle29" cx="74.95" cy="75.05" r="61.64" style="fill:#fff"/><rect x="77.92" y="70.8" width="1.44" height="2.22" rx="0.15" style="fill:#00a6e3"/><path d="M82.11,75.71c-2.32-.66-4.82-1.2-7.18-1.68V70.57a.16.16,0,0,0-.16-.15H72.93a.16.16,0,0,0-.16.15V81.72a.16.16,0,0,0,.16.15h1.84a.16.16,0,0,0,.16-.15V76.14c2.32.49,4.78,1.08,7.1,1.73h0a.17.17,0,0,0,.1,0,.2.2,0,0,0,.06-.12V75.86A.16.16,0,0,0,82.11,75.71Z" style="fill:#00a6e3"/><rect x="79.87" y="70.8" width="1.47" height="2.22" rx="0.15" style="fill:#00a6e3"/><path d="M86.45,77.22a.18.18,0,0,0,0-.13,36.54,36.54,0,0,0-1.06-4.6.15.15,0,0,0-.15-.11H83.62a.16.16,0,0,0-.13.06.22.22,0,0,0,0,.14,34.77,34.77,0,0,1,1,4.56.14.14,0,0,0,.15.13h1.7A.17.17,0,0,0,86.45,77.22Z" style="fill:#00a6e3"/><path d="M87.74,77a.15.15,0,0,0,.15.14h1.73a.16.16,0,0,0,.12-.06.13.13,0,0,0,0-.12,33.8,33.8,0,0,0-1-4.6.15.15,0,0,0-.14-.1H86.93a.14.14,0,0,0-.12.06.16.16,0,0,0,0,.13A34.59,34.59,0,0,1,87.74,77Z" style="fill:#00a6e3"/><path d="M93.31,72.33H91.5a.15.15,0,0,0-.15.15v.17c0,4.46-1.57,6.52-5.5,7.33a.16.16,0,0,0-.13.15v1.6a.16.16,0,0,0,.06.12.17.17,0,0,0,.1,0h0c5.08-.81,7.48-3.74,7.56-9.22v-.18A.15.15,0,0,0,93.31,72.33Z" style="fill:#00a6e3"/><path d="M105.49,75.71c-2.32-.66-4.82-1.2-7.18-1.68V70.57a.16.16,0,0,0-.16-.15H96.31a.16.16,0,0,0-.16.15V81.72a.16.16,0,0,0,.16.15h1.84a.16.16,0,0,0,.16-.15V76.14c2.32.49,4.77,1.08,7.1,1.73h0a.14.14,0,0,0,.09,0,.16.16,0,0,0,.06-.12V75.86A.15.15,0,0,0,105.49,75.71Z" style="fill:#00a6e3"/><path d="M116.87,71.22h-9.69a.16.16,0,0,0-.16.16v1.67a.16.16,0,0,0,.16.16h7.65v6.1h-7.67a.16.16,0,0,0-.15.16v1.66a.16.16,0,0,0,.15.16h9.71a.12.12,0,0,0,.1,0,.13.13,0,0,0,0-.11V71.38A.16.16,0,0,0,116.87,71.22Z" style="fill:#00a6e3"/><path d="M129.71,81.37a39.6,39.6,0,0,0-3-7,.16.16,0,0,0-.14-.08h-1.94a.17.17,0,0,0-.14.07.18.18,0,0,0,0,.16,40.8,40.8,0,0,1,2.39,5.12h-6.43a58.89,58.89,0,0,0,3.17-8.67.17.17,0,0,0,0-.14.14.14,0,0,0-.12-.06h-1.92a.16.16,0,0,0-.15.12,53,53,0,0,1-3.28,8.94.15.15,0,0,0,0,.07V81.4a.16.16,0,0,0,.15.16h11.33a.14.14,0,0,0,.12-.06A.14.14,0,0,0,129.71,81.37Z" style="fill:#00a6e3"/><path d="M35,76.13a7,7,0,0,0-2.55-2.42V72.08h1.79a.12.12,0,0,0,.13-.12V70.87a.12.12,0,0,0-.13-.12H32.43V68.29a6.11,6.11,0,0,0,2.76-2.23.13.13,0,0,0,0-.12.12.12,0,0,0-.1-.07H31a.15.15,0,0,0-.11.07c-.38.71-1.3,1.21-3,1.61a.13.13,0,0,0-.09.14l.16,1a.12.12,0,0,0,.12.1l.58,0c.61,0,1-.06,1.39-.11v2.11H28a.12.12,0,0,0-.12.12V72a.12.12,0,0,0,.12.12h1.82a37.46,37.46,0,0,1-2.05,7,.12.12,0,0,0,0,.15l.75.57.07,0h0a.1.1,0,0,0,.08,0A15.41,15.41,0,0,0,30,77.58v4.77a.12.12,0,0,0,.12.13H32.3a.13.13,0,0,0,.13-.13V75.6c.23.64.42,1.27.67,2.24a.12.12,0,0,0,.09.08h0a.12.12,0,0,0,.09,0L35,76.29A.13.13,0,0,0,35,76.13Z" style="fill:#00a6e3"/><path d="M44.9,77.77l-1.09-.12h0a.11.11,0,0,0-.08,0,.14.14,0,0,0,0,.08l-.14,1.65c0,.2-.06.23-.22.25h-.82c-.3,0-.34-.08-.34-.33V75.85h1.92a.12.12,0,0,0,.12-.12v-6a.12.12,0,0,0-.12-.13H41.86A17.42,17.42,0,0,0,44,66.73a.11.11,0,0,0,0-.12.15.15,0,0,0-.11-.07H41a.13.13,0,0,0-.12.11,8.86,8.86,0,0,1-.37,1.58c-.1.31-.21.66-.36,1.21l0,.13h-.31l-.07-.09a6.58,6.58,0,0,0-3.43-2.93H35.05a.11.11,0,0,0-.1.06.13.13,0,0,0,0,.12,8.33,8.33,0,0,0,.49.8,8.45,8.45,0,0,1,1.11,2H35.08a.12.12,0,0,0-.12.13v6a.12.12,0,0,0,.12.12h1.35c-.17,2.93-.92,4.36-3,5.7a.13.13,0,0,0,0,.17l.5.81a.11.11,0,0,0,.1.06h0a6.85,6.85,0,0,0,3.53-2.21A6.63,6.63,0,0,0,39,76v-.12h.65v4.66a1.6,1.6,0,0,0,1.78,1.59h1.75a1.4,1.4,0,0,0,1.62-1.5L45,77.9A.14.14,0,0,0,44.9,77.77Zm-3.34-6.86v3.61H37.49V70.91Z" style="fill:#00a6e3"/><path d="M58.31,80.81H55.15V79h2.79a.09.09,0,0,0,.09-.09V78.1a.09.09,0,0,0-.09-.09H55.15V76.69h2.59a.09.09,0,0,0,.09-.09V70.45a.09.09,0,0,0-.09-.09H50.93a.09.09,0,0,0-.09.09V76.6a.09.09,0,0,0,.09.09h2.48V78H50.93a.09.09,0,0,0-.09.09v.79a.09.09,0,0,0,.09.09h2.48v1.83h-3.9a.09.09,0,0,0-.09.09v.79a.09.09,0,0,0,.09.09h8.8a.09.09,0,0,0,.09-.09V80.9A.09.09,0,0,0,58.31,80.81ZM55.15,73V71.34h.9V73Zm0,2.74V74h.9v1.76ZM53.41,74v1.76h-.83V74Zm0-2.61V73h-.83V71.34Z" style="fill:#00a6e3"/><path d="M50.51,78.53,50.39,78a.1.1,0,0,0,0,0l-.05,0h0c-.67.17-.89.22-1.09.26V75.22h1a.09.09,0,0,0,.09-.09v-.79a.09.09,0,0,0-.09-.09h-1V71.44h1.12a.09.09,0,0,0,.09-.09v-.8a.09.09,0,0,0-.09-.09H46a.09.09,0,0,0-.09.09v.8a.09.09,0,0,0,.09.09h1.36v2.81h-1.2a.09.09,0,0,0-.09.09v.79a.09.09,0,0,0,.09.09h1.2v3.29l-1.19.18-.28,0s0,0-.06,0a.15.15,0,0,0,0,.07l.43,1.91s0,0,0,.06h.07a15,15,0,0,0,4.12-2.2A.08.08,0,0,0,50.51,78.53Z" style="fill:#00a6e3"/><path d="M70.67,74.37h-5v-3.9a.09.09,0,0,0-.09-.09h-2.1a.09.09,0,0,0-.09.09v3.9H58.56a.09.09,0,0,0-.09.09v.86a.09.09,0,0,0,.09.09h4.81v5.32H59.28a.09.09,0,0,0-.09.09v.85a.09.09,0,0,0,.09.09H70a.09.09,0,0,0,.09-.09v-.85a.09.09,0,0,0-.09-.09h-4.3V75.41h5a.09.09,0,0,0,.09-.09v-.86A.09.09,0,0,0,70.67,74.37Z" style="fill:#00a6e3"/><path d="M40,61.08l-1,.08-.09-1a3.26,3.26,0,0,0-2.36,1.32,4.23,4.23,0,0,0-.53,3.2,4.24,4.24,0,0,0,3.06-1.08A3.32,3.32,0,0,0,40,61.08Z" style="fill:#f5c2d8"/><path d="M32.71,57.8l-.7.7-.69-.7a3.31,3.31,0,0,0-1,2.53A4.23,4.23,0,0,0,32,63.13a4.23,4.23,0,0,0,1.65-2.8A3.3,3.3,0,0,0,32.71,57.8Z" style="fill:#f5c2d8"/><path d="M25,60l-.08,1-1-.08a3.26,3.26,0,0,0,.89,2.55,4.25,4.25,0,0,0,3.06,1.08,4.23,4.23,0,0,0-.53-3.2A3.29,3.29,0,0,0,25,60Z" style="fill:#f5c2d8"/><path d="M20.52,66.6l.56.81-.8.56a3.27,3.27,0,0,0,2.33,1.38,4.21,4.21,0,0,0,3-1.14,4.22,4.22,0,0,0-2.46-2.11A3.25,3.25,0,0,0,20.52,66.6Z" style="fill:#f5c2d8"/><path d="M21.33,74.56l1,.25-.25,1a3.28,3.28,0,0,0,2.67-.44,4.23,4.23,0,0,0,1.59-2.82,4.18,4.18,0,0,0-3.24,0A3.25,3.25,0,0,0,21.33,74.56Z" style="fill:#f5c2d8"/><path d="M127.71,72a1.55,1.55,0,1,1,1.56-1.55A1.56,1.56,0,0,1,127.71,72Zm0-2.93a1.38,1.38,0,1,0,1.37,1.38A1.37,1.37,0,0,0,127.72,69Zm.58,2.33-.46-.81h-.49v.81h-.24V69.43h.7a.56.56,0,0,1,.63.55.53.53,0,0,1-.35.54l.48.85Zm-.51-1.71h-.44v.68h.44c.22,0,.39-.09.39-.35A.35.35,0,0,0,127.79,69.66Z" style="fill:#595757"/></svg>